<svg id="svg" version="1.1" xmlns="http://www.w3.org/2000/svg" xmlns:xlink="http://www.w3.org/1999/xlink" width="400" height="300.1503759398496" viewBox="0, 0, 400,300.1503759398496"><g id="svgg"><path id="path0" d="M72.450 29.260 C 69.727 30.766,68.666 35.347,70.270 38.668 C 70.601 39.352,70.871 40.112,70.871 40.358 C 70.871 40.604,71.006 40.889,71.171 40.991 C 71.336 41.093,71.471 41.498,71.471 41.892 C 71.471 42.285,71.607 42.691,71.772 42.793 C 71.937 42.895,72.072 43.237,72.072 43.552 C 72.072 43.868,72.342 44.607,72.673 45.195 C 73.003 45.783,73.273 46.438,73.273 46.649 C 73.273 46.861,73.544 47.594,73.874 48.277 C 74.204 48.961,74.474 49.722,74.474 49.968 C 74.474 50.214,74.610 50.499,74.775 50.601 C 74.940 50.703,75.075 51.108,75.075 51.502 C 75.075 51.895,75.210 52.300,75.375 52.402 C 75.541 52.504,75.676 52.846,75.676 53.162 C 75.676 53.477,75.946 54.217,76.276 54.805 C 76.607 55.393,76.877 56.069,76.877 56.306 C 76.877 56.544,77.147 57.220,77.477 57.808 C 77.808 58.396,78.078 59.135,78.078 59.451 C 78.078 59.766,78.213 60.108,78.378 60.210 C 78.544 60.312,78.679 60.718,78.679 61.111 C 78.679 61.505,78.814 61.910,78.979 62.012 C 79.144 62.114,79.279 62.456,79.279 62.771 C 79.279 63.087,79.550 63.826,79.880 64.414 C 80.210 65.003,80.480 65.817,80.480 66.225 C 80.480 66.633,80.616 66.967,80.781 66.967 C 80.946 66.967,81.081 67.237,81.081 67.568 C 81.081 67.898,81.216 68.168,81.381 68.168 C 81.547 68.168,81.682 68.574,81.682 69.069 C 81.682 69.565,81.817 69.970,81.982 69.970 C 82.147 69.970,82.282 70.300,82.282 70.703 C 82.282 71.106,82.417 71.520,82.583 71.622 C 82.748 71.724,82.883 72.070,82.883 72.390 C 82.883 72.711,83.018 72.973,83.183 72.973 C 83.348 72.973,83.483 73.303,83.483 73.706 C 83.483 74.109,83.619 74.523,83.784 74.625 C 83.949 74.727,84.084 75.132,84.084 75.526 C 84.084 75.919,84.219 76.324,84.384 76.426 C 84.550 76.529,84.685 76.874,84.685 77.195 C 84.685 77.515,84.820 77.778,84.985 77.778 C 85.150 77.778,85.285 78.108,85.285 78.511 C 85.285 78.914,85.420 79.327,85.586 79.429 C 85.751 79.532,85.886 79.873,85.886 80.189 C 85.886 80.504,86.156 81.244,86.486 81.832 C 86.817 82.420,87.087 83.159,87.087 83.475 C 87.087 83.790,87.222 84.132,87.387 84.234 C 87.553 84.336,87.688 84.742,87.688 85.135 C 87.688 85.529,87.823 85.934,87.988 86.036 C 88.153 86.138,88.288 86.484,88.288 86.805 C 88.288 87.125,88.423 87.387,88.589 87.387 C 88.754 87.387,88.889 87.717,88.889 88.120 C 88.889 88.524,89.024 88.937,89.189 89.039 C 89.354 89.141,89.489 89.483,89.489 89.798 C 89.489 90.114,89.760 90.853,90.090 91.441 C 90.420 92.030,90.691 92.844,90.691 93.252 C 90.691 93.660,90.826 93.994,90.991 93.994 C 91.156 93.994,91.291 94.264,91.291 94.595 C 91.291 94.925,91.426 95.195,91.592 95.195 C 91.757 95.195,91.892 95.601,91.892 96.096 C 91.892 96.592,92.027 96.997,92.192 96.997 C 92.357 96.997,92.492 97.327,92.492 97.730 C 92.492 98.133,92.628 98.547,92.793 98.649 C 92.958 98.751,93.093 99.092,93.093 99.408 C 93.093 99.724,93.363 100.463,93.694 101.051 C 94.024 101.639,94.294 102.379,94.294 102.694 C 94.294 103.010,94.429 103.351,94.595 103.453 C 94.760 103.556,94.895 103.961,94.895 104.354 C 94.895 104.748,95.030 105.153,95.195 105.255 C 95.360 105.357,95.495 105.703,95.495 106.024 C 95.495 106.344,95.631 106.607,95.796 106.607 C 95.961 106.607,96.096 106.936,96.096 107.340 C 96.096 107.743,96.231 108.156,96.396 108.258 C 96.562 108.360,96.697 108.702,96.697 109.018 C 96.697 109.333,96.967 110.073,97.297 110.661 C 97.628 111.249,97.898 112.064,97.898 112.472 C 97.898 112.879,98.033 113.213,98.198 113.213 C 98.363 113.213,98.498 113.483,98.498 113.814 C 98.498 114.144,98.634 114.414,98.799 114.414 C 98.964 114.414,99.099 114.820,99.099 115.315 C 99.099 115.811,99.234 116.216,99.399 116.216 C 99.565 116.216,99.700 116.546,99.700 116.949 C 99.700 117.352,99.835 117.766,100.000 117.868 C 100.165 117.970,100.300 118.316,100.300 118.636 C 100.300 118.957,100.435 119.219,100.601 119.219 C 100.766 119.219,100.901 119.549,100.901 119.952 C 100.901 120.355,101.036 120.769,101.201 120.871 C 101.366 120.973,101.502 121.454,101.502 121.940 C 101.502 122.425,101.637 122.823,101.802 122.823 C 101.967 122.823,102.102 123.153,102.102 123.556 C 102.102 123.959,102.237 124.372,102.402 124.474 C 102.568 124.577,102.703 124.922,102.703 125.243 C 102.703 125.564,102.838 125.826,103.003 125.826 C 103.168 125.826,103.303 126.092,103.303 126.417 C 103.303 126.743,103.574 127.490,103.904 128.078 C 104.234 128.666,104.505 129.406,104.505 129.721 C 104.505 130.037,104.640 130.378,104.805 130.480 C 104.970 130.583,105.105 130.988,105.105 131.381 C 105.105 131.775,105.240 132.180,105.405 132.282 C 105.571 132.384,105.706 132.730,105.706 133.051 C 105.706 133.371,105.841 133.634,106.006 133.634 C 106.171 133.634,106.306 133.963,106.306 134.367 C 106.306 134.770,106.441 135.183,106.607 135.285 C 106.772 135.387,106.907 135.729,106.907 136.045 C 106.907 136.360,107.177 137.100,107.508 137.688 C 107.838 138.276,108.108 139.091,108.108 139.499 C 108.108 139.907,108.243 140.240,108.408 140.240 C 108.574 140.240,108.709 140.570,108.709 140.973 C 108.709 141.376,108.844 141.790,109.009 141.892 C 109.174 141.994,109.309 142.340,109.309 142.660 C 109.309 142.981,109.444 143.243,109.610 143.243 C 109.775 143.243,109.910 143.573,109.910 143.976 C 109.910 144.379,110.045 144.793,110.210 144.895 C 110.375 144.997,110.511 145.339,110.511 145.654 C 110.511 145.970,110.781 146.709,111.111 147.297 C 111.441 147.885,111.712 148.625,111.712 148.940 C 111.712 149.256,111.847 149.598,112.012 149.700 C 112.177 149.802,112.312 150.207,112.312 150.601 C 112.312 150.994,112.447 151.399,112.613 151.502 C 112.778 151.604,112.913 151.949,112.913 152.270 C 112.913 152.591,113.048 152.853,113.213 152.853 C 113.378 152.853,113.514 153.183,113.514 153.586 C 113.514 153.989,113.649 154.402,113.814 154.505 C 113.979 154.607,114.114 154.948,114.114 155.264 C 114.114 155.579,114.384 156.319,114.715 156.907 C 115.045 157.495,115.315 158.244,115.315 158.572 C 115.315 158.899,115.435 159.402,115.581 159.689 C 115.726 159.976,115.997 160.582,116.181 161.036 C 116.366 161.490,116.667 162.233,116.852 162.688 C 117.036 163.142,117.307 163.748,117.452 164.035 C 117.598 164.322,117.718 164.757,117.718 165.002 C 117.718 165.247,117.988 165.928,118.318 166.517 C 118.649 167.105,118.919 167.854,118.919 168.181 C 118.919 168.509,119.038 169.012,119.184 169.298 C 119.330 169.585,119.600 170.191,119.785 170.646 C 119.969 171.100,120.273 171.843,120.461 172.297 C 120.648 172.752,120.934 173.461,121.096 173.874 C 121.259 174.287,121.511 174.859,121.657 175.146 C 121.803 175.433,121.922 175.932,121.922 176.254 C 121.922 176.577,122.057 176.925,122.222 177.027 C 122.387 177.129,122.523 177.462,122.523 177.767 C 122.523 178.247,122.947 179.260,124.079 181.480 C 124.265 181.845,124.239 182.173,124.002 182.458 C 122.922 183.760,125.198 188.129,128.984 192.020 C 129.317 192.363,130.195 193.453,130.935 194.444 C 131.675 195.435,132.351 196.314,132.436 196.396 C 132.521 196.479,133.197 197.290,133.938 198.198 C 134.679 199.107,135.387 199.895,135.511 199.950 C 135.634 200.005,135.736 200.192,135.736 200.366 C 135.736 200.540,136.040 200.972,136.411 201.326 C 136.783 201.681,137.425 202.430,137.838 202.991 C 138.697 204.158,139.999 205.784,140.252 206.006 C 140.346 206.089,141.332 207.305,142.443 208.709 C 143.554 210.113,144.796 211.635,145.204 212.092 C 145.612 212.549,145.946 213.007,145.946 213.109 C 145.946 213.211,146.250 213.591,146.622 213.953 C 146.993 214.316,147.500 214.874,147.748 215.193 C 147.995 215.513,148.536 216.187,148.949 216.692 C 149.362 217.197,150.038 218.065,150.450 218.620 C 150.863 219.175,151.539 219.985,151.952 220.420 C 152.365 220.856,153.041 221.666,153.453 222.221 C 153.866 222.776,154.542 223.643,154.955 224.149 C 155.368 224.654,155.868 225.271,156.066 225.521 C 156.264 225.771,157.210 226.929,158.168 228.094 C 159.126 229.259,160.248 230.672,160.661 231.235 C 161.292 232.095,163.143 234.314,163.664 234.835 C 163.746 234.917,164.285 235.593,164.861 236.336 C 166.378 238.295,166.714 238.712,167.738 239.912 C 168.244 240.505,169.794 242.410,171.182 244.144 C 172.569 245.878,173.844 247.445,174.015 247.625 C 174.185 247.805,174.662 248.401,175.075 248.949 C 175.488 249.497,175.961 250.092,176.126 250.273 C 176.291 250.453,176.783 251.074,177.218 251.652 C 177.654 252.230,178.262 252.995,178.570 253.353 C 179.256 254.151,179.531 254.487,181.977 257.508 C 183.047 258.829,184.026 259.955,184.153 260.010 C 184.280 260.065,184.384 260.277,184.384 260.481 C 184.384 260.686,184.688 261.122,185.060 261.451 C 185.432 261.780,186.074 262.498,186.486 263.047 C 186.899 263.595,187.440 264.278,187.688 264.565 C 187.935 264.851,188.476 265.534,188.889 266.083 C 189.302 266.632,190.006 267.495,190.455 268.000 C 192.026 269.772,192.492 270.364,192.492 270.587 C 192.492 272.372,202.425 272.619,203.604 270.864 C 204.048 270.202,205.311 268.640,205.985 267.918 C 206.410 267.464,207.095 266.641,207.508 266.089 C 207.920 265.537,208.461 264.851,208.709 264.565 C 208.956 264.278,209.497 263.595,209.910 263.047 C 210.323 262.498,210.965 261.780,211.336 261.451 C 211.708 261.122,212.012 260.724,212.012 260.567 C 212.012 260.409,212.250 260.062,212.540 259.795 C 212.830 259.528,213.636 258.566,214.331 257.658 C 215.026 256.749,215.903 255.646,216.281 255.205 C 216.658 254.765,217.170 254.155,217.417 253.850 C 217.665 253.545,218.206 252.882,218.619 252.377 C 219.032 251.872,219.707 251.004,220.120 250.448 C 220.533 249.892,221.175 249.168,221.547 248.839 C 221.918 248.509,222.222 248.111,222.222 247.954 C 222.222 247.797,222.459 247.449,222.748 247.182 C 223.037 246.915,223.744 246.088,224.320 245.345 C 226.103 243.044,226.257 242.859,226.952 242.182 C 227.324 241.819,227.628 241.381,227.628 241.207 C 227.628 241.033,227.734 240.846,227.864 240.791 C 227.994 240.736,228.568 240.086,229.140 239.347 C 229.712 238.608,230.351 237.819,230.560 237.594 C 230.769 237.369,231.309 236.690,231.760 236.085 C 232.210 235.480,232.648 234.917,232.731 234.835 C 233.231 234.340,235.099 232.102,235.736 231.235 C 236.149 230.672,237.270 229.259,238.228 228.094 C 239.186 226.929,240.132 225.771,240.330 225.521 C 240.529 225.271,241.029 224.654,241.441 224.149 C 241.854 223.643,242.530 222.776,242.943 222.221 C 243.356 221.666,244.032 220.856,244.444 220.420 C 244.857 219.985,245.533 219.175,245.946 218.620 C 246.359 218.065,247.035 217.197,247.447 216.692 C 247.860 216.187,248.401 215.513,248.649 215.193 C 248.896 214.874,249.403 214.316,249.775 213.953 C 250.146 213.591,250.450 213.211,250.450 213.109 C 250.450 213.007,250.781 212.549,251.184 212.092 C 251.809 211.384,254.790 207.759,255.946 206.302 C 256.144 206.052,256.644 205.434,257.057 204.929 C 257.470 204.424,258.146 203.552,258.559 202.991 C 258.971 202.430,259.613 201.681,259.985 201.326 C 260.357 200.972,260.661 200.590,260.661 200.477 C 260.661 200.365,261.000 199.934,261.414 199.520 C 261.828 199.106,262.708 198.035,263.368 197.140 C 264.029 196.246,265.386 194.530,266.384 193.327 C 267.382 192.125,268.360 190.936,268.559 190.686 C 268.757 190.436,269.471 189.557,270.145 188.734 C 270.819 187.911,271.466 187.035,271.583 186.787 C 271.700 186.539,271.991 185.998,272.230 185.586 C 272.717 184.742,272.801 183.250,272.395 182.609 C 272.248 182.376,272.234 181.971,272.365 181.709 C 272.496 181.446,272.769 180.826,272.973 180.330 C 273.177 179.835,273.463 179.195,273.609 178.908 C 273.755 178.621,273.874 178.122,273.874 177.800 C 273.874 177.477,274.009 177.129,274.174 177.027 C 274.339 176.925,274.474 176.577,274.474 176.254 C 274.474 175.932,274.594 175.433,274.740 175.146 C 274.988 174.658,275.241 174.060,275.976 172.222 C 276.711 170.385,276.964 169.786,277.212 169.298 C 277.358 169.012,277.477 168.571,277.477 168.318 C 277.477 167.873,277.602 167.556,278.331 166.145 C 278.522 165.776,278.679 165.267,278.679 165.015 C 278.679 164.763,278.798 164.322,278.944 164.035 C 279.090 163.748,279.360 163.142,279.545 162.688 C 279.729 162.233,280.031 161.490,280.215 161.036 C 280.400 160.582,280.670 159.976,280.816 159.689 C 280.962 159.402,281.081 158.899,281.081 158.572 C 281.081 158.244,281.351 157.495,281.682 156.907 C 282.012 156.319,282.282 155.579,282.282 155.264 C 282.282 154.948,282.417 154.607,282.583 154.505 C 282.748 154.402,282.883 153.989,282.883 153.586 C 282.883 153.183,283.018 152.853,283.183 152.853 C 283.348 152.853,283.483 152.591,283.483 152.270 C 283.483 151.949,283.619 151.604,283.784 151.502 C 283.949 151.399,284.084 150.986,284.084 150.583 C 284.084 150.180,284.219 149.850,284.384 149.850 C 284.550 149.850,284.685 149.516,284.685 149.108 C 284.685 148.700,284.955 147.885,285.285 147.297 C 285.616 146.709,285.886 145.970,285.886 145.654 C 285.886 145.339,286.021 144.997,286.186 144.895 C 286.351 144.793,286.486 144.379,286.486 143.976 C 286.486 143.573,286.622 143.243,286.787 143.243 C 286.952 143.243,287.087 142.981,287.087 142.660 C 287.087 142.340,287.222 141.994,287.387 141.892 C 287.553 141.790,287.688 141.376,287.688 140.973 C 287.688 140.570,287.823 140.240,287.988 140.240 C 288.153 140.240,288.288 139.907,288.288 139.499 C 288.288 139.091,288.559 138.276,288.889 137.688 C 289.219 137.100,289.489 136.352,289.489 136.027 C 289.489 135.702,289.625 135.435,289.790 135.435 C 289.955 135.435,290.090 135.173,290.090 134.853 C 290.090 134.532,290.225 134.186,290.390 134.084 C 290.556 133.982,290.691 133.569,290.691 133.165 C 290.691 132.762,290.826 132.432,290.991 132.432 C 291.156 132.432,291.291 132.027,291.291 131.532 C 291.291 131.036,291.426 130.631,291.592 130.631 C 291.757 130.631,291.892 130.225,291.892 129.730 C 291.892 129.234,292.027 128.829,292.192 128.829 C 292.357 128.829,292.492 128.567,292.492 128.246 C 292.492 127.925,292.628 127.580,292.793 127.477 C 292.958 127.375,293.093 126.962,293.093 126.559 C 293.093 126.156,293.228 125.826,293.393 125.826 C 293.559 125.826,293.694 125.564,293.694 125.243 C 293.694 124.922,293.829 124.577,293.994 124.474 C 294.159 124.372,294.294 123.959,294.294 123.556 C 294.294 123.153,294.429 122.823,294.595 122.823 C 294.760 122.823,294.895 122.489,294.895 122.081 C 294.895 121.673,295.165 120.858,295.495 120.270 C 295.826 119.682,296.096 118.943,296.096 118.627 C 296.096 118.312,296.231 117.970,296.396 117.868 C 296.562 117.766,296.697 117.352,296.697 116.949 C 296.697 116.546,296.832 116.216,296.997 116.216 C 297.162 116.216,297.297 115.954,297.297 115.633 C 297.297 115.313,297.432 114.967,297.598 114.865 C 297.763 114.763,297.898 114.349,297.898 113.946 C 297.898 113.543,298.033 113.213,298.198 113.213 C 298.363 113.213,298.498 112.879,298.498 112.472 C 298.498 112.064,298.769 111.249,299.099 110.661 C 299.429 110.073,299.700 109.333,299.700 109.018 C 299.700 108.702,299.835 108.360,300.000 108.258 C 300.165 108.156,300.300 107.743,300.300 107.340 C 300.300 106.936,300.435 106.607,300.601 106.607 C 300.766 106.607,300.901 106.344,300.901 106.024 C 300.901 105.703,301.036 105.357,301.201 105.255 C 301.366 105.153,301.502 104.740,301.502 104.337 C 301.502 103.933,301.637 103.604,301.802 103.604 C 301.967 103.604,302.102 103.270,302.102 102.862 C 302.102 102.454,302.372 101.639,302.703 101.051 C 303.033 100.463,303.303 99.724,303.303 99.408 C 303.303 99.092,303.438 98.751,303.604 98.649 C 303.769 98.547,303.904 98.133,303.904 97.730 C 303.904 97.327,304.039 96.997,304.204 96.997 C 304.369 96.997,304.505 96.735,304.505 96.414 C 304.505 96.094,304.640 95.748,304.805 95.646 C 304.970 95.544,305.105 95.130,305.105 94.727 C 305.105 94.324,305.240 93.994,305.405 93.994 C 305.571 93.994,305.706 93.660,305.706 93.252 C 305.706 92.844,305.976 92.030,306.306 91.441 C 306.637 90.853,306.907 90.114,306.907 89.798 C 306.907 89.483,307.042 89.141,307.207 89.039 C 307.372 88.937,307.508 88.524,307.508 88.120 C 307.508 87.717,307.643 87.387,307.808 87.387 C 307.973 87.387,308.108 87.125,308.108 86.805 C 308.108 86.484,308.243 86.138,308.408 86.036 C 308.574 85.934,308.709 85.521,308.709 85.117 C 308.709 84.714,308.844 84.384,309.009 84.384 C 309.174 84.384,309.309 83.979,309.309 83.483 C 309.309 82.988,309.444 82.583,309.610 82.583 C 309.775 82.583,309.910 82.320,309.910 82.000 C 309.910 81.679,310.045 81.333,310.210 81.231 C 310.375 81.129,310.511 80.716,310.511 80.313 C 310.511 79.909,310.646 79.580,310.811 79.580 C 310.976 79.580,311.111 79.174,311.111 78.679 C 311.111 78.183,311.246 77.778,311.411 77.778 C 311.577 77.778,311.712 77.508,311.712 77.177 C 311.712 76.847,311.847 76.577,312.012 76.577 C 312.177 76.577,312.312 76.179,312.312 75.693 C 312.312 75.208,312.447 74.727,312.613 74.625 C 312.778 74.523,312.913 74.109,312.913 73.706 C 312.913 73.303,313.048 72.973,313.213 72.973 C 313.378 72.973,313.514 72.711,313.514 72.390 C 313.514 72.070,313.649 71.724,313.814 71.622 C 313.979 71.520,314.114 71.106,314.114 70.703 C 314.114 70.300,314.249 69.970,314.414 69.970 C 314.580 69.970,314.715 69.565,314.715 69.069 C 314.715 68.574,314.850 68.168,315.015 68.168 C 315.180 68.168,315.315 67.898,315.315 67.568 C 315.315 67.237,315.450 66.967,315.616 66.967 C 315.781 66.967,315.916 66.633,315.916 66.225 C 315.916 65.817,316.186 65.003,316.517 64.414 C 316.847 63.826,317.117 63.087,317.117 62.771 C 317.117 62.456,317.252 62.114,317.417 62.012 C 317.583 61.910,317.718 61.568,317.718 61.253 C 317.718 60.937,317.988 60.198,318.318 59.610 C 318.649 59.021,318.919 58.282,318.919 57.967 C 318.919 57.651,319.054 57.309,319.219 57.207 C 319.384 57.105,319.520 56.763,319.520 56.448 C 319.520 56.132,319.790 55.393,320.120 54.805 C 320.450 54.217,320.721 53.477,320.721 53.162 C 320.721 52.846,320.856 52.504,321.021 52.402 C 321.186 52.300,321.321 51.895,321.321 51.502 C 321.321 51.108,321.456 50.703,321.622 50.601 C 321.787 50.499,321.922 50.214,321.922 49.968 C 321.922 49.722,322.192 48.961,322.523 48.277 C 322.853 47.594,323.123 46.861,323.123 46.649 C 323.123 46.438,323.393 45.783,323.724 45.195 C 324.054 44.607,324.324 43.868,324.324 43.552 C 324.324 43.237,324.459 42.895,324.625 42.793 C 324.790 42.691,324.925 42.304,324.925 41.934 C 324.925 41.564,325.044 41.133,325.190 40.976 C 326.436 39.636,327.231 33.326,326.351 31.753 C 324.442 28.337,321.086 27.909,318.187 30.711 C 317.806 31.080,316.514 32.125,315.315 33.033 C 314.117 33.941,312.849 34.958,312.499 35.292 C 312.149 35.626,311.389 36.227,310.811 36.629 C 310.233 37.030,309.557 37.570,309.309 37.827 C 309.062 38.084,308.364 38.663,307.759 39.113 C 307.154 39.563,306.478 40.106,306.257 40.321 C 306.036 40.535,305.383 41.037,304.805 41.437 C 304.227 41.837,303.551 42.379,303.303 42.643 C 303.056 42.906,302.380 43.448,301.802 43.846 C 301.224 44.245,300.392 44.948,299.955 45.409 C 299.517 45.869,299.043 46.246,298.902 46.246 C 298.761 46.246,298.072 46.787,297.370 47.447 C 296.669 48.108,295.980 48.649,295.840 48.649 C 295.699 48.649,295.160 49.054,294.642 49.550 C 294.123 50.045,293.576 50.450,293.427 50.450 C 293.277 50.450,292.464 51.126,291.620 51.952 C 290.777 52.778,289.973 53.453,289.833 53.453 C 289.693 53.453,289.154 53.859,288.636 54.354 C 288.117 54.850,287.590 55.255,287.464 55.255 C 287.337 55.255,286.660 55.796,285.959 56.456 C 285.257 57.117,284.562 57.658,284.414 57.658 C 284.266 57.658,283.455 58.333,282.611 59.159 C 281.768 59.985,280.964 60.661,280.824 60.661 C 280.684 60.661,280.145 61.066,279.627 61.562 C 279.108 62.057,278.581 62.462,278.455 62.462 C 278.328 62.462,277.651 63.003,276.950 63.664 C 276.248 64.324,275.556 64.865,275.411 64.865 C 275.266 64.865,274.591 65.405,273.910 66.066 C 273.229 66.727,272.570 67.267,272.445 67.267 C 272.321 67.267,271.645 67.808,270.944 68.468 C 270.242 69.129,269.550 69.670,269.405 69.670 C 269.260 69.670,268.585 70.210,267.904 70.871 C 267.223 71.532,266.547 72.072,266.402 72.072 C 266.257 72.072,265.581 72.613,264.901 73.273 C 264.220 73.934,263.533 74.474,263.375 74.474 C 263.216 74.474,262.551 75.015,261.897 75.676 C 261.243 76.336,260.578 76.877,260.420 76.877 C 260.262 76.877,259.575 77.417,258.895 78.078 C 258.214 78.739,257.538 79.279,257.393 79.279 C 257.248 79.279,256.572 79.820,255.892 80.480 C 255.211 81.141,254.549 81.682,254.420 81.682 C 253.501 81.682,251.583 84.421,252.224 84.817 C 252.374 84.910,252.431 85.235,252.351 85.540 C 252.249 85.929,252.836 86.731,254.331 88.244 C 255.500 89.427,256.456 90.543,256.456 90.724 C 256.456 90.905,257.402 92.009,258.559 93.176 C 259.715 94.344,260.665 95.445,260.670 95.623 C 260.676 95.800,261.621 96.892,262.770 98.048 C 263.919 99.204,264.861 100.296,264.862 100.475 C 264.864 100.653,265.205 100.981,265.620 101.204 C 266.940 101.910,268.111 106.607,266.967 106.607 C 266.802 106.607,266.667 106.877,266.667 107.207 C 266.667 107.538,266.532 107.808,266.366 107.808 C 266.201 107.808,266.066 108.078,266.066 108.408 C 266.066 108.739,265.931 109.009,265.766 109.009 C 265.601 109.009,265.465 109.339,265.465 109.742 C 265.465 110.145,265.330 110.559,265.165 110.661 C 265.000 110.763,264.865 111.109,264.865 111.429 C 264.865 111.750,264.730 112.012,264.565 112.012 C 264.399 112.012,264.264 112.342,264.264 112.745 C 264.264 113.148,264.129 113.562,263.964 113.664 C 263.799 113.766,263.664 114.112,263.664 114.432 C 263.664 114.753,263.529 115.015,263.363 115.015 C 263.198 115.015,263.063 115.277,263.063 115.598 C 263.063 115.918,262.928 116.264,262.763 116.366 C 262.598 116.468,262.462 116.882,262.462 117.285 C 262.462 117.688,262.327 118.018,262.162 118.018 C 261.997 118.018,261.862 118.280,261.862 118.601 C 261.862 118.921,261.727 119.267,261.562 119.369 C 261.396 119.471,261.261 119.885,261.261 120.288 C 261.261 120.691,261.126 121.021,260.961 121.021 C 260.796 121.021,260.661 121.291,260.661 121.622 C 260.661 121.952,260.526 122.222,260.360 122.222 C 260.195 122.222,260.060 122.628,260.060 123.123 C 260.060 123.619,259.925 124.024,259.760 124.024 C 259.595 124.024,259.459 124.294,259.459 124.625 C 259.459 124.955,259.324 125.225,259.159 125.225 C 258.994 125.225,258.859 125.555,258.859 125.958 C 258.859 126.361,258.724 126.775,258.559 126.877 C 258.393 126.979,258.258 127.325,258.258 127.645 C 258.258 127.966,258.123 128.228,257.958 128.228 C 257.793 128.228,257.658 128.491,257.658 128.811 C 257.658 129.132,257.523 129.478,257.357 129.580 C 257.192 129.682,257.057 130.095,257.057 130.498 C 257.057 130.901,256.922 131.231,256.757 131.231 C 256.592 131.231,256.456 131.494,256.456 131.814 C 256.456 132.135,256.321 132.481,256.156 132.583 C 255.991 132.685,255.856 133.026,255.856 133.342 C 255.856 133.657,255.586 134.397,255.255 134.985 C 254.925 135.573,254.655 136.249,254.655 136.486 C 254.655 136.724,254.384 137.400,254.054 137.988 C 253.724 138.576,253.453 139.323,253.453 139.649 C 253.453 139.974,253.318 140.240,253.153 140.240 C 252.988 140.240,252.853 140.445,252.853 140.695 C 252.853 140.945,252.733 141.384,252.588 141.671 C 252.288 142.260,251.490 144.196,250.793 146.021 C 250.652 146.393,250.246 147.284,249.892 148.001 C 249.539 148.719,249.249 149.492,249.249 149.719 C 249.249 149.946,248.979 150.613,248.649 151.201 C 248.318 151.789,248.048 152.465,248.048 152.703 C 248.048 152.940,247.778 153.616,247.447 154.204 C 247.117 154.792,246.847 155.459,246.847 155.686 C 246.847 155.914,246.557 156.686,246.204 157.404 C 245.850 158.122,245.444 159.013,245.303 159.384 C 245.161 159.756,244.910 160.398,244.745 160.811 C 244.580 161.224,244.328 161.866,244.187 162.237 C 244.045 162.609,243.640 163.500,243.286 164.218 C 242.932 164.935,242.643 165.708,242.643 165.935 C 242.643 166.162,242.372 166.829,242.042 167.417 C 241.712 168.006,241.441 168.681,241.441 168.919 C 241.441 169.157,241.171 169.832,240.841 170.420 C 240.511 171.009,240.240 171.684,240.240 171.922 C 240.240 172.160,239.970 172.835,239.640 173.423 C 239.309 174.012,239.039 174.679,239.039 174.906 C 239.039 175.133,238.750 175.906,238.396 176.623 C 238.042 177.341,237.656 178.198,237.538 178.529 C 237.419 178.859,237.033 179.716,236.679 180.434 C 236.325 181.151,236.036 181.924,236.036 182.151 C 236.036 182.378,235.766 183.046,235.435 183.634 C 235.105 184.222,234.835 184.897,234.835 185.135 C 234.835 185.373,234.565 186.049,234.234 186.637 C 233.904 187.225,233.634 188.040,233.634 188.448 C 233.634 188.855,233.498 189.189,233.333 189.189 C 233.168 189.189,233.033 189.338,233.033 189.520 C 233.033 189.852,231.555 191.637,228.604 194.873 C 227.736 195.823,227.027 196.712,227.027 196.849 C 227.027 197.083,226.264 197.967,222.147 202.503 C 221.197 203.549,220.420 204.511,220.420 204.641 C 220.420 204.862,219.103 206.392,215.390 210.480 C 214.523 211.435,213.814 212.344,213.814 212.499 C 213.814 212.654,213.003 213.584,212.012 214.565 C 211.021 215.545,210.210 216.492,210.210 216.669 C 210.210 216.845,209.535 217.655,208.709 218.468 C 207.883 219.282,207.207 220.070,207.207 220.220 C 207.207 220.522,204.608 223.519,202.184 226.013 L 200.613 227.628 198.198 227.628 L 195.783 227.628 194.213 226.002 C 193.349 225.108,191.899 223.483,190.991 222.392 C 190.083 221.300,188.630 219.621,187.763 218.660 C 186.896 217.699,186.186 216.801,186.186 216.665 C 186.186 216.529,185.409 215.561,184.459 214.515 C 180.340 209.976,179.580 209.095,179.580 208.859 C 179.580 208.722,178.803 207.753,177.853 206.707 C 173.685 202.115,172.973 201.284,172.973 201.016 C 172.973 200.860,172.162 199.930,171.171 198.949 C 170.180 197.968,169.369 197.022,169.369 196.845 C 169.369 196.668,168.694 195.858,167.868 195.045 C 167.042 194.232,166.366 193.420,166.366 193.242 C 166.366 193.064,165.752 192.315,165.001 191.579 C 163.654 190.259,162.763 188.874,162.763 188.101 C 162.763 187.884,162.492 187.225,162.162 186.637 C 161.832 186.049,161.562 185.373,161.562 185.135 C 161.562 184.897,161.291 184.222,160.961 183.634 C 160.631 183.046,160.360 182.370,160.360 182.132 C 160.360 181.894,160.090 181.219,159.760 180.631 C 159.429 180.043,159.159 179.429,159.159 179.267 C 159.159 179.105,158.875 178.332,158.529 177.549 C 158.182 176.767,157.796 175.856,157.670 175.526 C 157.545 175.195,157.153 174.338,156.799 173.620 C 156.446 172.903,156.156 172.130,156.156 171.903 C 156.156 171.676,155.886 171.009,155.556 170.420 C 155.225 169.832,154.955 169.157,154.955 168.919 C 154.955 168.681,154.685 168.006,154.354 167.417 C 154.024 166.829,153.754 166.154,153.754 165.916 C 153.754 165.678,153.483 165.003,153.153 164.414 C 152.823 163.826,152.553 163.159,152.553 162.932 C 152.553 162.705,152.263 161.932,151.909 161.215 C 151.556 160.497,151.134 159.572,150.973 159.159 C 150.812 158.746,150.561 158.174,150.415 157.887 C 150.270 157.600,150.150 157.161,150.150 156.911 C 150.150 156.661,150.015 156.456,149.850 156.456 C 149.685 156.456,149.550 156.190,149.550 155.865 C 149.550 155.540,149.279 154.792,148.949 154.204 C 148.619 153.616,148.348 152.940,148.348 152.703 C 148.348 152.465,148.078 151.789,147.748 151.201 C 147.417 150.613,147.147 149.937,147.147 149.700 C 147.147 149.462,146.877 148.786,146.547 148.198 C 146.216 147.610,145.946 146.943,145.946 146.716 C 145.946 146.489,145.656 145.716,145.303 144.998 C 144.949 144.281,144.544 143.390,144.402 143.018 C 143.278 140.070,143.075 139.584,142.385 138.185 C 142.031 137.467,141.742 136.694,141.742 136.467 C 141.742 136.240,141.471 135.573,141.141 134.985 C 140.811 134.397,140.541 133.657,140.541 133.342 C 140.541 133.026,140.405 132.685,140.240 132.583 C 140.075 132.481,139.940 132.135,139.940 131.814 C 139.940 131.494,139.805 131.231,139.640 131.231 C 139.474 131.231,139.339 130.901,139.339 130.498 C 139.339 130.095,139.204 129.682,139.039 129.580 C 138.874 129.478,138.739 129.132,138.739 128.811 C 138.739 128.491,138.628 128.228,138.493 128.228 C 138.357 128.228,138.063 127.553,137.838 126.727 C 137.613 125.901,137.318 125.225,137.183 125.225 C 137.048 125.225,136.937 124.963,136.937 124.642 C 136.937 124.322,136.802 123.976,136.637 123.874 C 136.471 123.772,136.336 123.358,136.336 122.955 C 136.336 122.552,136.201 122.222,136.036 122.222 C 135.871 122.222,135.736 121.960,135.736 121.639 C 135.736 121.319,135.601 120.973,135.435 120.871 C 135.270 120.769,135.135 120.355,135.135 119.952 C 135.135 119.549,135.000 119.219,134.835 119.219 C 134.670 119.219,134.535 118.949,134.535 118.619 C 134.535 118.288,134.399 118.018,134.234 118.018 C 134.069 118.018,133.934 117.688,133.934 117.285 C 133.934 116.882,133.799 116.468,133.634 116.366 C 133.468 116.264,133.333 115.918,133.333 115.598 C 133.333 115.277,133.198 115.015,133.033 115.015 C 132.868 115.015,132.733 114.685,132.733 114.282 C 132.733 113.879,132.598 113.465,132.432 113.363 C 132.267 113.261,132.132 112.915,132.132 112.595 C 132.132 112.274,131.997 112.012,131.832 112.012 C 131.667 112.012,131.532 111.682,131.532 111.279 C 131.532 110.876,131.396 110.462,131.231 110.360 C 131.066 110.258,130.931 109.912,130.931 109.592 C 130.931 109.271,130.796 109.009,130.631 109.009 C 130.465 109.009,130.330 108.833,130.330 108.618 C 130.330 108.066,129.624 106.612,129.354 106.609 C 128.271 106.598,129.512 101.880,130.776 101.204 C 131.192 100.981,131.532 100.650,131.532 100.467 C 131.532 100.284,132.477 99.195,133.634 98.048 C 134.790 96.901,135.736 95.820,135.736 95.646 C 135.736 95.472,136.682 94.391,137.838 93.243 C 138.994 92.096,139.942 91.018,139.944 90.849 C 139.946 90.679,140.903 89.548,142.071 88.335 C 143.798 86.541,144.162 85.998,144.020 85.432 C 143.919 85.030,143.990 84.686,144.188 84.620 C 144.832 84.405,142.801 81.726,141.967 81.691 C 141.844 81.686,141.185 81.141,140.505 80.480 C 139.824 79.820,139.148 79.279,139.003 79.279 C 138.858 79.279,138.182 78.739,137.502 78.078 C 136.821 77.417,136.134 76.877,135.976 76.877 C 135.818 76.877,135.153 76.336,134.499 75.676 C 133.845 75.015,133.180 74.474,133.022 74.474 C 132.863 74.474,132.176 73.934,131.496 73.273 C 130.815 72.613,130.139 72.072,129.994 72.072 C 129.849 72.072,129.173 71.532,128.493 70.871 C 127.812 70.210,127.136 69.670,126.991 69.670 C 126.847 69.670,126.154 69.129,125.453 68.468 C 124.751 67.808,124.076 67.267,123.951 67.267 C 123.826 67.267,123.167 66.727,122.487 66.066 C 121.806 65.405,121.130 64.865,120.985 64.865 C 120.841 64.865,120.148 64.324,119.447 63.664 C 118.745 63.003,118.051 62.462,117.905 62.462 C 117.758 62.462,117.419 62.220,117.152 61.923 C 116.885 61.626,116.194 61.052,115.616 60.648 C 115.038 60.244,114.042 59.405,113.402 58.785 C 112.763 58.165,112.121 57.658,111.976 57.658 C 111.831 57.658,111.139 57.117,110.438 56.456 C 109.736 55.796,109.059 55.255,108.933 55.255 C 108.807 55.255,108.279 54.850,107.761 54.354 C 107.242 53.859,106.703 53.453,106.564 53.453 C 106.424 53.453,105.619 52.778,104.776 51.952 C 103.933 51.126,103.120 50.450,102.970 50.450 C 102.820 50.450,102.273 50.045,101.755 49.550 C 101.236 49.054,100.697 48.649,100.556 48.649 C 100.416 48.649,99.744 48.108,99.063 47.447 C 98.382 46.787,97.707 46.246,97.563 46.246 C 97.418 46.246,96.610 45.571,95.767 44.745 C 94.924 43.919,94.094 43.243,93.924 43.243 C 93.753 43.243,93.395 43.000,93.128 42.703 C 92.861 42.407,92.170 41.840,91.592 41.445 C 91.014 41.050,90.168 40.347,89.712 39.883 C 89.256 39.419,88.770 39.039,88.631 39.039 C 88.491 39.039,87.986 38.666,87.507 38.210 C 87.028 37.754,86.164 37.047,85.586 36.640 C 85.008 36.232,84.248 35.626,83.897 35.292 C 83.547 34.958,82.280 33.941,81.081 33.033 C 79.883 32.125,78.590 31.080,78.209 30.711 C 76.434 28.995,74.026 28.388,72.450 29.260 " stroke="none" fill="#fbfbfc" fill-rule="evenodd"></path><path id="path1" d="M196.096 27.327 C 196.096 27.492,195.900 27.628,195.661 27.628 C 195.422 27.628,194.847 28.131,194.385 28.747 C 193.922 29.363,192.767 30.596,191.817 31.488 C 190.867 32.380,190.090 33.289,190.090 33.508 C 190.090 33.728,189.268 34.690,188.264 35.647 C 187.260 36.604,186.245 37.754,186.010 38.202 C 185.775 38.649,184.705 39.881,183.632 40.937 C 182.559 41.994,181.682 43.028,181.682 43.235 C 181.682 43.442,180.921 44.305,179.991 45.154 C 179.060 46.002,177.958 47.237,177.541 47.898 C 177.124 48.559,176.122 49.700,175.316 50.435 C 174.509 51.169,173.558 52.251,173.201 52.837 C 172.845 53.424,172.330 54.107,172.058 54.354 C 171.785 54.602,171.079 55.231,170.489 55.752 C 169.898 56.272,169.182 57.151,168.898 57.704 C 168.614 58.256,167.777 59.249,167.038 59.910 C 166.299 60.571,165.351 61.649,164.931 62.307 C 164.512 62.965,163.312 64.301,162.265 65.277 C 161.217 66.252,160.360 67.230,160.360 67.449 C 160.360 67.857,158.970 69.367,157.604 70.441 C 157.183 70.772,156.597 71.511,156.302 72.083 C 156.008 72.655,155.097 73.731,154.279 74.474 C 153.461 75.218,152.474 76.366,152.086 77.027 C 151.698 77.688,150.807 78.701,150.107 79.279 C 148.449 80.648,147.748 81.411,147.748 81.849 C 147.748 82.043,147.005 82.964,146.096 83.894 C 145.188 84.825,144.444 85.795,144.444 86.051 C 144.444 86.306,143.498 87.448,142.342 88.589 C 141.186 89.729,140.240 90.806,140.240 90.982 C 140.240 91.158,139.362 92.181,138.288 93.254 C 137.215 94.328,136.336 95.336,136.336 95.495 C 136.336 95.655,135.458 96.663,134.384 97.737 C 133.311 98.810,132.432 99.803,132.432 99.943 C 132.432 100.084,131.757 100.881,130.931 101.716 C 129.511 103.150,128.635 106.306,129.656 106.306 C 129.781 106.306,130.062 106.745,130.280 107.282 C 130.498 107.819,130.936 108.778,131.254 109.413 C 131.572 110.048,131.832 110.753,131.832 110.980 C 131.832 111.207,132.102 111.874,132.432 112.462 C 132.763 113.051,133.033 113.726,133.033 113.964 C 133.033 114.202,133.303 114.877,133.634 115.465 C 133.964 116.054,134.234 116.721,134.234 116.948 C 134.234 117.175,134.524 117.948,134.877 118.665 C 135.231 119.383,135.637 120.274,135.778 120.646 C 135.920 121.017,136.189 121.693,136.377 122.147 C 136.564 122.601,136.815 123.243,136.934 123.574 C 137.054 123.904,137.441 124.761,137.795 125.479 C 138.149 126.196,138.438 126.969,138.438 127.196 C 138.438 127.424,138.709 128.091,139.039 128.679 C 139.369 129.267,139.640 129.942,139.640 130.180 C 139.640 130.418,139.910 131.094,140.240 131.682 C 140.571 132.270,140.841 132.945,140.841 133.183 C 140.841 133.421,141.111 134.097,141.441 134.685 C 141.772 135.273,142.042 135.940,142.042 136.167 C 142.042 136.394,142.332 137.167,142.685 137.885 C 143.039 138.602,143.444 139.493,143.586 139.865 C 143.728 140.236,143.979 140.878,144.144 141.291 C 144.309 141.704,144.560 142.346,144.702 142.718 C 144.844 143.089,145.249 143.980,145.603 144.698 C 145.957 145.416,146.246 146.189,146.246 146.416 C 146.246 146.643,146.517 147.310,146.847 147.898 C 147.177 148.486,147.447 149.162,147.447 149.399 C 147.447 149.637,147.718 150.313,148.048 150.901 C 148.378 151.489,148.649 152.103,148.649 152.265 C 148.649 152.427,148.932 153.200,149.279 153.982 C 149.626 154.765,150.012 155.676,150.137 156.006 C 150.263 156.336,150.655 157.194,151.008 157.911 C 151.362 158.629,151.652 159.402,151.652 159.629 C 151.652 159.856,151.922 160.523,152.252 161.111 C 152.583 161.699,152.853 162.375,152.853 162.613 C 152.853 162.850,153.123 163.526,153.453 164.114 C 153.784 164.702,154.054 165.378,154.054 165.616 C 154.054 165.853,154.324 166.529,154.655 167.117 C 154.985 167.705,155.255 168.381,155.255 168.619 C 155.255 168.856,155.526 169.532,155.856 170.120 C 156.186 170.708,156.456 171.375,156.456 171.602 C 156.456 171.829,156.746 172.602,157.100 173.320 C 157.453 174.038,157.840 174.895,157.958 175.225 C 158.076 175.556,158.462 176.413,158.816 177.130 C 159.170 177.848,159.459 178.621,159.459 178.848 C 159.459 179.075,159.730 179.742,160.060 180.330 C 160.390 180.918,160.661 181.594,160.661 181.832 C 160.661 182.070,160.931 182.745,161.261 183.333 C 161.592 183.921,161.862 184.597,161.862 184.835 C 161.862 185.073,162.132 185.748,162.462 186.336 C 162.793 186.924,163.063 187.739,163.063 188.147 C 163.063 188.555,163.198 188.889,163.363 188.889 C 163.529 188.889,163.664 189.100,163.664 189.359 C 163.664 189.617,164.339 190.487,165.165 191.291 C 165.991 192.096,166.667 192.880,166.667 193.033 C 166.667 193.187,167.410 194.086,168.318 195.032 C 169.227 195.977,169.970 196.871,169.970 197.017 C 169.970 197.164,170.713 198.027,171.622 198.936 C 172.530 199.844,173.273 200.717,173.273 200.874 C 173.273 201.032,173.868 201.745,174.594 202.457 C 175.321 203.170,176.426 204.429,177.049 205.255 C 177.673 206.081,178.565 207.115,179.031 207.553 C 179.498 207.991,179.880 208.479,179.880 208.639 C 179.880 208.798,180.623 209.702,181.532 210.647 C 182.440 211.593,183.183 212.486,183.183 212.633 C 183.183 212.780,183.926 213.643,184.835 214.552 C 185.743 215.460,186.486 216.321,186.486 216.464 C 186.486 216.608,187.297 217.577,188.288 218.619 C 189.279 219.660,190.090 220.626,190.090 220.765 C 190.090 220.904,190.766 221.708,191.592 222.551 C 192.417 223.395,193.093 224.211,193.093 224.365 C 193.093 224.716,194.865 226.451,195.736 226.952 C 196.579 227.437,199.817 227.437,200.661 226.952 C 201.519 226.458,203.303 224.718,203.303 224.375 C 203.303 224.226,204.047 223.331,204.955 222.386 C 205.863 221.440,206.607 220.547,206.607 220.400 C 206.607 220.253,207.350 219.390,208.258 218.482 C 209.167 217.573,209.910 216.693,209.910 216.525 C 209.910 216.357,210.721 215.397,211.712 214.390 C 212.703 213.384,213.514 212.428,213.514 212.267 C 213.514 212.105,214.189 211.315,215.015 210.511 C 215.841 209.706,216.517 208.925,216.517 208.774 C 216.517 208.623,217.327 207.648,218.318 206.607 C 219.309 205.565,220.120 204.590,220.120 204.439 C 220.120 204.288,220.796 203.507,221.622 202.703 C 222.447 201.898,223.123 201.117,223.123 200.966 C 223.123 200.816,223.934 199.840,224.925 198.799 C 225.916 197.757,226.727 196.782,226.727 196.631 C 226.727 196.481,227.402 195.699,228.228 194.895 C 229.054 194.091,229.730 193.302,229.730 193.143 C 229.730 192.984,230.405 192.164,231.231 191.320 C 232.057 190.477,232.733 189.585,232.733 189.338 C 232.733 189.091,232.868 188.889,233.033 188.889 C 233.198 188.889,233.333 188.483,233.333 187.988 C 233.333 187.492,233.468 187.087,233.634 187.087 C 233.799 187.087,233.934 186.817,233.934 186.486 C 233.934 186.156,234.069 185.886,234.234 185.886 C 234.399 185.886,234.535 185.480,234.535 184.985 C 234.535 184.489,234.670 184.084,234.835 184.084 C 235.000 184.084,235.135 183.814,235.135 183.483 C 235.135 183.153,235.270 182.883,235.435 182.883 C 235.601 182.883,235.736 182.477,235.736 181.982 C 235.736 181.486,235.871 181.081,236.036 181.081 C 236.201 181.081,236.336 180.811,236.336 180.480 C 236.336 180.150,236.471 179.880,236.637 179.880 C 236.802 179.880,236.937 179.550,236.937 179.147 C 236.937 178.744,237.072 178.330,237.237 178.228 C 237.402 178.126,237.538 177.780,237.538 177.460 C 237.538 177.139,237.673 176.877,237.838 176.877 C 238.003 176.877,238.138 176.615,238.138 176.294 C 238.138 175.973,238.273 175.628,238.438 175.526 C 238.604 175.423,238.739 175.010,238.739 174.607 C 238.739 174.204,238.874 173.874,239.039 173.874 C 239.204 173.874,239.339 173.612,239.339 173.291 C 239.339 172.970,239.474 172.625,239.640 172.523 C 239.805 172.420,239.940 172.007,239.940 171.604 C 239.940 171.201,240.075 170.871,240.240 170.871 C 240.405 170.871,240.541 170.601,240.541 170.270 C 240.541 169.940,240.676 169.670,240.841 169.670 C 241.006 169.670,241.141 169.336,241.141 168.928 C 241.141 168.520,241.411 167.705,241.742 167.117 C 242.072 166.529,242.342 165.862,242.342 165.635 C 242.342 165.408,242.632 164.635,242.986 163.917 C 243.588 162.696,243.839 162.112,244.485 160.435 C 244.816 159.575,245.252 158.484,245.686 157.432 C 245.873 156.978,246.124 156.336,246.244 156.006 C 246.363 155.676,246.751 154.818,247.105 154.101 C 247.458 153.383,247.748 152.610,247.748 152.383 C 247.748 152.156,248.018 151.489,248.348 150.901 C 248.679 150.313,248.949 149.646,248.949 149.419 C 248.949 149.192,249.238 148.419,249.592 147.701 C 250.194 146.479,250.446 145.895,251.091 144.219 C 251.422 143.359,251.859 142.268,252.292 141.216 C 252.480 140.762,252.731 140.120,252.850 139.790 C 252.970 139.459,253.357 138.602,253.711 137.885 C 254.065 137.167,254.354 136.394,254.354 136.167 C 254.354 135.940,254.625 135.273,254.955 134.685 C 255.285 134.097,255.556 133.421,255.556 133.183 C 255.556 132.945,255.826 132.270,256.156 131.682 C 256.486 131.094,256.757 130.427,256.757 130.199 C 256.757 129.972,257.046 129.199,257.400 128.482 C 257.754 127.764,258.140 126.907,258.258 126.577 C 258.377 126.246,258.763 125.389,259.117 124.671 C 259.470 123.954,259.760 123.181,259.760 122.954 C 259.760 122.727,260.030 122.060,260.360 121.471 C 260.691 120.883,260.961 120.208,260.961 119.970 C 260.961 119.732,261.231 119.057,261.562 118.468 C 261.892 117.880,262.162 117.205,262.162 116.967 C 262.162 116.729,262.432 116.054,262.763 115.465 C 263.093 114.877,263.363 114.210,263.363 113.983 C 263.363 113.756,263.653 112.983,264.007 112.266 C 264.360 111.548,264.748 110.691,264.868 110.360 C 264.988 110.030,265.509 108.896,266.027 107.841 C 266.967 105.921,267.353 103.003,266.667 103.003 C 266.502 103.003,266.366 102.808,266.366 102.570 C 266.366 102.331,265.961 101.897,265.465 101.604 C 264.970 101.311,264.565 100.908,264.565 100.709 C 264.565 100.510,263.619 99.389,262.462 98.219 C 261.306 97.049,260.360 95.968,260.360 95.817 C 260.360 95.665,259.414 94.584,258.258 93.414 C 257.102 92.244,256.156 91.154,256.156 90.991 C 256.156 90.828,255.210 89.738,254.054 88.568 C 252.898 87.398,251.952 86.254,251.952 86.027 C 251.952 85.799,251.210 84.830,250.302 83.873 C 249.395 82.915,248.652 81.986,248.651 81.806 C 248.650 81.627,247.703 80.577,246.547 79.471 C 245.390 78.366,244.444 77.285,244.444 77.069 C 244.444 76.853,243.498 75.772,242.342 74.667 C 241.186 73.561,240.240 72.470,240.240 72.242 C 240.240 72.013,239.614 71.239,238.850 70.523 C 236.300 68.133,236.036 67.843,236.036 67.431 C 236.036 67.205,235.410 66.435,234.645 65.718 C 232.096 63.329,231.832 63.038,231.832 62.626 C 231.832 62.401,231.206 61.630,230.441 60.913 C 227.892 58.524,227.628 58.234,227.628 57.821 C 227.628 57.458,226.288 56.039,224.444 54.448 C 224.097 54.149,223.600 53.491,223.340 52.985 C 223.080 52.480,222.127 51.385,221.223 50.551 C 220.319 49.717,219.353 48.597,219.076 48.062 C 218.799 47.527,218.085 46.663,217.489 46.142 C 215.682 44.565,215.015 43.835,215.015 43.437 C 215.015 43.229,214.002 42.078,212.763 40.880 C 211.524 39.682,210.511 38.525,210.511 38.308 C 210.511 38.092,209.715 37.173,208.743 36.266 C 207.770 35.360,206.744 34.160,206.463 33.600 C 206.182 33.041,205.244 31.974,204.380 31.231 C 203.515 30.488,202.548 29.407,202.230 28.829 C 201.883 28.199,201.381 27.739,200.976 27.682 C 200.604 27.629,200.300 27.460,200.300 27.306 C 200.300 27.153,199.354 27.027,198.198 27.027 C 196.997 27.027,196.096 27.156,196.096 27.327 M227.006 76.502 C 229.401 77.723,230.600 80.697,229.744 83.291 C 229.394 84.350,226.992 86.787,226.297 86.787 C 225.703 86.787,212.012 111.523,212.012 112.597 C 212.012 112.897,214.084 115.490,216.616 118.359 C 222.385 124.894,222.797 125.675,221.313 127.267 C 219.526 129.186,218.273 128.504,213.360 122.942 C 209.177 118.205,208.997 118.049,208.484 118.694 C 208.246 118.993,195.162 142.855,190.988 150.601 C 190.454 151.592,189.714 152.943,189.344 153.604 C 188.716 154.725,188.058 155.924,185.803 160.060 C 185.307 160.968,184.566 162.320,184.156 163.063 C 183.745 163.806,182.493 166.104,181.373 168.168 C 180.252 170.233,178.782 172.920,178.106 174.141 C 177.430 175.361,176.877 176.460,176.877 176.583 C 176.877 178.044,173.416 179.379,171.797 178.542 C 169.320 177.261,169.532 175.506,172.904 169.364 C 176.285 163.204,182.280 152.241,183.409 150.150 C 184.870 147.446,186.147 145.113,186.941 143.694 C 187.311 143.033,188.125 141.547,188.751 140.390 C 190.167 137.771,199.508 120.703,201.058 117.901 C 202.337 115.590,202.165 115.015,200.192 115.015 C 199.701 115.015,198.477 114.888,197.472 114.733 C 196.468 114.577,194.565 114.293,193.243 114.100 C 189.806 113.599,188.424 112.365,189.157 110.450 C 189.953 108.368,190.831 108.256,198.434 109.263 C 203.097 109.881,204.937 110.023,205.235 109.785 C 205.610 109.487,209.787 101.973,217.687 87.387 C 219.024 84.919,219.069 84.750,219.069 82.261 C 219.069 77.327,223.012 74.466,227.006 76.502 " stroke="none" fill="#049304" fill-rule="evenodd"></path><path id="path2" d="M195.294 26.135 C 194.122 26.685,192.793 27.979,192.793 28.570 C 192.793 28.713,192.252 29.319,191.592 29.916 C 190.931 30.512,190.390 31.188,190.390 31.416 C 190.390 31.645,190.195 31.832,189.957 31.832 C 189.719 31.832,189.284 32.237,188.991 32.733 C 188.699 33.228,188.353 33.634,188.224 33.634 C 188.094 33.634,187.988 33.790,187.988 33.980 C 187.988 34.171,187.447 34.789,186.787 35.355 C 186.126 35.920,185.586 36.547,185.586 36.747 C 185.586 36.948,185.045 37.609,184.384 38.216 C 183.724 38.824,183.183 39.391,183.183 39.478 C 183.183 39.564,182.809 40.007,182.352 40.463 C 181.894 40.918,181.331 41.663,181.100 42.117 C 180.869 42.571,180.623 42.885,180.553 42.815 C 180.428 42.690,178.378 44.677,178.378 44.923 C 178.378 44.993,177.973 45.475,177.477 45.993 C 176.982 46.512,176.577 47.066,176.577 47.226 C 176.577 47.385,175.732 48.353,174.700 49.376 C 172.722 51.337,171.772 52.433,171.772 52.751 C 171.772 52.857,171.062 53.632,170.195 54.474 C 168.129 56.482,166.369 58.610,166.367 59.102 C 166.367 59.318,166.242 59.418,166.091 59.325 C 165.939 59.231,165.500 59.566,165.115 60.068 C 164.730 60.571,163.773 61.671,162.988 62.512 C 162.203 63.353,161.562 64.234,161.562 64.471 C 161.562 64.707,161.441 64.826,161.295 64.735 C 161.148 64.645,160.677 65.030,160.248 65.593 C 159.819 66.155,159.254 66.829,158.992 67.091 C 158.730 67.353,158.598 67.568,158.698 67.568 C 158.798 67.568,158.402 67.987,157.818 68.500 C 157.234 69.012,156.757 69.542,156.757 69.678 C 156.757 69.813,156.195 70.475,155.508 71.148 C 154.821 71.821,154.362 72.372,154.488 72.372 C 154.614 72.372,154.095 72.960,153.335 73.679 C 152.574 74.397,151.952 75.140,151.952 75.330 C 151.952 75.520,151.809 75.676,151.634 75.676 C 151.459 75.676,151.399 75.811,151.502 75.976 C 151.604 76.141,151.538 76.276,151.355 76.276 C 150.859 76.276,149.550 77.682,149.550 78.215 C 149.550 78.470,149.404 78.679,149.226 78.679 C 148.724 78.679,147.147 80.377,147.147 80.917 C 147.147 81.183,146.914 81.490,146.628 81.599 C 145.712 81.951,144.603 83.542,144.599 84.512 L 144.595 85.435 146.171 83.819 C 147.038 82.930,147.748 82.043,147.748 81.849 C 147.748 81.411,148.449 80.648,150.107 79.279 C 150.807 78.701,151.698 77.688,152.086 77.027 C 152.474 76.366,153.461 75.218,154.279 74.474 C 155.097 73.731,156.008 72.655,156.302 72.083 C 156.597 71.511,157.183 70.772,157.604 70.441 C 158.970 69.367,160.360 67.857,160.360 67.449 C 160.360 67.230,161.217 66.252,162.265 65.277 C 163.312 64.301,164.512 62.965,164.931 62.307 C 165.351 61.649,166.299 60.571,167.038 59.910 C 167.777 59.249,168.614 58.256,168.898 57.704 C 169.182 57.151,169.898 56.272,170.489 55.752 C 171.079 55.231,171.785 54.602,172.058 54.354 C 172.330 54.107,172.845 53.424,173.201 52.837 C 173.558 52.251,174.509 51.169,175.316 50.435 C 176.122 49.700,177.124 48.559,177.541 47.898 C 177.958 47.237,179.060 46.002,179.991 45.154 C 180.921 44.305,181.682 43.442,181.682 43.235 C 181.682 43.028,182.559 41.994,183.632 40.937 C 184.705 39.881,185.775 38.649,186.010 38.202 C 186.245 37.754,187.260 36.604,188.264 35.647 C 189.268 34.690,190.090 33.728,190.090 33.508 C 190.090 33.289,190.867 32.380,191.817 31.488 C 192.767 30.596,193.922 29.363,194.385 28.747 C 194.847 28.131,195.422 27.628,195.661 27.628 C 195.900 27.628,196.096 27.492,196.096 27.327 C 196.096 27.156,196.997 27.027,198.198 27.027 C 199.354 27.027,200.300 27.153,200.300 27.306 C 200.300 27.460,200.604 27.629,200.976 27.682 C 201.381 27.739,201.883 28.199,202.230 28.829 C 202.548 29.407,203.515 30.488,204.380 31.231 C 205.244 31.974,206.182 33.041,206.463 33.600 C 206.744 34.160,207.770 35.360,208.743 36.266 C 209.715 37.173,210.511 38.092,210.511 38.308 C 210.511 38.525,211.524 39.682,212.763 40.880 C 214.002 42.078,215.015 43.229,215.015 43.437 C 215.015 43.835,215.682 44.565,217.489 46.142 C 218.085 46.663,218.799 47.527,219.076 48.062 C 219.353 48.597,220.319 49.717,221.223 50.551 C 222.127 51.385,223.080 52.480,223.340 52.985 C 223.600 53.491,224.097 54.149,224.444 54.448 C 226.288 56.039,227.628 57.458,227.628 57.821 C 227.628 58.234,227.892 58.524,230.441 60.913 C 231.206 61.630,231.832 62.401,231.832 62.626 C 231.832 63.038,232.096 63.329,234.645 65.718 C 235.410 66.435,236.036 67.205,236.036 67.431 C 236.036 67.843,236.300 68.133,238.850 70.523 C 239.614 71.239,240.240 72.013,240.240 72.242 C 240.240 72.470,241.186 73.561,242.342 74.667 C 243.498 75.772,244.444 76.853,244.444 77.069 C 244.444 77.285,245.390 78.366,246.547 79.471 C 247.703 80.577,248.650 81.627,248.651 81.806 C 248.652 81.986,249.373 82.892,250.253 83.821 C 251.469 85.104,251.823 85.347,251.725 84.832 C 251.653 84.459,251.727 84.073,251.888 83.974 C 252.049 83.874,251.521 83.123,250.715 82.304 C 249.909 81.485,249.249 80.679,249.249 80.514 C 249.249 80.349,248.844 79.975,248.348 79.682 C 247.853 79.389,247.447 79.001,247.447 78.819 C 247.447 78.638,246.772 77.777,245.946 76.906 C 245.120 76.036,244.444 75.208,244.444 75.066 C 244.444 74.925,244.039 74.569,243.544 74.277 C 243.048 73.984,242.643 73.561,242.643 73.337 C 242.643 73.112,241.967 72.260,241.141 71.443 C 240.315 70.626,239.640 69.850,239.640 69.720 C 239.640 69.282,238.406 68.153,238.120 68.329 C 237.965 68.425,237.838 68.272,237.838 67.989 C 237.838 67.706,237.297 66.944,236.637 66.296 C 235.976 65.649,235.431 65.028,235.426 64.917 C 235.409 64.557,234.075 63.181,233.546 62.979 C 233.264 62.870,233.033 62.586,233.033 62.347 C 233.033 62.108,232.927 61.867,232.797 61.812 C 232.667 61.757,232.251 61.271,231.873 60.732 C 231.495 60.193,231.061 59.830,230.908 59.924 C 230.755 60.018,230.631 59.911,230.631 59.686 C 230.631 59.157,228.673 57.013,228.420 57.265 C 228.315 57.371,228.228 57.184,228.228 56.849 C 228.228 56.510,227.698 55.791,227.029 55.223 C 226.369 54.662,225.825 54.069,225.821 53.904 C 225.816 53.739,225.275 53.139,224.618 52.570 C 223.961 52.002,223.423 51.379,223.423 51.186 C 223.423 50.993,222.806 50.309,222.051 49.667 C 221.297 49.024,220.473 48.064,220.221 47.534 C 219.968 47.003,219.505 46.487,219.190 46.387 C 218.876 46.287,218.619 46.025,218.619 45.805 C 218.619 45.585,217.945 44.749,217.122 43.948 C 216.299 43.148,215.623 42.345,215.620 42.165 C 215.618 41.985,215.176 41.424,214.640 40.918 C 214.103 40.412,213.056 39.288,212.312 38.420 C 211.569 37.553,210.488 36.342,209.910 35.729 C 209.332 35.117,208.386 34.029,207.808 33.313 C 207.230 32.596,206.081 31.276,205.255 30.379 C 204.429 29.481,203.559 28.462,203.320 28.112 C 201.653 25.672,198.131 24.804,195.294 26.135 M197.222 227.545 C 197.759 227.611,198.637 227.611,199.174 227.545 C 199.711 227.478,199.272 227.423,198.198 227.423 C 197.125 227.423,196.685 227.478,197.222 227.545 " stroke="none" fill="#46b096" fill-rule="evenodd"></path><path id="path3" d="M175.720 47.929 C 175.497 48.181,175.374 48.447,175.447 48.520 C 175.520 48.593,175.825 48.381,176.124 48.050 C 176.424 47.719,176.547 47.453,176.398 47.459 C 176.248 47.465,175.944 47.677,175.720 47.929 M220.873 48.650 C 221.172 48.982,221.480 49.191,221.555 49.115 C 221.718 48.953,220.862 48.048,220.545 48.048 C 220.425 48.048,220.573 48.319,220.873 48.650 M170.916 53.334 C 170.693 53.587,170.569 53.853,170.642 53.926 C 170.715 53.998,171.020 53.787,171.320 53.455 C 171.620 53.124,171.743 52.858,171.593 52.864 C 171.444 52.871,171.139 53.082,170.916 53.334 M221.846 76.597 C 219.856 77.648,219.069 79.253,219.069 82.261 C 219.069 84.750,219.024 84.919,217.687 87.387 C 216.297 89.954,215.645 91.149,209.170 103.003 C 207.231 106.554,205.460 109.606,205.235 109.785 C 204.937 110.023,203.097 109.881,198.434 109.263 C 190.831 108.256,189.953 108.368,189.157 110.450 C 188.424 112.365,189.806 113.599,193.243 114.100 C 194.565 114.293,196.468 114.577,197.472 114.733 C 198.477 114.888,199.701 115.015,200.192 115.015 C 202.165 115.015,202.337 115.590,201.058 117.901 C 199.508 120.703,190.167 137.771,188.751 140.390 C 188.125 141.547,187.311 143.033,186.941 143.694 C 186.147 145.113,184.870 147.446,183.409 150.150 C 182.280 152.241,176.285 163.204,172.904 169.364 C 169.532 175.506,169.320 177.261,171.797 178.542 C 173.416 179.379,176.877 178.044,176.877 176.583 C 176.877 176.460,177.430 175.361,178.106 174.141 C 178.782 172.920,180.252 170.233,181.373 168.168 C 182.493 166.104,183.745 163.806,184.156 163.063 C 184.566 162.320,185.307 160.968,185.803 160.060 C 188.058 155.924,188.716 154.725,189.344 153.604 C 189.714 152.943,190.454 151.592,190.988 150.601 C 195.162 142.855,208.246 118.993,208.484 118.694 C 208.997 118.049,209.177 118.205,213.360 122.942 C 218.273 128.504,219.526 129.186,221.313 127.267 C 222.797 125.675,222.385 124.894,216.616 118.359 C 214.084 115.490,212.012 112.897,212.012 112.597 C 212.012 111.523,225.703 86.787,226.297 86.787 C 226.992 86.787,229.394 84.350,229.744 83.291 C 231.314 78.531,226.275 74.260,221.846 76.597 " stroke="none" fill="#044604" fill-rule="evenodd"></path><path id="path4" d="M144.282 83.910 C 144.382 84.227,144.321 84.575,144.145 84.684 C 143.937 84.813,143.919 85.136,144.094 85.609 C 144.360 86.326,144.366 86.323,144.575 85.372 C 144.703 84.793,144.650 84.192,144.443 83.870 C 144.122 83.370,144.111 83.372,144.282 83.910 M251.656 84.552 C 251.663 85.405,252.119 86.065,252.327 85.523 C 252.414 85.296,252.298 84.853,252.069 84.540 C 251.660 83.981,251.652 83.981,251.656 84.552 M252.481 86.638 C 252.661 86.968,253.562 87.976,254.482 88.879 C 255.403 89.781,256.156 90.650,256.156 90.809 C 256.156 90.968,257.170 92.139,258.408 93.412 C 259.647 94.685,260.661 95.631,260.661 95.513 C 260.661 95.396,259.715 94.344,258.559 93.176 C 257.402 92.009,256.456 90.905,256.456 90.724 C 256.456 90.543,255.488 89.415,254.304 88.217 C 253.121 87.019,252.300 86.309,252.481 86.638 M141.892 88.509 C 140.901 89.581,140.001 90.680,139.892 90.950 C 139.783 91.220,138.803 92.316,137.715 93.385 C 136.626 94.454,135.736 95.471,135.736 95.645 C 135.736 95.819,134.790 96.901,133.634 98.048 C 132.477 99.195,131.532 100.284,131.532 100.467 C 131.532 100.650,131.192 100.981,130.776 101.204 C 129.483 101.896,128.278 106.607,129.394 106.607 C 129.540 106.607,129.763 106.911,129.889 107.282 C 130.475 109.004,130.569 109.185,130.601 108.643 C 130.617 108.359,130.360 107.645,130.030 107.057 C 128.947 105.129,129.384 102.252,130.881 101.448 C 131.267 101.242,131.764 100.730,131.985 100.311 C 132.206 99.892,133.208 98.743,134.211 97.757 C 135.215 96.771,136.036 95.822,136.036 95.647 C 136.036 95.472,136.982 94.391,138.138 93.243 C 139.294 92.096,140.240 91.022,140.240 90.857 C 140.240 90.692,141.077 89.712,142.100 88.680 C 143.123 87.648,143.900 86.748,143.827 86.681 C 143.754 86.615,142.883 87.437,141.892 88.509 M262.635 98.280 C 263.779 99.480,264.771 100.426,264.841 100.381 C 265.021 100.263,261.166 96.176,260.833 96.132 C 260.680 96.112,261.491 97.079,262.635 98.280 M265.521 101.417 C 266.481 102.013,266.710 102.572,266.968 104.955 L 267.164 106.757 267.215 105.064 C 267.282 102.887,266.241 100.925,265.015 100.918 C 264.850 100.918,265.077 101.142,265.521 101.417 M265.189 109.817 C 265.176 110.179,265.030 110.559,264.865 110.661 C 264.700 110.763,264.575 111.142,264.588 111.504 C 264.603 111.920,264.667 111.996,264.760 111.712 C 264.842 111.464,265.050 110.971,265.222 110.615 C 265.394 110.260,265.463 109.787,265.374 109.564 C 265.281 109.331,265.203 109.438,265.189 109.817 M132.156 112.520 C 132.143 112.882,132.267 113.261,132.432 113.363 C 132.598 113.465,132.748 113.913,132.768 114.357 C 132.792 114.934,132.844 115.004,132.947 114.600 C 133.027 114.289,132.954 113.749,132.784 113.399 C 132.615 113.049,132.410 112.560,132.328 112.312 C 132.234 112.028,132.171 112.104,132.156 112.520 M263.687 113.444 C 263.455 114.144,263.356 114.807,263.465 114.916 C 263.574 115.026,263.664 114.849,263.664 114.525 C 263.664 114.200,263.811 113.786,263.992 113.605 C 264.173 113.425,264.273 113.028,264.214 112.723 C 264.144 112.360,263.963 112.608,263.687 113.444 M133.357 115.523 C 133.344 115.885,133.468 116.264,133.634 116.366 C 133.799 116.468,133.950 116.916,133.969 117.360 C 133.994 117.937,134.045 118.007,134.149 117.603 C 134.228 117.292,134.155 116.752,133.986 116.402 C 133.816 116.052,133.611 115.563,133.529 115.315 C 133.435 115.031,133.372 115.107,133.357 115.523 M261.313 119.212 C 261.094 119.706,260.977 120.349,261.053 120.641 C 261.147 120.999,261.203 120.923,261.226 120.405 C 261.246 119.984,261.412 119.489,261.595 119.306 C 261.779 119.122,261.880 118.823,261.820 118.643 C 261.760 118.462,261.531 118.718,261.313 119.212 M135.159 120.027 C 135.146 120.389,135.270 120.769,135.435 120.871 C 135.601 120.973,135.746 121.353,135.759 121.714 C 135.773 122.093,135.852 122.201,135.944 121.967 C 136.033 121.745,135.965 121.272,135.793 120.916 C 135.620 120.561,135.413 120.068,135.331 119.820 C 135.237 119.535,135.174 119.612,135.159 120.027 M136.371 122.880 C 136.352 123.325,136.471 123.772,136.637 123.874 C 136.802 123.976,136.948 124.356,136.961 124.717 C 136.974 125.096,137.053 125.204,137.146 124.970 C 137.234 124.748,137.163 124.275,136.987 123.919 C 136.811 123.564,136.609 123.003,136.537 122.673 C 136.440 122.226,136.397 122.279,136.371 122.880 M137.555 125.526 C 137.550 125.773,137.741 126.517,137.979 127.177 C 138.217 127.838,138.416 128.176,138.421 127.928 C 138.425 127.680,138.235 126.937,137.997 126.276 C 137.759 125.616,137.560 125.278,137.555 125.526 M258.582 126.033 C 258.569 126.395,258.423 126.775,258.258 126.877 C 258.093 126.979,257.969 127.359,257.982 127.720 C 257.997 128.136,258.060 128.212,258.154 127.928 C 258.235 127.680,258.443 127.187,258.615 126.831 C 258.788 126.476,258.856 126.003,258.767 125.780 C 258.674 125.547,258.596 125.654,258.582 126.033 M138.762 128.736 C 138.749 129.098,138.874 129.478,139.039 129.580 C 139.204 129.682,139.355 130.129,139.374 130.573 C 139.399 131.151,139.450 131.220,139.554 130.816 C 139.634 130.506,139.560 129.965,139.391 129.615 C 139.222 129.265,139.016 128.776,138.935 128.529 C 138.841 128.244,138.777 128.320,138.762 128.736 M257.108 129.422 C 256.890 129.916,256.773 130.559,256.849 130.851 C 256.943 131.209,256.999 131.133,257.022 130.616 C 257.041 130.194,257.207 129.700,257.391 129.516 C 257.575 129.332,257.676 129.034,257.616 128.853 C 257.555 128.672,257.327 128.928,257.108 129.422 M139.975 131.739 C 139.956 132.101,140.075 132.481,140.240 132.583 C 140.405 132.685,140.541 133.026,140.541 133.342 C 140.541 133.657,140.811 134.397,141.141 134.985 C 141.471 135.573,141.742 136.240,141.742 136.467 C 141.742 136.694,142.031 137.467,142.385 138.185 C 143.001 139.435,143.366 140.286,143.844 141.592 C 144.322 142.897,144.687 143.749,145.303 144.998 C 145.656 145.716,145.946 146.489,145.946 146.716 C 145.946 146.943,146.216 147.610,146.547 148.198 C 146.877 148.786,147.147 149.462,147.147 149.700 C 147.147 149.937,147.417 150.613,147.748 151.201 C 148.078 151.789,148.348 152.465,148.348 152.703 C 148.348 152.940,148.619 153.616,148.949 154.204 C 149.279 154.792,149.550 155.540,149.550 155.865 C 149.550 156.190,149.685 156.456,149.850 156.456 C 150.015 156.456,150.150 156.661,150.150 156.911 C 150.150 157.161,150.270 157.600,150.415 157.887 C 150.561 158.174,150.812 158.746,150.973 159.159 C 151.134 159.572,151.556 160.497,151.909 161.215 C 152.263 161.932,152.553 162.705,152.553 162.932 C 152.553 163.159,152.823 163.826,153.153 164.414 C 153.483 165.003,153.754 165.678,153.754 165.916 C 153.754 166.154,154.024 166.829,154.354 167.417 C 154.685 168.006,154.955 168.681,154.955 168.919 C 154.955 169.157,155.225 169.832,155.556 170.420 C 155.886 171.009,156.156 171.676,156.156 171.903 C 156.156 172.130,156.446 172.903,156.799 173.620 C 157.153 174.338,157.545 175.195,157.670 175.526 C 157.796 175.856,158.182 176.767,158.529 177.549 C 158.875 178.332,159.159 179.105,159.159 179.267 C 159.159 179.429,159.429 180.043,159.760 180.631 C 160.090 181.219,160.360 181.894,160.360 182.132 C 160.360 182.370,160.631 183.046,160.961 183.634 C 161.291 184.222,161.562 184.897,161.562 185.135 C 161.562 185.373,161.832 186.049,162.162 186.637 C 162.492 187.225,162.763 187.884,162.763 188.101 C 162.763 188.874,163.654 190.259,165.001 191.579 C 165.752 192.315,166.366 193.064,166.366 193.242 C 166.366 193.420,167.042 194.232,167.868 195.045 C 168.694 195.858,169.369 196.668,169.369 196.845 C 169.369 197.022,170.180 197.968,171.171 198.949 C 172.162 199.930,172.973 200.859,172.973 201.014 C 172.973 201.170,173.716 202.076,174.625 203.029 C 175.533 203.981,176.276 204.664,176.276 204.546 C 176.276 204.428,175.601 203.666,174.775 202.853 C 173.949 202.039,173.273 201.229,173.273 201.053 C 173.273 200.876,172.462 199.930,171.471 198.949 C 170.480 197.968,169.670 197.022,169.670 196.845 C 169.670 196.668,168.994 195.858,168.168 195.045 C 167.342 194.232,166.667 193.420,166.667 193.242 C 166.667 193.064,166.052 192.315,165.301 191.579 C 163.954 190.259,163.063 188.874,163.063 188.101 C 163.063 187.884,162.793 187.225,162.462 186.637 C 162.132 186.049,161.862 185.373,161.862 185.135 C 161.862 184.897,161.592 184.222,161.261 183.634 C 160.931 183.046,160.661 182.370,160.661 182.132 C 160.661 181.894,160.390 181.219,160.060 180.631 C 159.730 180.043,159.459 179.429,159.459 179.267 C 159.459 179.105,159.176 178.332,158.829 177.549 C 158.482 176.767,158.096 175.856,157.971 175.526 C 157.845 175.195,157.453 174.338,157.100 173.620 C 156.746 172.903,156.456 172.130,156.456 171.903 C 156.456 171.676,156.186 171.009,155.856 170.420 C 155.526 169.832,155.255 169.157,155.255 168.919 C 155.255 168.681,154.985 168.006,154.655 167.417 C 154.324 166.829,154.054 166.154,154.054 165.916 C 154.054 165.678,153.784 165.003,153.453 164.414 C 153.123 163.826,152.853 163.159,152.853 162.932 C 152.853 162.705,152.563 161.932,152.210 161.215 C 151.520 159.815,151.317 159.330,150.193 156.381 C 150.051 156.010,149.646 155.119,149.292 154.401 C 148.938 153.683,148.649 152.911,148.649 152.683 C 148.649 152.456,148.378 151.789,148.048 151.201 C 147.718 150.613,147.447 149.937,147.447 149.700 C 147.447 149.462,147.177 148.786,146.847 148.198 C 146.517 147.610,146.246 146.943,146.246 146.716 C 146.246 146.489,145.957 145.716,145.603 144.998 C 145.249 144.281,144.844 143.390,144.702 143.018 C 143.578 140.070,143.375 139.584,142.685 138.185 C 142.332 137.467,142.042 136.694,142.042 136.467 C 142.042 136.240,141.772 135.573,141.441 134.985 C 141.111 134.397,140.841 133.677,140.841 133.384 C 140.841 133.092,140.719 132.724,140.570 132.568 C 140.421 132.411,140.234 132.012,140.154 131.682 C 140.020 131.126,140.007 131.131,139.975 131.739 M255.931 132.352 C 255.724 132.792,255.556 133.324,255.556 133.534 C 255.556 133.744,255.285 134.397,254.955 134.985 C 254.625 135.573,254.354 136.249,254.354 136.486 C 254.354 136.724,254.107 137.362,253.805 137.904 C 253.118 139.135,252.823 140.240,253.181 140.240 C 253.331 140.240,253.453 139.974,253.453 139.649 C 253.453 139.323,253.724 138.576,254.054 137.988 C 254.384 137.400,254.655 136.724,254.655 136.486 C 254.655 136.249,254.925 135.573,255.255 134.985 C 255.586 134.397,255.856 133.677,255.856 133.384 C 255.856 133.092,256.006 132.703,256.190 132.519 C 256.374 132.335,256.475 132.042,256.415 131.868 C 256.355 131.694,256.137 131.912,255.931 132.352 M252.452 140.999 C 251.811 142.849,251.723 143.235,251.977 143.077 C 252.129 142.984,252.252 142.672,252.252 142.385 C 252.252 142.097,252.403 141.712,252.586 141.528 C 252.770 141.344,252.861 141.016,252.789 140.800 C 252.703 140.541,252.587 140.609,252.452 140.999 M251.092 144.536 C 250.877 145.064,250.596 145.766,250.468 146.096 C 250.340 146.426,249.946 147.284,249.592 148.001 C 249.238 148.719,248.949 149.492,248.949 149.719 C 248.949 149.946,248.679 150.613,248.348 151.201 C 248.018 151.789,247.748 152.465,247.748 152.703 C 247.748 152.940,247.477 153.616,247.147 154.204 C 246.817 154.792,246.547 155.459,246.547 155.686 C 246.547 155.914,246.257 156.686,245.903 157.404 C 245.550 158.122,245.162 158.979,245.043 159.309 C 244.923 159.640,244.654 160.315,244.444 160.811 C 244.235 161.306,243.966 161.982,243.846 162.312 C 243.727 162.643,243.339 163.500,242.986 164.218 C 242.632 164.935,242.342 165.708,242.342 165.935 C 242.342 166.162,242.072 166.829,241.742 167.417 C 241.411 168.006,241.141 168.681,241.141 168.919 C 241.141 169.157,240.871 169.832,240.541 170.420 C 240.210 171.009,239.940 171.684,239.940 171.922 C 239.940 172.160,239.670 172.835,239.339 173.423 C 239.009 174.012,238.739 174.687,238.739 174.925 C 238.739 175.163,238.492 175.800,238.189 176.342 C 237.537 177.512,237.182 178.749,237.566 178.511 C 237.715 178.419,237.838 178.152,237.838 177.919 C 237.838 177.686,238.108 177.015,238.438 176.426 C 238.769 175.838,239.039 175.163,239.039 174.925 C 239.039 174.687,239.309 174.012,239.640 173.423 C 239.970 172.835,240.240 172.160,240.240 171.922 C 240.240 171.684,240.511 171.009,240.841 170.420 C 241.171 169.832,241.441 169.157,241.441 168.919 C 241.441 168.681,241.712 168.006,242.042 167.417 C 242.372 166.829,242.643 166.162,242.643 165.935 C 242.643 165.708,242.932 164.935,243.286 164.218 C 243.640 163.500,244.027 162.643,244.147 162.312 C 244.266 161.982,244.517 161.340,244.705 160.886 C 244.892 160.432,245.161 159.756,245.303 159.384 C 245.444 159.013,245.850 158.122,246.204 157.404 C 246.557 156.686,246.847 155.914,246.847 155.686 C 246.847 155.459,247.117 154.792,247.447 154.204 C 247.778 153.616,248.048 152.940,248.048 152.703 C 248.048 152.465,248.318 151.789,248.649 151.201 C 248.979 150.613,249.249 149.946,249.249 149.719 C 249.249 149.492,249.539 148.719,249.892 148.001 C 250.246 147.284,250.652 146.393,250.793 146.021 C 250.935 145.649,251.209 145.008,251.402 144.595 C 251.595 144.182,251.692 143.784,251.618 143.710 C 251.544 143.636,251.307 144.008,251.092 144.536 M236.411 180.436 C 236.040 181.214,235.736 182.011,235.736 182.207 C 235.736 182.404,235.465 183.046,235.135 183.634 C 234.805 184.222,234.535 184.897,234.535 185.135 C 234.535 185.373,234.286 186.011,233.982 186.552 C 233.343 187.693,232.998 189.189,233.375 189.189 C 233.517 189.189,233.634 188.855,233.634 188.448 C 233.634 188.040,233.904 187.225,234.234 186.637 C 234.565 186.049,234.835 185.373,234.835 185.135 C 234.835 184.897,235.105 184.222,235.435 183.634 C 235.766 183.046,236.036 182.370,236.036 182.132 C 236.036 181.894,236.313 181.208,236.650 180.606 C 236.988 180.004,237.225 179.402,237.176 179.267 C 237.127 179.133,236.783 179.659,236.411 180.436 M231.381 191.370 C 230.556 192.356,229.170 193.935,228.303 194.881 C 227.436 195.827,226.727 196.712,226.727 196.849 C 226.727 197.083,225.964 197.967,221.847 202.503 C 220.897 203.549,220.120 204.511,220.120 204.641 C 220.120 204.862,218.802 206.392,215.090 210.480 C 214.223 211.435,213.514 212.344,213.514 212.499 C 213.514 212.654,212.703 213.584,211.712 214.565 C 210.721 215.545,209.910 216.492,209.910 216.669 C 209.910 216.845,209.234 217.655,208.408 218.468 C 207.583 219.282,206.907 220.075,206.907 220.232 C 206.907 220.388,206.197 221.292,205.330 222.239 C 204.463 223.187,203.163 224.685,202.440 225.570 L 201.127 227.177 202.440 225.766 C 205.341 222.649,207.207 220.478,207.207 220.220 C 207.207 220.070,207.883 219.282,208.709 218.468 C 209.535 217.655,210.210 216.845,210.210 216.669 C 210.210 216.492,211.021 215.545,212.012 214.565 C 213.003 213.584,213.814 212.660,213.814 212.511 C 213.814 212.258,215.041 210.825,218.844 206.637 C 219.711 205.682,220.420 204.789,220.420 204.653 C 220.420 204.517,221.197 203.549,222.147 202.503 C 226.264 197.967,227.027 197.083,227.027 196.849 C 227.027 196.712,227.736 195.823,228.604 194.873 C 231.312 191.904,233.115 189.770,232.996 189.673 C 232.934 189.621,232.207 190.385,231.381 191.370 M177.862 206.841 C 178.807 207.795,179.580 208.695,179.580 208.840 C 179.580 208.986,180.323 209.884,181.231 210.836 C 182.140 211.789,182.883 212.471,182.883 212.353 C 182.883 212.234,182.262 211.535,181.503 210.798 C 180.744 210.062,180.034 209.237,179.926 208.964 C 179.701 208.398,176.645 205.105,176.344 205.105 C 176.234 205.105,176.918 205.886,177.862 206.841 M184.459 214.573 C 185.409 215.569,186.186 216.504,186.186 216.650 C 186.186 216.914,187.840 218.820,190.957 222.147 L 192.574 223.874 191.107 222.121 C 190.300 221.157,188.930 219.591,188.063 218.641 C 187.196 217.690,186.486 216.786,186.486 216.630 C 186.486 216.475,185.642 215.541,184.610 214.555 L 182.733 212.763 184.459 214.573 M192.727 224.474 C 192.901 224.805,193.557 225.548,194.184 226.126 C 195.220 227.081,194.337 225.945,192.551 224.024 C 192.474 223.941,192.553 224.144,192.727 224.474 " stroke="none" fill="#8cd4b4" fill-rule="evenodd"></path></g></svg>