<svg id="svg" version="1.1" xmlns="http://www.w3.org/2000/svg" xmlns:xlink="http://www.w3.org/1999/xlink" width="400" height="300.1503759398496" viewBox="0, 0, 400,300.1503759398496"><g id="svgg"><path id="path0" d="M195.646 27.420 C 195.315 27.617,194.842 28.045,194.595 28.371 C 194.347 28.697,193.297 29.823,192.262 30.873 C 191.227 31.922,190.190 33.150,189.957 33.601 C 189.724 34.051,188.782 35.113,187.864 35.959 C 186.946 36.806,185.972 37.947,185.699 38.494 C 185.427 39.042,184.493 40.098,183.624 40.841 C 182.754 41.584,181.871 42.580,181.661 43.053 C 181.322 43.818,180.867 44.311,178.529 46.448 C 178.198 46.750,177.671 47.459,177.356 48.023 C 177.041 48.587,176.305 49.466,175.719 49.975 C 174.056 51.421,172.973 52.609,172.973 52.989 C 172.973 53.180,172.027 54.248,170.871 55.363 C 169.715 56.478,168.769 57.580,168.769 57.812 C 168.769 58.044,168.206 58.746,167.517 59.372 C 165.436 61.265,164.565 62.231,164.565 62.645 C 164.565 62.862,164.007 63.551,163.325 64.177 C 162.642 64.803,161.697 65.674,161.222 66.111 C 160.748 66.549,160.360 67.097,160.360 67.329 C 160.360 67.561,159.414 68.663,158.258 69.778 C 157.102 70.893,156.156 71.995,156.156 72.227 C 156.156 72.459,155.593 73.161,154.905 73.787 C 152.823 75.680,151.952 76.645,151.952 77.059 C 151.952 77.276,151.394 77.965,150.712 78.591 C 150.030 79.218,149.084 80.088,148.610 80.526 C 148.136 80.964,147.748 81.486,147.748 81.687 C 147.748 81.888,147.005 82.855,146.096 83.836 C 145.188 84.817,144.444 85.804,144.444 86.030 C 144.444 86.256,143.498 87.398,142.342 88.568 C 141.186 89.738,140.240 90.832,140.240 90.999 C 140.240 91.166,139.362 92.181,138.288 93.254 C 137.215 94.328,136.336 95.332,136.336 95.486 C 136.336 95.640,135.401 96.715,134.257 97.875 C 133.114 99.034,132.100 100.228,132.005 100.527 C 131.910 100.826,131.427 101.311,130.931 101.604 C 130.436 101.896,130.030 102.331,130.030 102.570 C 130.030 102.808,129.895 103.003,129.730 103.003 C 129.302 103.003,129.357 105.731,129.805 106.695 C 130.011 107.139,130.282 107.504,130.405 107.505 C 130.529 107.506,130.631 107.706,130.631 107.949 C 130.631 108.192,130.901 108.871,131.231 109.459 C 131.562 110.048,131.832 110.723,131.832 110.961 C 131.832 111.199,132.102 111.874,132.432 112.462 C 132.763 113.051,133.033 113.726,133.033 113.964 C 133.033 114.202,133.303 114.877,133.634 115.465 C 133.964 116.054,134.234 116.721,134.234 116.948 C 134.234 117.175,134.524 117.948,134.877 118.665 C 135.231 119.383,135.637 120.274,135.778 120.646 C 135.920 121.017,136.189 121.693,136.377 122.147 C 136.564 122.601,136.815 123.243,136.934 123.574 C 137.054 123.904,137.441 124.761,137.795 125.479 C 138.149 126.196,138.438 126.969,138.438 127.196 C 138.438 127.424,138.709 128.091,139.039 128.679 C 139.369 129.267,139.640 129.942,139.640 130.180 C 139.640 130.418,139.910 131.094,140.240 131.682 C 140.571 132.270,140.841 132.945,140.841 133.183 C 140.841 133.421,141.111 134.097,141.441 134.685 C 141.772 135.273,142.042 135.940,142.042 136.167 C 142.042 136.394,142.332 137.167,142.685 137.885 C 143.039 138.602,143.444 139.493,143.586 139.865 C 143.728 140.236,143.979 140.878,144.144 141.291 C 144.309 141.704,144.560 142.346,144.702 142.718 C 144.844 143.089,145.249 143.980,145.603 144.698 C 145.957 145.416,146.246 146.189,146.246 146.416 C 146.246 146.643,146.517 147.310,146.847 147.898 C 147.177 148.486,147.447 149.301,147.447 149.709 C 147.447 150.117,147.583 150.450,147.748 150.450 C 147.913 150.450,148.048 150.721,148.048 151.051 C 148.048 151.381,148.183 151.652,148.348 151.652 C 148.514 151.652,148.649 151.982,148.649 152.385 C 148.649 152.788,148.784 153.201,148.949 153.303 C 149.114 153.405,149.249 153.751,149.249 154.072 C 149.249 154.392,149.384 154.655,149.550 154.655 C 149.715 154.655,149.850 154.859,149.850 155.109 C 149.850 155.359,149.969 155.798,150.115 156.085 C 150.382 156.610,150.832 157.683,151.309 158.934 C 151.450 159.306,151.856 160.197,152.210 160.914 C 152.563 161.632,152.853 162.405,152.853 162.632 C 152.853 162.859,153.123 163.526,153.453 164.114 C 153.784 164.702,154.054 165.378,154.054 165.616 C 154.054 165.853,154.324 166.529,154.655 167.117 C 154.985 167.705,155.255 168.445,155.255 168.760 C 155.255 169.076,155.390 169.417,155.556 169.520 C 155.721 169.622,155.856 169.967,155.856 170.288 C 155.856 170.609,155.991 170.871,156.156 170.871 C 156.321 170.871,156.456 171.201,156.456 171.604 C 156.456 172.007,156.592 172.420,156.757 172.523 C 156.922 172.625,157.057 172.970,157.057 173.291 C 157.057 173.612,157.192 173.874,157.357 173.874 C 157.523 173.874,157.658 174.078,157.658 174.328 C 157.658 174.578,157.793 175.051,157.958 175.379 C 158.123 175.708,158.393 176.244,158.559 176.573 C 158.724 176.901,158.859 177.374,158.859 177.624 C 158.859 177.874,158.994 178.078,159.159 178.078 C 159.324 178.078,159.459 178.483,159.459 178.979 C 159.459 179.474,159.595 179.880,159.760 179.880 C 159.925 179.880,160.060 180.150,160.060 180.480 C 160.060 180.811,160.195 181.081,160.360 181.081 C 160.526 181.081,160.661 181.486,160.661 181.982 C 160.661 182.477,160.796 182.883,160.961 182.883 C 161.126 182.883,161.261 183.153,161.261 183.483 C 161.261 183.814,161.396 184.084,161.562 184.084 C 161.727 184.084,161.862 184.489,161.862 184.985 C 161.862 185.480,161.997 185.886,162.162 185.886 C 162.327 185.886,162.462 186.156,162.462 186.486 C 162.462 186.817,162.598 187.087,162.763 187.087 C 162.928 187.087,163.063 187.492,163.063 187.988 C 163.063 188.483,163.198 188.889,163.363 188.889 C 163.529 188.889,163.664 189.100,163.664 189.359 C 163.664 189.617,164.339 190.487,165.165 191.291 C 165.991 192.096,166.667 192.880,166.667 193.033 C 166.667 193.187,167.410 194.086,168.318 195.032 C 169.227 195.977,169.970 196.871,169.970 197.017 C 169.970 197.164,170.713 198.027,171.622 198.936 C 172.530 199.844,173.273 200.708,173.273 200.855 C 173.273 201.002,174.017 201.872,174.925 202.787 C 175.833 203.703,176.577 204.566,176.577 204.705 C 176.577 204.844,177.320 205.737,178.228 206.690 C 179.137 207.643,179.880 208.536,179.880 208.675 C 179.880 208.815,180.623 209.702,181.532 210.647 C 182.440 211.593,183.183 212.486,183.183 212.633 C 183.183 212.780,183.926 213.643,184.835 214.552 C 185.743 215.460,186.486 216.344,186.486 216.517 C 186.486 216.689,187.230 217.573,188.138 218.482 C 189.047 219.390,189.790 220.253,189.790 220.400 C 189.790 220.547,190.533 221.440,191.441 222.386 C 192.350 223.331,193.093 224.226,193.093 224.375 C 193.093 224.718,194.877 226.458,195.736 226.952 C 196.579 227.437,199.817 227.437,200.661 226.952 C 201.519 226.458,203.303 224.718,203.303 224.375 C 203.303 224.226,204.047 223.331,204.955 222.386 C 205.863 221.440,206.607 220.547,206.607 220.400 C 206.607 220.253,207.350 219.390,208.258 218.482 C 209.167 217.573,209.910 216.683,209.910 216.504 C 209.910 216.324,210.556 215.544,211.345 214.770 C 212.134 213.996,213.109 212.890,213.512 212.312 C 213.915 211.734,214.756 210.765,215.381 210.159 C 216.005 209.552,216.517 208.931,216.517 208.778 C 216.517 208.625,217.327 207.648,218.318 206.607 C 219.309 205.565,220.120 204.596,220.120 204.452 C 220.120 204.309,220.863 203.448,221.772 202.539 C 222.680 201.631,223.423 200.768,223.423 200.621 C 223.423 200.474,224.167 199.581,225.075 198.635 C 225.983 197.690,226.727 196.791,226.727 196.637 C 226.727 196.483,227.402 195.699,228.228 194.895 C 229.054 194.091,229.730 193.302,229.730 193.143 C 229.730 192.984,230.372 192.187,231.156 191.371 C 232.872 189.588,233.333 188.840,233.333 187.842 C 233.333 187.427,233.468 187.087,233.634 187.087 C 233.799 187.087,233.934 186.817,233.934 186.486 C 233.934 186.156,234.069 185.886,234.234 185.886 C 234.399 185.886,234.535 185.480,234.535 184.985 C 234.535 184.489,234.670 184.084,234.835 184.084 C 235.000 184.084,235.135 183.814,235.135 183.483 C 235.135 183.153,235.270 182.883,235.435 182.883 C 235.601 182.883,235.736 182.477,235.736 181.982 C 235.736 181.486,235.871 181.081,236.036 181.081 C 236.201 181.081,236.336 180.811,236.336 180.480 C 236.336 180.150,236.471 179.880,236.637 179.880 C 236.802 179.880,236.937 179.550,236.937 179.147 C 236.937 178.744,237.072 178.330,237.237 178.228 C 237.402 178.126,237.538 177.780,237.538 177.460 C 237.538 177.139,237.673 176.877,237.838 176.877 C 238.003 176.877,238.138 176.615,238.138 176.294 C 238.138 175.973,238.273 175.628,238.438 175.526 C 238.604 175.423,238.739 175.010,238.739 174.607 C 238.739 174.204,238.874 173.874,239.039 173.874 C 239.204 173.874,239.339 173.612,239.339 173.291 C 239.339 172.970,239.474 172.625,239.640 172.523 C 239.805 172.420,239.940 172.007,239.940 171.604 C 239.940 171.201,240.075 170.871,240.240 170.871 C 240.405 170.871,240.541 170.601,240.541 170.270 C 240.541 169.940,240.676 169.670,240.841 169.670 C 241.006 169.670,241.141 169.264,241.141 168.769 C 241.141 168.273,241.276 167.868,241.441 167.868 C 241.607 167.868,241.742 167.598,241.742 167.267 C 241.742 166.937,241.877 166.667,242.042 166.667 C 242.207 166.667,242.342 166.261,242.342 165.766 C 242.342 165.270,242.477 164.865,242.643 164.865 C 242.808 164.865,242.943 164.660,242.943 164.410 C 242.943 164.160,243.078 163.687,243.243 163.359 C 243.408 163.031,243.679 162.494,243.844 162.166 C 244.009 161.838,244.144 161.365,244.144 161.115 C 244.144 160.865,244.279 160.661,244.444 160.661 C 244.610 160.661,244.745 160.331,244.745 159.928 C 244.745 159.524,244.880 159.111,245.045 159.009 C 245.210 158.907,245.345 158.561,245.345 158.241 C 245.345 157.920,245.456 157.658,245.591 157.658 C 245.727 157.658,246.021 156.982,246.246 156.156 C 246.471 155.330,246.766 154.655,246.901 154.655 C 247.036 154.655,247.147 154.392,247.147 154.072 C 247.147 153.751,247.282 153.405,247.447 153.303 C 247.613 153.201,247.748 152.788,247.748 152.385 C 247.748 151.982,247.883 151.652,248.048 151.652 C 248.213 151.652,248.348 151.381,248.348 151.051 C 248.348 150.721,248.483 150.450,248.649 150.450 C 248.814 150.450,248.949 150.125,248.949 149.728 C 248.949 149.331,249.238 148.419,249.592 147.701 C 250.282 146.302,250.485 145.816,251.609 142.868 C 251.751 142.496,252.156 141.605,252.510 140.888 C 252.864 140.170,253.153 139.325,253.153 139.011 C 253.153 138.696,253.288 138.438,253.453 138.438 C 253.619 138.438,253.754 138.176,253.754 137.856 C 253.754 137.535,253.889 137.189,254.054 137.087 C 254.219 136.985,254.354 136.572,254.354 136.168 C 254.354 135.765,254.489 135.435,254.655 135.435 C 254.820 135.435,254.955 135.173,254.955 134.853 C 254.955 134.532,255.090 134.186,255.255 134.084 C 255.420 133.982,255.556 133.569,255.556 133.165 C 255.556 132.762,255.691 132.432,255.856 132.432 C 256.021 132.432,256.156 132.170,256.156 131.850 C 256.156 131.529,256.291 131.183,256.456 131.081 C 256.622 130.979,256.757 130.646,256.757 130.341 C 256.757 130.036,257.046 129.199,257.400 128.482 C 257.754 127.764,258.140 126.907,258.258 126.577 C 258.377 126.246,258.763 125.389,259.117 124.671 C 259.470 123.954,259.760 123.181,259.760 122.954 C 259.760 122.727,260.030 122.060,260.360 121.471 C 260.691 120.883,260.961 120.208,260.961 119.970 C 260.961 119.732,261.231 119.057,261.562 118.468 C 261.892 117.880,262.162 117.205,262.162 116.967 C 262.162 116.729,262.432 116.054,262.763 115.465 C 263.093 114.877,263.363 114.130,263.363 113.805 C 263.363 113.479,263.498 113.213,263.664 113.213 C 263.829 113.213,263.964 113.009,263.964 112.759 C 263.964 112.509,264.083 112.070,264.229 111.783 C 264.375 111.496,264.628 110.923,264.790 110.511 C 264.953 110.098,265.509 108.896,266.027 107.841 C 266.967 105.921,267.353 103.003,266.667 103.003 C 266.502 103.003,266.366 102.868,266.366 102.703 C 266.366 102.411,265.859 101.833,262.645 98.463 C 261.798 97.574,260.771 96.374,260.364 95.796 C 259.957 95.218,258.844 93.975,257.890 93.035 C 256.936 92.094,256.156 91.183,256.156 91.010 C 256.156 90.837,255.210 89.738,254.054 88.568 C 252.898 87.398,251.952 86.253,251.952 86.024 C 251.952 85.796,251.209 84.775,250.300 83.757 C 249.392 82.739,248.649 81.773,248.649 81.610 C 248.649 81.447,247.888 80.620,246.958 79.771 C 246.027 78.923,244.932 77.701,244.523 77.057 C 244.114 76.413,243.056 75.219,242.172 74.403 C 241.288 73.588,240.474 72.637,240.364 72.289 C 240.254 71.942,239.235 70.786,238.100 69.721 C 236.965 68.657,236.036 67.592,236.036 67.355 C 236.036 67.118,235.090 66.037,233.934 64.953 C 232.778 63.868,231.832 62.787,231.832 62.550 C 231.832 62.314,230.886 61.232,229.730 60.148 C 228.574 59.063,227.628 57.977,227.628 57.734 C 227.628 57.491,226.682 56.406,225.526 55.322 C 224.369 54.239,223.423 53.180,223.423 52.969 C 223.423 52.758,222.477 51.673,221.321 50.558 C 220.165 49.444,219.219 48.362,219.219 48.156 C 219.219 47.950,218.273 46.869,217.117 45.754 C 215.961 44.639,215.015 43.541,215.015 43.314 C 215.015 43.087,214.069 42.013,212.913 40.929 C 211.757 39.844,210.811 38.779,210.811 38.562 C 210.811 38.345,209.933 37.324,208.860 36.293 C 207.788 35.261,206.823 34.143,206.716 33.807 C 206.610 33.471,205.658 32.381,204.601 31.385 C 203.545 30.389,202.516 29.248,202.316 28.849 C 201.519 27.262,197.394 26.379,195.646 27.420 M204.881 97.882 C 206.408 98.369,210.428 99.577,213.814 100.567 C 217.200 101.557,223.483 103.402,227.778 104.668 C 232.072 105.934,237.810 107.617,240.529 108.408 C 247.033 110.301,248.353 111.638,246.471 114.426 C 245.770 115.467,245.384 115.655,235.435 119.815 C 229.211 122.418,229.139 122.455,228.877 123.182 C 228.740 123.562,228.461 126.644,228.257 130.030 C 227.789 137.793,227.743 137.968,225.640 139.894 L 223.951 141.441 201.031 141.441 L 178.112 141.441 177.318 140.759 C 176.243 139.835,176.072 138.673,175.814 130.551 L 175.596 123.714 174.660 123.288 C 171.662 121.923,164.151 119.213,163.945 119.422 C 163.375 120.000,163.244 132.842,163.796 134.004 C 164.606 135.711,164.385 147.965,163.514 149.680 C 161.855 152.943,157.682 153.035,155.891 149.849 C 154.664 147.665,155.184 135.536,156.597 133.402 C 157.532 131.988,157.568 131.668,157.773 122.912 L 157.901 117.446 157.037 116.543 C 155.526 114.962,155.683 113.071,157.417 111.958 C 157.797 111.714,165.811 108.917,175.225 105.743 C 184.640 102.569,194.234 99.316,196.547 98.513 C 201.594 96.761,201.408 96.775,204.881 97.882 " stroke="none" fill="#c304e3" fill-rule="evenodd"></path><path id="path1" d="M204.056 29.431 C 204.356 29.763,204.663 29.972,204.739 29.896 C 204.901 29.733,204.045 28.829,203.729 28.829 C 203.609 28.829,203.756 29.100,204.056 29.431 M180.532 42.372 C 179.962 43.283,180.305 43.406,180.897 42.502 C 181.171 42.084,181.289 41.742,181.160 41.742 C 181.031 41.742,180.748 42.025,180.532 42.372 M175.720 47.929 C 175.497 48.181,175.374 48.447,175.447 48.520 C 175.520 48.593,175.825 48.381,176.124 48.050 C 176.424 47.719,176.547 47.453,176.398 47.459 C 176.248 47.465,175.944 47.677,175.720 47.929 M220.130 47.659 C 220.147 48.064,221.326 49.345,221.511 49.160 C 221.607 49.064,221.333 48.633,220.903 48.203 C 220.472 47.772,220.125 47.528,220.130 47.659 M170.916 53.334 C 170.368 53.953,170.721 54.247,171.307 53.661 C 171.563 53.405,171.772 53.119,171.772 53.024 C 171.772 52.709,171.326 52.871,170.916 53.334 M168.462 56.013 C 168.254 56.265,168.143 56.531,168.216 56.605 C 168.290 56.679,168.578 56.473,168.857 56.147 C 169.136 55.822,169.246 55.556,169.103 55.556 C 168.960 55.556,168.671 55.762,168.462 56.013 M228.137 57.040 C 228.226 57.380,228.418 57.658,228.564 57.658 C 228.969 57.658,228.880 57.173,228.402 56.776 C 228.052 56.486,228.004 56.533,228.137 57.040 M237.607 67.868 C 237.814 68.198,238.086 68.468,238.213 68.468 C 238.340 68.468,238.275 68.198,238.068 67.868 C 237.862 67.538,237.590 67.267,237.463 67.267 C 237.336 67.267,237.401 67.538,237.607 67.868 M154.400 72.333 C 153.743 72.903,153.572 73.281,153.979 73.264 C 154.206 73.254,155.385 71.772,155.165 71.772 C 155.100 71.772,154.756 72.024,154.400 72.333 M242.412 73.273 C 242.618 73.604,242.891 73.874,243.018 73.874 C 243.145 73.874,243.080 73.604,242.873 73.273 C 242.667 72.943,242.394 72.673,242.268 72.673 C 242.141 72.673,242.206 72.943,242.412 73.273 M151.652 75.526 C 151.439 75.781,151.333 76.058,151.416 76.141 C 151.498 76.223,151.740 76.082,151.952 75.826 C 152.164 75.570,152.270 75.293,152.188 75.211 C 152.105 75.128,151.864 75.270,151.652 75.526 M246.098 77.479 C 246.398 77.811,246.705 78.020,246.781 77.944 C 246.943 77.781,246.087 76.877,245.771 76.877 C 245.651 76.877,245.798 77.148,246.098 77.479 M149.319 78.078 C 149.113 78.408,149.048 78.679,149.174 78.679 C 149.301 78.679,149.574 78.408,149.780 78.078 C 149.986 77.748,150.051 77.477,149.925 77.477 C 149.798 77.477,149.525 77.748,149.319 78.078 M146.907 80.841 C 146.483 81.265,146.436 81.682,146.812 81.682 C 146.958 81.682,147.148 81.411,147.234 81.081 C 147.417 80.380,147.389 80.359,146.907 80.841 M196.547 98.513 C 194.234 99.316,184.640 102.569,175.225 105.743 C 165.811 108.917,157.797 111.714,157.417 111.958 C 155.683 113.071,155.526 114.962,157.037 116.543 L 157.901 117.446 157.773 122.912 C 157.568 131.668,157.532 131.988,156.597 133.402 C 155.184 135.536,154.664 147.665,155.891 149.849 C 157.682 153.035,161.855 152.943,163.514 149.680 C 164.385 147.965,164.606 135.711,163.796 134.004 C 163.244 132.842,163.375 120.000,163.945 119.422 C 164.151 119.213,171.662 121.923,174.660 123.288 L 175.596 123.714 175.814 130.551 C 176.072 138.673,176.243 139.835,177.318 140.759 L 178.112 141.441 201.031 141.441 L 223.951 141.441 225.640 139.894 C 227.743 137.968,227.789 137.793,228.257 130.030 C 228.461 126.644,228.740 123.562,228.877 123.182 C 229.139 122.455,229.211 122.418,235.435 119.815 C 245.384 115.655,245.770 115.467,246.471 114.426 C 248.353 111.638,247.033 110.301,240.529 108.408 C 237.810 107.617,232.072 105.934,227.778 104.668 C 223.483 103.402,217.200 101.557,213.814 100.567 C 210.428 99.577,206.408 98.369,204.881 97.882 C 201.408 96.775,201.594 96.761,196.547 98.513 " stroke="none" fill="#6c047c" fill-rule="evenodd"></path><path id="path2" d="M72.450 29.260 C 69.727 30.766,68.666 35.347,70.270 38.668 C 70.601 39.352,70.871 40.112,70.871 40.358 C 70.871 40.604,71.006 40.889,71.171 40.991 C 71.336 41.093,71.471 41.498,71.471 41.892 C 71.471 42.285,71.607 42.691,71.772 42.793 C 71.937 42.895,72.072 43.237,72.072 43.552 C 72.072 43.868,72.342 44.607,72.673 45.195 C 73.003 45.783,73.273 46.438,73.273 46.649 C 73.273 46.861,73.544 47.594,73.874 48.277 C 74.204 48.961,74.474 49.722,74.474 49.968 C 74.474 50.214,74.610 50.499,74.775 50.601 C 74.940 50.703,75.075 51.108,75.075 51.502 C 75.075 51.895,75.210 52.300,75.375 52.402 C 75.541 52.504,75.676 52.846,75.676 53.162 C 75.676 53.477,75.946 54.217,76.276 54.805 C 76.607 55.393,76.877 56.069,76.877 56.306 C 76.877 56.544,77.147 57.220,77.477 57.808 C 77.808 58.396,78.078 59.135,78.078 59.451 C 78.078 59.766,78.213 60.108,78.378 60.210 C 78.544 60.312,78.679 60.718,78.679 61.111 C 78.679 61.505,78.814 61.910,78.979 62.012 C 79.144 62.114,79.279 62.456,79.279 62.771 C 79.279 63.087,79.550 63.826,79.880 64.414 C 80.210 65.003,80.480 65.817,80.480 66.225 C 80.480 66.633,80.616 66.967,80.781 66.967 C 80.946 66.967,81.081 67.237,81.081 67.568 C 81.081 67.898,81.216 68.168,81.381 68.168 C 81.547 68.168,81.682 68.574,81.682 69.069 C 81.682 69.565,81.817 69.970,81.982 69.970 C 82.147 69.970,82.282 70.300,82.282 70.703 C 82.282 71.106,82.417 71.520,82.583 71.622 C 82.748 71.724,82.883 72.070,82.883 72.390 C 82.883 72.711,83.018 72.973,83.183 72.973 C 83.348 72.973,83.483 73.303,83.483 73.706 C 83.483 74.109,83.619 74.523,83.784 74.625 C 83.949 74.727,84.084 75.132,84.084 75.526 C 84.084 75.919,84.219 76.324,84.384 76.426 C 84.550 76.529,84.685 76.874,84.685 77.195 C 84.685 77.515,84.820 77.778,84.985 77.778 C 85.150 77.778,85.285 78.108,85.285 78.511 C 85.285 78.914,85.420 79.327,85.586 79.429 C 85.751 79.532,85.886 79.873,85.886 80.189 C 85.886 80.504,86.156 81.244,86.486 81.832 C 86.817 82.420,87.087 83.159,87.087 83.475 C 87.087 83.790,87.222 84.132,87.387 84.234 C 87.553 84.336,87.688 84.742,87.688 85.135 C 87.688 85.529,87.823 85.934,87.988 86.036 C 88.153 86.138,88.288 86.484,88.288 86.805 C 88.288 87.125,88.423 87.387,88.589 87.387 C 88.754 87.387,88.889 87.717,88.889 88.120 C 88.889 88.524,89.024 88.937,89.189 89.039 C 89.354 89.141,89.489 89.483,89.489 89.798 C 89.489 90.114,89.760 90.853,90.090 91.441 C 90.420 92.030,90.691 92.844,90.691 93.252 C 90.691 93.660,90.826 93.994,90.991 93.994 C 91.156 93.994,91.291 94.264,91.291 94.595 C 91.291 94.925,91.426 95.195,91.592 95.195 C 91.757 95.195,91.892 95.601,91.892 96.096 C 91.892 96.592,92.027 96.997,92.192 96.997 C 92.357 96.997,92.492 97.327,92.492 97.730 C 92.492 98.133,92.628 98.547,92.793 98.649 C 92.958 98.751,93.093 99.092,93.093 99.408 C 93.093 99.724,93.363 100.463,93.694 101.051 C 94.024 101.639,94.294 102.379,94.294 102.694 C 94.294 103.010,94.429 103.351,94.595 103.453 C 94.760 103.556,94.895 103.961,94.895 104.354 C 94.895 104.748,95.030 105.153,95.195 105.255 C 95.360 105.357,95.495 105.703,95.495 106.024 C 95.495 106.344,95.631 106.607,95.796 106.607 C 95.961 106.607,96.096 106.936,96.096 107.340 C 96.096 107.743,96.231 108.156,96.396 108.258 C 96.562 108.360,96.697 108.702,96.697 109.018 C 96.697 109.333,96.967 110.073,97.297 110.661 C 97.628 111.249,97.898 112.064,97.898 112.472 C 97.898 112.879,98.033 113.213,98.198 113.213 C 98.363 113.213,98.498 113.483,98.498 113.814 C 98.498 114.144,98.634 114.414,98.799 114.414 C 98.964 114.414,99.099 114.820,99.099 115.315 C 99.099 115.811,99.234 116.216,99.399 116.216 C 99.565 116.216,99.700 116.546,99.700 116.949 C 99.700 117.352,99.835 117.766,100.000 117.868 C 100.165 117.970,100.300 118.316,100.300 118.636 C 100.300 118.957,100.435 119.219,100.601 119.219 C 100.766 119.219,100.901 119.549,100.901 119.952 C 100.901 120.355,101.036 120.769,101.201 120.871 C 101.366 120.973,101.502 121.454,101.502 121.940 C 101.502 122.425,101.637 122.823,101.802 122.823 C 101.967 122.823,102.102 123.153,102.102 123.556 C 102.102 123.959,102.237 124.372,102.402 124.474 C 102.568 124.577,102.703 124.922,102.703 125.243 C 102.703 125.564,102.838 125.826,103.003 125.826 C 103.168 125.826,103.303 126.092,103.303 126.417 C 103.303 126.743,103.574 127.490,103.904 128.078 C 104.234 128.666,104.505 129.406,104.505 129.721 C 104.505 130.037,104.640 130.378,104.805 130.480 C 104.970 130.583,105.105 130.988,105.105 131.381 C 105.105 131.775,105.240 132.180,105.405 132.282 C 105.571 132.384,105.706 132.730,105.706 133.051 C 105.706 133.371,105.841 133.634,106.006 133.634 C 106.171 133.634,106.306 133.963,106.306 134.367 C 106.306 134.770,106.441 135.183,106.607 135.285 C 106.772 135.387,106.907 135.729,106.907 136.045 C 106.907 136.360,107.177 137.100,107.508 137.688 C 107.838 138.276,108.108 139.091,108.108 139.499 C 108.108 139.907,108.243 140.240,108.408 140.240 C 108.574 140.240,108.709 140.570,108.709 140.973 C 108.709 141.376,108.844 141.790,109.009 141.892 C 109.174 141.994,109.309 142.340,109.309 142.660 C 109.309 142.981,109.444 143.243,109.610 143.243 C 109.775 143.243,109.910 143.573,109.910 143.976 C 109.910 144.379,110.045 144.793,110.210 144.895 C 110.375 144.997,110.511 145.339,110.511 145.654 C 110.511 145.970,110.781 146.709,111.111 147.297 C 111.441 147.885,111.712 148.625,111.712 148.940 C 111.712 149.256,111.847 149.598,112.012 149.700 C 112.177 149.802,112.312 150.207,112.312 150.601 C 112.312 150.994,112.447 151.399,112.613 151.502 C 112.778 151.604,112.913 151.949,112.913 152.270 C 112.913 152.591,113.048 152.853,113.213 152.853 C 113.378 152.853,113.514 153.183,113.514 153.586 C 113.514 153.989,113.649 154.402,113.814 154.505 C 113.979 154.607,114.114 154.948,114.114 155.264 C 114.114 155.579,114.384 156.319,114.715 156.907 C 115.045 157.495,115.315 158.244,115.315 158.572 C 115.315 158.899,115.435 159.402,115.581 159.689 C 115.726 159.976,115.997 160.582,116.181 161.036 C 116.366 161.490,116.667 162.233,116.852 162.688 C 117.036 163.142,117.307 163.748,117.452 164.035 C 117.598 164.322,117.718 164.757,117.718 165.002 C 117.718 165.247,117.988 165.928,118.318 166.517 C 118.649 167.105,118.919 167.854,118.919 168.181 C 118.919 168.509,119.038 169.012,119.184 169.298 C 119.330 169.585,119.600 170.191,119.785 170.646 C 119.969 171.100,120.273 171.843,120.461 172.297 C 120.648 172.752,120.934 173.461,121.096 173.874 C 121.259 174.287,121.511 174.859,121.657 175.146 C 121.803 175.433,121.922 175.932,121.922 176.254 C 121.922 176.577,122.057 176.925,122.222 177.027 C 122.387 177.129,122.523 177.462,122.523 177.767 C 122.523 178.247,122.947 179.260,124.079 181.480 C 124.265 181.845,124.239 182.173,124.002 182.458 C 122.922 183.760,125.198 188.129,128.984 192.020 C 129.317 192.363,130.195 193.453,130.935 194.444 C 131.675 195.435,132.351 196.314,132.436 196.396 C 132.521 196.479,133.197 197.290,133.938 198.198 C 134.679 199.107,135.387 199.895,135.511 199.950 C 135.634 200.005,135.736 200.192,135.736 200.366 C 135.736 200.540,136.040 200.972,136.411 201.326 C 136.783 201.681,137.425 202.430,137.838 202.991 C 138.697 204.158,139.999 205.784,140.252 206.006 C 140.346 206.089,141.332 207.305,142.443 208.709 C 143.554 210.113,144.796 211.635,145.204 212.092 C 145.612 212.549,145.946 213.007,145.946 213.109 C 145.946 213.211,146.250 213.591,146.622 213.953 C 146.993 214.316,147.500 214.874,147.748 215.193 C 147.995 215.513,148.536 216.187,148.949 216.692 C 149.362 217.197,150.038 218.065,150.450 218.620 C 150.863 219.175,151.539 219.985,151.952 220.420 C 152.365 220.856,153.041 221.666,153.453 222.221 C 153.866 222.776,154.542 223.643,154.955 224.149 C 155.368 224.654,155.868 225.271,156.066 225.521 C 156.264 225.771,157.210 226.929,158.168 228.094 C 159.126 229.259,160.248 230.672,160.661 231.235 C 161.292 232.095,163.143 234.314,163.664 234.835 C 163.746 234.917,164.285 235.593,164.861 236.336 C 166.378 238.295,166.714 238.712,167.738 239.912 C 168.244 240.505,169.794 242.410,171.182 244.144 C 172.569 245.878,173.844 247.445,174.015 247.625 C 174.185 247.805,174.662 248.401,175.075 248.949 C 175.488 249.497,175.961 250.092,176.126 250.273 C 176.291 250.453,176.783 251.074,177.218 251.652 C 177.654 252.230,178.262 252.995,178.570 253.353 C 179.256 254.151,179.531 254.487,181.977 257.508 C 183.047 258.829,184.026 259.955,184.153 260.010 C 184.280 260.065,184.384 260.277,184.384 260.481 C 184.384 260.686,184.688 261.122,185.060 261.451 C 185.432 261.780,186.074 262.498,186.486 263.047 C 186.899 263.595,187.440 264.278,187.688 264.565 C 187.935 264.851,188.476 265.534,188.889 266.083 C 189.302 266.632,190.006 267.495,190.455 268.000 C 192.026 269.772,192.492 270.364,192.492 270.587 C 192.492 272.372,202.425 272.619,203.604 270.864 C 204.048 270.202,205.311 268.640,205.985 267.918 C 206.410 267.464,207.095 266.641,207.508 266.089 C 207.920 265.537,208.461 264.851,208.709 264.565 C 208.956 264.278,209.497 263.595,209.910 263.047 C 210.323 262.498,210.965 261.780,211.336 261.451 C 211.708 261.122,212.012 260.724,212.012 260.567 C 212.012 260.409,212.250 260.062,212.540 259.795 C 212.830 259.528,213.636 258.566,214.331 257.658 C 215.026 256.749,215.903 255.646,216.281 255.205 C 216.658 254.765,217.170 254.155,217.417 253.850 C 217.665 253.545,218.206 252.882,218.619 252.377 C 219.032 251.872,219.707 251.004,220.120 250.448 C 220.533 249.892,221.175 249.168,221.547 248.839 C 221.918 248.509,222.222 248.111,222.222 247.954 C 222.222 247.797,222.459 247.449,222.748 247.182 C 223.037 246.915,223.744 246.088,224.320 245.345 C 226.103 243.044,226.257 242.859,226.952 242.182 C 227.324 241.819,227.628 241.381,227.628 241.207 C 227.628 241.033,227.734 240.846,227.864 240.791 C 227.994 240.736,228.568 240.086,229.140 239.347 C 229.712 238.608,230.351 237.819,230.560 237.594 C 230.769 237.369,231.309 236.690,231.760 236.085 C 232.210 235.480,232.648 234.917,232.731 234.835 C 233.231 234.340,235.099 232.102,235.736 231.235 C 236.149 230.672,237.270 229.259,238.228 228.094 C 239.186 226.929,240.132 225.771,240.330 225.521 C 240.529 225.271,241.029 224.654,241.441 224.149 C 241.854 223.643,242.530 222.776,242.943 222.221 C 243.356 221.666,244.032 220.856,244.444 220.420 C 244.857 219.985,245.533 219.175,245.946 218.620 C 246.359 218.065,247.035 217.197,247.447 216.692 C 247.860 216.187,248.401 215.513,248.649 215.193 C 248.896 214.874,249.403 214.316,249.775 213.953 C 250.146 213.591,250.450 213.211,250.450 213.109 C 250.450 213.007,250.781 212.549,251.184 212.092 C 251.809 211.384,254.790 207.759,255.946 206.302 C 256.144 206.052,256.644 205.434,257.057 204.929 C 257.470 204.424,258.146 203.552,258.559 202.991 C 258.971 202.430,259.613 201.681,259.985 201.326 C 260.357 200.972,260.661 200.590,260.661 200.477 C 260.661 200.365,261.000 199.934,261.414 199.520 C 261.828 199.106,262.708 198.035,263.368 197.140 C 264.029 196.246,265.386 194.530,266.384 193.327 C 267.382 192.125,268.360 190.936,268.559 190.686 C 268.757 190.436,269.471 189.557,270.145 188.734 C 270.819 187.911,271.466 187.035,271.583 186.787 C 271.700 186.539,271.991 185.998,272.230 185.586 C 272.717 184.742,272.801 183.250,272.395 182.609 C 272.248 182.376,272.234 181.971,272.365 181.709 C 272.496 181.446,272.769 180.826,272.973 180.330 C 273.177 179.835,273.463 179.195,273.609 178.908 C 273.755 178.621,273.874 178.122,273.874 177.800 C 273.874 177.477,274.009 177.129,274.174 177.027 C 274.339 176.925,274.474 176.577,274.474 176.254 C 274.474 175.932,274.594 175.433,274.740 175.146 C 274.988 174.658,275.241 174.060,275.976 172.222 C 276.711 170.385,276.964 169.786,277.212 169.298 C 277.358 169.012,277.477 168.571,277.477 168.318 C 277.477 167.873,277.602 167.556,278.331 166.145 C 278.522 165.776,278.679 165.267,278.679 165.015 C 278.679 164.763,278.798 164.322,278.944 164.035 C 279.090 163.748,279.360 163.142,279.545 162.688 C 279.729 162.233,280.031 161.490,280.215 161.036 C 280.400 160.582,280.670 159.976,280.816 159.689 C 280.962 159.402,281.081 158.899,281.081 158.572 C 281.081 158.244,281.351 157.495,281.682 156.907 C 282.012 156.319,282.282 155.579,282.282 155.264 C 282.282 154.948,282.417 154.607,282.583 154.505 C 282.748 154.402,282.883 153.989,282.883 153.586 C 282.883 153.183,283.018 152.853,283.183 152.853 C 283.348 152.853,283.483 152.591,283.483 152.270 C 283.483 151.949,283.619 151.604,283.784 151.502 C 283.949 151.399,284.084 150.986,284.084 150.583 C 284.084 150.180,284.219 149.850,284.384 149.850 C 284.550 149.850,284.685 149.516,284.685 149.108 C 284.685 148.700,284.955 147.885,285.285 147.297 C 285.616 146.709,285.886 145.970,285.886 145.654 C 285.886 145.339,286.021 144.997,286.186 144.895 C 286.351 144.793,286.486 144.379,286.486 143.976 C 286.486 143.573,286.622 143.243,286.787 143.243 C 286.952 143.243,287.087 142.981,287.087 142.660 C 287.087 142.340,287.222 141.994,287.387 141.892 C 287.553 141.790,287.688 141.376,287.688 140.973 C 287.688 140.570,287.823 140.240,287.988 140.240 C 288.153 140.240,288.288 139.907,288.288 139.499 C 288.288 139.091,288.559 138.276,288.889 137.688 C 289.219 137.100,289.489 136.352,289.489 136.027 C 289.489 135.702,289.625 135.435,289.790 135.435 C 289.955 135.435,290.090 135.173,290.090 134.853 C 290.090 134.532,290.225 134.186,290.390 134.084 C 290.556 133.982,290.691 133.569,290.691 133.165 C 290.691 132.762,290.826 132.432,290.991 132.432 C 291.156 132.432,291.291 132.027,291.291 131.532 C 291.291 131.036,291.426 130.631,291.592 130.631 C 291.757 130.631,291.892 130.225,291.892 129.730 C 291.892 129.234,292.027 128.829,292.192 128.829 C 292.357 128.829,292.492 128.567,292.492 128.246 C 292.492 127.925,292.628 127.580,292.793 127.477 C 292.958 127.375,293.093 126.962,293.093 126.559 C 293.093 126.156,293.228 125.826,293.393 125.826 C 293.559 125.826,293.694 125.564,293.694 125.243 C 293.694 124.922,293.829 124.577,293.994 124.474 C 294.159 124.372,294.294 123.959,294.294 123.556 C 294.294 123.153,294.429 122.823,294.595 122.823 C 294.760 122.823,294.895 122.489,294.895 122.081 C 294.895 121.673,295.165 120.858,295.495 120.270 C 295.826 119.682,296.096 118.943,296.096 118.627 C 296.096 118.312,296.231 117.970,296.396 117.868 C 296.562 117.766,296.697 117.352,296.697 116.949 C 296.697 116.546,296.832 116.216,296.997 116.216 C 297.162 116.216,297.297 115.954,297.297 115.633 C 297.297 115.313,297.432 114.967,297.598 114.865 C 297.763 114.763,297.898 114.349,297.898 113.946 C 297.898 113.543,298.033 113.213,298.198 113.213 C 298.363 113.213,298.498 112.879,298.498 112.472 C 298.498 112.064,298.769 111.249,299.099 110.661 C 299.429 110.073,299.700 109.333,299.700 109.018 C 299.700 108.702,299.835 108.360,300.000 108.258 C 300.165 108.156,300.300 107.743,300.300 107.340 C 300.300 106.936,300.435 106.607,300.601 106.607 C 300.766 106.607,300.901 106.344,300.901 106.024 C 300.901 105.703,301.036 105.357,301.201 105.255 C 301.366 105.153,301.502 104.740,301.502 104.337 C 301.502 103.933,301.637 103.604,301.802 103.604 C 301.967 103.604,302.102 103.270,302.102 102.862 C 302.102 102.454,302.372 101.639,302.703 101.051 C 303.033 100.463,303.303 99.724,303.303 99.408 C 303.303 99.092,303.438 98.751,303.604 98.649 C 303.769 98.547,303.904 98.133,303.904 97.730 C 303.904 97.327,304.039 96.997,304.204 96.997 C 304.369 96.997,304.505 96.735,304.505 96.414 C 304.505 96.094,304.640 95.748,304.805 95.646 C 304.970 95.544,305.105 95.130,305.105 94.727 C 305.105 94.324,305.240 93.994,305.405 93.994 C 305.571 93.994,305.706 93.660,305.706 93.252 C 305.706 92.844,305.976 92.030,306.306 91.441 C 306.637 90.853,306.907 90.114,306.907 89.798 C 306.907 89.483,307.042 89.141,307.207 89.039 C 307.372 88.937,307.508 88.524,307.508 88.120 C 307.508 87.717,307.643 87.387,307.808 87.387 C 307.973 87.387,308.108 87.125,308.108 86.805 C 308.108 86.484,308.243 86.138,308.408 86.036 C 308.574 85.934,308.709 85.521,308.709 85.117 C 308.709 84.714,308.844 84.384,309.009 84.384 C 309.174 84.384,309.309 83.979,309.309 83.483 C 309.309 82.988,309.444 82.583,309.610 82.583 C 309.775 82.583,309.910 82.320,309.910 82.000 C 309.910 81.679,310.045 81.333,310.210 81.231 C 310.375 81.129,310.511 80.716,310.511 80.313 C 310.511 79.909,310.646 79.580,310.811 79.580 C 310.976 79.580,311.111 79.174,311.111 78.679 C 311.111 78.183,311.246 77.778,311.411 77.778 C 311.577 77.778,311.712 77.508,311.712 77.177 C 311.712 76.847,311.847 76.577,312.012 76.577 C 312.177 76.577,312.312 76.179,312.312 75.693 C 312.312 75.208,312.447 74.727,312.613 74.625 C 312.778 74.523,312.913 74.109,312.913 73.706 C 312.913 73.303,313.048 72.973,313.213 72.973 C 313.378 72.973,313.514 72.711,313.514 72.390 C 313.514 72.070,313.649 71.724,313.814 71.622 C 313.979 71.520,314.114 71.106,314.114 70.703 C 314.114 70.300,314.249 69.970,314.414 69.970 C 314.580 69.970,314.715 69.565,314.715 69.069 C 314.715 68.574,314.850 68.168,315.015 68.168 C 315.180 68.168,315.315 67.898,315.315 67.568 C 315.315 67.237,315.450 66.967,315.616 66.967 C 315.781 66.967,315.916 66.633,315.916 66.225 C 315.916 65.817,316.186 65.003,316.517 64.414 C 316.847 63.826,317.117 63.087,317.117 62.771 C 317.117 62.456,317.252 62.114,317.417 62.012 C 317.583 61.910,317.718 61.568,317.718 61.253 C 317.718 60.937,317.988 60.198,318.318 59.610 C 318.649 59.021,318.919 58.282,318.919 57.967 C 318.919 57.651,319.054 57.309,319.219 57.207 C 319.384 57.105,319.520 56.763,319.520 56.448 C 319.520 56.132,319.790 55.393,320.120 54.805 C 320.450 54.217,320.721 53.477,320.721 53.162 C 320.721 52.846,320.856 52.504,321.021 52.402 C 321.186 52.300,321.321 51.895,321.321 51.502 C 321.321 51.108,321.456 50.703,321.622 50.601 C 321.787 50.499,321.922 50.214,321.922 49.968 C 321.922 49.722,322.192 48.961,322.523 48.277 C 322.853 47.594,323.123 46.861,323.123 46.649 C 323.123 46.438,323.393 45.783,323.724 45.195 C 324.054 44.607,324.324 43.868,324.324 43.552 C 324.324 43.237,324.459 42.895,324.625 42.793 C 324.790 42.691,324.925 42.304,324.925 41.934 C 324.925 41.564,325.044 41.133,325.190 40.976 C 326.436 39.636,327.231 33.326,326.351 31.753 C 324.442 28.337,321.086 27.909,318.187 30.711 C 317.806 31.080,316.514 32.125,315.315 33.033 C 314.117 33.941,312.849 34.958,312.499 35.292 C 312.149 35.626,311.389 36.227,310.811 36.629 C 310.233 37.030,309.557 37.570,309.309 37.827 C 309.062 38.084,308.364 38.663,307.759 39.113 C 307.154 39.563,306.478 40.106,306.257 40.321 C 306.036 40.535,305.383 41.037,304.805 41.437 C 304.227 41.837,303.551 42.379,303.303 42.643 C 303.056 42.906,302.380 43.448,301.802 43.846 C 301.224 44.245,300.392 44.948,299.955 45.409 C 299.517 45.869,299.043 46.246,298.902 46.246 C 298.761 46.246,298.072 46.787,297.370 47.447 C 296.669 48.108,295.980 48.649,295.840 48.649 C 295.699 48.649,295.160 49.054,294.642 49.550 C 294.123 50.045,293.576 50.450,293.427 50.450 C 293.277 50.450,292.464 51.126,291.620 51.952 C 290.777 52.778,289.973 53.453,289.833 53.453 C 289.693 53.453,289.154 53.859,288.636 54.354 C 288.117 54.850,287.590 55.255,287.464 55.255 C 287.337 55.255,286.660 55.796,285.959 56.456 C 285.257 57.117,284.562 57.658,284.414 57.658 C 284.266 57.658,283.455 58.333,282.611 59.159 C 281.768 59.985,280.964 60.661,280.824 60.661 C 280.684 60.661,280.145 61.066,279.627 61.562 C 279.108 62.057,278.581 62.462,278.455 62.462 C 278.328 62.462,277.651 63.003,276.950 63.664 C 276.248 64.324,275.556 64.865,275.411 64.865 C 275.266 64.865,274.591 65.405,273.910 66.066 C 273.229 66.727,272.570 67.267,272.445 67.267 C 272.321 67.267,271.645 67.808,270.944 68.468 C 270.242 69.129,269.550 69.670,269.405 69.670 C 269.260 69.670,268.585 70.210,267.904 70.871 C 267.223 71.532,266.547 72.072,266.402 72.072 C 266.257 72.072,265.581 72.613,264.901 73.273 C 264.220 73.934,263.533 74.474,263.375 74.474 C 263.216 74.474,262.551 75.015,261.897 75.676 C 261.243 76.336,260.578 76.877,260.420 76.877 C 260.262 76.877,259.575 77.417,258.895 78.078 C 258.214 78.739,257.538 79.279,257.393 79.279 C 257.248 79.279,256.572 79.820,255.892 80.480 C 255.211 81.141,254.549 81.682,254.420 81.682 C 253.501 81.682,251.583 84.421,252.224 84.817 C 252.374 84.910,252.433 85.228,252.355 85.524 C 252.260 85.891,252.891 86.781,254.326 88.302 C 255.487 89.533,256.441 90.679,256.447 90.849 C 256.452 91.018,257.402 92.096,258.559 93.243 C 259.715 94.391,260.665 95.468,260.670 95.638 C 260.676 95.807,261.621 96.892,262.770 98.048 C 263.919 99.204,264.861 100.296,264.862 100.475 C 264.864 100.653,265.205 100.981,265.620 101.204 C 266.940 101.910,268.111 106.607,266.967 106.607 C 266.802 106.607,266.667 106.877,266.667 107.207 C 266.667 107.538,266.532 107.808,266.366 107.808 C 266.201 107.808,266.066 108.078,266.066 108.408 C 266.066 108.739,265.931 109.009,265.766 109.009 C 265.601 109.009,265.465 109.339,265.465 109.742 C 265.465 110.145,265.330 110.559,265.165 110.661 C 265.000 110.763,264.865 111.109,264.865 111.429 C 264.865 111.750,264.754 112.012,264.619 112.012 C 264.484 112.012,264.189 112.688,263.964 113.514 C 263.739 114.339,263.444 115.015,263.309 115.015 C 263.174 115.015,263.063 115.277,263.063 115.598 C 263.063 115.918,262.928 116.264,262.763 116.366 C 262.598 116.468,262.462 116.882,262.462 117.285 C 262.462 117.688,262.327 118.018,262.162 118.018 C 261.997 118.018,261.862 118.288,261.862 118.619 C 261.862 118.949,261.727 119.219,261.562 119.219 C 261.396 119.219,261.261 119.625,261.261 120.120 C 261.261 120.616,261.126 121.021,260.961 121.021 C 260.796 121.021,260.661 121.291,260.661 121.622 C 260.661 121.952,260.526 122.222,260.360 122.222 C 260.195 122.222,260.060 122.628,260.060 123.123 C 260.060 123.619,259.925 124.024,259.760 124.024 C 259.595 124.024,259.459 124.294,259.459 124.625 C 259.459 124.955,259.324 125.225,259.159 125.225 C 258.994 125.225,258.859 125.555,258.859 125.958 C 258.859 126.361,258.724 126.775,258.559 126.877 C 258.393 126.979,258.258 127.325,258.258 127.645 C 258.258 127.966,258.123 128.228,257.958 128.228 C 257.793 128.228,257.658 128.491,257.658 128.811 C 257.658 129.132,257.523 129.478,257.357 129.580 C 257.192 129.682,257.057 130.095,257.057 130.498 C 257.057 130.901,256.922 131.231,256.757 131.231 C 256.592 131.231,256.456 131.494,256.456 131.814 C 256.456 132.135,256.321 132.481,256.156 132.583 C 255.991 132.685,255.856 133.026,255.856 133.342 C 255.856 133.657,255.586 134.397,255.255 134.985 C 254.925 135.573,254.655 136.249,254.655 136.486 C 254.655 136.724,254.384 137.400,254.054 137.988 C 253.724 138.576,253.453 139.323,253.453 139.649 C 253.453 139.974,253.318 140.240,253.153 140.240 C 252.988 140.240,252.853 140.445,252.853 140.695 C 252.853 140.945,252.733 141.384,252.588 141.671 C 252.442 141.958,252.171 142.564,251.987 143.018 C 251.803 143.472,251.501 144.215,251.316 144.670 C 251.132 145.124,250.862 145.730,250.716 146.017 C 250.570 146.304,250.450 146.743,250.450 146.993 C 250.450 147.243,250.315 147.447,250.150 147.447 C 249.985 147.447,249.850 147.710,249.850 148.030 C 249.850 148.351,249.715 148.697,249.550 148.799 C 249.384 148.901,249.249 149.243,249.249 149.558 C 249.249 149.874,248.979 150.613,248.649 151.201 C 248.318 151.789,248.048 152.465,248.048 152.703 C 248.048 152.940,247.778 153.616,247.447 154.204 C 247.117 154.792,246.847 155.540,246.847 155.865 C 246.847 156.190,246.712 156.456,246.547 156.456 C 246.381 156.456,246.246 156.661,246.246 156.911 C 246.246 157.161,246.127 157.600,245.981 157.887 C 245.681 158.477,244.883 160.412,244.187 162.237 C 244.045 162.609,243.640 163.500,243.286 164.218 C 242.932 164.935,242.643 165.708,242.643 165.935 C 242.643 166.162,242.372 166.829,242.042 167.417 C 241.712 168.006,241.441 168.681,241.441 168.919 C 241.441 169.157,241.171 169.832,240.841 170.420 C 240.511 171.009,240.240 171.684,240.240 171.922 C 240.240 172.160,239.970 172.835,239.640 173.423 C 239.309 174.012,239.039 174.679,239.039 174.906 C 239.039 175.133,238.750 175.906,238.396 176.623 C 238.042 177.341,237.656 178.198,237.538 178.529 C 237.419 178.859,237.033 179.716,236.679 180.434 C 236.325 181.151,236.036 181.924,236.036 182.151 C 236.036 182.378,235.766 183.046,235.435 183.634 C 235.105 184.222,234.835 184.897,234.835 185.135 C 234.835 185.373,234.565 186.049,234.234 186.637 C 233.904 187.225,233.634 187.889,233.634 188.113 C 233.634 189.057,232.347 190.787,228.604 194.878 C 227.736 195.826,227.027 196.712,227.027 196.849 C 227.027 197.083,226.264 197.967,222.147 202.503 C 221.197 203.549,220.420 204.511,220.420 204.641 C 220.420 204.862,219.103 206.392,215.390 210.480 C 214.523 211.435,213.814 212.344,213.814 212.499 C 213.814 212.654,213.003 213.584,212.012 214.565 C 211.021 215.545,210.210 216.475,210.210 216.630 C 210.210 216.786,209.501 217.694,208.634 218.650 C 207.767 219.606,206.314 221.295,205.405 222.404 C 204.497 223.513,203.047 225.142,202.184 226.024 L 200.613 227.628 198.198 227.628 L 195.783 227.628 194.213 226.002 C 193.349 225.108,191.899 223.483,190.991 222.392 C 190.083 221.300,188.630 219.621,187.763 218.660 C 186.896 217.699,186.186 216.801,186.186 216.665 C 186.186 216.529,185.409 215.561,184.459 214.515 C 180.340 209.976,179.580 209.095,179.580 208.859 C 179.580 208.722,178.803 207.753,177.853 206.707 C 173.733 202.168,172.973 201.287,172.973 201.051 C 172.973 200.914,172.196 199.946,171.246 198.899 C 167.075 194.303,166.366 193.476,166.366 193.205 C 166.366 193.047,165.752 192.315,165.001 191.579 C 163.654 190.259,162.763 188.874,162.763 188.101 C 162.763 187.884,162.492 187.225,162.162 186.637 C 161.832 186.049,161.562 185.373,161.562 185.135 C 161.562 184.897,161.291 184.222,160.961 183.634 C 160.631 183.046,160.360 182.370,160.360 182.132 C 160.360 181.894,160.090 181.219,159.760 180.631 C 159.429 180.043,159.159 179.367,159.159 179.129 C 159.159 178.891,158.889 178.216,158.559 177.628 C 158.228 177.040,157.954 176.393,157.949 176.192 C 157.943 175.991,157.538 175.018,157.048 174.032 C 156.557 173.045,156.156 172.069,156.156 171.864 C 156.156 171.658,155.886 171.009,155.556 170.420 C 155.225 169.832,154.955 169.157,154.955 168.919 C 154.955 168.681,154.685 168.006,154.354 167.417 C 154.024 166.829,153.754 166.154,153.754 165.916 C 153.754 165.678,153.483 165.003,153.153 164.414 C 152.823 163.826,152.553 163.151,152.553 162.913 C 152.553 162.675,152.282 162.000,151.952 161.411 C 151.622 160.823,151.351 160.210,151.351 160.048 C 151.351 159.886,151.068 159.113,150.721 158.330 C 150.374 157.547,149.953 156.569,149.785 156.156 C 149.617 155.743,149.360 155.171,149.214 154.884 C 149.068 154.597,148.949 154.158,148.949 153.908 C 148.949 153.658,148.814 153.453,148.649 153.453 C 148.483 153.453,148.348 153.187,148.348 152.862 C 148.348 152.537,148.078 151.789,147.748 151.201 C 147.417 150.613,147.147 149.874,147.147 149.558 C 147.147 149.243,147.012 148.901,146.847 148.799 C 146.682 148.697,146.547 148.351,146.547 148.030 C 146.547 147.710,146.411 147.447,146.246 147.447 C 146.081 147.447,145.946 147.190,145.946 146.875 C 145.946 146.381,145.581 145.504,144.407 143.172 C 144.262 142.885,144.144 142.379,144.144 142.046 C 144.144 141.714,144.009 141.441,143.844 141.441 C 143.679 141.441,143.544 141.237,143.544 140.987 C 143.544 140.737,143.387 140.230,143.196 139.861 C 142.468 138.452,142.342 138.133,142.342 137.692 C 142.342 137.442,142.207 137.237,142.042 137.237 C 141.877 137.237,141.742 136.971,141.742 136.646 C 141.742 136.320,141.471 135.573,141.141 134.985 C 140.811 134.397,140.541 133.657,140.541 133.342 C 140.541 133.026,140.405 132.685,140.240 132.583 C 140.075 132.481,139.940 132.135,139.940 131.814 C 139.940 131.494,139.805 131.231,139.640 131.231 C 139.474 131.231,139.339 130.826,139.339 130.330 C 139.339 129.835,139.204 129.429,139.039 129.429 C 138.874 129.429,138.739 129.159,138.739 128.829 C 138.739 128.498,138.628 128.228,138.493 128.228 C 138.357 128.228,138.063 127.553,137.838 126.727 C 137.613 125.901,137.318 125.225,137.183 125.225 C 137.048 125.225,136.937 124.963,136.937 124.642 C 136.937 124.322,136.802 123.976,136.637 123.874 C 136.471 123.772,136.336 123.358,136.336 122.955 C 136.336 122.552,136.201 122.222,136.036 122.222 C 135.871 122.222,135.736 121.960,135.736 121.639 C 135.736 121.319,135.601 120.973,135.435 120.871 C 135.270 120.769,135.135 120.355,135.135 119.952 C 135.135 119.549,135.000 119.219,134.835 119.219 C 134.670 119.219,134.535 118.949,134.535 118.619 C 134.535 118.288,134.399 118.018,134.234 118.018 C 134.069 118.018,133.934 117.613,133.934 117.117 C 133.934 116.622,133.799 116.216,133.634 116.216 C 133.468 116.216,133.333 115.946,133.333 115.616 C 133.333 115.285,133.198 115.015,133.033 115.015 C 132.868 115.015,132.733 114.685,132.733 114.282 C 132.733 113.879,132.598 113.465,132.432 113.363 C 132.267 113.261,132.132 112.915,132.132 112.595 C 132.132 112.274,131.997 112.012,131.832 112.012 C 131.667 112.012,131.532 111.682,131.532 111.279 C 131.532 110.876,131.396 110.462,131.231 110.360 C 131.066 110.258,130.931 109.912,130.931 109.592 C 130.931 109.271,130.796 109.009,130.631 109.009 C 130.465 109.009,130.330 108.810,130.330 108.568 C 130.330 108.325,130.060 107.645,129.730 107.057 C 128.608 105.061,129.142 102.079,130.776 101.204 C 131.192 100.981,131.532 100.688,131.532 100.551 C 131.532 100.414,132.477 99.306,133.634 98.089 C 134.790 96.872,135.736 95.753,135.736 95.603 C 135.736 95.452,136.682 94.391,137.838 93.243 C 138.994 92.096,139.945 91.018,139.951 90.849 C 139.957 90.679,140.909 89.544,142.066 88.326 C 143.223 87.108,144.133 85.892,144.089 85.623 C 144.045 85.355,144.113 84.969,144.241 84.766 C 144.625 84.154,142.831 81.728,141.967 81.691 C 141.844 81.686,141.185 81.141,140.505 80.480 C 139.824 79.820,139.148 79.279,139.003 79.279 C 138.858 79.279,138.182 78.739,137.502 78.078 C 136.821 77.417,136.134 76.877,135.976 76.877 C 135.818 76.877,135.153 76.336,134.499 75.676 C 133.845 75.015,133.180 74.474,133.022 74.474 C 132.863 74.474,132.176 73.934,131.496 73.273 C 130.815 72.613,130.139 72.072,129.994 72.072 C 129.849 72.072,129.173 71.532,128.493 70.871 C 127.812 70.210,127.136 69.670,126.991 69.670 C 126.847 69.670,126.154 69.129,125.453 68.468 C 124.751 67.808,124.076 67.267,123.951 67.267 C 123.826 67.267,123.167 66.727,122.487 66.066 C 121.806 65.405,121.130 64.865,120.985 64.865 C 120.841 64.865,120.148 64.324,119.447 63.664 C 118.745 63.003,118.051 62.462,117.905 62.462 C 117.758 62.462,117.419 62.220,117.152 61.923 C 116.885 61.626,116.194 61.052,115.616 60.648 C 115.038 60.244,114.042 59.405,113.402 58.785 C 112.763 58.165,112.121 57.658,111.976 57.658 C 111.831 57.658,111.139 57.117,110.438 56.456 C 109.736 55.796,109.059 55.255,108.933 55.255 C 108.807 55.255,108.279 54.850,107.761 54.354 C 107.242 53.859,106.703 53.453,106.564 53.453 C 106.424 53.453,105.619 52.778,104.776 51.952 C 103.933 51.126,103.120 50.450,102.970 50.450 C 102.820 50.450,102.273 50.045,101.755 49.550 C 101.236 49.054,100.697 48.649,100.556 48.649 C 100.416 48.649,99.744 48.108,99.063 47.447 C 98.382 46.787,97.707 46.246,97.563 46.246 C 97.418 46.246,96.610 45.571,95.767 44.745 C 94.924 43.919,94.094 43.243,93.924 43.243 C 93.753 43.243,93.395 43.000,93.128 42.703 C 92.861 42.407,92.170 41.840,91.592 41.445 C 91.014 41.050,90.168 40.347,89.712 39.883 C 89.256 39.419,88.770 39.039,88.631 39.039 C 88.491 39.039,87.986 38.666,87.507 38.210 C 87.028 37.754,86.164 37.047,85.586 36.640 C 85.008 36.232,84.248 35.626,83.897 35.292 C 83.547 34.958,82.280 33.941,81.081 33.033 C 79.883 32.125,78.590 31.080,78.209 30.711 C 76.434 28.995,74.026 28.388,72.450 29.260 " stroke="none" fill="#fbfcfc" fill-rule="evenodd"></path><path id="path3" d="M197.372 25.741 C 197.827 25.809,198.570 25.809,199.024 25.741 C 199.478 25.672,199.107 25.616,198.198 25.616 C 197.290 25.616,196.918 25.672,197.372 25.741 M191.138 30.333 C 190.665 30.827,190.350 31.231,190.438 31.231 C 190.756 31.231,192.312 29.750,192.157 29.595 C 192.070 29.507,191.611 29.840,191.138 30.333 M205.405 30.931 C 205.758 31.426,206.114 31.832,206.197 31.832 C 206.280 31.832,206.059 31.426,205.706 30.931 C 205.353 30.435,204.997 30.030,204.914 30.030 C 204.831 30.030,205.053 30.435,205.405 30.931 M214.114 40.592 C 214.114 40.890,215.320 42.138,215.466 41.991 C 215.547 41.910,215.276 41.527,214.864 41.140 C 214.451 40.753,214.114 40.506,214.114 40.592 M178.904 44.262 C 178.355 44.678,178.216 45.045,178.606 45.045 C 178.732 45.045,179.003 44.775,179.210 44.444 C 179.647 43.745,179.612 43.724,178.904 44.262 M217.417 44.616 C 217.417 44.840,218.225 45.646,218.450 45.646 C 218.545 45.646,218.455 45.375,218.249 45.045 C 217.897 44.481,217.417 44.234,217.417 44.616 M165.262 59.835 C 164.928 60.206,164.553 60.713,164.429 60.961 C 164.305 61.209,164.623 60.954,165.135 60.395 C 165.647 59.836,166.066 59.329,166.066 59.269 C 166.066 59.032,165.845 59.188,165.262 59.835 M234.234 63.789 C 234.234 64.105,235.139 64.961,235.301 64.799 C 235.377 64.723,235.168 64.416,234.837 64.116 C 234.505 63.816,234.234 63.669,234.234 63.789 M157.505 68.772 C 157.031 69.266,156.780 69.670,156.947 69.670 C 157.293 69.670,158.664 68.174,158.484 67.993 C 158.418 67.928,157.978 68.278,157.505 68.772 M238.438 68.632 C 238.438 68.722,238.793 69.161,239.226 69.608 L 240.013 70.420 239.461 69.444 C 238.976 68.587,238.438 68.159,238.438 68.632 M145.195 82.808 C 144.700 83.404,144.332 84.059,144.377 84.265 C 144.423 84.471,144.334 84.717,144.180 84.812 C 144.026 84.908,143.965 85.234,144.045 85.538 C 144.145 85.922,143.545 86.769,142.076 88.316 C 140.913 89.539,139.957 90.679,139.951 90.849 C 139.945 91.018,138.994 92.096,137.838 93.243 C 136.682 94.391,135.736 95.464,135.736 95.630 C 135.736 95.795,134.891 96.812,133.859 97.890 L 131.982 99.850 134.009 97.907 C 135.124 96.838,136.036 95.821,136.036 95.646 C 136.036 95.472,136.982 94.391,138.138 93.243 C 139.294 92.096,140.240 91.034,140.240 90.884 C 140.240 90.733,141.172 89.629,142.312 88.430 C 144.174 86.469,144.962 85.061,144.684 84.191 C 144.635 84.037,144.966 83.539,145.420 83.083 C 145.875 82.628,146.246 82.126,146.246 81.968 C 146.246 81.563,146.200 81.600,145.195 82.808 M250.450 82.423 C 250.450 82.803,251.883 84.138,252.026 83.891 C 252.107 83.749,251.786 83.319,251.312 82.935 C 250.838 82.551,250.450 82.320,250.450 82.423 M251.656 84.723 C 251.665 85.473,252.143 86.002,252.343 85.483 C 252.439 85.233,252.322 84.867,252.084 84.670 C 251.743 84.387,251.653 84.398,251.656 84.723 M253.754 87.895 C 253.754 87.994,254.362 88.726,255.105 89.521 C 255.848 90.315,256.456 90.884,256.456 90.784 C 256.456 90.684,255.848 89.953,255.105 89.158 C 254.362 88.364,253.754 87.795,253.754 87.895 M258.569 93.551 C 259.637 94.712,260.572 95.619,260.647 95.567 C 260.722 95.515,259.848 94.566,258.705 93.457 L 256.628 91.441 258.569 93.551 M260.961 96.326 C 260.961 96.421,261.839 97.408,262.913 98.520 C 263.986 99.632,264.865 100.465,264.865 100.370 C 264.865 100.276,263.986 99.288,262.913 98.176 C 261.839 97.064,260.961 96.232,260.961 96.326 M130.521 101.344 C 129.590 102.049,129.126 103.288,129.183 104.914 L 129.237 106.456 129.340 104.955 C 129.455 103.269,129.893 102.198,130.781 101.436 C 131.504 100.816,131.310 100.747,130.521 101.344 M265.616 101.402 C 266.537 102.246,266.946 103.296,267.056 105.105 L 267.156 106.757 267.212 105.064 C 267.273 103.182,266.800 101.988,265.720 101.301 C 265.026 100.860,265.024 100.861,265.616 101.402 M132.156 112.520 C 132.143 112.882,132.267 113.261,132.432 113.363 C 132.598 113.465,132.748 113.913,132.768 114.357 C 132.792 114.934,132.844 115.004,132.947 114.600 C 133.027 114.289,132.954 113.749,132.784 113.399 C 132.615 113.049,132.410 112.560,132.328 112.312 C 132.234 112.028,132.171 112.104,132.156 112.520 M135.159 120.027 C 135.146 120.389,135.270 120.769,135.435 120.871 C 135.601 120.973,135.746 121.353,135.759 121.714 C 135.773 122.093,135.852 122.201,135.944 121.967 C 136.033 121.745,135.965 121.272,135.793 120.916 C 135.620 120.561,135.413 120.068,135.331 119.820 C 135.237 119.535,135.174 119.612,135.159 120.027 M136.360 123.030 C 136.347 123.392,136.471 123.772,136.637 123.874 C 136.802 123.976,136.948 124.356,136.961 124.717 C 136.974 125.096,137.053 125.204,137.146 124.970 C 137.234 124.748,137.166 124.275,136.994 123.919 C 136.822 123.564,136.614 123.071,136.532 122.823 C 136.438 122.538,136.375 122.615,136.360 123.030 M137.554 125.676 C 137.550 125.841,137.741 126.517,137.979 127.177 C 138.217 127.838,138.418 128.157,138.425 127.887 C 138.433 127.617,138.241 126.942,138.000 126.386 C 137.758 125.830,137.558 125.511,137.554 125.676 M139.942 131.889 C 139.941 132.168,140.075 132.481,140.240 132.583 C 140.405 132.685,140.541 133.026,140.541 133.342 C 140.541 133.657,140.799 134.376,141.115 134.939 C 141.432 135.502,141.751 136.283,141.825 136.675 C 141.955 137.359,141.962 137.361,142.001 136.721 C 142.024 136.354,141.772 135.573,141.441 134.985 C 141.111 134.397,140.841 133.733,140.841 133.509 C 140.841 133.285,140.639 132.715,140.392 132.242 C 140.108 131.697,139.943 131.568,139.942 131.889 M255.579 133.541 C 255.566 133.903,255.437 134.272,255.292 134.362 C 255.029 134.524,254.612 135.736,254.819 135.736 C 255.089 135.736,255.897 133.615,255.758 133.270 C 255.673 133.057,255.592 133.179,255.579 133.541 M254.378 136.402 C 254.365 136.686,254.084 137.400,253.754 137.988 C 253.423 138.576,253.169 139.357,253.188 139.724 C 253.220 140.327,253.235 140.333,253.354 139.790 C 253.427 139.459,253.764 138.627,254.104 137.939 C 254.444 137.252,254.650 136.508,254.562 136.287 C 254.452 136.012,254.394 136.049,254.378 136.402 M142.344 137.895 C 142.343 138.174,142.477 138.487,142.643 138.589 C 142.808 138.691,142.943 139.029,142.943 139.339 C 142.943 139.650,143.065 139.980,143.215 140.073 C 143.550 140.280,143.278 139.174,142.742 138.146 C 142.468 137.621,142.345 137.544,142.344 137.895 M252.452 140.999 C 251.811 142.849,251.723 143.235,251.977 143.077 C 252.129 142.984,252.252 142.672,252.252 142.385 C 252.252 142.097,252.403 141.712,252.586 141.528 C 252.770 141.344,252.861 141.016,252.789 140.800 C 252.703 140.541,252.587 140.609,252.452 140.999 M144.168 142.121 C 144.155 142.412,144.268 142.885,144.419 143.172 C 144.570 143.459,144.915 144.200,145.184 144.820 C 145.453 145.439,145.743 145.946,145.828 145.946 C 145.912 145.946,145.933 145.845,145.874 145.721 C 145.769 145.499,145.432 144.716,144.807 143.243 C 144.632 142.830,144.422 142.290,144.340 142.042 C 144.226 141.695,144.186 141.713,144.168 142.121 M251.251 144.002 C 250.609 145.852,250.521 146.238,250.776 146.080 C 250.927 145.987,251.051 145.675,251.051 145.388 C 251.051 145.100,251.201 144.715,251.385 144.531 C 251.569 144.347,251.660 144.019,251.588 143.803 C 251.502 143.544,251.386 143.612,251.251 144.002 M146.548 148.105 C 146.547 148.385,146.682 148.697,146.847 148.799 C 147.012 148.901,147.147 149.243,147.147 149.558 C 147.147 149.874,147.406 150.593,147.722 151.155 C 148.038 151.718,148.358 152.500,148.432 152.891 C 148.562 153.576,148.568 153.577,148.608 152.937 C 148.630 152.570,148.378 151.789,148.048 151.201 C 147.718 150.613,147.447 149.949,147.447 149.725 C 147.447 149.501,147.246 148.931,146.999 148.458 C 146.715 147.914,146.550 147.784,146.548 148.105 M249.324 148.568 C 249.118 149.009,248.949 149.541,248.949 149.750 C 248.949 149.960,248.679 150.613,248.348 151.201 C 248.018 151.789,247.748 152.465,247.748 152.703 C 247.748 152.940,247.470 153.629,247.131 154.233 C 246.792 154.836,246.571 155.618,246.640 155.968 C 246.762 156.592,246.766 156.592,246.806 155.940 C 246.828 155.573,247.117 154.792,247.447 154.204 C 247.778 153.616,248.048 152.940,248.048 152.703 C 248.048 152.465,248.318 151.789,248.649 151.201 C 248.979 150.613,249.249 149.893,249.249 149.600 C 249.249 149.308,249.400 148.919,249.583 148.735 C 249.767 148.551,249.868 148.258,249.809 148.084 C 249.749 147.910,249.531 148.128,249.324 148.568 M148.951 154.111 C 148.950 154.391,149.084 154.703,149.249 154.805 C 149.414 154.907,149.565 155.286,149.584 155.648 C 149.606 156.063,149.666 156.133,149.746 155.837 C 149.815 155.579,149.665 154.970,149.412 154.485 C 149.127 153.937,148.952 153.796,148.951 154.111 M150.185 156.798 C 150.166 157.068,150.352 157.676,150.599 158.149 C 150.845 158.622,151.048 158.800,151.049 158.544 C 151.050 158.288,150.929 157.950,150.780 157.793 C 150.631 157.636,150.444 157.237,150.364 156.907 C 150.263 156.484,150.210 156.452,150.185 156.798 M245.846 157.215 C 245.204 159.065,245.116 159.451,245.371 159.294 C 245.522 159.200,245.646 158.888,245.646 158.601 C 245.646 158.313,245.796 157.928,245.980 157.744 C 246.163 157.560,246.255 157.233,246.183 157.016 C 246.096 156.757,245.981 156.825,245.846 157.215 M151.237 159.669 C 151.529 160.554,152.272 162.162,152.388 162.162 C 152.595 162.162,152.178 160.951,151.916 160.788 C 151.770 160.699,151.652 160.371,151.652 160.060 C 151.652 159.749,151.518 159.412,151.355 159.311 C 151.180 159.203,151.132 159.351,151.237 159.669 M244.644 160.218 C 244.003 162.068,243.915 162.454,244.170 162.297 C 244.321 162.203,244.444 161.891,244.444 161.604 C 244.444 161.316,244.595 160.931,244.779 160.747 C 244.962 160.563,245.054 160.236,244.981 160.019 C 244.895 159.760,244.780 159.828,244.644 160.218 M152.587 162.829 C 152.568 163.113,152.823 163.826,153.153 164.414 C 153.483 165.003,153.754 165.678,153.754 165.916 C 153.754 166.154,154.024 166.829,154.354 167.417 C 154.685 168.006,154.955 168.681,154.955 168.919 C 154.955 169.157,155.225 169.832,155.556 170.420 C 155.886 171.009,156.156 171.665,156.156 171.880 C 156.156 172.095,156.493 172.935,156.906 173.748 C 157.318 174.560,157.656 175.060,157.656 174.859 C 157.657 174.658,157.387 174.012,157.057 173.423 C 156.727 172.835,156.456 172.160,156.456 171.922 C 156.456 171.684,156.186 171.009,155.856 170.420 C 155.526 169.832,155.255 169.157,155.255 168.919 C 155.255 168.681,154.985 168.006,154.655 167.417 C 154.324 166.829,154.054 166.154,154.054 165.916 C 154.054 165.678,153.798 165.027,153.484 164.469 C 153.171 163.911,152.849 163.198,152.768 162.884 C 152.646 162.405,152.617 162.396,152.587 162.829 M243.018 164.220 C 242.646 164.997,242.342 165.794,242.342 165.991 C 242.342 166.187,242.072 166.829,241.742 167.417 C 241.411 168.006,241.141 168.681,241.141 168.919 C 241.141 169.157,240.871 169.832,240.541 170.420 C 240.210 171.009,239.940 171.684,239.940 171.922 C 239.940 172.160,239.670 172.835,239.339 173.423 C 239.009 174.012,238.739 174.687,238.739 174.925 C 238.739 175.163,238.462 175.850,238.123 176.453 C 237.784 177.056,237.566 177.770,237.638 178.039 C 237.752 178.469,237.772 178.465,237.803 178.012 C 237.822 177.728,238.108 177.015,238.438 176.426 C 238.769 175.838,239.039 175.163,239.039 174.925 C 239.039 174.687,239.309 174.012,239.640 173.423 C 239.970 172.835,240.240 172.160,240.240 171.922 C 240.240 171.684,240.511 171.009,240.841 170.420 C 241.171 169.832,241.441 169.157,241.441 168.919 C 241.441 168.681,241.712 168.006,242.042 167.417 C 242.372 166.829,242.643 166.154,242.643 165.916 C 242.643 165.678,242.919 164.991,243.257 164.390 C 243.595 163.788,243.831 163.186,243.783 163.051 C 243.734 162.917,243.390 163.443,243.018 164.220 M157.888 176.042 C 158.172 177.127,158.855 178.310,158.857 177.720 C 158.858 177.441,158.724 177.129,158.559 177.027 C 158.393 176.925,158.258 176.587,158.258 176.276 C 158.258 175.965,158.136 175.635,157.986 175.543 C 157.836 175.450,157.792 175.675,157.888 176.042 M159.194 179.045 C 159.175 179.329,159.429 180.043,159.760 180.631 C 160.090 181.219,160.360 181.894,160.360 182.132 C 160.360 182.370,160.631 183.046,160.961 183.634 C 161.291 184.222,161.562 184.897,161.562 185.135 C 161.562 185.373,161.832 186.049,162.162 186.637 C 162.492 187.225,162.763 187.884,162.763 188.101 C 162.763 188.874,163.654 190.259,165.001 191.579 C 165.752 192.315,166.366 193.046,166.366 193.204 C 166.366 193.361,167.110 194.268,168.018 195.221 C 168.926 196.173,169.670 196.856,169.670 196.738 C 169.670 196.620,168.994 195.858,168.168 195.045 C 167.342 194.232,166.667 193.420,166.667 193.242 C 166.667 193.064,166.052 192.315,165.301 191.579 C 163.954 190.259,163.063 188.874,163.063 188.101 C 163.063 187.884,162.793 187.225,162.462 186.637 C 162.132 186.049,161.862 185.373,161.862 185.135 C 161.862 184.897,161.592 184.222,161.261 183.634 C 160.931 183.046,160.661 182.370,160.661 182.132 C 160.661 181.894,160.404 181.243,160.091 180.686 C 159.778 180.128,159.455 179.414,159.375 179.100 C 159.252 178.621,159.223 178.612,159.194 179.045 M236.830 179.493 C 236.729 179.788,236.513 180.334,236.351 180.706 C 235.870 181.805,236.264 181.475,236.812 180.320 C 237.089 179.736,237.248 179.190,237.165 179.106 C 237.081 179.023,236.931 179.197,236.830 179.493 M235.771 182.048 C 235.751 182.332,235.465 183.046,235.135 183.634 C 234.805 184.222,234.535 184.961,234.535 185.277 C 234.535 185.592,234.416 185.924,234.270 186.014 C 234.014 186.172,233.589 187.387,233.790 187.387 C 233.973 187.387,234.835 185.499,234.835 185.098 C 234.835 184.881,235.112 184.210,235.451 183.607 C 235.789 183.004,236.008 182.290,235.936 182.021 C 235.821 181.591,235.801 181.595,235.771 182.048 M231.682 190.930 C 231.021 191.660,230.359 192.480,230.211 192.751 C 230.063 193.022,230.004 193.176,230.081 193.093 C 232.107 190.918,233.100 189.763,233.003 189.691 C 232.937 189.642,232.342 190.199,231.682 190.930 M228.293 194.979 C 227.432 195.852,226.727 196.701,226.727 196.868 C 226.727 197.034,226.051 197.835,225.225 198.649 C 224.399 199.462,223.724 200.224,223.724 200.342 C 223.724 200.460,224.467 199.777,225.375 198.824 C 226.284 197.872,227.027 196.974,227.027 196.829 C 227.027 196.684,227.732 195.852,228.593 194.979 C 229.455 194.107,230.092 193.393,230.010 193.393 C 229.927 193.393,229.155 194.107,228.293 194.979 M171.246 198.958 C 172.196 199.953,172.973 200.887,172.973 201.033 C 172.973 201.178,173.716 202.076,174.625 203.029 C 175.533 203.981,176.276 204.664,176.276 204.546 C 176.276 204.428,175.601 203.666,174.775 202.853 C 173.949 202.039,173.273 201.229,173.273 201.053 C 173.273 200.876,172.429 199.925,171.396 198.940 L 169.520 197.147 171.246 198.958 M222.061 202.477 L 220.571 204.054 222.147 202.564 C 223.014 201.744,223.724 201.035,223.724 200.987 C 223.724 200.763,223.446 201.012,222.061 202.477 M218.769 206.246 C 217.943 207.136,217.146 208.088,216.998 208.361 C 216.850 208.635,216.789 208.791,216.863 208.709 C 216.937 208.626,217.789 207.713,218.757 206.679 C 219.724 205.646,220.461 204.762,220.393 204.714 C 220.326 204.667,219.595 205.356,218.769 206.246 M177.853 206.765 C 178.803 207.761,179.580 208.695,179.580 208.840 C 179.580 208.986,180.323 209.884,181.231 210.836 C 182.140 211.789,182.883 212.472,182.883 212.354 C 182.883 212.236,182.207 211.474,181.381 210.661 C 180.556 209.847,179.880 209.037,179.880 208.861 C 179.880 208.684,179.035 207.733,178.003 206.747 L 176.126 204.955 177.853 206.765 M215.315 210.360 C 214.586 211.104,214.057 211.712,214.139 211.712 C 214.222 211.712,214.886 211.104,215.616 210.360 C 216.345 209.617,216.874 209.009,216.792 209.009 C 216.709 209.009,216.045 209.617,215.315 210.360 M211.787 214.429 C 210.755 215.519,209.910 216.541,209.910 216.700 C 209.910 216.859,209.234 217.655,208.408 218.468 C 207.583 219.282,206.907 220.044,206.907 220.162 C 206.907 220.279,207.650 219.597,208.559 218.644 C 209.467 217.692,210.210 216.793,210.210 216.648 C 210.210 216.502,211.047 215.538,212.070 214.506 C 213.093 213.474,213.870 212.588,213.797 212.538 C 213.724 212.488,212.819 213.339,211.787 214.429 M184.459 214.573 C 185.409 215.569,186.186 216.503,186.186 216.648 C 186.186 216.794,186.929 217.692,187.838 218.644 C 188.746 219.597,189.489 220.279,189.489 220.162 C 189.489 220.044,188.814 219.282,187.988 218.468 C 187.162 217.655,186.486 216.845,186.486 216.669 C 186.486 216.492,185.642 215.541,184.610 214.555 L 182.733 212.763 184.459 214.573 M190.841 222.222 C 191.654 223.048,192.387 223.724,192.470 223.724 C 192.552 223.724,191.955 223.048,191.141 222.222 C 190.328 221.396,189.595 220.721,189.512 220.721 C 189.429 220.721,190.027 221.396,190.841 222.222 M205.224 222.337 C 204.415 223.226,203.232 224.611,202.594 225.415 L 201.433 226.877 202.594 225.617 C 204.861 223.153,206.967 220.721,206.831 220.721 C 206.756 220.721,206.032 221.448,205.224 222.337 M192.727 224.474 C 192.901 224.805,193.557 225.548,194.184 226.126 C 195.220 227.081,194.337 225.945,192.551 224.024 C 192.474 223.941,192.553 224.144,192.727 224.474 " stroke="none" fill="#c49ef4" fill-rule="evenodd"></path><path id="path4" d="M195.195 26.473 C 194.617 26.800,193.671 27.699,193.093 28.472 C 192.515 29.244,191.346 30.620,190.496 31.530 C 189.646 32.439,188.186 34.062,187.253 35.135 C 186.320 36.209,185.292 37.362,184.970 37.698 C 184.648 38.034,184.384 38.482,184.384 38.692 C 184.384 38.902,184.264 39.000,184.117 38.909 C 183.970 38.818,183.651 39.047,183.408 39.417 C 183.165 39.787,182.576 40.519,182.099 41.043 C 181.622 41.567,180.758 42.571,180.180 43.273 C 179.602 43.975,178.724 44.968,178.228 45.477 C 177.733 45.987,176.962 46.876,176.515 47.452 C 176.068 48.027,174.820 49.444,173.740 50.601 C 172.661 51.757,171.776 52.795,171.775 52.908 C 171.773 53.021,171.062 53.832,170.195 54.710 C 169.328 55.588,168.281 56.757,167.868 57.308 C 167.455 57.858,166.644 58.825,166.066 59.456 C 165.488 60.088,164.407 61.304,163.664 62.159 C 162.920 63.015,161.922 64.142,161.446 64.665 C 160.969 65.188,160.091 66.224,159.495 66.967 C 158.899 67.710,158.005 68.748,157.509 69.272 C 157.013 69.797,156.134 70.800,155.556 71.502 C 154.977 72.204,154.099 73.195,153.604 73.704 C 153.108 74.213,152.369 75.125,151.962 75.731 C 151.554 76.336,151.115 76.766,150.986 76.686 C 150.856 76.606,150.750 76.650,150.749 76.784 C 150.749 76.918,149.938 77.896,148.948 78.958 C 147.957 80.020,147.147 81.067,147.147 81.285 C 147.147 81.503,146.944 81.682,146.697 81.682 C 146.449 81.682,146.246 81.811,146.246 81.968 C 146.246 82.496,144.714 83.800,144.350 83.582 C 144.143 83.458,144.166 83.580,144.405 83.875 C 144.631 84.153,144.747 84.642,144.664 84.961 C 144.578 85.289,145.210 84.801,146.119 83.836 C 147.003 82.899,147.731 81.950,147.737 81.727 C 147.743 81.504,148.136 80.964,148.610 80.526 C 149.084 80.088,150.030 79.218,150.712 78.591 C 151.394 77.965,151.952 77.276,151.952 77.059 C 151.952 76.645,152.823 75.680,154.905 73.787 C 155.593 73.161,156.156 72.459,156.156 72.227 C 156.156 71.995,157.102 70.893,158.258 69.778 C 159.414 68.663,160.360 67.561,160.360 67.329 C 160.360 67.097,160.748 66.549,161.222 66.111 C 161.697 65.674,162.642 64.803,163.325 64.177 C 164.007 63.551,164.565 62.862,164.565 62.645 C 164.565 62.231,165.436 61.265,167.517 59.372 C 168.206 58.746,168.769 58.044,168.769 57.812 C 168.769 57.580,169.715 56.478,170.871 55.363 C 172.027 54.248,172.973 53.180,172.973 52.989 C 172.973 52.609,174.056 51.421,175.719 49.975 C 176.305 49.466,177.041 48.587,177.356 48.023 C 177.671 47.459,178.198 46.750,178.529 46.448 C 180.867 44.311,181.322 43.818,181.661 43.053 C 181.871 42.580,182.754 41.584,183.624 40.841 C 184.493 40.098,185.427 39.042,185.699 38.494 C 185.972 37.947,186.946 36.806,187.864 35.959 C 188.782 35.113,189.724 34.051,189.957 33.601 C 190.190 33.150,191.227 31.922,192.262 30.873 C 193.297 29.823,194.347 28.697,194.595 28.371 C 196.160 26.309,201.197 26.621,202.316 28.849 C 202.516 29.248,203.545 30.389,204.601 31.385 C 205.658 32.381,206.610 33.471,206.716 33.807 C 206.823 34.143,207.788 35.261,208.860 36.293 C 209.933 37.324,210.811 38.345,210.811 38.562 C 210.811 38.779,211.757 39.844,212.913 40.929 C 214.069 42.013,215.015 43.087,215.015 43.314 C 215.015 43.541,215.961 44.639,217.117 45.754 C 218.273 46.869,219.219 47.950,219.219 48.156 C 219.219 48.362,220.165 49.444,221.321 50.558 C 222.477 51.673,223.423 52.758,223.423 52.969 C 223.423 53.180,224.369 54.239,225.526 55.322 C 226.682 56.406,227.628 57.491,227.628 57.734 C 227.628 57.977,228.574 59.063,229.730 60.148 C 230.886 61.232,231.832 62.314,231.832 62.550 C 231.832 62.787,232.778 63.868,233.934 64.953 C 235.090 66.037,236.036 67.118,236.036 67.355 C 236.036 67.592,236.965 68.657,238.100 69.721 C 239.235 70.786,240.254 71.942,240.364 72.289 C 240.474 72.637,241.288 73.588,242.172 74.403 C 243.056 75.219,244.114 76.413,244.523 77.057 C 244.932 77.701,245.994 78.904,246.883 79.730 C 247.773 80.556,248.686 81.592,248.913 82.033 C 249.577 83.325,251.540 85.110,251.735 84.600 C 251.826 84.364,251.606 83.848,251.247 83.452 C 250.888 83.056,250.126 82.125,249.552 81.381 C 248.979 80.638,248.169 79.692,247.751 79.279 C 247.333 78.866,246.386 77.785,245.646 76.877 C 244.906 75.968,243.958 74.887,243.541 74.474 C 243.123 74.062,242.338 73.155,241.796 72.461 C 241.255 71.766,239.940 70.296,238.874 69.193 C 237.809 68.090,236.937 67.074,236.937 66.935 C 236.937 66.796,236.355 66.100,235.643 65.388 C 234.931 64.676,234.259 63.862,234.151 63.578 C 234.042 63.295,233.746 63.063,233.493 63.063 C 233.240 63.063,233.033 62.914,233.033 62.731 C 233.033 62.258,231.635 60.657,231.415 60.878 C 231.314 60.978,231.231 60.885,231.231 60.671 C 231.231 60.456,230.984 60.062,230.681 59.795 C 230.378 59.528,229.890 58.938,229.595 58.483 C 229.301 58.029,228.873 57.658,228.644 57.658 C 228.415 57.658,228.228 57.483,228.228 57.270 C 228.228 57.056,227.789 56.408,227.252 55.828 C 226.715 55.249,225.533 53.919,224.625 52.874 C 223.716 51.828,222.331 50.281,221.547 49.436 C 220.762 48.591,220.120 47.819,220.120 47.720 C 220.120 47.622,219.448 46.841,218.627 45.984 C 217.807 45.128,216.759 43.926,216.300 43.312 C 215.841 42.698,215.195 41.911,214.865 41.562 C 214.535 41.213,213.521 40.081,212.613 39.046 C 211.704 38.012,210.575 36.747,210.104 36.235 C 209.632 35.723,208.632 34.523,207.882 33.568 C 207.132 32.613,206.428 31.832,206.318 31.832 C 206.208 31.832,205.451 31.013,204.636 30.013 C 203.820 29.012,202.950 27.950,202.703 27.651 C 201.162 25.796,197.429 25.210,195.195 26.473 M251.952 86.106 C 251.953 86.429,253.430 88.112,253.580 87.961 C 253.648 87.893,253.310 87.396,252.828 86.857 C 252.346 86.318,251.952 85.980,251.952 86.106 M131.427 100.772 C 130.777 101.586,130.718 101.752,131.180 101.464 C 131.664 101.162,132.634 99.700,132.351 99.700 C 132.313 99.700,131.897 100.182,131.427 100.772 M176.276 204.699 C 176.276 204.860,176.715 205.390,177.252 205.875 L 178.228 206.757 177.327 205.707 C 176.832 205.130,176.393 204.601,176.351 204.531 C 176.310 204.461,176.276 204.537,176.276 204.699 M195.663 227.168 C 196.444 227.758,199.668 227.765,200.791 227.179 C 201.336 226.895,201.465 226.730,201.144 226.729 C 200.865 226.728,200.553 226.862,200.450 227.027 C 200.348 227.192,199.335 227.327,198.198 227.327 C 197.062 227.327,196.048 227.192,195.946 227.027 C 195.844 226.862,195.607 226.727,195.420 226.727 C 195.233 226.727,195.343 226.925,195.663 227.168 " stroke="none" fill="#bc8cf4" fill-rule="evenodd"></path></g></svg>