<svg id="svg" version="1.1" xmlns="http://www.w3.org/2000/svg" xmlns:xlink="http://www.w3.org/1999/xlink" width="400" height="300.1503759398496" viewBox="0, 0, 400,300.1503759398496"><g id="svgg"><path id="path0" d="M195.665 27.578 C 195.345 27.853,194.804 28.393,194.464 28.778 C 194.123 29.163,192.999 30.326,191.967 31.364 C 190.935 32.401,190.090 33.408,190.090 33.602 C 190.090 33.796,189.144 34.873,187.988 35.995 C 186.832 37.117,185.886 38.200,185.886 38.402 C 185.886 38.603,184.940 39.691,183.784 40.820 C 182.628 41.949,181.682 43.040,181.682 43.243 C 181.682 43.447,180.803 44.433,179.730 45.435 C 178.656 46.436,177.778 47.417,177.778 47.614 C 177.778 47.811,176.764 48.990,175.526 50.232 C 174.287 51.475,173.273 52.629,173.273 52.796 C 173.273 52.963,172.327 54.042,171.171 55.193 C 170.015 56.345,169.069 57.455,169.069 57.661 C 169.069 57.867,168.123 58.947,166.967 60.060 C 165.811 61.173,164.864 62.271,164.863 62.499 C 164.862 62.726,163.916 63.784,162.761 64.850 C 161.606 65.915,160.661 66.987,160.661 67.232 C 160.661 67.477,159.803 68.498,158.756 69.500 C 157.708 70.502,156.566 71.794,156.219 72.372 C 155.871 72.950,154.969 73.957,154.214 74.608 C 153.459 75.260,152.513 76.353,152.113 77.036 C 151.712 77.720,150.769 78.783,150.018 79.399 C 149.267 80.014,148.307 81.107,147.885 81.826 C 147.464 82.545,146.517 83.627,145.782 84.230 C 145.046 84.832,144.444 85.557,144.444 85.839 C 144.444 86.121,143.498 87.291,142.342 88.438 C 141.186 89.586,140.240 90.652,140.240 90.809 C 140.240 90.965,139.396 92.004,138.363 93.117 C 137.331 94.230,135.473 96.311,134.234 97.740 C 132.995 99.169,131.408 100.953,130.706 101.704 C 129.193 103.323,128.962 105.155,130.030 107.057 C 130.360 107.645,130.631 108.325,130.631 108.568 C 130.631 108.810,130.766 109.009,130.931 109.009 C 131.096 109.009,131.231 109.271,131.231 109.592 C 131.231 109.912,131.366 110.258,131.532 110.360 C 131.697 110.462,131.832 110.876,131.832 111.279 C 131.832 111.682,131.967 112.012,132.132 112.012 C 132.297 112.012,132.432 112.282,132.432 112.613 C 132.432 112.943,132.568 113.213,132.733 113.213 C 132.898 113.213,133.033 113.619,133.033 114.114 C 133.033 114.610,133.168 115.015,133.333 115.015 C 133.498 115.015,133.634 115.285,133.634 115.616 C 133.634 115.946,133.769 116.216,133.934 116.216 C 134.099 116.216,134.234 116.622,134.234 117.117 C 134.234 117.613,134.369 118.018,134.535 118.018 C 134.700 118.018,134.835 118.288,134.835 118.619 C 134.835 118.949,134.970 119.219,135.135 119.219 C 135.300 119.219,135.435 119.549,135.435 119.952 C 135.435 120.355,135.571 120.769,135.736 120.871 C 135.901 120.973,136.036 121.319,136.036 121.639 C 136.036 121.960,136.147 122.222,136.282 122.222 C 136.417 122.222,136.712 122.898,136.937 123.724 C 137.162 124.550,137.457 125.225,137.592 125.225 C 137.727 125.225,137.838 125.488,137.838 125.808 C 137.838 126.129,137.973 126.474,138.138 126.577 C 138.303 126.679,138.438 127.092,138.438 127.495 C 138.438 127.898,138.574 128.228,138.739 128.228 C 138.904 128.228,139.039 128.498,139.039 128.829 C 139.039 129.159,139.174 129.429,139.339 129.429 C 139.505 129.429,139.640 129.835,139.640 130.330 C 139.640 130.826,139.775 131.231,139.940 131.231 C 140.105 131.231,140.240 131.494,140.240 131.814 C 140.240 132.135,140.375 132.481,140.541 132.583 C 140.706 132.685,140.841 133.018,140.841 133.323 C 140.841 133.628,141.130 134.464,141.484 135.182 C 141.838 135.899,142.230 136.757,142.355 137.087 C 142.480 137.417,142.867 138.328,143.213 139.111 C 143.560 139.894,143.844 140.666,143.844 140.828 C 143.844 140.990,144.114 141.604,144.444 142.192 C 144.775 142.780,145.045 143.456,145.045 143.694 C 145.045 143.931,145.315 144.607,145.646 145.195 C 145.976 145.783,146.246 146.459,146.246 146.697 C 146.246 146.934,146.517 147.610,146.847 148.198 C 147.177 148.786,147.447 149.453,147.447 149.680 C 147.447 149.908,147.737 150.680,148.091 151.398 C 148.444 152.116,148.850 153.007,148.992 153.378 C 149.133 153.750,149.384 154.392,149.550 154.805 C 149.715 155.218,149.966 155.860,150.108 156.231 C 150.249 156.603,150.655 157.494,151.008 158.212 C 151.362 158.929,151.652 159.702,151.652 159.929 C 151.652 160.156,151.922 160.823,152.252 161.411 C 152.583 162.000,152.853 162.675,152.853 162.913 C 152.853 163.151,153.123 163.826,153.453 164.414 C 153.784 165.003,154.054 165.678,154.054 165.916 C 154.054 166.154,154.324 166.829,154.655 167.417 C 154.985 168.006,155.255 168.681,155.255 168.919 C 155.255 169.157,155.526 169.832,155.856 170.420 C 156.186 171.009,156.456 171.675,156.456 171.901 C 156.456 172.127,156.862 173.082,157.357 174.024 C 157.853 174.966,158.258 175.922,158.258 176.147 C 158.258 176.373,158.529 177.040,158.859 177.628 C 159.189 178.216,159.459 178.891,159.459 179.129 C 159.459 179.367,159.730 180.043,160.060 180.631 C 160.390 181.219,160.661 181.894,160.661 182.132 C 160.661 182.370,160.931 183.046,161.261 183.634 C 161.592 184.222,161.862 184.897,161.862 185.135 C 161.862 185.373,162.132 186.049,162.462 186.637 C 162.793 187.225,163.063 187.884,163.063 188.101 C 163.063 188.874,163.954 190.259,165.301 191.579 C 166.052 192.315,166.667 193.041,166.667 193.192 C 166.667 193.448,167.887 194.873,171.697 199.069 C 172.564 200.024,173.273 200.910,173.273 201.039 C 173.273 201.259,174.596 202.794,178.303 206.877 C 179.170 207.832,179.880 208.718,179.880 208.847 C 179.880 209.067,181.202 210.602,184.910 214.684 C 185.777 215.639,186.486 216.526,186.486 216.655 C 186.486 216.875,187.809 218.409,191.517 222.492 C 192.384 223.447,193.093 224.358,193.093 224.516 C 193.093 224.866,195.090 226.735,196.017 227.253 C 196.883 227.736,199.513 227.736,200.379 227.253 C 201.291 226.743,203.303 224.868,203.303 224.528 C 203.303 224.270,204.520 222.849,208.333 218.649 C 209.200 217.694,209.910 216.786,209.910 216.630 C 209.910 216.475,210.721 215.545,211.712 214.565 C 212.703 213.584,213.514 212.637,213.514 212.461 C 213.514 212.284,214.189 211.474,215.015 210.661 C 215.841 209.847,216.517 209.063,216.517 208.917 C 216.517 208.771,217.294 207.844,218.243 206.857 C 219.193 205.869,220.038 204.887,220.120 204.674 C 220.266 204.297,221.907 202.389,225.150 198.825 C 226.017 197.872,226.727 196.965,226.727 196.808 C 226.727 196.652,227.402 195.858,228.228 195.045 C 229.054 194.232,229.730 193.420,229.730 193.242 C 229.730 193.064,230.344 192.315,231.096 191.579 C 232.442 190.259,233.333 188.874,233.333 188.101 C 233.333 187.884,233.604 187.225,233.934 186.637 C 234.264 186.049,234.535 185.373,234.535 185.135 C 234.535 184.897,234.805 184.222,235.135 183.634 C 235.465 183.046,235.736 182.378,235.736 182.151 C 235.736 181.924,236.025 181.151,236.379 180.434 C 236.733 179.716,237.138 178.825,237.280 178.453 C 237.422 178.082,237.673 177.440,237.838 177.027 C 238.003 176.614,238.254 175.972,238.396 175.601 C 238.538 175.229,238.943 174.338,239.297 173.620 C 239.650 172.903,239.940 172.130,239.940 171.903 C 239.940 171.676,240.210 171.009,240.541 170.420 C 240.871 169.832,241.141 169.157,241.141 168.919 C 241.141 168.681,241.411 168.006,241.742 167.417 C 242.072 166.829,242.342 166.154,242.342 165.916 C 242.342 165.678,242.613 165.003,242.943 164.414 C 243.273 163.826,243.544 163.151,243.544 162.913 C 243.544 162.675,243.814 162.000,244.144 161.411 C 244.474 160.823,244.745 160.210,244.745 160.048 C 244.745 159.886,245.028 159.113,245.375 158.330 C 245.722 157.547,246.108 156.637,246.234 156.306 C 246.359 155.976,246.751 155.119,247.105 154.401 C 247.458 153.683,247.748 152.911,247.748 152.683 C 247.748 152.456,248.018 151.789,248.348 151.201 C 248.679 150.613,248.949 149.937,248.949 149.700 C 248.949 149.462,249.219 148.786,249.550 148.198 C 249.880 147.610,250.150 146.991,250.150 146.823 C 250.150 146.655,250.420 145.958,250.751 145.274 C 251.081 144.591,251.351 143.920,251.351 143.784 C 251.351 143.648,251.635 142.897,251.982 142.114 C 252.329 141.331,252.715 140.420,252.840 140.090 C 252.965 139.760,253.357 138.902,253.711 138.185 C 254.065 137.467,254.354 136.694,254.354 136.467 C 254.354 136.240,254.625 135.573,254.955 134.985 C 255.285 134.397,255.556 133.721,255.556 133.483 C 255.556 133.246,255.826 132.570,256.156 131.982 C 256.486 131.394,256.757 130.727,256.757 130.500 C 256.757 130.273,257.046 129.500,257.400 128.782 C 257.754 128.065,258.159 127.173,258.301 126.802 C 258.443 126.430,258.712 125.755,258.899 125.300 C 259.086 124.846,259.357 124.170,259.500 123.799 C 259.643 123.427,259.895 122.785,260.060 122.372 C 260.225 121.959,260.476 121.318,260.618 120.946 C 260.760 120.574,261.165 119.683,261.519 118.966 C 261.873 118.248,262.162 117.475,262.162 117.248 C 262.162 117.021,262.432 116.354,262.763 115.766 C 263.093 115.178,263.363 114.438,263.363 114.123 C 263.363 113.807,263.498 113.465,263.664 113.363 C 263.829 113.261,263.964 112.915,263.964 112.595 C 263.964 112.274,264.075 112.012,264.210 112.012 C 264.345 112.012,264.640 111.336,264.865 110.511 C 265.090 109.685,265.384 109.009,265.520 109.009 C 265.655 109.009,265.766 108.739,265.766 108.408 C 265.766 108.078,265.901 107.808,266.066 107.808 C 266.231 107.808,266.366 107.538,266.366 107.207 C 266.366 106.877,266.502 106.607,266.667 106.607 C 267.638 106.607,266.961 102.997,265.766 101.802 C 265.105 101.141,264.565 100.496,264.565 100.367 C 264.565 100.239,263.619 99.195,262.462 98.048 C 261.306 96.901,260.360 95.820,260.360 95.646 C 260.360 95.472,259.414 94.391,258.258 93.243 C 257.102 92.096,256.156 91.029,256.156 90.872 C 256.156 90.715,255.210 89.610,254.054 88.418 C 252.898 87.226,251.952 86.060,251.952 85.827 C 251.952 85.594,251.209 84.710,250.300 83.863 C 249.392 83.016,248.649 82.123,248.649 81.879 C 248.649 81.635,247.836 80.723,246.844 79.853 C 245.851 78.982,244.705 77.700,244.296 77.003 C 243.888 76.307,242.934 75.216,242.176 74.580 C 241.419 73.944,240.543 72.932,240.231 72.332 C 239.919 71.732,238.909 70.583,237.987 69.780 C 237.065 68.976,236.236 68.021,236.145 67.658 C 236.053 67.294,235.131 66.207,234.095 65.243 C 233.060 64.278,232.005 63.087,231.751 62.597 C 231.498 62.106,230.554 61.031,229.655 60.207 C 228.756 59.383,227.807 58.295,227.546 57.790 C 227.285 57.285,226.337 56.195,225.440 55.368 C 224.543 54.540,223.560 53.467,223.255 52.983 C 222.950 52.498,221.850 51.254,220.810 50.217 C 219.770 49.180,218.919 48.184,218.919 48.004 C 218.919 47.825,217.973 46.735,216.817 45.584 C 215.661 44.432,214.715 43.322,214.715 43.117 C 214.715 42.912,213.788 41.876,212.656 40.815 C 211.524 39.754,210.505 38.594,210.392 38.238 C 210.279 37.881,209.462 36.922,208.577 36.105 C 207.691 35.288,206.760 34.229,206.507 33.752 C 206.254 33.274,205.159 32.036,204.074 31.001 C 202.990 29.966,202.102 28.977,202.102 28.803 C 202.102 28.328,201.309 27.628,200.772 27.628 C 200.513 27.628,200.300 27.492,200.300 27.327 C 200.300 26.798,196.321 27.013,195.665 27.578 M202.638 59.628 C 204.284 60.781,204.361 61.291,204.280 70.590 C 204.224 77.073,204.298 79.287,204.581 79.657 C 204.914 80.093,211.048 81.901,221.302 84.586 C 227.090 86.101,229.220 89.118,227.466 93.317 C 225.975 96.886,223.357 97.404,216.490 95.491 C 208.694 93.319,205.077 92.439,204.637 92.608 C 203.828 92.918,204.005 157.057,204.815 157.057 C 205.150 157.057,207.211 156.645,209.394 156.142 C 211.577 155.639,215.089 154.828,217.198 154.340 C 225.058 152.522,229.373 154.715,228.377 160.022 C 227.629 164.008,227.054 164.261,210.109 168.058 C 203.365 169.570,204.107 168.260,204.010 178.817 C 203.918 188.868,203.864 189.134,201.689 190.204 C 200.232 190.921,198.614 190.520,197.470 189.161 L 196.697 188.242 196.697 180.332 C 196.697 171.367,196.746 171.662,195.092 170.818 C 194.416 170.473,192.352 169.026,190.507 167.603 C 184.411 162.901,171.085 152.778,166.322 149.231 C 164.893 148.168,163.105 146.932,162.347 146.486 C 159.459 144.784,158.926 142.878,159.740 137.156 C 160.500 131.820,162.421 116.962,163.804 105.737 C 165.281 93.745,164.392 94.965,176.577 88.194 C 177.320 87.780,181.644 85.332,186.186 82.752 C 190.728 80.172,194.931 77.914,195.527 77.735 L 196.609 77.409 196.802 74.065 C 196.908 72.226,196.995 68.721,196.996 66.276 C 196.997 61.387,197.246 60.433,198.727 59.629 C 199.810 59.042,201.800 59.041,202.638 59.628 M193.243 92.261 C 191.757 93.106,188.986 94.703,187.087 95.811 C 185.188 96.919,182.688 98.336,181.532 98.961 C 177.575 101.099,176.346 102.000,176.152 102.906 C 175.860 104.275,173.378 123.396,172.189 133.438 C 171.550 138.836,171.077 137.974,177.241 142.643 C 179.966 144.707,183.600 147.473,185.317 148.789 C 195.185 156.352,196.201 157.074,196.443 156.692 C 196.878 156.006,196.757 90.688,196.321 90.708 C 196.115 90.718,194.730 91.417,193.243 92.261 " stroke="none" fill="#d3c30b" fill-rule="evenodd"></path><path id="path1" d="M199.193 60.346 C 197.776 61.210,197.601 62.305,197.599 70.324 C 197.597 78.030,197.526 78.378,195.939 78.378 C 195.546 78.378,193.630 79.302,191.681 80.432 C 189.733 81.561,187.395 82.895,186.486 83.396 C 185.578 83.896,183.167 85.269,181.128 86.447 C 179.090 87.625,177.372 88.589,177.311 88.589 C 177.251 88.589,175.366 89.670,173.123 90.991 C 170.880 92.312,168.949 93.394,168.832 93.395 C 168.429 93.397,166.666 95.227,166.202 96.124 C 165.789 96.922,165.425 99.095,164.267 107.658 C 163.678 112.020,162.736 119.328,162.429 121.922 C 162.134 124.418,161.901 126.365,161.276 131.532 C 161.106 132.935,160.827 135.098,160.656 136.336 C 159.676 143.409,159.903 144.125,163.912 146.627 C 165.401 147.556,167.862 149.408,186.471 163.608 C 191.004 167.067,195.193 170.145,195.780 170.447 C 196.367 170.750,196.914 171.047,196.997 171.108 C 197.080 171.170,197.215 175.004,197.297 179.629 L 197.447 188.038 198.428 188.914 C 199.538 189.905,200.709 190.041,201.767 189.300 C 203.184 188.307,203.303 187.440,203.303 178.095 C 203.303 169.392,203.304 169.383,203.979 168.941 C 204.607 168.529,210.413 167.122,217.117 165.755 C 223.948 164.363,225.720 163.663,226.890 161.896 C 229.898 157.350,225.776 153.075,219.740 154.481 C 203.498 158.263,204.130 158.142,203.652 157.566 C 203.104 156.905,203.290 92.386,203.842 91.834 C 204.206 91.469,207.079 92.091,212.462 93.698 C 223.449 96.977,226.765 96.442,227.258 91.311 C 227.656 87.170,226.293 86.457,209.977 82.266 C 207.454 81.618,204.987 80.880,204.496 80.626 L 203.604 80.165 203.602 71.689 C 203.600 62.611,203.444 61.352,202.201 60.374 C 201.225 59.606,200.418 59.599,199.193 60.346 M197.286 90.227 C 197.662 90.680,197.726 141.489,197.364 152.656 C 197.149 159.305,197.733 159.263,189.884 153.197 C 188.037 151.769,183.068 147.979,178.843 144.775 C 174.156 141.220,171.098 138.701,171.000 138.312 C 170.848 137.707,171.659 130.912,173.278 119.219 C 173.427 118.146,173.690 116.119,173.862 114.715 C 174.035 113.311,174.446 109.965,174.775 107.279 C 175.553 100.942,174.488 102.152,184.084 96.703 C 186.314 95.436,188.679 94.081,189.339 93.690 C 195.574 90.006,196.696 89.516,197.286 90.227 " stroke="none" fill="#7d7504" fill-rule="evenodd"></path><path id="path2" d="M72.450 29.260 C 69.727 30.766,68.666 35.347,70.270 38.668 C 70.601 39.352,70.871 40.112,70.871 40.358 C 70.871 40.604,71.006 40.889,71.171 40.991 C 71.336 41.093,71.471 41.498,71.471 41.892 C 71.471 42.285,71.607 42.691,71.772 42.793 C 71.937 42.895,72.072 43.237,72.072 43.552 C 72.072 43.868,72.342 44.607,72.673 45.195 C 73.003 45.783,73.273 46.438,73.273 46.649 C 73.273 46.861,73.544 47.594,73.874 48.277 C 74.204 48.961,74.474 49.722,74.474 49.968 C 74.474 50.214,74.610 50.499,74.775 50.601 C 74.940 50.703,75.075 51.108,75.075 51.502 C 75.075 51.895,75.210 52.300,75.375 52.402 C 75.541 52.504,75.676 52.846,75.676 53.162 C 75.676 53.477,75.946 54.217,76.276 54.805 C 76.607 55.393,76.877 56.069,76.877 56.306 C 76.877 56.544,77.147 57.220,77.477 57.808 C 77.808 58.396,78.078 59.135,78.078 59.451 C 78.078 59.766,78.213 60.108,78.378 60.210 C 78.544 60.312,78.679 60.718,78.679 61.111 C 78.679 61.505,78.814 61.910,78.979 62.012 C 79.144 62.114,79.279 62.456,79.279 62.771 C 79.279 63.087,79.550 63.826,79.880 64.414 C 80.210 65.003,80.480 65.817,80.480 66.225 C 80.480 66.633,80.616 66.967,80.781 66.967 C 80.946 66.967,81.081 67.237,81.081 67.568 C 81.081 67.898,81.216 68.168,81.381 68.168 C 81.547 68.168,81.682 68.574,81.682 69.069 C 81.682 69.565,81.817 69.970,81.982 69.970 C 82.147 69.970,82.282 70.300,82.282 70.703 C 82.282 71.106,82.417 71.520,82.583 71.622 C 82.748 71.724,82.883 72.070,82.883 72.390 C 82.883 72.711,83.018 72.973,83.183 72.973 C 83.348 72.973,83.483 73.303,83.483 73.706 C 83.483 74.109,83.619 74.523,83.784 74.625 C 83.949 74.727,84.084 75.132,84.084 75.526 C 84.084 75.919,84.219 76.324,84.384 76.426 C 84.550 76.529,84.685 76.874,84.685 77.195 C 84.685 77.515,84.820 77.778,84.985 77.778 C 85.150 77.778,85.285 78.108,85.285 78.511 C 85.285 78.914,85.420 79.327,85.586 79.429 C 85.751 79.532,85.886 79.873,85.886 80.189 C 85.886 80.504,86.156 81.244,86.486 81.832 C 86.817 82.420,87.087 83.159,87.087 83.475 C 87.087 83.790,87.222 84.132,87.387 84.234 C 87.553 84.336,87.688 84.742,87.688 85.135 C 87.688 85.529,87.823 85.934,87.988 86.036 C 88.153 86.138,88.288 86.484,88.288 86.805 C 88.288 87.125,88.423 87.387,88.589 87.387 C 88.754 87.387,88.889 87.717,88.889 88.120 C 88.889 88.524,89.024 88.937,89.189 89.039 C 89.354 89.141,89.489 89.483,89.489 89.798 C 89.489 90.114,89.760 90.853,90.090 91.441 C 90.420 92.030,90.691 92.844,90.691 93.252 C 90.691 93.660,90.826 93.994,90.991 93.994 C 91.156 93.994,91.291 94.264,91.291 94.595 C 91.291 94.925,91.426 95.195,91.592 95.195 C 91.757 95.195,91.892 95.601,91.892 96.096 C 91.892 96.592,92.027 96.997,92.192 96.997 C 92.357 96.997,92.492 97.327,92.492 97.730 C 92.492 98.133,92.628 98.547,92.793 98.649 C 92.958 98.751,93.093 99.092,93.093 99.408 C 93.093 99.724,93.363 100.463,93.694 101.051 C 94.024 101.639,94.294 102.379,94.294 102.694 C 94.294 103.010,94.429 103.351,94.595 103.453 C 94.760 103.556,94.895 103.961,94.895 104.354 C 94.895 104.748,95.030 105.153,95.195 105.255 C 95.360 105.357,95.495 105.703,95.495 106.024 C 95.495 106.344,95.631 106.607,95.796 106.607 C 95.961 106.607,96.096 106.936,96.096 107.340 C 96.096 107.743,96.231 108.156,96.396 108.258 C 96.562 108.360,96.697 108.702,96.697 109.018 C 96.697 109.333,96.967 110.073,97.297 110.661 C 97.628 111.249,97.898 112.064,97.898 112.472 C 97.898 112.879,98.033 113.213,98.198 113.213 C 98.363 113.213,98.498 113.483,98.498 113.814 C 98.498 114.144,98.634 114.414,98.799 114.414 C 98.964 114.414,99.099 114.820,99.099 115.315 C 99.099 115.811,99.234 116.216,99.399 116.216 C 99.565 116.216,99.700 116.546,99.700 116.949 C 99.700 117.352,99.835 117.766,100.000 117.868 C 100.165 117.970,100.300 118.316,100.300 118.636 C 100.300 118.957,100.435 119.219,100.601 119.219 C 100.766 119.219,100.901 119.549,100.901 119.952 C 100.901 120.355,101.036 120.769,101.201 120.871 C 101.366 120.973,101.502 121.454,101.502 121.940 C 101.502 122.425,101.637 122.823,101.802 122.823 C 101.967 122.823,102.102 123.153,102.102 123.556 C 102.102 123.959,102.237 124.372,102.402 124.474 C 102.568 124.577,102.703 124.922,102.703 125.243 C 102.703 125.564,102.838 125.826,103.003 125.826 C 103.168 125.826,103.303 126.092,103.303 126.417 C 103.303 126.743,103.574 127.490,103.904 128.078 C 104.234 128.666,104.505 129.406,104.505 129.721 C 104.505 130.037,104.640 130.378,104.805 130.480 C 104.970 130.583,105.105 130.988,105.105 131.381 C 105.105 131.775,105.240 132.180,105.405 132.282 C 105.571 132.384,105.706 132.730,105.706 133.051 C 105.706 133.371,105.841 133.634,106.006 133.634 C 106.171 133.634,106.306 133.963,106.306 134.367 C 106.306 134.770,106.441 135.183,106.607 135.285 C 106.772 135.387,106.907 135.729,106.907 136.045 C 106.907 136.360,107.177 137.100,107.508 137.688 C 107.838 138.276,108.108 139.091,108.108 139.499 C 108.108 139.907,108.243 140.240,108.408 140.240 C 108.574 140.240,108.709 140.570,108.709 140.973 C 108.709 141.376,108.844 141.790,109.009 141.892 C 109.174 141.994,109.309 142.340,109.309 142.660 C 109.309 142.981,109.444 143.243,109.610 143.243 C 109.775 143.243,109.910 143.573,109.910 143.976 C 109.910 144.379,110.045 144.793,110.210 144.895 C 110.375 144.997,110.511 145.339,110.511 145.654 C 110.511 145.970,110.781 146.709,111.111 147.297 C 111.441 147.885,111.712 148.625,111.712 148.940 C 111.712 149.256,111.847 149.598,112.012 149.700 C 112.177 149.802,112.312 150.207,112.312 150.601 C 112.312 150.994,112.447 151.399,112.613 151.502 C 112.778 151.604,112.913 151.949,112.913 152.270 C 112.913 152.591,113.048 152.853,113.213 152.853 C 113.378 152.853,113.514 153.183,113.514 153.586 C 113.514 153.989,113.649 154.402,113.814 154.505 C 113.979 154.607,114.114 154.948,114.114 155.264 C 114.114 155.579,114.384 156.319,114.715 156.907 C 115.045 157.495,115.315 158.244,115.315 158.572 C 115.315 158.899,115.435 159.402,115.581 159.689 C 115.726 159.976,115.997 160.582,116.181 161.036 C 116.366 161.490,116.667 162.233,116.852 162.688 C 117.036 163.142,117.307 163.748,117.452 164.035 C 117.598 164.322,117.718 164.757,117.718 165.002 C 117.718 165.247,117.988 165.928,118.318 166.517 C 118.649 167.105,118.919 167.854,118.919 168.181 C 118.919 168.509,119.038 169.012,119.184 169.298 C 119.330 169.585,119.600 170.191,119.785 170.646 C 119.969 171.100,120.273 171.843,120.461 172.297 C 120.648 172.752,120.934 173.461,121.096 173.874 C 121.259 174.287,121.511 174.859,121.657 175.146 C 121.803 175.433,121.922 175.932,121.922 176.254 C 121.922 176.577,122.057 176.925,122.222 177.027 C 122.387 177.129,122.523 177.462,122.523 177.767 C 122.523 178.247,122.947 179.260,124.079 181.480 C 124.265 181.845,124.239 182.173,124.002 182.458 C 122.922 183.760,125.198 188.129,128.984 192.020 C 129.317 192.363,130.195 193.453,130.935 194.444 C 131.675 195.435,132.351 196.314,132.436 196.396 C 132.521 196.479,133.197 197.290,133.938 198.198 C 134.679 199.107,135.387 199.895,135.511 199.950 C 135.634 200.005,135.736 200.192,135.736 200.366 C 135.736 200.540,136.040 200.972,136.411 201.326 C 136.783 201.681,137.425 202.430,137.838 202.991 C 138.697 204.158,139.999 205.784,140.252 206.006 C 140.346 206.089,141.332 207.305,142.443 208.709 C 143.554 210.113,144.796 211.635,145.204 212.092 C 145.612 212.549,145.946 213.007,145.946 213.109 C 145.946 213.211,146.250 213.591,146.622 213.953 C 146.993 214.316,147.500 214.874,147.748 215.193 C 147.995 215.513,148.536 216.187,148.949 216.692 C 149.362 217.197,150.038 218.065,150.450 218.620 C 150.863 219.175,151.539 219.985,151.952 220.420 C 152.365 220.856,153.041 221.666,153.453 222.221 C 153.866 222.776,154.542 223.643,154.955 224.149 C 155.368 224.654,155.868 225.271,156.066 225.521 C 156.264 225.771,157.210 226.929,158.168 228.094 C 159.126 229.259,160.248 230.672,160.661 231.235 C 161.292 232.095,163.143 234.314,163.664 234.835 C 163.746 234.917,164.285 235.593,164.861 236.336 C 166.378 238.295,166.714 238.712,167.738 239.912 C 168.244 240.505,169.794 242.410,171.182 244.144 C 172.569 245.878,173.844 247.445,174.015 247.625 C 174.185 247.805,174.662 248.401,175.075 248.949 C 175.488 249.497,175.961 250.092,176.126 250.273 C 176.291 250.453,176.783 251.074,177.218 251.652 C 177.654 252.230,178.262 252.995,178.570 253.353 C 179.256 254.151,179.531 254.487,181.977 257.508 C 183.047 258.829,184.026 259.955,184.153 260.010 C 184.280 260.065,184.384 260.277,184.384 260.481 C 184.384 260.686,184.688 261.122,185.060 261.451 C 185.432 261.780,186.074 262.498,186.486 263.047 C 186.899 263.595,187.440 264.278,187.688 264.565 C 187.935 264.851,188.476 265.534,188.889 266.083 C 189.302 266.632,190.006 267.495,190.455 268.000 C 192.026 269.772,192.492 270.364,192.492 270.587 C 192.492 272.372,202.425 272.619,203.604 270.864 C 204.048 270.202,205.311 268.640,205.985 267.918 C 206.410 267.464,207.095 266.641,207.508 266.089 C 207.920 265.537,208.461 264.851,208.709 264.565 C 208.956 264.278,209.497 263.595,209.910 263.047 C 210.323 262.498,210.965 261.780,211.336 261.451 C 211.708 261.122,212.012 260.724,212.012 260.567 C 212.012 260.409,212.250 260.062,212.540 259.795 C 212.830 259.528,213.636 258.566,214.331 257.658 C 215.026 256.749,215.903 255.646,216.281 255.205 C 216.658 254.765,217.170 254.155,217.417 253.850 C 217.665 253.545,218.206 252.882,218.619 252.377 C 219.032 251.872,219.707 251.004,220.120 250.448 C 220.533 249.892,221.175 249.168,221.547 248.839 C 221.918 248.509,222.222 248.111,222.222 247.954 C 222.222 247.797,222.459 247.449,222.748 247.182 C 223.037 246.915,223.744 246.088,224.320 245.345 C 226.103 243.044,226.257 242.859,226.952 242.182 C 227.324 241.819,227.628 241.381,227.628 241.207 C 227.628 241.033,227.734 240.846,227.864 240.791 C 227.994 240.736,228.568 240.086,229.140 239.347 C 229.712 238.608,230.351 237.819,230.560 237.594 C 230.769 237.369,231.309 236.690,231.760 236.085 C 232.210 235.480,232.648 234.917,232.731 234.835 C 233.231 234.340,235.099 232.102,235.736 231.235 C 236.149 230.672,237.270 229.259,238.228 228.094 C 239.186 226.929,240.132 225.771,240.330 225.521 C 240.529 225.271,241.029 224.654,241.441 224.149 C 241.854 223.643,242.530 222.776,242.943 222.221 C 243.356 221.666,244.032 220.856,244.444 220.420 C 244.857 219.985,245.533 219.175,245.946 218.620 C 246.359 218.065,247.035 217.197,247.447 216.692 C 247.860 216.187,248.401 215.513,248.649 215.193 C 248.896 214.874,249.403 214.316,249.775 213.953 C 250.146 213.591,250.450 213.211,250.450 213.109 C 250.450 213.007,250.781 212.549,251.184 212.092 C 251.809 211.384,254.790 207.759,255.946 206.302 C 256.144 206.052,256.644 205.434,257.057 204.929 C 257.470 204.424,258.146 203.552,258.559 202.991 C 258.971 202.430,259.613 201.681,259.985 201.326 C 260.357 200.972,260.661 200.590,260.661 200.477 C 260.661 200.365,261.000 199.934,261.414 199.520 C 261.828 199.106,262.708 198.035,263.368 197.140 C 264.029 196.246,265.386 194.530,266.384 193.327 C 267.382 192.125,268.360 190.936,268.559 190.686 C 268.757 190.436,269.471 189.557,270.145 188.734 C 270.819 187.911,271.466 187.035,271.583 186.787 C 271.700 186.539,271.991 185.998,272.230 185.586 C 272.717 184.742,272.801 183.250,272.395 182.609 C 272.248 182.376,272.234 181.971,272.365 181.709 C 272.496 181.446,272.769 180.826,272.973 180.330 C 273.177 179.835,273.463 179.195,273.609 178.908 C 273.755 178.621,273.874 178.122,273.874 177.800 C 273.874 177.477,274.009 177.129,274.174 177.027 C 274.339 176.925,274.474 176.577,274.474 176.254 C 274.474 175.932,274.594 175.433,274.740 175.146 C 274.988 174.658,275.241 174.060,275.976 172.222 C 276.711 170.385,276.964 169.786,277.212 169.298 C 277.358 169.012,277.477 168.571,277.477 168.318 C 277.477 167.873,277.602 167.556,278.331 166.145 C 278.522 165.776,278.679 165.267,278.679 165.015 C 278.679 164.763,278.798 164.322,278.944 164.035 C 279.090 163.748,279.360 163.142,279.545 162.688 C 279.729 162.233,280.031 161.490,280.215 161.036 C 280.400 160.582,280.670 159.976,280.816 159.689 C 280.962 159.402,281.081 158.899,281.081 158.572 C 281.081 158.244,281.351 157.495,281.682 156.907 C 282.012 156.319,282.282 155.579,282.282 155.264 C 282.282 154.948,282.417 154.607,282.583 154.505 C 282.748 154.402,282.883 153.989,282.883 153.586 C 282.883 153.183,283.018 152.853,283.183 152.853 C 283.348 152.853,283.483 152.591,283.483 152.270 C 283.483 151.949,283.619 151.604,283.784 151.502 C 283.949 151.399,284.084 150.986,284.084 150.583 C 284.084 150.180,284.219 149.850,284.384 149.850 C 284.550 149.850,284.685 149.516,284.685 149.108 C 284.685 148.700,284.955 147.885,285.285 147.297 C 285.616 146.709,285.886 145.970,285.886 145.654 C 285.886 145.339,286.021 144.997,286.186 144.895 C 286.351 144.793,286.486 144.379,286.486 143.976 C 286.486 143.573,286.622 143.243,286.787 143.243 C 286.952 143.243,287.087 142.981,287.087 142.660 C 287.087 142.340,287.222 141.994,287.387 141.892 C 287.553 141.790,287.688 141.376,287.688 140.973 C 287.688 140.570,287.823 140.240,287.988 140.240 C 288.153 140.240,288.288 139.907,288.288 139.499 C 288.288 139.091,288.559 138.276,288.889 137.688 C 289.219 137.100,289.489 136.352,289.489 136.027 C 289.489 135.702,289.625 135.435,289.790 135.435 C 289.955 135.435,290.090 135.173,290.090 134.853 C 290.090 134.532,290.225 134.186,290.390 134.084 C 290.556 133.982,290.691 133.569,290.691 133.165 C 290.691 132.762,290.826 132.432,290.991 132.432 C 291.156 132.432,291.291 132.027,291.291 131.532 C 291.291 131.036,291.426 130.631,291.592 130.631 C 291.757 130.631,291.892 130.225,291.892 129.730 C 291.892 129.234,292.027 128.829,292.192 128.829 C 292.357 128.829,292.492 128.567,292.492 128.246 C 292.492 127.925,292.628 127.580,292.793 127.477 C 292.958 127.375,293.093 126.962,293.093 126.559 C 293.093 126.156,293.228 125.826,293.393 125.826 C 293.559 125.826,293.694 125.564,293.694 125.243 C 293.694 124.922,293.829 124.577,293.994 124.474 C 294.159 124.372,294.294 123.959,294.294 123.556 C 294.294 123.153,294.429 122.823,294.595 122.823 C 294.760 122.823,294.895 122.489,294.895 122.081 C 294.895 121.673,295.165 120.858,295.495 120.270 C 295.826 119.682,296.096 118.943,296.096 118.627 C 296.096 118.312,296.231 117.970,296.396 117.868 C 296.562 117.766,296.697 117.352,296.697 116.949 C 296.697 116.546,296.832 116.216,296.997 116.216 C 297.162 116.216,297.297 115.954,297.297 115.633 C 297.297 115.313,297.432 114.967,297.598 114.865 C 297.763 114.763,297.898 114.349,297.898 113.946 C 297.898 113.543,298.033 113.213,298.198 113.213 C 298.363 113.213,298.498 112.879,298.498 112.472 C 298.498 112.064,298.769 111.249,299.099 110.661 C 299.429 110.073,299.700 109.333,299.700 109.018 C 299.700 108.702,299.835 108.360,300.000 108.258 C 300.165 108.156,300.300 107.743,300.300 107.340 C 300.300 106.936,300.435 106.607,300.601 106.607 C 300.766 106.607,300.901 106.344,300.901 106.024 C 300.901 105.703,301.036 105.357,301.201 105.255 C 301.366 105.153,301.502 104.740,301.502 104.337 C 301.502 103.933,301.637 103.604,301.802 103.604 C 301.967 103.604,302.102 103.270,302.102 102.862 C 302.102 102.454,302.372 101.639,302.703 101.051 C 303.033 100.463,303.303 99.724,303.303 99.408 C 303.303 99.092,303.438 98.751,303.604 98.649 C 303.769 98.547,303.904 98.133,303.904 97.730 C 303.904 97.327,304.039 96.997,304.204 96.997 C 304.369 96.997,304.505 96.735,304.505 96.414 C 304.505 96.094,304.640 95.748,304.805 95.646 C 304.970 95.544,305.105 95.130,305.105 94.727 C 305.105 94.324,305.240 93.994,305.405 93.994 C 305.571 93.994,305.706 93.660,305.706 93.252 C 305.706 92.844,305.976 92.030,306.306 91.441 C 306.637 90.853,306.907 90.114,306.907 89.798 C 306.907 89.483,307.042 89.141,307.207 89.039 C 307.372 88.937,307.508 88.524,307.508 88.120 C 307.508 87.717,307.643 87.387,307.808 87.387 C 307.973 87.387,308.108 87.125,308.108 86.805 C 308.108 86.484,308.243 86.138,308.408 86.036 C 308.574 85.934,308.709 85.521,308.709 85.117 C 308.709 84.714,308.844 84.384,309.009 84.384 C 309.174 84.384,309.309 83.979,309.309 83.483 C 309.309 82.988,309.444 82.583,309.610 82.583 C 309.775 82.583,309.910 82.320,309.910 82.000 C 309.910 81.679,310.045 81.333,310.210 81.231 C 310.375 81.129,310.511 80.716,310.511 80.313 C 310.511 79.909,310.646 79.580,310.811 79.580 C 310.976 79.580,311.111 79.174,311.111 78.679 C 311.111 78.183,311.246 77.778,311.411 77.778 C 311.577 77.778,311.712 77.508,311.712 77.177 C 311.712 76.847,311.847 76.577,312.012 76.577 C 312.177 76.577,312.312 76.179,312.312 75.693 C 312.312 75.208,312.447 74.727,312.613 74.625 C 312.778 74.523,312.913 74.109,312.913 73.706 C 312.913 73.303,313.048 72.973,313.213 72.973 C 313.378 72.973,313.514 72.711,313.514 72.390 C 313.514 72.070,313.649 71.724,313.814 71.622 C 313.979 71.520,314.114 71.106,314.114 70.703 C 314.114 70.300,314.249 69.970,314.414 69.970 C 314.580 69.970,314.715 69.565,314.715 69.069 C 314.715 68.574,314.850 68.168,315.015 68.168 C 315.180 68.168,315.315 67.898,315.315 67.568 C 315.315 67.237,315.450 66.967,315.616 66.967 C 315.781 66.967,315.916 66.633,315.916 66.225 C 315.916 65.817,316.186 65.003,316.517 64.414 C 316.847 63.826,317.117 63.087,317.117 62.771 C 317.117 62.456,317.252 62.114,317.417 62.012 C 317.583 61.910,317.718 61.568,317.718 61.253 C 317.718 60.937,317.988 60.198,318.318 59.610 C 318.649 59.021,318.919 58.282,318.919 57.967 C 318.919 57.651,319.054 57.309,319.219 57.207 C 319.384 57.105,319.520 56.763,319.520 56.448 C 319.520 56.132,319.790 55.393,320.120 54.805 C 320.450 54.217,320.721 53.477,320.721 53.162 C 320.721 52.846,320.856 52.504,321.021 52.402 C 321.186 52.300,321.321 51.895,321.321 51.502 C 321.321 51.108,321.456 50.703,321.622 50.601 C 321.787 50.499,321.922 50.214,321.922 49.968 C 321.922 49.722,322.192 48.961,322.523 48.277 C 322.853 47.594,323.123 46.861,323.123 46.649 C 323.123 46.438,323.393 45.783,323.724 45.195 C 324.054 44.607,324.324 43.868,324.324 43.552 C 324.324 43.237,324.459 42.895,324.625 42.793 C 324.790 42.691,324.925 42.304,324.925 41.934 C 324.925 41.564,325.044 41.133,325.190 40.976 C 326.436 39.636,327.231 33.326,326.351 31.753 C 324.442 28.337,321.086 27.909,318.187 30.711 C 317.806 31.080,316.514 32.125,315.315 33.033 C 314.117 33.941,312.849 34.958,312.499 35.292 C 312.149 35.626,311.389 36.227,310.811 36.629 C 310.233 37.030,309.557 37.570,309.309 37.827 C 309.062 38.084,308.364 38.663,307.759 39.113 C 307.154 39.563,306.478 40.106,306.257 40.321 C 306.036 40.535,305.383 41.037,304.805 41.437 C 304.227 41.837,303.551 42.379,303.303 42.643 C 303.056 42.906,302.380 43.448,301.802 43.846 C 301.224 44.245,300.392 44.948,299.955 45.409 C 299.517 45.869,299.043 46.246,298.902 46.246 C 298.761 46.246,298.072 46.787,297.370 47.447 C 296.669 48.108,295.980 48.649,295.840 48.649 C 295.699 48.649,295.160 49.054,294.642 49.550 C 294.123 50.045,293.576 50.450,293.427 50.450 C 293.277 50.450,292.464 51.126,291.620 51.952 C 290.777 52.778,289.973 53.453,289.833 53.453 C 289.693 53.453,289.154 53.859,288.636 54.354 C 288.117 54.850,287.590 55.255,287.464 55.255 C 287.337 55.255,286.660 55.796,285.959 56.456 C 285.257 57.117,284.562 57.658,284.414 57.658 C 284.266 57.658,283.455 58.333,282.611 59.159 C 281.768 59.985,280.964 60.661,280.824 60.661 C 280.684 60.661,280.145 61.066,279.627 61.562 C 279.108 62.057,278.581 62.462,278.455 62.462 C 278.328 62.462,277.651 63.003,276.950 63.664 C 276.248 64.324,275.556 64.865,275.411 64.865 C 275.266 64.865,274.591 65.405,273.910 66.066 C 273.229 66.727,272.570 67.267,272.445 67.267 C 272.321 67.267,271.645 67.808,270.944 68.468 C 270.242 69.129,269.550 69.670,269.405 69.670 C 269.260 69.670,268.585 70.210,267.904 70.871 C 267.223 71.532,266.547 72.072,266.402 72.072 C 266.257 72.072,265.581 72.613,264.901 73.273 C 264.220 73.934,263.533 74.474,263.375 74.474 C 263.216 74.474,262.551 75.015,261.897 75.676 C 261.243 76.336,260.578 76.877,260.420 76.877 C 260.262 76.877,259.575 77.417,258.895 78.078 C 258.214 78.739,257.538 79.279,257.393 79.279 C 257.248 79.279,256.572 79.820,255.892 80.480 C 255.211 81.141,254.549 81.682,254.420 81.682 C 254.292 81.682,253.684 82.170,253.069 82.767 C 251.414 84.374,251.522 85.263,253.679 87.801 C 254.628 88.919,255.716 90.263,256.096 90.788 C 256.476 91.312,257.572 92.553,258.531 93.544 C 259.490 94.535,260.465 95.635,260.699 95.989 C 260.932 96.343,262.265 97.830,263.660 99.292 C 267.445 103.259,267.822 104.619,266.066 107.958 C 265.571 108.900,265.165 109.799,265.165 109.955 C 265.165 110.111,264.895 110.799,264.565 111.482 C 264.234 112.166,263.964 112.832,263.964 112.962 C 263.964 113.092,263.559 114.083,263.063 115.165 C 262.568 116.247,262.162 117.260,262.162 117.416 C 262.162 117.572,261.892 118.181,261.562 118.769 C 261.231 119.357,260.961 120.033,260.961 120.270 C 260.961 120.508,260.691 121.184,260.360 121.772 C 260.030 122.360,259.760 123.036,259.760 123.273 C 259.760 123.511,259.489 124.187,259.159 124.775 C 258.829 125.363,258.559 125.972,258.559 126.128 C 258.559 126.284,258.153 127.297,257.658 128.378 C 257.162 129.460,256.757 130.452,256.757 130.582 C 256.757 130.712,256.486 131.378,256.156 132.061 C 255.826 132.745,255.556 133.442,255.556 133.610 C 255.556 133.778,255.285 134.397,254.955 134.985 C 254.625 135.573,254.354 136.249,254.354 136.486 C 254.354 136.724,254.084 137.400,253.754 137.988 C 253.423 138.576,253.153 139.252,253.153 139.489 C 253.153 139.727,252.883 140.403,252.553 140.991 C 252.222 141.579,251.952 142.198,251.952 142.366 C 251.952 142.534,251.682 143.231,251.351 143.915 C 251.021 144.598,250.747 145.301,250.741 145.477 C 250.736 145.652,250.331 146.603,249.840 147.590 C 249.350 148.577,248.949 149.552,248.949 149.758 C 248.949 149.964,248.679 150.613,248.348 151.201 C 248.018 151.789,247.748 152.465,247.748 152.703 C 247.748 152.940,247.477 153.616,247.147 154.204 C 246.817 154.792,246.547 155.468,246.547 155.706 C 246.547 155.943,246.276 156.619,245.946 157.207 C 245.616 157.795,245.345 158.414,245.345 158.582 C 245.345 158.750,245.075 159.447,244.745 160.131 C 244.414 160.815,244.140 161.518,244.135 161.693 C 244.130 161.868,243.724 162.819,243.234 163.806 C 242.744 164.793,242.342 165.769,242.342 165.974 C 242.342 166.180,242.072 166.829,241.742 167.417 C 241.411 168.006,241.141 168.681,241.141 168.919 C 241.141 169.157,240.871 169.832,240.541 170.420 C 240.210 171.009,239.940 171.684,239.940 171.922 C 239.940 172.160,239.670 172.835,239.339 173.423 C 239.009 174.012,238.739 174.687,238.739 174.925 C 238.739 175.163,238.468 175.838,238.138 176.426 C 237.808 177.015,237.538 177.664,237.538 177.870 C 237.538 178.075,237.136 179.051,236.646 180.038 C 236.156 181.024,235.750 181.997,235.745 182.198 C 235.740 182.400,235.465 183.046,235.135 183.634 C 234.805 184.222,234.535 184.876,234.535 185.088 C 234.535 185.300,234.264 186.032,233.934 186.716 C 233.604 187.400,233.333 188.218,233.333 188.535 C 233.333 189.111,231.714 191.161,228.453 194.715 C 227.504 195.751,226.727 196.726,226.727 196.884 C 226.727 197.041,226.051 197.835,225.225 198.649 C 224.399 199.462,223.724 200.250,223.724 200.400 C 223.724 200.550,222.983 201.501,222.077 202.513 C 220.052 204.776,217.502 207.745,215.315 210.384 C 214.407 211.481,212.819 213.286,211.787 214.396 C 210.755 215.506,209.910 216.544,209.910 216.702 C 209.910 216.860,209.234 217.655,208.408 218.468 C 207.583 219.282,206.907 220.070,206.907 220.220 C 206.907 220.522,204.308 223.519,201.883 226.013 L 200.313 227.628 198.198 227.628 L 196.083 227.628 194.513 226.013 C 192.088 223.519,189.489 220.522,189.489 220.220 C 189.489 220.070,188.814 219.282,187.988 218.468 C 187.162 217.655,186.486 216.845,186.486 216.669 C 186.486 216.492,185.676 215.545,184.685 214.565 C 183.694 213.584,182.883 212.637,182.883 212.461 C 182.883 212.284,182.207 211.474,181.381 210.661 C 180.556 209.847,179.880 209.037,179.880 208.861 C 179.880 208.684,179.069 207.737,178.078 206.757 C 177.087 205.776,176.276 204.829,176.276 204.653 C 176.276 204.476,175.601 203.666,174.775 202.853 C 173.949 202.039,173.273 201.229,173.273 201.053 C 173.273 200.876,172.462 199.930,171.471 198.949 C 170.480 197.968,169.670 197.022,169.670 196.845 C 169.670 196.668,168.994 195.858,168.168 195.045 C 167.342 194.232,166.667 193.420,166.667 193.242 C 166.667 193.064,166.052 192.315,165.301 191.579 C 163.954 190.259,163.063 188.874,163.063 188.101 C 163.063 187.884,162.793 187.225,162.462 186.637 C 162.132 186.049,161.862 185.373,161.862 185.135 C 161.862 184.897,161.592 184.222,161.261 183.634 C 160.931 183.046,160.661 182.378,160.661 182.151 C 160.661 181.924,160.371 181.151,160.017 180.434 C 159.664 179.716,159.258 178.825,159.117 178.453 C 158.975 178.082,158.706 177.406,158.518 176.952 C 158.331 176.498,158.080 175.856,157.960 175.526 C 157.841 175.195,157.453 174.338,157.100 173.620 C 156.746 172.903,156.456 172.130,156.456 171.903 C 156.456 171.676,156.186 171.009,155.856 170.420 C 155.526 169.832,155.255 169.157,155.255 168.919 C 155.255 168.681,154.985 168.006,154.655 167.417 C 154.324 166.829,154.054 166.154,154.054 165.916 C 154.054 165.678,153.784 165.003,153.453 164.414 C 153.123 163.826,152.853 163.213,152.853 163.051 C 152.853 162.889,152.569 162.116,152.222 161.333 C 151.876 160.550,151.454 159.572,151.286 159.159 C 151.118 158.746,150.862 158.174,150.716 157.887 C 150.570 157.600,150.450 157.161,150.450 156.911 C 150.450 156.661,150.315 156.456,150.150 156.456 C 149.985 156.456,149.850 156.190,149.850 155.865 C 149.850 155.540,149.580 154.792,149.249 154.204 C 148.919 153.616,148.649 152.940,148.649 152.703 C 148.649 152.465,148.378 151.789,148.048 151.201 C 147.718 150.613,147.447 149.937,147.447 149.700 C 147.447 149.462,147.177 148.786,146.847 148.198 C 146.517 147.610,146.246 146.996,146.246 146.834 C 146.246 146.672,145.963 145.900,145.616 145.117 C 144.748 143.158,143.994 141.326,143.546 140.090 C 143.426 139.760,143.039 138.902,142.685 138.185 C 142.332 137.467,142.042 136.694,142.042 136.467 C 142.042 136.240,141.772 135.573,141.441 134.985 C 141.111 134.397,140.841 133.721,140.841 133.483 C 140.841 133.246,140.571 132.570,140.240 131.982 C 139.910 131.394,139.640 130.718,139.640 130.480 C 139.640 130.243,139.369 129.567,139.039 128.979 C 138.709 128.391,138.438 127.777,138.438 127.615 C 138.438 127.453,138.155 126.680,137.808 125.898 C 137.070 124.231,136.641 123.205,136.336 122.372 C 135.858 121.066,135.494 120.215,134.877 118.966 C 134.524 118.248,134.234 117.475,134.234 117.248 C 134.234 117.021,133.964 116.354,133.634 115.766 C 133.303 115.178,133.033 114.438,133.033 114.123 C 133.033 113.807,132.898 113.465,132.733 113.363 C 132.568 113.261,132.432 112.915,132.432 112.595 C 132.432 112.274,132.322 112.012,132.186 112.012 C 132.051 112.012,131.756 111.336,131.532 110.511 C 131.307 109.685,131.012 109.009,130.877 109.009 C 130.741 109.009,130.631 108.739,130.631 108.408 C 130.631 108.078,130.495 107.808,130.330 107.808 C 130.165 107.808,130.030 107.538,130.030 107.207 C 130.030 106.877,129.895 106.607,129.730 106.607 C 129.298 106.607,129.359 103.412,129.805 102.671 C 130.011 102.328,131.464 100.693,133.033 99.039 C 134.602 97.384,135.935 95.876,135.996 95.688 C 136.056 95.499,137.020 94.399,138.138 93.243 C 139.256 92.087,140.220 90.989,140.281 90.803 C 140.341 90.618,141.303 89.489,142.417 88.294 C 143.532 87.100,144.444 85.878,144.444 85.578 C 144.444 85.279,144.523 84.830,144.618 84.581 C 144.782 84.155,142.521 81.682,141.969 81.682 C 141.844 81.682,141.185 81.141,140.505 80.480 C 139.824 79.820,139.148 79.279,139.003 79.279 C 138.858 79.279,138.182 78.739,137.502 78.078 C 136.821 77.417,136.134 76.877,135.976 76.877 C 135.818 76.877,135.153 76.336,134.499 75.676 C 133.845 75.015,133.180 74.474,133.022 74.474 C 132.863 74.474,132.176 73.934,131.496 73.273 C 130.815 72.613,130.139 72.072,129.994 72.072 C 129.849 72.072,129.173 71.532,128.493 70.871 C 127.812 70.210,127.136 69.670,126.991 69.670 C 126.847 69.670,126.154 69.129,125.453 68.468 C 124.751 67.808,124.076 67.267,123.951 67.267 C 123.826 67.267,123.167 66.727,122.487 66.066 C 121.806 65.405,121.130 64.865,120.985 64.865 C 120.841 64.865,120.148 64.324,119.447 63.664 C 118.745 63.003,118.051 62.462,117.905 62.462 C 117.758 62.462,117.419 62.220,117.152 61.923 C 116.885 61.626,116.194 61.052,115.616 60.648 C 115.038 60.244,114.042 59.405,113.402 58.785 C 112.763 58.165,112.121 57.658,111.976 57.658 C 111.831 57.658,111.139 57.117,110.438 56.456 C 109.736 55.796,109.059 55.255,108.933 55.255 C 108.807 55.255,108.279 54.850,107.761 54.354 C 107.242 53.859,106.703 53.453,106.564 53.453 C 106.424 53.453,105.619 52.778,104.776 51.952 C 103.933 51.126,103.120 50.450,102.970 50.450 C 102.820 50.450,102.273 50.045,101.755 49.550 C 101.236 49.054,100.697 48.649,100.556 48.649 C 100.416 48.649,99.744 48.108,99.063 47.447 C 98.382 46.787,97.707 46.246,97.563 46.246 C 97.418 46.246,96.610 45.571,95.767 44.745 C 94.924 43.919,94.094 43.243,93.924 43.243 C 93.753 43.243,93.395 43.000,93.128 42.703 C 92.861 42.407,92.170 41.840,91.592 41.445 C 91.014 41.050,90.168 40.347,89.712 39.883 C 89.256 39.419,88.770 39.039,88.631 39.039 C 88.491 39.039,87.986 38.666,87.507 38.210 C 87.028 37.754,86.164 37.047,85.586 36.640 C 85.008 36.232,84.248 35.626,83.897 35.292 C 83.547 34.958,82.280 33.941,81.081 33.033 C 79.883 32.125,78.590 31.080,78.209 30.711 C 76.434 28.995,74.026 28.388,72.450 29.260 " stroke="none" fill="#fbfbfc" fill-rule="evenodd"></path><path id="path3" d="M198.727 59.629 C 197.246 60.433,196.997 61.387,196.996 66.276 C 196.995 68.721,196.908 72.226,196.802 74.065 L 196.609 77.409 195.527 77.735 C 194.931 77.914,190.728 80.172,186.186 82.752 C 181.644 85.332,177.320 87.780,176.577 88.194 C 164.392 94.965,165.281 93.745,163.804 105.737 C 162.421 116.962,160.500 131.820,159.740 137.156 C 158.926 142.878,159.459 144.784,162.347 146.486 C 163.105 146.932,164.893 148.168,166.322 149.231 C 171.085 152.778,184.411 162.901,190.507 167.603 C 192.352 169.026,194.416 170.473,195.092 170.818 C 196.746 171.662,196.697 171.367,196.697 180.332 L 196.697 188.242 197.470 189.161 C 198.614 190.520,200.232 190.921,201.689 190.204 C 203.864 189.134,203.918 188.868,204.010 178.817 C 204.107 168.260,203.365 169.570,210.109 168.058 C 227.054 164.261,227.629 164.008,228.377 160.022 C 229.373 154.715,225.058 152.522,217.198 154.340 C 215.089 154.828,211.577 155.639,209.394 156.142 C 207.211 156.645,205.150 157.057,204.815 157.057 C 204.005 157.057,203.828 92.918,204.637 92.608 C 205.077 92.439,208.694 93.319,216.490 95.491 C 223.357 97.404,225.975 96.886,227.466 93.317 C 229.220 89.118,227.090 86.101,221.302 84.586 C 211.048 81.901,204.914 80.093,204.581 79.657 C 204.298 79.287,204.224 77.073,204.280 70.590 C 204.361 61.291,204.284 60.781,202.638 59.628 C 201.800 59.041,199.810 59.042,198.727 59.629 M202.201 60.374 C 203.444 61.352,203.600 62.611,203.602 71.689 L 203.604 80.165 204.496 80.626 C 204.987 80.880,207.454 81.618,209.977 82.266 C 226.293 86.457,227.656 87.170,227.258 91.311 C 226.765 96.442,223.449 96.977,212.462 93.698 C 207.079 92.091,204.206 91.469,203.842 91.834 C 203.290 92.386,203.104 156.905,203.652 157.566 C 204.072 158.072,204.357 158.034,210.060 156.723 C 213.840 155.853,215.131 155.554,219.740 154.481 C 225.776 153.075,229.898 157.350,226.890 161.896 C 225.720 163.663,223.948 164.363,217.117 165.755 C 210.413 167.122,204.607 168.529,203.979 168.941 C 203.304 169.383,203.303 169.392,203.303 178.095 C 203.303 187.440,203.184 188.307,201.767 189.300 C 200.709 190.041,199.538 189.905,198.428 188.914 L 197.447 188.038 197.297 179.629 C 197.215 175.004,197.080 171.170,196.997 171.108 C 196.914 171.047,196.367 170.750,195.780 170.447 C 195.193 170.145,191.004 167.067,186.471 163.608 C 167.862 149.408,165.401 147.556,163.912 146.627 C 159.903 144.125,159.676 143.409,160.656 136.336 C 160.827 135.098,161.106 132.935,161.276 131.532 C 161.901 126.365,162.134 124.418,162.429 121.922 C 162.736 119.328,163.678 112.020,164.267 107.658 C 165.425 99.095,165.789 96.922,166.202 96.124 C 166.666 95.227,168.429 93.397,168.832 93.395 C 168.949 93.394,170.880 92.312,173.123 90.991 C 175.366 89.670,177.251 88.589,177.311 88.589 C 177.372 88.589,179.090 87.625,181.128 86.447 C 183.167 85.269,185.578 83.896,186.486 83.396 C 187.395 82.895,189.733 81.561,191.681 80.432 C 193.630 79.302,195.546 78.378,195.939 78.378 C 197.526 78.378,197.597 78.030,197.599 70.324 C 197.601 62.305,197.776 61.210,199.193 60.346 C 200.418 59.599,201.225 59.606,202.201 60.374 M193.393 91.385 C 191.824 92.263,190.000 93.300,189.339 93.690 C 188.679 94.081,186.314 95.436,184.084 96.703 C 174.488 102.152,175.553 100.942,174.775 107.279 C 174.446 109.965,174.035 113.311,173.862 114.715 C 173.690 116.119,173.427 118.146,173.278 119.219 C 171.659 130.912,170.848 137.707,171.000 138.312 C 171.098 138.701,174.156 141.220,178.843 144.775 C 183.068 147.979,188.037 151.769,189.884 153.197 C 197.733 159.263,197.149 159.305,197.364 152.656 C 197.726 141.489,197.662 90.680,197.286 90.227 C 196.746 89.576,196.496 89.650,193.393 91.385 M196.692 123.498 C 196.690 141.543,196.577 156.480,196.443 156.692 C 196.201 157.074,195.185 156.352,185.317 148.789 C 183.600 147.473,179.966 144.707,177.241 142.643 C 171.077 137.974,171.550 138.836,172.189 133.438 C 173.378 123.396,175.860 104.275,176.152 102.906 C 176.346 102.000,177.575 101.099,181.532 98.961 C 182.688 98.336,185.188 96.919,187.087 95.811 C 193.346 92.160,195.941 90.726,196.321 90.708 C 196.619 90.694,196.696 97.441,196.692 123.498 " stroke="none" fill="#9f9204" fill-rule="evenodd"></path><path id="path4" d="M195.282 26.141 C 194.586 26.467,193.775 27.073,193.480 27.487 C 192.723 28.549,192.054 29.352,190.443 31.131 C 187.804 34.046,185.736 36.431,185.301 37.060 C 185.062 37.405,184.454 38.109,183.950 38.624 C 183.446 39.138,182.425 40.269,181.682 41.136 C 180.938 42.003,179.841 43.241,179.243 43.887 C 178.644 44.533,177.833 45.483,177.441 45.997 C 177.048 46.510,176.280 47.419,175.734 48.015 C 175.189 48.611,174.243 49.679,173.632 50.387 C 173.022 51.096,171.982 52.264,171.321 52.984 C 170.661 53.704,169.580 54.924,168.919 55.695 C 168.258 56.466,167.042 57.850,166.216 58.769 C 165.390 59.689,164.518 60.728,164.278 61.077 C 164.038 61.426,163.495 62.050,163.071 62.462 C 162.647 62.875,161.560 64.092,160.655 65.165 C 159.750 66.239,158.941 67.185,158.859 67.267 C 158.776 67.350,157.830 68.429,156.756 69.665 C 155.683 70.901,154.535 72.206,154.204 72.565 C 153.874 72.924,153.131 73.781,152.553 74.470 C 151.974 75.159,151.029 76.235,150.450 76.861 C 149.444 77.952,148.185 79.389,145.731 82.248 C 145.059 83.031,144.584 83.910,144.558 84.416 L 144.516 85.267 145.817 84.201 C 146.533 83.614,147.464 82.545,147.885 81.826 C 148.307 81.107,149.267 80.014,150.018 79.399 C 150.769 78.783,151.712 77.720,152.113 77.036 C 152.513 76.353,153.459 75.260,154.214 74.608 C 154.969 73.957,155.871 72.950,156.219 72.372 C 156.566 71.794,157.708 70.502,158.756 69.500 C 159.803 68.498,160.661 67.477,160.661 67.232 C 160.661 66.987,161.606 65.915,162.761 64.850 C 163.916 63.784,164.862 62.726,164.863 62.499 C 164.864 62.271,165.811 61.173,166.967 60.060 C 168.123 58.947,169.069 57.867,169.069 57.661 C 169.069 57.455,170.015 56.345,171.171 55.193 C 172.327 54.042,173.273 52.963,173.273 52.796 C 173.273 52.629,174.287 51.475,175.526 50.232 C 176.764 48.990,177.778 47.811,177.778 47.614 C 177.778 47.417,178.656 46.436,179.730 45.435 C 180.803 44.433,181.682 43.447,181.682 43.243 C 181.682 43.040,182.628 41.949,183.784 40.820 C 184.940 39.691,185.886 38.603,185.886 38.402 C 185.886 38.200,186.832 37.117,187.988 35.995 C 189.144 34.873,190.090 33.796,190.090 33.602 C 190.090 33.408,190.935 32.401,191.967 31.364 C 192.999 30.326,194.123 29.163,194.464 28.778 C 195.807 27.263,196.332 27.027,198.352 27.027 C 199.451 27.027,200.300 27.158,200.300 27.327 C 200.300 27.492,200.513 27.628,200.772 27.628 C 201.309 27.628,202.102 28.328,202.102 28.803 C 202.102 28.977,202.990 29.966,204.074 31.001 C 205.159 32.036,206.254 33.274,206.507 33.752 C 206.760 34.229,207.691 35.288,208.577 36.105 C 209.462 36.922,210.279 37.881,210.392 38.238 C 210.505 38.594,211.524 39.754,212.656 40.815 C 213.788 41.876,214.715 42.912,214.715 43.117 C 214.715 43.322,215.661 44.432,216.817 45.584 C 217.973 46.735,218.919 47.825,218.919 48.004 C 218.919 48.184,219.770 49.180,220.810 50.217 C 221.850 51.254,222.950 52.498,223.255 52.983 C 223.560 53.467,224.543 54.540,225.440 55.368 C 226.337 56.195,227.285 57.285,227.546 57.790 C 227.807 58.295,228.756 59.383,229.655 60.207 C 230.554 61.031,231.498 62.106,231.751 62.597 C 232.005 63.087,233.060 64.278,234.095 65.243 C 235.131 66.207,236.053 67.294,236.145 67.658 C 236.236 68.021,237.065 68.976,237.987 69.780 C 238.909 70.583,239.919 71.732,240.231 72.332 C 240.543 72.932,241.419 73.944,242.176 74.580 C 242.934 75.216,243.888 76.307,244.296 77.003 C 244.705 77.700,245.851 78.982,246.844 79.853 C 247.836 80.723,248.649 81.632,248.649 81.873 C 248.649 82.114,249.358 82.982,250.225 83.802 L 251.802 85.293 251.952 84.503 C 252.070 83.883,251.845 83.440,250.901 82.435 C 250.240 81.732,249.092 80.448,248.348 79.581 C 247.605 78.715,246.659 77.633,246.246 77.177 C 245.833 76.722,244.887 75.649,244.144 74.794 C 243.401 73.938,242.276 72.672,241.644 71.980 C 241.012 71.287,240.134 70.254,239.692 69.683 C 239.250 69.112,238.551 68.301,238.138 67.881 C 237.725 67.461,236.647 66.239,235.742 65.165 C 234.837 64.092,233.749 62.875,233.325 62.462 C 232.901 62.050,232.358 61.426,232.118 61.078 C 231.722 60.503,230.800 59.431,227.177 55.337 C 226.517 54.591,225.503 53.464,224.925 52.833 C 224.347 52.203,223.401 51.122,222.823 50.433 C 222.245 49.743,221.434 48.803,221.021 48.342 C 220.608 47.882,219.797 46.939,219.219 46.247 C 218.641 45.555,217.761 44.563,217.264 44.041 C 216.767 43.520,216.000 42.620,215.561 42.042 C 215.121 41.464,214.028 40.232,213.132 39.305 C 212.236 38.378,211.313 37.349,211.082 37.018 C 210.850 36.688,209.985 35.665,209.159 34.745 C 208.333 33.826,207.158 32.490,206.548 31.777 C 205.938 31.064,204.992 29.994,204.446 29.398 C 203.900 28.803,203.185 27.958,202.856 27.521 C 201.436 25.630,197.788 24.965,195.282 26.141 M252.188 86.340 C 252.358 86.672,252.813 87.211,253.200 87.539 C 253.879 88.113,253.878 88.102,253.158 87.235 C 251.962 85.795,251.861 85.702,252.188 86.340 " stroke="none" fill="#64ac94" fill-rule="evenodd"></path></g></svg>