<svg id="svg" version="1.1" xmlns="http://www.w3.org/2000/svg" xmlns:xlink="http://www.w3.org/1999/xlink" width="400" height="300.1503759398496" viewBox="0, 0, 400,300.1503759398496"><g id="svgg"><path id="path0" d="M194.069 28.502 C 193.202 29.396,192.492 30.352,192.492 30.626 C 192.492 30.900,191.872 31.655,191.113 32.304 C 188.456 34.576,187.986 35.082,188.145 35.496 C 188.241 35.746,187.744 36.391,186.911 37.101 C 184.875 38.834,184.412 39.362,184.569 39.771 C 184.688 40.082,183.316 41.453,180.228 44.108 C 179.841 44.441,179.615 44.859,179.725 45.037 C 179.836 45.217,178.916 46.312,177.658 47.497 C 176.411 48.671,175.471 49.761,175.569 49.921 C 175.791 50.280,172.363 53.514,171.934 53.350 C 171.762 53.284,171.591 53.650,171.553 54.162 C 171.444 55.643,168.497 58.265,168.046 57.282 C 167.951 57.076,167.945 57.199,168.033 57.557 C 168.141 57.998,167.993 58.347,167.573 58.641 C 167.232 58.880,167.027 59.268,167.118 59.504 C 167.255 59.861,164.882 62.462,164.420 62.462 C 164.028 62.462,162.808 64.032,162.937 64.370 C 163.082 64.746,162.335 65.519,159.668 67.756 C 158.994 68.321,158.614 68.865,158.714 69.125 C 158.862 69.511,158.084 70.377,156.353 71.752 C 155.881 72.127,155.770 72.127,155.504 71.752 C 155.264 71.413,155.238 71.441,155.381 71.883 C 155.499 72.243,155.346 72.634,154.955 72.973 C 154.620 73.264,154.421 73.698,154.513 73.937 C 154.663 74.329,153.699 75.320,150.821 77.736 C 150.436 78.059,150.215 78.498,150.311 78.749 C 150.421 79.035,149.878 79.712,148.776 80.662 C 147.838 81.471,146.801 82.365,146.473 82.649 C 146.144 82.933,145.949 83.359,146.040 83.596 C 146.216 84.053,145.273 85.113,144.966 84.805 C 144.866 84.706,144.626 84.723,144.432 84.842 C 144.169 85.005,144.180 85.122,144.474 85.303 C 145.070 85.672,144.313 86.921,142.267 88.947 C 141.318 89.888,140.541 90.795,140.541 90.964 C 140.541 91.132,139.595 92.254,138.438 93.457 C 137.282 94.660,136.336 95.782,136.336 95.951 C 136.336 96.120,135.047 97.539,133.472 99.105 C 129.335 103.216,128.932 104.429,130.631 107.658 C 131.126 108.600,131.532 109.546,131.532 109.760 C 131.532 109.974,131.937 110.920,132.432 111.862 C 132.928 112.804,133.333 113.759,133.333 113.985 C 133.333 114.211,133.604 114.877,133.934 115.465 C 134.264 116.054,134.535 116.729,134.535 116.967 C 134.535 117.205,134.805 117.880,135.135 118.468 C 135.465 119.057,135.736 119.732,135.736 119.970 C 135.736 120.208,136.006 120.883,136.336 121.471 C 136.667 122.060,136.937 122.735,136.937 122.973 C 136.937 123.211,137.207 123.886,137.538 124.474 C 137.868 125.063,138.138 125.729,138.138 125.955 C 138.138 126.181,138.544 127.136,139.039 128.078 C 139.535 129.020,139.940 129.976,139.940 130.202 C 139.940 130.427,140.210 131.094,140.541 131.682 C 140.871 132.270,141.141 132.945,141.141 133.183 C 141.141 133.421,141.411 134.097,141.742 134.685 C 142.072 135.273,142.342 135.948,142.342 136.186 C 142.342 136.424,142.613 137.100,142.943 137.688 C 143.273 138.276,143.544 138.951,143.544 139.189 C 143.544 139.427,143.814 140.103,144.144 140.691 C 144.474 141.279,144.745 141.954,144.745 142.192 C 144.745 142.430,145.015 143.106,145.345 143.694 C 145.676 144.282,145.946 144.948,145.946 145.174 C 145.946 145.400,146.351 146.355,146.847 147.297 C 147.342 148.239,147.748 149.195,147.748 149.421 C 147.748 149.647,148.018 150.313,148.348 150.901 C 148.679 151.489,148.949 152.165,148.949 152.402 C 148.949 152.640,149.219 153.316,149.550 153.904 C 149.880 154.492,150.150 155.168,150.150 155.405 C 150.150 155.643,150.420 156.319,150.751 156.907 C 151.081 157.495,151.351 158.171,151.351 158.408 C 151.351 158.646,151.622 159.322,151.952 159.910 C 152.282 160.498,152.553 161.164,152.553 161.390 C 152.553 161.616,152.958 162.572,153.453 163.514 C 153.949 164.455,154.354 165.411,154.354 165.637 C 154.354 165.863,154.625 166.529,154.955 167.117 C 155.285 167.705,155.556 168.381,155.556 168.619 C 155.556 168.856,155.826 169.532,156.156 170.120 C 156.486 170.708,156.757 171.384,156.757 171.622 C 156.757 171.859,157.027 172.535,157.357 173.123 C 157.688 173.711,157.958 174.387,157.958 174.625 C 157.958 174.862,158.228 175.538,158.559 176.126 C 158.889 176.714,159.159 177.380,159.159 177.606 C 159.159 177.832,159.565 178.788,160.060 179.730 C 160.556 180.672,160.961 181.627,160.961 181.853 C 160.961 182.079,161.231 182.745,161.562 183.333 C 161.892 183.921,162.162 184.597,162.162 184.835 C 162.162 185.073,162.432 185.748,162.763 186.336 C 163.093 186.924,163.363 187.739,163.363 188.147 C 163.363 188.555,163.498 188.889,163.664 188.889 C 163.829 188.889,163.964 189.100,163.964 189.359 C 163.964 189.617,164.640 190.487,165.465 191.291 C 166.291 192.096,166.967 192.906,166.967 193.093 C 166.967 193.280,167.643 194.091,168.468 194.895 C 169.294 195.699,169.970 196.510,169.970 196.697 C 169.970 196.883,170.646 197.694,171.471 198.498 C 172.297 199.303,172.973 200.093,172.973 200.255 C 172.973 200.416,173.784 201.372,174.775 202.378 C 175.766 203.385,176.577 204.351,176.577 204.526 C 176.577 204.701,177.252 205.502,178.078 206.306 C 178.904 207.111,179.580 207.901,179.580 208.062 C 179.580 208.224,180.390 209.180,181.381 210.186 C 182.372 211.192,183.183 212.158,183.183 212.331 C 183.183 212.504,183.994 213.442,184.985 214.414 C 185.976 215.387,186.787 216.334,186.787 216.519 C 186.787 216.704,187.462 217.514,188.288 218.318 C 189.114 219.123,189.790 219.934,189.790 220.120 C 189.790 220.307,190.465 221.118,191.291 221.922 C 192.117 222.726,192.793 223.531,192.793 223.711 C 192.793 223.890,193.533 224.777,194.438 225.682 L 196.083 227.327 198.198 227.327 L 200.313 227.327 201.958 225.682 C 202.863 224.777,203.604 223.890,203.604 223.711 C 203.604 223.531,204.279 222.726,205.105 221.922 C 205.931 221.118,206.607 220.307,206.607 220.120 C 206.607 219.934,207.282 219.123,208.108 218.318 C 208.934 217.514,209.610 216.705,209.610 216.522 C 209.610 216.338,210.556 215.254,211.712 214.114 C 212.868 212.974,213.814 211.891,213.814 211.707 C 213.814 211.523,214.489 210.714,215.315 209.910 C 216.141 209.106,216.817 208.296,216.817 208.111 C 216.817 207.926,217.628 206.979,218.619 206.006 C 219.610 205.033,220.420 204.086,220.420 203.901 C 220.420 203.716,221.096 202.906,221.922 202.102 C 222.748 201.298,223.423 200.487,223.423 200.300 C 223.423 200.114,224.099 199.303,224.925 198.498 C 225.751 197.694,226.426 196.885,226.426 196.700 C 226.426 196.515,227.237 195.567,228.228 194.595 C 229.219 193.622,230.030 192.675,230.030 192.490 C 230.030 192.305,230.706 191.495,231.532 190.691 C 232.545 189.704,233.033 188.983,233.033 188.476 C 233.033 188.062,233.168 187.640,233.333 187.538 C 233.498 187.435,233.634 187.030,233.634 186.637 C 233.634 186.243,233.769 185.838,233.934 185.736 C 234.099 185.634,234.234 185.302,234.234 184.998 C 234.234 184.694,234.640 183.675,235.135 182.733 C 235.631 181.791,236.036 180.835,236.036 180.609 C 236.036 180.383,236.306 179.717,236.637 179.129 C 236.967 178.541,237.237 177.865,237.237 177.628 C 237.237 177.390,237.508 176.714,237.838 176.126 C 238.168 175.538,238.438 174.862,238.438 174.625 C 238.438 174.387,238.709 173.711,239.039 173.123 C 239.369 172.535,239.640 171.859,239.640 171.622 C 239.640 171.384,239.910 170.708,240.240 170.120 C 240.571 169.532,240.841 168.856,240.841 168.619 C 240.841 168.381,241.111 167.705,241.441 167.117 C 241.772 166.529,242.042 165.863,242.042 165.637 C 242.042 165.411,242.447 164.455,242.943 163.514 C 243.438 162.572,243.844 161.616,243.844 161.390 C 243.844 161.164,244.114 160.498,244.444 159.910 C 244.775 159.322,245.045 158.646,245.045 158.408 C 245.045 158.171,245.315 157.495,245.646 156.907 C 245.976 156.319,246.246 155.643,246.246 155.405 C 246.246 155.168,246.517 154.492,246.847 153.904 C 247.177 153.316,247.447 152.640,247.447 152.402 C 247.447 152.165,247.718 151.489,248.048 150.901 C 248.378 150.313,248.649 149.652,248.649 149.432 C 248.649 149.213,249.037 148.237,249.511 147.264 C 250.333 145.579,251.081 143.827,252.252 140.841 C 252.544 140.098,253.069 138.780,253.418 137.913 C 253.768 137.046,254.339 135.627,254.687 134.760 C 255.034 133.893,255.575 132.605,255.888 131.899 C 256.201 131.193,256.456 130.471,256.456 130.297 C 256.456 130.122,256.847 129.146,257.324 128.127 C 257.801 127.109,258.491 125.533,258.857 124.625 C 259.224 123.716,259.779 122.395,260.092 121.689 C 260.405 120.982,260.661 120.279,260.661 120.126 C 260.661 119.972,261.077 118.929,261.587 117.806 C 263.471 113.655,263.664 113.188,263.664 112.764 C 263.664 112.526,263.934 111.849,264.264 111.261 C 264.595 110.673,264.865 110.007,264.865 109.781 C 264.865 109.555,265.270 108.600,265.766 107.658 C 267.453 104.450,267.028 103.055,263.193 99.220 C 261.800 97.828,260.661 96.565,260.661 96.414 C 260.661 96.264,259.583 95.016,258.265 93.641 C 256.948 92.266,255.867 91.001,255.863 90.830 C 255.859 90.658,255.174 89.847,254.341 89.028 C 252.614 87.329,251.538 85.691,251.972 85.423 C 252.131 85.324,252.183 85.116,252.086 84.959 C 251.990 84.803,251.776 84.758,251.612 84.859 C 251.174 85.130,250.198 84.134,250.320 83.541 C 250.388 83.209,249.642 82.371,248.167 81.120 C 246.649 79.834,245.966 79.060,246.082 78.757 C 246.177 78.509,246.000 78.086,245.688 77.817 C 245.377 77.548,244.354 76.666,243.416 75.857 C 242.279 74.877,241.770 74.234,241.887 73.929 C 241.983 73.677,241.942 73.393,241.794 73.297 C 240.434 72.415,237.543 69.487,237.680 69.131 C 237.772 68.891,237.541 68.433,237.167 68.109 C 233.991 65.366,233.336 64.691,233.481 64.313 C 233.570 64.081,233.336 63.628,232.962 63.304 C 229.543 60.350,229.135 59.915,229.298 59.399 C 229.393 59.102,229.359 58.856,229.224 58.853 C 228.718 58.842,224.869 54.988,225.058 54.682 C 225.167 54.506,224.810 53.971,224.264 53.492 C 221.373 50.952,220.659 50.192,220.860 49.867 C 220.983 49.669,220.771 49.254,220.373 48.910 C 216.925 45.931,216.522 45.502,216.686 44.985 C 216.784 44.674,216.708 44.444,216.505 44.444 C 216.311 44.444,216.227 44.249,216.319 44.009 C 216.418 43.752,216.339 43.625,216.126 43.699 C 215.627 43.871,212.192 40.678,212.441 40.274 C 212.552 40.095,212.140 39.507,211.525 38.968 C 209.113 36.854,208.076 35.731,208.260 35.432 C 208.366 35.261,207.814 34.549,207.033 33.851 C 204.294 31.404,203.852 30.938,203.960 30.613 C 204.020 30.433,203.345 29.562,202.460 28.677 L 200.851 27.068 198.248 26.973 L 195.646 26.877 194.069 28.502 M207.651 81.863 C 209.451 82.583,209.721 82.616,211.116 82.281 C 213.268 81.765,214.013 81.985,220.193 84.963 C 224.254 86.921,226.009 87.935,226.822 88.792 C 227.503 89.512,228.436 90.109,229.254 90.350 C 230.732 90.787,236.241 95.434,237.259 97.103 C 238.712 99.486,237.704 102.836,235.144 104.129 C 232.391 105.520,230.802 104.847,226.078 100.293 C 224.205 98.488,222.427 97.008,222.127 97.004 C 221.828 97.000,221.347 96.871,221.060 96.718 C 220.227 96.272,220.005 96.587,217.586 101.641 C 215.105 106.825,214.842 107.218,213.121 108.312 C 211.623 109.264,205.249 122.064,204.774 125.075 C 204.618 126.066,204.119 127.620,203.666 128.529 C 201.709 132.457,185.655 164.035,184.507 166.216 C 182.404 170.213,179.859 171.491,176.955 170.010 C 173.342 168.167,173.274 165.748,176.652 159.158 C 178.048 156.434,182.672 147.312,186.927 138.889 C 195.673 121.574,195.634 121.642,197.511 120.677 C 199.262 119.779,205.706 107.210,205.706 104.695 C 205.706 103.041,206.063 102.053,208.526 96.889 C 210.874 91.964,210.853 92.153,209.234 90.546 C 206.732 88.062,206.512 88.059,200.734 90.429 C 193.740 93.297,191.141 92.953,191.141 89.158 C 191.141 87.040,191.950 86.411,197.616 84.124 C 200.166 83.095,202.725 81.995,203.303 81.680 C 204.708 80.913,205.348 80.940,207.651 81.863 " stroke="none" fill="#848484" fill-rule="evenodd"></path><path id="path1" d="M175.720 47.929 C 175.497 48.181,175.374 48.447,175.447 48.520 C 175.520 48.593,175.825 48.381,176.124 48.050 C 176.424 47.719,176.547 47.453,176.398 47.459 C 176.248 47.465,175.944 47.677,175.720 47.929 M220.873 48.650 C 221.172 48.982,221.480 49.191,221.555 49.115 C 221.718 48.953,220.862 48.048,220.545 48.048 C 220.425 48.048,220.573 48.319,220.873 48.650 M170.916 53.334 C 170.693 53.587,170.569 53.853,170.642 53.926 C 170.715 53.998,171.020 53.787,171.320 53.455 C 171.620 53.124,171.743 52.858,171.593 52.864 C 171.444 52.871,171.139 53.082,170.916 53.334 M246.098 77.479 C 246.398 77.811,246.705 78.020,246.781 77.944 C 246.943 77.781,246.087 76.877,245.771 76.877 C 245.651 76.877,245.798 77.148,246.098 77.479 M203.303 81.680 C 202.725 81.995,200.166 83.095,197.616 84.124 C 191.950 86.411,191.141 87.040,191.141 89.158 C 191.141 92.953,193.740 93.297,200.734 90.429 C 206.512 88.059,206.732 88.062,209.234 90.546 C 210.853 92.153,210.874 91.964,208.526 96.889 C 206.063 102.053,205.706 103.041,205.706 104.695 C 205.706 107.210,199.262 119.779,197.511 120.677 C 195.634 121.642,195.673 121.574,186.927 138.889 C 182.672 147.312,178.048 156.434,176.652 159.158 C 173.274 165.748,173.342 168.167,176.955 170.010 C 179.859 171.491,182.404 170.213,184.507 166.216 C 185.655 164.035,201.709 132.457,203.666 128.529 C 204.119 127.620,204.618 126.066,204.774 125.075 C 205.249 122.064,211.623 109.264,213.121 108.312 C 214.842 107.218,215.105 106.825,217.586 101.641 C 220.005 96.587,220.227 96.272,221.060 96.718 C 221.347 96.871,221.828 97.000,222.127 97.004 C 222.427 97.008,224.205 98.488,226.078 100.293 C 230.802 104.847,232.391 105.520,235.144 104.129 C 237.704 102.836,238.712 99.486,237.259 97.103 C 236.241 95.434,230.732 90.787,229.254 90.350 C 228.436 90.109,227.503 89.512,226.822 88.792 C 226.009 87.935,224.254 86.921,220.193 84.963 C 214.013 81.985,213.268 81.765,211.116 82.281 C 209.721 82.616,209.451 82.583,207.651 81.863 C 205.348 80.940,204.708 80.913,203.303 81.680 " stroke="none" fill="#4d4d4d" fill-rule="evenodd"></path><path id="path2" d="M72.450 29.260 C 69.727 30.766,68.666 35.347,70.270 38.668 C 70.601 39.352,70.871 40.112,70.871 40.358 C 70.871 40.604,71.006 40.889,71.171 40.991 C 71.336 41.093,71.471 41.498,71.471 41.892 C 71.471 42.285,71.607 42.691,71.772 42.793 C 71.937 42.895,72.072 43.237,72.072 43.552 C 72.072 43.868,72.342 44.607,72.673 45.195 C 73.003 45.783,73.273 46.438,73.273 46.649 C 73.273 46.861,73.544 47.594,73.874 48.277 C 74.204 48.961,74.474 49.722,74.474 49.968 C 74.474 50.214,74.610 50.499,74.775 50.601 C 74.940 50.703,75.075 51.108,75.075 51.502 C 75.075 51.895,75.210 52.300,75.375 52.402 C 75.541 52.504,75.676 52.846,75.676 53.162 C 75.676 53.477,75.946 54.217,76.276 54.805 C 76.607 55.393,76.877 56.069,76.877 56.306 C 76.877 56.544,77.147 57.220,77.477 57.808 C 77.808 58.396,78.078 59.135,78.078 59.451 C 78.078 59.766,78.213 60.108,78.378 60.210 C 78.544 60.312,78.679 60.718,78.679 61.111 C 78.679 61.505,78.814 61.910,78.979 62.012 C 79.144 62.114,79.279 62.456,79.279 62.771 C 79.279 63.087,79.550 63.826,79.880 64.414 C 80.210 65.003,80.480 65.817,80.480 66.225 C 80.480 66.633,80.616 66.967,80.781 66.967 C 80.946 66.967,81.081 67.237,81.081 67.568 C 81.081 67.898,81.216 68.168,81.381 68.168 C 81.547 68.168,81.682 68.574,81.682 69.069 C 81.682 69.565,81.817 69.970,81.982 69.970 C 82.147 69.970,82.282 70.300,82.282 70.703 C 82.282 71.106,82.417 71.520,82.583 71.622 C 82.748 71.724,82.883 72.070,82.883 72.390 C 82.883 72.711,83.018 72.973,83.183 72.973 C 83.348 72.973,83.483 73.303,83.483 73.706 C 83.483 74.109,83.619 74.523,83.784 74.625 C 83.949 74.727,84.084 75.132,84.084 75.526 C 84.084 75.919,84.219 76.324,84.384 76.426 C 84.550 76.529,84.685 76.874,84.685 77.195 C 84.685 77.515,84.820 77.778,84.985 77.778 C 85.150 77.778,85.285 78.108,85.285 78.511 C 85.285 78.914,85.420 79.327,85.586 79.429 C 85.751 79.532,85.886 79.873,85.886 80.189 C 85.886 80.504,86.156 81.244,86.486 81.832 C 86.817 82.420,87.087 83.159,87.087 83.475 C 87.087 83.790,87.222 84.132,87.387 84.234 C 87.553 84.336,87.688 84.742,87.688 85.135 C 87.688 85.529,87.823 85.934,87.988 86.036 C 88.153 86.138,88.288 86.484,88.288 86.805 C 88.288 87.125,88.423 87.387,88.589 87.387 C 88.754 87.387,88.889 87.717,88.889 88.120 C 88.889 88.524,89.024 88.937,89.189 89.039 C 89.354 89.141,89.489 89.483,89.489 89.798 C 89.489 90.114,89.760 90.853,90.090 91.441 C 90.420 92.030,90.691 92.844,90.691 93.252 C 90.691 93.660,90.826 93.994,90.991 93.994 C 91.156 93.994,91.291 94.264,91.291 94.595 C 91.291 94.925,91.426 95.195,91.592 95.195 C 91.757 95.195,91.892 95.601,91.892 96.096 C 91.892 96.592,92.027 96.997,92.192 96.997 C 92.357 96.997,92.492 97.327,92.492 97.730 C 92.492 98.133,92.628 98.547,92.793 98.649 C 92.958 98.751,93.093 99.092,93.093 99.408 C 93.093 99.724,93.363 100.463,93.694 101.051 C 94.024 101.639,94.294 102.379,94.294 102.694 C 94.294 103.010,94.429 103.351,94.595 103.453 C 94.760 103.556,94.895 103.961,94.895 104.354 C 94.895 104.748,95.030 105.153,95.195 105.255 C 95.360 105.357,95.495 105.703,95.495 106.024 C 95.495 106.344,95.631 106.607,95.796 106.607 C 95.961 106.607,96.096 106.936,96.096 107.340 C 96.096 107.743,96.231 108.156,96.396 108.258 C 96.562 108.360,96.697 108.702,96.697 109.018 C 96.697 109.333,96.967 110.073,97.297 110.661 C 97.628 111.249,97.898 112.064,97.898 112.472 C 97.898 112.879,98.033 113.213,98.198 113.213 C 98.363 113.213,98.498 113.483,98.498 113.814 C 98.498 114.144,98.634 114.414,98.799 114.414 C 98.964 114.414,99.099 114.820,99.099 115.315 C 99.099 115.811,99.234 116.216,99.399 116.216 C 99.565 116.216,99.700 116.546,99.700 116.949 C 99.700 117.352,99.835 117.766,100.000 117.868 C 100.165 117.970,100.300 118.316,100.300 118.636 C 100.300 118.957,100.435 119.219,100.601 119.219 C 100.766 119.219,100.901 119.549,100.901 119.952 C 100.901 120.355,101.036 120.769,101.201 120.871 C 101.366 120.973,101.502 121.454,101.502 121.940 C 101.502 122.425,101.637 122.823,101.802 122.823 C 101.967 122.823,102.102 123.153,102.102 123.556 C 102.102 123.959,102.237 124.372,102.402 124.474 C 102.568 124.577,102.703 124.922,102.703 125.243 C 102.703 125.564,102.838 125.826,103.003 125.826 C 103.168 125.826,103.303 126.092,103.303 126.417 C 103.303 126.743,103.574 127.490,103.904 128.078 C 104.234 128.666,104.505 129.406,104.505 129.721 C 104.505 130.037,104.640 130.378,104.805 130.480 C 104.970 130.583,105.105 130.988,105.105 131.381 C 105.105 131.775,105.240 132.180,105.405 132.282 C 105.571 132.384,105.706 132.730,105.706 133.051 C 105.706 133.371,105.841 133.634,106.006 133.634 C 106.171 133.634,106.306 133.963,106.306 134.367 C 106.306 134.770,106.441 135.183,106.607 135.285 C 106.772 135.387,106.907 135.729,106.907 136.045 C 106.907 136.360,107.177 137.100,107.508 137.688 C 107.838 138.276,108.108 139.091,108.108 139.499 C 108.108 139.907,108.243 140.240,108.408 140.240 C 108.574 140.240,108.709 140.570,108.709 140.973 C 108.709 141.376,108.844 141.790,109.009 141.892 C 109.174 141.994,109.309 142.340,109.309 142.660 C 109.309 142.981,109.444 143.243,109.610 143.243 C 109.775 143.243,109.910 143.573,109.910 143.976 C 109.910 144.379,110.045 144.793,110.210 144.895 C 110.375 144.997,110.511 145.339,110.511 145.654 C 110.511 145.970,110.781 146.709,111.111 147.297 C 111.441 147.885,111.712 148.625,111.712 148.940 C 111.712 149.256,111.847 149.598,112.012 149.700 C 112.177 149.802,112.312 150.207,112.312 150.601 C 112.312 150.994,112.447 151.399,112.613 151.502 C 112.778 151.604,112.913 151.949,112.913 152.270 C 112.913 152.591,113.048 152.853,113.213 152.853 C 113.378 152.853,113.514 153.183,113.514 153.586 C 113.514 153.989,113.649 154.402,113.814 154.505 C 113.979 154.607,114.114 154.948,114.114 155.264 C 114.114 155.579,114.384 156.319,114.715 156.907 C 115.045 157.495,115.315 158.244,115.315 158.572 C 115.315 158.899,115.435 159.402,115.581 159.689 C 115.726 159.976,115.997 160.582,116.181 161.036 C 116.366 161.490,116.667 162.233,116.852 162.688 C 117.036 163.142,117.307 163.748,117.452 164.035 C 117.598 164.322,117.718 164.757,117.718 165.002 C 117.718 165.247,117.988 165.928,118.318 166.517 C 118.649 167.105,118.919 167.854,118.919 168.181 C 118.919 168.509,119.038 169.012,119.184 169.298 C 119.330 169.585,119.600 170.191,119.785 170.646 C 119.969 171.100,120.273 171.843,120.461 172.297 C 120.648 172.752,120.934 173.461,121.096 173.874 C 121.259 174.287,121.511 174.859,121.657 175.146 C 121.803 175.433,121.922 175.932,121.922 176.254 C 121.922 176.577,122.057 176.925,122.222 177.027 C 122.387 177.129,122.523 177.462,122.523 177.767 C 122.523 178.247,122.947 179.260,124.079 181.480 C 124.265 181.845,124.239 182.173,124.002 182.458 C 122.922 183.760,125.198 188.129,128.984 192.020 C 129.317 192.363,130.195 193.453,130.935 194.444 C 131.675 195.435,132.351 196.314,132.436 196.396 C 132.521 196.479,133.197 197.290,133.938 198.198 C 134.679 199.107,135.387 199.895,135.511 199.950 C 135.634 200.005,135.736 200.192,135.736 200.366 C 135.736 200.540,136.040 200.972,136.411 201.326 C 136.783 201.681,137.425 202.430,137.838 202.991 C 138.697 204.158,139.999 205.784,140.252 206.006 C 140.346 206.089,141.332 207.305,142.443 208.709 C 143.554 210.113,144.796 211.635,145.204 212.092 C 145.612 212.549,145.946 213.007,145.946 213.109 C 145.946 213.211,146.250 213.591,146.622 213.953 C 146.993 214.316,147.500 214.874,147.748 215.193 C 147.995 215.513,148.536 216.187,148.949 216.692 C 149.362 217.197,150.038 218.065,150.450 218.620 C 150.863 219.175,151.539 219.985,151.952 220.420 C 152.365 220.856,153.041 221.666,153.453 222.221 C 153.866 222.776,154.542 223.643,154.955 224.149 C 155.368 224.654,155.868 225.271,156.066 225.521 C 156.264 225.771,157.210 226.929,158.168 228.094 C 159.126 229.259,160.248 230.672,160.661 231.235 C 161.292 232.095,163.143 234.314,163.664 234.835 C 163.746 234.917,164.285 235.593,164.861 236.336 C 166.378 238.295,166.714 238.712,167.738 239.912 C 168.244 240.505,169.794 242.410,171.182 244.144 C 172.569 245.878,173.844 247.445,174.015 247.625 C 174.185 247.805,174.662 248.401,175.075 248.949 C 175.488 249.497,175.961 250.092,176.126 250.273 C 176.291 250.453,176.783 251.074,177.218 251.652 C 177.654 252.230,178.262 252.995,178.570 253.353 C 179.256 254.151,179.531 254.487,181.977 257.508 C 183.047 258.829,184.026 259.955,184.153 260.010 C 184.280 260.065,184.384 260.277,184.384 260.481 C 184.384 260.686,184.688 261.122,185.060 261.451 C 185.432 261.780,186.074 262.498,186.486 263.047 C 186.899 263.595,187.440 264.278,187.688 264.565 C 187.935 264.851,188.476 265.534,188.889 266.083 C 189.302 266.632,190.006 267.495,190.455 268.000 C 192.026 269.772,192.492 270.364,192.492 270.587 C 192.492 272.372,202.425 272.619,203.604 270.864 C 204.048 270.202,205.311 268.640,205.985 267.918 C 206.410 267.464,207.095 266.641,207.508 266.089 C 207.920 265.537,208.461 264.851,208.709 264.565 C 208.956 264.278,209.497 263.595,209.910 263.047 C 210.323 262.498,210.965 261.780,211.336 261.451 C 211.708 261.122,212.012 260.724,212.012 260.567 C 212.012 260.409,212.250 260.062,212.540 259.795 C 212.830 259.528,213.636 258.566,214.331 257.658 C 215.026 256.749,215.903 255.646,216.281 255.205 C 216.658 254.765,217.170 254.155,217.417 253.850 C 217.665 253.545,218.206 252.882,218.619 252.377 C 219.032 251.872,219.707 251.004,220.120 250.448 C 220.533 249.892,221.175 249.168,221.547 248.839 C 221.918 248.509,222.222 248.111,222.222 247.954 C 222.222 247.797,222.459 247.449,222.748 247.182 C 223.037 246.915,223.744 246.088,224.320 245.345 C 226.103 243.044,226.257 242.859,226.952 242.182 C 227.324 241.819,227.628 241.381,227.628 241.207 C 227.628 241.033,227.734 240.846,227.864 240.791 C 227.994 240.736,228.568 240.086,229.140 239.347 C 229.712 238.608,230.351 237.819,230.560 237.594 C 230.769 237.369,231.309 236.690,231.760 236.085 C 232.210 235.480,232.648 234.917,232.731 234.835 C 233.231 234.340,235.099 232.102,235.736 231.235 C 236.149 230.672,237.270 229.259,238.228 228.094 C 239.186 226.929,240.132 225.771,240.330 225.521 C 240.529 225.271,241.029 224.654,241.441 224.149 C 241.854 223.643,242.530 222.776,242.943 222.221 C 243.356 221.666,244.032 220.856,244.444 220.420 C 244.857 219.985,245.533 219.175,245.946 218.620 C 246.359 218.065,247.035 217.197,247.447 216.692 C 247.860 216.187,248.401 215.513,248.649 215.193 C 248.896 214.874,249.403 214.316,249.775 213.953 C 250.146 213.591,250.450 213.211,250.450 213.109 C 250.450 213.007,250.781 212.549,251.184 212.092 C 251.809 211.384,254.790 207.759,255.946 206.302 C 256.144 206.052,256.644 205.434,257.057 204.929 C 257.470 204.424,258.146 203.552,258.559 202.991 C 258.971 202.430,259.613 201.681,259.985 201.326 C 260.357 200.972,260.661 200.590,260.661 200.477 C 260.661 200.365,261.000 199.934,261.414 199.520 C 261.828 199.106,262.708 198.035,263.368 197.140 C 264.029 196.246,265.386 194.530,266.384 193.327 C 267.382 192.125,268.360 190.936,268.559 190.686 C 268.757 190.436,269.471 189.557,270.145 188.734 C 270.819 187.911,271.466 187.035,271.583 186.787 C 271.700 186.539,271.991 185.998,272.230 185.586 C 272.717 184.742,272.801 183.250,272.395 182.609 C 272.248 182.376,272.234 181.971,272.365 181.709 C 272.496 181.446,272.769 180.826,272.973 180.330 C 273.177 179.835,273.463 179.195,273.609 178.908 C 273.755 178.621,273.874 178.122,273.874 177.800 C 273.874 177.477,274.009 177.129,274.174 177.027 C 274.339 176.925,274.474 176.577,274.474 176.254 C 274.474 175.932,274.594 175.433,274.740 175.146 C 274.988 174.658,275.241 174.060,275.976 172.222 C 276.711 170.385,276.964 169.786,277.212 169.298 C 277.358 169.012,277.477 168.571,277.477 168.318 C 277.477 167.873,277.602 167.556,278.331 166.145 C 278.522 165.776,278.679 165.267,278.679 165.015 C 278.679 164.763,278.798 164.322,278.944 164.035 C 279.090 163.748,279.360 163.142,279.545 162.688 C 279.729 162.233,280.031 161.490,280.215 161.036 C 280.400 160.582,280.670 159.976,280.816 159.689 C 280.962 159.402,281.081 158.899,281.081 158.572 C 281.081 158.244,281.351 157.495,281.682 156.907 C 282.012 156.319,282.282 155.579,282.282 155.264 C 282.282 154.948,282.417 154.607,282.583 154.505 C 282.748 154.402,282.883 153.989,282.883 153.586 C 282.883 153.183,283.018 152.853,283.183 152.853 C 283.348 152.853,283.483 152.591,283.483 152.270 C 283.483 151.949,283.619 151.604,283.784 151.502 C 283.949 151.399,284.084 150.986,284.084 150.583 C 284.084 150.180,284.219 149.850,284.384 149.850 C 284.550 149.850,284.685 149.516,284.685 149.108 C 284.685 148.700,284.955 147.885,285.285 147.297 C 285.616 146.709,285.886 145.970,285.886 145.654 C 285.886 145.339,286.021 144.997,286.186 144.895 C 286.351 144.793,286.486 144.379,286.486 143.976 C 286.486 143.573,286.622 143.243,286.787 143.243 C 286.952 143.243,287.087 142.981,287.087 142.660 C 287.087 142.340,287.222 141.994,287.387 141.892 C 287.553 141.790,287.688 141.376,287.688 140.973 C 287.688 140.570,287.823 140.240,287.988 140.240 C 288.153 140.240,288.288 139.907,288.288 139.499 C 288.288 139.091,288.559 138.276,288.889 137.688 C 289.219 137.100,289.489 136.352,289.489 136.027 C 289.489 135.702,289.625 135.435,289.790 135.435 C 289.955 135.435,290.090 135.173,290.090 134.853 C 290.090 134.532,290.225 134.186,290.390 134.084 C 290.556 133.982,290.691 133.569,290.691 133.165 C 290.691 132.762,290.826 132.432,290.991 132.432 C 291.156 132.432,291.291 132.027,291.291 131.532 C 291.291 131.036,291.426 130.631,291.592 130.631 C 291.757 130.631,291.892 130.225,291.892 129.730 C 291.892 129.234,292.027 128.829,292.192 128.829 C 292.357 128.829,292.492 128.567,292.492 128.246 C 292.492 127.925,292.628 127.580,292.793 127.477 C 292.958 127.375,293.093 126.962,293.093 126.559 C 293.093 126.156,293.228 125.826,293.393 125.826 C 293.559 125.826,293.694 125.564,293.694 125.243 C 293.694 124.922,293.829 124.577,293.994 124.474 C 294.159 124.372,294.294 123.959,294.294 123.556 C 294.294 123.153,294.429 122.823,294.595 122.823 C 294.760 122.823,294.895 122.489,294.895 122.081 C 294.895 121.673,295.165 120.858,295.495 120.270 C 295.826 119.682,296.096 118.943,296.096 118.627 C 296.096 118.312,296.231 117.970,296.396 117.868 C 296.562 117.766,296.697 117.352,296.697 116.949 C 296.697 116.546,296.832 116.216,296.997 116.216 C 297.162 116.216,297.297 115.954,297.297 115.633 C 297.297 115.313,297.432 114.967,297.598 114.865 C 297.763 114.763,297.898 114.349,297.898 113.946 C 297.898 113.543,298.033 113.213,298.198 113.213 C 298.363 113.213,298.498 112.879,298.498 112.472 C 298.498 112.064,298.769 111.249,299.099 110.661 C 299.429 110.073,299.700 109.333,299.700 109.018 C 299.700 108.702,299.835 108.360,300.000 108.258 C 300.165 108.156,300.300 107.743,300.300 107.340 C 300.300 106.936,300.435 106.607,300.601 106.607 C 300.766 106.607,300.901 106.344,300.901 106.024 C 300.901 105.703,301.036 105.357,301.201 105.255 C 301.366 105.153,301.502 104.740,301.502 104.337 C 301.502 103.933,301.637 103.604,301.802 103.604 C 301.967 103.604,302.102 103.270,302.102 102.862 C 302.102 102.454,302.372 101.639,302.703 101.051 C 303.033 100.463,303.303 99.724,303.303 99.408 C 303.303 99.092,303.438 98.751,303.604 98.649 C 303.769 98.547,303.904 98.133,303.904 97.730 C 303.904 97.327,304.039 96.997,304.204 96.997 C 304.369 96.997,304.505 96.735,304.505 96.414 C 304.505 96.094,304.640 95.748,304.805 95.646 C 304.970 95.544,305.105 95.130,305.105 94.727 C 305.105 94.324,305.240 93.994,305.405 93.994 C 305.571 93.994,305.706 93.660,305.706 93.252 C 305.706 92.844,305.976 92.030,306.306 91.441 C 306.637 90.853,306.907 90.114,306.907 89.798 C 306.907 89.483,307.042 89.141,307.207 89.039 C 307.372 88.937,307.508 88.524,307.508 88.120 C 307.508 87.717,307.643 87.387,307.808 87.387 C 307.973 87.387,308.108 87.125,308.108 86.805 C 308.108 86.484,308.243 86.138,308.408 86.036 C 308.574 85.934,308.709 85.521,308.709 85.117 C 308.709 84.714,308.844 84.384,309.009 84.384 C 309.174 84.384,309.309 83.979,309.309 83.483 C 309.309 82.988,309.444 82.583,309.610 82.583 C 309.775 82.583,309.910 82.320,309.910 82.000 C 309.910 81.679,310.045 81.333,310.210 81.231 C 310.375 81.129,310.511 80.716,310.511 80.313 C 310.511 79.909,310.646 79.580,310.811 79.580 C 310.976 79.580,311.111 79.174,311.111 78.679 C 311.111 78.183,311.246 77.778,311.411 77.778 C 311.577 77.778,311.712 77.508,311.712 77.177 C 311.712 76.847,311.847 76.577,312.012 76.577 C 312.177 76.577,312.312 76.179,312.312 75.693 C 312.312 75.208,312.447 74.727,312.613 74.625 C 312.778 74.523,312.913 74.109,312.913 73.706 C 312.913 73.303,313.048 72.973,313.213 72.973 C 313.378 72.973,313.514 72.711,313.514 72.390 C 313.514 72.070,313.649 71.724,313.814 71.622 C 313.979 71.520,314.114 71.106,314.114 70.703 C 314.114 70.300,314.249 69.970,314.414 69.970 C 314.580 69.970,314.715 69.565,314.715 69.069 C 314.715 68.574,314.850 68.168,315.015 68.168 C 315.180 68.168,315.315 67.898,315.315 67.568 C 315.315 67.237,315.450 66.967,315.616 66.967 C 315.781 66.967,315.916 66.633,315.916 66.225 C 315.916 65.817,316.186 65.003,316.517 64.414 C 316.847 63.826,317.117 63.087,317.117 62.771 C 317.117 62.456,317.252 62.114,317.417 62.012 C 317.583 61.910,317.718 61.568,317.718 61.253 C 317.718 60.937,317.988 60.198,318.318 59.610 C 318.649 59.021,318.919 58.282,318.919 57.967 C 318.919 57.651,319.054 57.309,319.219 57.207 C 319.384 57.105,319.520 56.763,319.520 56.448 C 319.520 56.132,319.790 55.393,320.120 54.805 C 320.450 54.217,320.721 53.477,320.721 53.162 C 320.721 52.846,320.856 52.504,321.021 52.402 C 321.186 52.300,321.321 51.895,321.321 51.502 C 321.321 51.108,321.456 50.703,321.622 50.601 C 321.787 50.499,321.922 50.214,321.922 49.968 C 321.922 49.722,322.192 48.961,322.523 48.277 C 322.853 47.594,323.123 46.861,323.123 46.649 C 323.123 46.438,323.393 45.783,323.724 45.195 C 324.054 44.607,324.324 43.868,324.324 43.552 C 324.324 43.237,324.459 42.895,324.625 42.793 C 324.790 42.691,324.925 42.304,324.925 41.934 C 324.925 41.564,325.044 41.133,325.190 40.976 C 326.436 39.636,327.231 33.326,326.351 31.753 C 324.442 28.337,321.086 27.909,318.187 30.711 C 317.806 31.080,316.514 32.125,315.315 33.033 C 314.117 33.941,312.849 34.958,312.499 35.292 C 312.149 35.626,311.389 36.227,310.811 36.629 C 310.233 37.030,309.557 37.570,309.309 37.827 C 309.062 38.084,308.364 38.663,307.759 39.113 C 307.154 39.563,306.478 40.106,306.257 40.321 C 306.036 40.535,305.383 41.037,304.805 41.437 C 304.227 41.837,303.551 42.379,303.303 42.643 C 303.056 42.906,302.380 43.448,301.802 43.846 C 301.224 44.245,300.392 44.948,299.955 45.409 C 299.517 45.869,299.043 46.246,298.902 46.246 C 298.761 46.246,298.072 46.787,297.370 47.447 C 296.669 48.108,295.980 48.649,295.840 48.649 C 295.699 48.649,295.160 49.054,294.642 49.550 C 294.123 50.045,293.576 50.450,293.427 50.450 C 293.277 50.450,292.464 51.126,291.620 51.952 C 290.777 52.778,289.973 53.453,289.833 53.453 C 289.693 53.453,289.154 53.859,288.636 54.354 C 288.117 54.850,287.590 55.255,287.464 55.255 C 287.337 55.255,286.660 55.796,285.959 56.456 C 285.257 57.117,284.562 57.658,284.414 57.658 C 284.266 57.658,283.455 58.333,282.611 59.159 C 281.768 59.985,280.964 60.661,280.824 60.661 C 280.684 60.661,280.145 61.066,279.627 61.562 C 279.108 62.057,278.581 62.462,278.455 62.462 C 278.328 62.462,277.651 63.003,276.950 63.664 C 276.248 64.324,275.556 64.865,275.411 64.865 C 275.266 64.865,274.591 65.405,273.910 66.066 C 273.229 66.727,272.570 67.267,272.445 67.267 C 272.321 67.267,271.645 67.808,270.944 68.468 C 270.242 69.129,269.550 69.670,269.405 69.670 C 269.260 69.670,268.585 70.210,267.904 70.871 C 267.223 71.532,266.547 72.072,266.402 72.072 C 266.257 72.072,265.581 72.613,264.901 73.273 C 264.220 73.934,263.533 74.474,263.375 74.474 C 263.216 74.474,262.551 75.015,261.897 75.676 C 261.243 76.336,260.578 76.877,260.420 76.877 C 260.262 76.877,259.575 77.417,258.895 78.078 C 258.214 78.739,257.538 79.279,257.393 79.279 C 257.248 79.279,256.572 79.820,255.892 80.480 C 255.211 81.141,254.553 81.682,254.429 81.683 C 254.090 81.685,252.252 83.472,252.252 83.799 C 252.252 83.956,252.523 84.084,252.853 84.084 C 253.637 84.084,253.617 84.622,252.807 85.325 C 252.451 85.634,252.316 85.886,252.507 85.886 C 252.697 85.886,252.853 86.044,252.853 86.236 C 252.853 86.576,253.115 86.889,255.385 89.254 C 255.974 89.868,256.456 90.501,256.456 90.660 C 256.456 90.820,257.538 92.041,258.859 93.375 C 260.180 94.709,261.261 95.940,261.261 96.110 C 261.261 96.280,262.477 97.625,263.964 99.099 C 265.450 100.573,266.667 101.987,266.667 102.241 C 266.667 102.495,266.802 102.703,266.967 102.703 C 267.685 102.703,267.284 106.214,266.366 107.958 C 265.871 108.900,265.465 109.927,265.465 110.241 C 265.465 110.554,265.330 110.811,265.165 110.811 C 265.000 110.811,264.865 111.073,264.865 111.394 C 264.865 111.714,264.730 112.060,264.565 112.162 C 264.399 112.264,264.264 112.745,264.264 113.231 C 264.264 113.717,264.129 114.114,263.964 114.114 C 263.799 114.114,263.664 114.384,263.664 114.715 C 263.664 115.045,263.529 115.315,263.363 115.315 C 263.198 115.315,263.063 115.581,263.063 115.907 C 263.063 116.232,262.793 116.979,262.462 117.568 C 262.132 118.156,261.862 118.835,261.862 119.078 C 261.862 119.321,261.727 119.520,261.562 119.520 C 261.396 119.520,261.261 119.925,261.261 120.420 C 261.261 120.916,261.160 121.322,261.036 121.324 C 260.735 121.327,260.060 122.809,260.060 123.466 C 260.060 123.753,259.925 124.072,259.760 124.174 C 259.595 124.276,259.459 124.622,259.459 124.943 C 259.459 125.263,259.324 125.526,259.159 125.526 C 258.994 125.526,258.859 125.931,258.859 126.426 C 258.859 126.922,258.757 127.327,258.632 127.327 C 258.507 127.327,258.228 127.767,258.012 128.303 C 257.795 128.840,257.492 129.514,257.338 129.801 C 257.183 130.088,257.057 130.594,257.057 130.927 C 257.057 131.259,256.922 131.532,256.757 131.532 C 256.592 131.532,256.456 131.736,256.456 131.986 C 256.456 132.427,256.331 132.746,255.602 134.155 C 255.411 134.524,255.255 135.031,255.255 135.281 C 255.255 135.531,255.120 135.736,254.955 135.736 C 254.790 135.736,254.655 136.141,254.655 136.637 C 254.655 137.132,254.520 137.538,254.354 137.538 C 254.189 137.538,254.054 137.808,254.054 138.138 C 254.054 138.468,253.919 138.739,253.754 138.739 C 253.589 138.739,253.453 139.069,253.453 139.472 C 253.453 139.875,253.318 140.288,253.153 140.390 C 252.988 140.492,252.853 140.838,252.853 141.159 C 252.853 141.479,252.718 141.742,252.553 141.742 C 252.387 141.742,252.252 142.147,252.252 142.643 C 252.252 143.138,252.117 143.544,251.952 143.544 C 251.787 143.544,251.652 143.814,251.652 144.144 C 251.652 144.474,251.517 144.745,251.351 144.745 C 251.186 144.745,251.051 145.011,251.051 145.336 C 251.051 145.662,250.781 146.409,250.450 146.997 C 250.120 147.585,249.850 148.265,249.850 148.508 C 249.850 148.750,249.715 148.949,249.550 148.949 C 249.384 148.949,249.249 149.354,249.249 149.850 C 249.249 150.345,249.114 150.751,248.949 150.751 C 248.784 150.751,248.649 151.021,248.649 151.351 C 248.649 151.682,248.514 151.952,248.348 151.952 C 248.183 151.952,248.048 152.357,248.048 152.853 C 248.048 153.348,247.913 153.754,247.748 153.754 C 247.583 153.754,247.447 154.024,247.447 154.354 C 247.447 154.685,247.312 154.955,247.147 154.955 C 246.982 154.955,246.847 155.360,246.847 155.856 C 246.847 156.351,246.712 156.757,246.547 156.757 C 246.381 156.757,246.246 157.027,246.246 157.357 C 246.246 157.688,246.111 157.958,245.946 157.958 C 245.781 157.958,245.646 158.363,245.646 158.859 C 245.646 159.354,245.511 159.760,245.345 159.760 C 245.180 159.760,245.045 160.030,245.045 160.360 C 245.045 160.691,244.910 160.961,244.745 160.961 C 244.580 160.961,244.444 161.366,244.444 161.862 C 244.444 162.357,244.309 162.763,244.144 162.763 C 243.979 162.763,243.844 163.033,243.844 163.363 C 243.844 163.694,243.709 163.964,243.544 163.964 C 243.378 163.964,243.243 164.226,243.243 164.547 C 243.243 164.867,243.108 165.213,242.943 165.315 C 242.778 165.417,242.643 165.831,242.643 166.234 C 242.643 166.637,242.508 166.967,242.342 166.967 C 242.177 166.967,242.042 167.229,242.042 167.550 C 242.042 167.870,241.907 168.216,241.742 168.318 C 241.577 168.420,241.441 168.834,241.441 169.237 C 241.441 169.640,241.306 169.970,241.141 169.970 C 240.976 169.970,240.841 170.240,240.841 170.571 C 240.841 170.901,240.706 171.171,240.541 171.171 C 240.375 171.171,240.240 171.577,240.240 172.072 C 240.240 172.568,240.105 172.973,239.940 172.973 C 239.775 172.973,239.640 173.243,239.640 173.574 C 239.640 173.904,239.505 174.174,239.339 174.174 C 239.174 174.174,239.039 174.580,239.039 175.075 C 239.039 175.571,238.904 175.976,238.739 175.976 C 238.574 175.976,238.438 176.246,238.438 176.577 C 238.438 176.907,238.303 177.177,238.138 177.177 C 237.973 177.177,237.838 177.583,237.838 178.078 C 237.838 178.574,237.703 178.979,237.538 178.979 C 237.372 178.979,237.237 179.249,237.237 179.580 C 237.237 179.910,237.102 180.180,236.937 180.180 C 236.772 180.180,236.637 180.586,236.637 181.081 C 236.637 181.577,236.502 181.982,236.336 181.982 C 236.171 181.982,236.036 182.252,236.036 182.583 C 236.036 182.913,235.901 183.183,235.736 183.183 C 235.571 183.183,235.435 183.453,235.435 183.784 C 235.435 184.114,235.300 184.384,235.135 184.384 C 234.970 184.384,234.835 184.790,234.835 185.285 C 234.835 185.781,234.700 186.186,234.535 186.186 C 234.369 186.186,234.234 186.592,234.234 187.087 C 234.234 187.583,234.099 187.988,233.934 187.988 C 233.769 187.988,233.634 188.335,233.634 188.758 C 233.634 189.287,233.164 189.986,232.132 190.991 C 231.306 191.795,230.631 192.605,230.631 192.790 C 230.631 192.975,229.820 193.922,228.829 194.895 C 227.838 195.868,227.027 196.815,227.027 197.000 C 227.027 197.185,226.351 197.994,225.526 198.799 C 224.700 199.603,224.024 200.414,224.024 200.601 C 224.024 200.787,223.348 201.598,222.523 202.402 C 221.697 203.207,221.021 204.016,221.021 204.201 C 221.021 204.386,220.210 205.334,219.219 206.306 C 218.228 207.279,217.417 208.226,217.417 208.411 C 217.417 208.596,216.742 209.406,215.916 210.210 C 215.090 211.015,214.414 211.816,214.414 211.990 C 214.414 212.165,213.468 213.265,212.312 214.435 C 211.156 215.605,210.210 216.696,210.210 216.859 C 210.210 217.023,209.535 217.814,208.709 218.619 C 207.883 219.423,207.207 220.234,207.207 220.420 C 207.207 220.607,206.532 221.418,205.706 222.222 C 204.880 223.027,204.204 223.832,204.204 224.011 C 204.204 224.191,203.464 225.078,202.559 225.983 L 200.914 227.628 198.198 227.628 L 195.482 227.628 193.837 225.983 C 192.932 225.078,192.192 224.191,192.192 224.011 C 192.192 223.832,191.517 223.027,190.691 222.222 C 189.865 221.418,189.189 220.607,189.189 220.420 C 189.189 220.234,188.514 219.423,187.688 218.619 C 186.862 217.814,186.186 217.024,186.186 216.863 C 186.186 216.701,185.375 215.745,184.384 214.739 C 183.393 213.732,182.583 212.767,182.583 212.594 C 182.583 212.421,181.772 211.483,180.781 210.511 C 179.790 209.538,178.979 208.586,178.979 208.395 C 178.979 208.205,178.303 207.387,177.477 206.578 C 176.652 205.770,175.976 204.965,175.976 204.790 C 175.976 204.615,175.165 203.675,174.174 202.703 C 173.183 201.730,172.372 200.783,172.372 200.598 C 172.372 200.413,171.697 199.603,170.871 198.799 C 170.045 197.994,169.369 197.184,169.369 196.997 C 169.369 196.810,168.694 196.000,167.868 195.195 C 167.042 194.391,166.366 193.580,166.366 193.393 C 166.366 193.207,165.691 192.396,164.865 191.592 C 164.039 190.787,163.363 189.918,163.363 189.659 C 163.363 189.401,163.228 189.189,163.063 189.189 C 162.898 189.189,162.763 188.859,162.763 188.456 C 162.763 188.053,162.628 187.640,162.462 187.538 C 162.297 187.435,162.162 187.090,162.162 186.769 C 162.162 186.448,162.027 186.186,161.862 186.186 C 161.697 186.186,161.562 185.781,161.562 185.285 C 161.562 184.790,161.426 184.384,161.261 184.384 C 161.096 184.384,160.961 184.114,160.961 183.784 C 160.961 183.453,160.826 183.183,160.661 183.183 C 160.495 183.183,160.360 182.853,160.360 182.450 C 160.360 182.047,160.225 181.634,160.060 181.532 C 159.895 181.429,159.760 181.084,159.760 180.763 C 159.760 180.442,159.625 180.180,159.459 180.180 C 159.294 180.180,159.159 179.910,159.159 179.580 C 159.159 179.249,159.024 178.979,158.859 178.979 C 158.694 178.979,158.559 178.574,158.559 178.078 C 158.559 177.583,158.423 177.177,158.258 177.177 C 158.093 177.177,157.958 176.907,157.958 176.577 C 157.958 176.246,157.823 175.976,157.658 175.976 C 157.492 175.976,157.357 175.571,157.357 175.075 C 157.357 174.580,157.222 174.174,157.057 174.174 C 156.892 174.174,156.757 173.904,156.757 173.574 C 156.757 173.243,156.622 172.973,156.456 172.973 C 156.291 172.973,156.156 172.568,156.156 172.072 C 156.156 171.577,156.021 171.171,155.856 171.171 C 155.691 171.171,155.556 170.901,155.556 170.571 C 155.556 170.240,155.420 169.970,155.255 169.970 C 155.090 169.970,154.955 169.565,154.955 169.069 C 154.955 168.574,154.820 168.168,154.655 168.168 C 154.489 168.168,154.354 167.906,154.354 167.585 C 154.354 167.265,154.219 166.919,154.054 166.817 C 153.889 166.715,153.754 166.301,153.754 165.898 C 153.754 165.495,153.619 165.165,153.453 165.165 C 153.288 165.165,153.153 164.895,153.153 164.565 C 153.153 164.234,153.018 163.964,152.853 163.964 C 152.688 163.964,152.553 163.694,152.553 163.363 C 152.553 163.033,152.417 162.763,152.252 162.763 C 152.087 162.763,151.952 162.429,151.952 162.021 C 151.952 161.613,151.682 160.798,151.351 160.210 C 151.021 159.622,150.751 158.875,150.751 158.549 C 150.751 158.224,150.616 157.958,150.450 157.958 C 150.285 157.958,150.150 157.688,150.150 157.357 C 150.150 157.027,150.015 156.757,149.850 156.757 C 149.685 156.757,149.550 156.351,149.550 155.856 C 149.550 155.360,149.414 154.955,149.249 154.955 C 149.084 154.955,148.949 154.685,148.949 154.354 C 148.949 154.024,148.814 153.754,148.649 153.754 C 148.483 153.754,148.348 153.348,148.348 152.853 C 148.348 152.357,148.213 151.952,148.048 151.952 C 147.883 151.952,147.748 151.682,147.748 151.351 C 147.748 151.021,147.613 150.751,147.447 150.751 C 147.282 150.751,147.147 150.345,147.147 149.850 C 147.147 149.354,147.012 148.949,146.847 148.949 C 146.682 148.949,146.547 148.773,146.547 148.558 C 146.547 148.006,145.840 146.552,145.571 146.549 C 145.447 146.548,145.345 146.141,145.345 145.646 C 145.345 145.150,145.210 144.745,145.045 144.745 C 144.880 144.745,144.745 144.482,144.745 144.162 C 144.745 143.841,144.610 143.495,144.444 143.393 C 144.279 143.291,144.144 142.972,144.144 142.685 C 144.144 142.028,143.469 140.546,143.168 140.543 C 143.044 140.542,142.943 140.135,142.943 139.640 C 142.943 139.144,142.808 138.739,142.643 138.739 C 142.477 138.739,142.342 138.476,142.342 138.156 C 142.342 137.835,142.207 137.489,142.042 137.387 C 141.877 137.285,141.742 136.872,141.742 136.469 C 141.742 136.066,141.607 135.736,141.441 135.736 C 141.276 135.736,141.141 135.465,141.141 135.135 C 141.141 134.805,141.006 134.535,140.841 134.535 C 140.676 134.535,140.541 134.129,140.541 133.634 C 140.541 133.138,140.405 132.733,140.240 132.733 C 140.075 132.733,139.940 132.470,139.940 132.150 C 139.940 131.829,139.805 131.483,139.640 131.381 C 139.474 131.279,139.339 130.947,139.339 130.643 C 139.339 130.340,138.934 129.320,138.438 128.378 C 137.943 127.436,137.538 126.481,137.538 126.255 C 137.538 126.029,137.267 125.363,136.937 124.775 C 136.607 124.187,136.336 123.511,136.336 123.273 C 136.336 123.036,136.066 122.360,135.736 121.772 C 135.405 121.184,135.135 120.508,135.135 120.270 C 135.135 120.033,134.865 119.357,134.535 118.769 C 134.204 118.181,133.934 117.433,133.934 117.108 C 133.934 116.783,133.799 116.517,133.634 116.517 C 133.468 116.517,133.333 116.273,133.333 115.976 C 133.333 115.679,133.222 115.307,133.085 115.150 C 132.949 114.993,132.650 114.257,132.422 113.514 C 132.194 112.770,131.934 112.095,131.844 112.012 C 131.493 111.688,130.931 110.495,130.931 110.073 C 130.931 109.828,130.661 109.147,130.330 108.559 C 130.000 107.970,129.730 107.291,129.730 107.048 C 129.730 106.805,129.595 106.607,129.429 106.607 C 129.260 106.607,129.129 105.756,129.129 104.655 C 129.129 103.554,129.260 102.703,129.429 102.703 C 129.595 102.703,129.730 102.501,129.730 102.254 C 129.730 102.008,131.081 100.446,132.733 98.784 C 134.384 97.122,135.736 95.636,135.736 95.481 C 135.736 95.326,136.682 94.242,137.838 93.072 C 138.994 91.902,139.940 90.810,139.940 90.644 C 139.940 90.479,140.480 89.824,141.141 89.189 C 141.802 88.554,142.343 87.923,142.344 87.786 C 142.344 87.649,142.737 87.119,143.217 86.608 C 144.058 85.710,144.068 85.663,143.516 85.265 C 142.768 84.726,142.783 84.084,143.544 84.084 C 143.874 84.084,144.144 83.956,144.144 83.799 C 144.144 83.472,142.306 81.685,141.967 81.683 C 141.844 81.682,141.185 81.141,140.505 80.480 C 139.824 79.820,139.148 79.279,139.003 79.279 C 138.858 79.279,138.182 78.739,137.502 78.078 C 136.821 77.417,136.134 76.877,135.976 76.877 C 135.818 76.877,135.153 76.336,134.499 75.676 C 133.845 75.015,133.180 74.474,133.022 74.474 C 132.863 74.474,132.176 73.934,131.496 73.273 C 130.815 72.613,130.139 72.072,129.994 72.072 C 129.849 72.072,129.173 71.532,128.493 70.871 C 127.812 70.210,127.136 69.670,126.991 69.670 C 126.847 69.670,126.154 69.129,125.453 68.468 C 124.751 67.808,124.076 67.267,123.951 67.267 C 123.826 67.267,123.167 66.727,122.487 66.066 C 121.806 65.405,121.130 64.865,120.985 64.865 C 120.841 64.865,120.148 64.324,119.447 63.664 C 118.745 63.003,118.051 62.462,117.905 62.462 C 117.758 62.462,117.419 62.220,117.152 61.923 C 116.885 61.626,116.194 61.052,115.616 60.648 C 115.038 60.244,114.042 59.405,113.402 58.785 C 112.763 58.165,112.121 57.658,111.976 57.658 C 111.831 57.658,111.139 57.117,110.438 56.456 C 109.736 55.796,109.059 55.255,108.933 55.255 C 108.807 55.255,108.279 54.850,107.761 54.354 C 107.242 53.859,106.703 53.453,106.564 53.453 C 106.424 53.453,105.619 52.778,104.776 51.952 C 103.933 51.126,103.120 50.450,102.970 50.450 C 102.820 50.450,102.273 50.045,101.755 49.550 C 101.236 49.054,100.697 48.649,100.556 48.649 C 100.416 48.649,99.744 48.108,99.063 47.447 C 98.382 46.787,97.707 46.246,97.563 46.246 C 97.418 46.246,96.610 45.571,95.767 44.745 C 94.924 43.919,94.094 43.243,93.924 43.243 C 93.753 43.243,93.395 43.000,93.128 42.703 C 92.861 42.407,92.170 41.840,91.592 41.445 C 91.014 41.050,90.168 40.347,89.712 39.883 C 89.256 39.419,88.770 39.039,88.631 39.039 C 88.491 39.039,87.986 38.666,87.507 38.210 C 87.028 37.754,86.164 37.047,85.586 36.640 C 85.008 36.232,84.248 35.626,83.897 35.292 C 83.547 34.958,82.280 33.941,81.081 33.033 C 79.883 32.125,78.590 31.080,78.209 30.711 C 76.434 28.995,74.026 28.388,72.450 29.260 " stroke="none" fill="#fcfcfc" fill-rule="evenodd"></path><path id="path3" d="M197.372 25.741 C 197.827 25.809,198.570 25.809,199.024 25.741 C 199.478 25.672,199.107 25.616,198.198 25.616 C 197.290 25.616,196.918 25.672,197.372 25.741 M191.138 30.333 C 190.665 30.827,190.350 31.231,190.438 31.231 C 190.756 31.231,192.312 29.750,192.157 29.595 C 192.070 29.507,191.611 29.840,191.138 30.333 M205.090 30.480 C 205.695 31.317,206.925 32.515,207.049 32.388 C 207.105 32.330,206.590 31.742,205.904 31.081 C 205.217 30.420,204.851 30.150,205.090 30.480 M208.718 34.684 C 209.422 35.640,209.910 36.101,209.910 35.810 C 209.910 35.661,209.542 35.213,209.093 34.812 C 208.494 34.278,208.394 34.244,208.718 34.684 M186.128 35.961 C 185.599 36.577,185.202 37.237,185.361 37.237 C 185.423 37.237,185.772 36.832,186.139 36.336 C 186.863 35.357,186.856 35.114,186.128 35.961 M182.434 40.238 C 182.134 40.570,181.987 40.841,182.107 40.841 C 182.424 40.841,183.280 39.936,183.117 39.774 C 183.041 39.698,182.734 39.907,182.434 40.238 M213.818 40.377 C 215.049 41.840,215.338 42.120,215.474 41.983 C 215.546 41.912,215.035 41.321,214.338 40.671 C 213.504 39.893,213.326 39.792,213.818 40.377 M178.569 44.636 C 177.807 45.398,177.474 46.169,178.064 45.804 C 178.404 45.594,179.678 43.844,179.491 43.844 C 179.420 43.844,179.005 44.200,178.569 44.636 M217.417 44.616 C 217.417 44.840,218.225 45.646,218.450 45.646 C 218.545 45.646,218.455 45.375,218.249 45.045 C 217.897 44.481,217.417 44.234,217.417 44.616 M165.509 59.597 C 164.825 60.340,164.266 61.052,164.269 61.179 C 164.272 61.307,164.658 60.976,165.128 60.443 C 165.597 59.911,166.068 59.562,166.174 59.667 C 166.280 59.773,166.366 59.646,166.366 59.384 C 166.366 59.123,166.535 58.849,166.742 58.775 C 166.948 58.701,167.036 58.552,166.936 58.443 C 166.836 58.335,166.194 58.854,165.509 59.597 M230.134 59.259 C 230.242 59.561,230.330 59.865,230.330 59.934 C 230.330 60.004,230.523 60.060,230.759 60.060 C 230.994 60.060,231.234 60.297,231.291 60.586 C 231.356 60.914,231.473 60.987,231.603 60.782 C 231.717 60.601,231.389 60.060,230.874 59.580 C 230.204 58.957,229.993 58.865,230.134 59.259 M161.001 64.715 C 159.703 66.194,159.818 66.477,161.148 65.074 C 161.743 64.446,162.165 63.867,162.086 63.788 C 162.007 63.708,161.518 64.126,161.001 64.715 M234.234 63.771 C 234.234 64.081,235.744 65.557,235.901 65.400 C 235.972 65.329,235.626 64.884,235.132 64.411 C 234.638 63.938,234.234 63.650,234.234 63.771 M157.505 68.772 C 157.031 69.266,156.780 69.670,156.947 69.670 C 157.293 69.670,158.664 68.174,158.484 67.993 C 158.418 67.928,157.978 68.278,157.505 68.772 M237.838 68.015 C 237.838 68.098,238.329 68.674,238.930 69.294 C 239.984 70.382,240.003 70.389,239.495 69.495 C 239.030 68.677,237.838 67.612,237.838 68.015 M155.405 71.228 L 154.805 71.850 155.464 71.509 C 156.157 71.150,156.662 70.558,156.249 70.588 C 156.115 70.598,155.736 70.886,155.405 71.228 M151.806 75.291 L 151.279 76.126 151.974 75.459 C 152.356 75.092,152.594 74.716,152.501 74.624 C 152.409 74.531,152.096 74.832,151.806 75.291 M148.800 78.677 C 148.501 79.008,148.353 79.279,148.473 79.279 C 148.790 79.279,149.646 78.375,149.483 78.212 C 149.408 78.136,149.100 78.345,148.800 78.677 M246.847 78.203 C 246.847 78.520,247.751 79.376,247.914 79.213 C 247.990 79.137,247.781 78.830,247.449 78.530 C 247.118 78.230,246.847 78.083,246.847 78.203 M145.055 82.887 C 143.820 84.238,143.625 84.685,144.269 84.685 C 144.531 84.685,144.745 84.476,144.745 84.221 C 144.745 83.965,145.083 83.419,145.495 83.006 C 145.908 82.593,146.246 82.126,146.246 81.968 C 146.246 81.583,146.245 81.584,145.055 82.887 M250.150 81.959 C 250.150 82.085,250.488 82.582,250.901 83.061 C 251.313 83.541,251.651 84.103,251.651 84.309 C 251.651 84.516,251.854 84.685,252.102 84.685 C 252.819 84.685,252.637 84.266,251.351 82.954 C 250.691 82.280,250.150 81.832,250.150 81.959 M142.943 84.451 C 142.943 84.672,143.201 85.038,143.516 85.265 C 144.068 85.663,144.058 85.710,143.217 86.608 C 142.737 87.119,142.344 87.649,142.344 87.786 C 142.343 87.923,141.802 88.554,141.141 89.189 C 140.480 89.824,139.940 90.479,139.940 90.644 C 139.940 90.810,138.994 91.902,137.838 93.072 C 136.682 94.242,135.736 95.326,135.736 95.481 C 135.736 95.636,134.384 97.122,132.733 98.784 C 131.081 100.446,129.730 102.008,129.730 102.254 C 129.730 102.501,129.595 102.703,129.429 102.703 C 129.253 102.703,129.152 103.542,129.185 104.730 C 129.239 106.719,129.242 106.726,129.346 105.105 C 129.496 102.746,129.949 101.999,133.168 98.805 C 134.745 97.239,136.036 95.816,136.036 95.644 C 136.036 95.471,136.982 94.391,138.138 93.243 C 139.294 92.096,140.240 91.014,140.240 90.839 C 140.240 90.663,140.990 89.781,141.905 88.879 C 144.257 86.560,144.540 85.908,143.646 84.868 C 143.259 84.418,142.943 84.231,142.943 84.451 M252.927 84.678 C 252.412 85.503,252.458 85.723,253.027 85.154 C 253.288 84.893,253.457 84.544,253.402 84.379 C 253.346 84.213,253.133 84.348,252.927 84.678 M252.423 86.434 C 252.645 86.876,253.575 87.976,254.491 88.879 C 255.407 89.781,256.156 90.663,256.156 90.838 C 256.156 91.012,257.237 92.230,258.559 93.544 C 259.880 94.857,260.961 96.073,260.961 96.246 C 260.961 96.419,262.115 97.705,263.526 99.106 C 267.371 102.923,267.843 104.581,266.053 107.984 C 265.550 108.940,265.193 110.001,265.261 110.341 C 265.380 110.943,265.385 110.942,265.425 110.316 C 265.447 109.961,265.871 108.900,266.366 107.958 C 267.284 106.214,267.685 102.703,266.967 102.703 C 266.802 102.703,266.667 102.495,266.667 102.241 C 266.667 101.987,265.450 100.573,263.964 99.099 C 262.477 97.625,261.261 96.280,261.261 96.110 C 261.261 95.940,260.180 94.709,258.859 93.375 C 257.538 92.041,256.456 90.820,256.456 90.660 C 256.456 90.501,255.996 89.890,255.433 89.302 C 253.120 86.887,252.853 86.573,252.853 86.268 C 252.853 86.093,252.666 85.878,252.437 85.790 C 252.085 85.655,252.082 85.754,252.423 86.434 M129.771 106.973 C 129.748 107.257,130.000 107.970,130.330 108.559 C 130.661 109.147,130.931 109.811,130.931 110.035 C 130.931 110.259,131.133 110.829,131.380 111.302 C 131.791 112.090,131.828 112.106,131.830 111.486 C 131.831 111.115,131.697 110.811,131.532 110.811 C 131.366 110.811,131.231 110.405,131.231 109.910 C 131.231 109.414,131.096 109.009,130.931 109.009 C 130.766 109.009,130.631 108.739,130.631 108.408 C 130.631 108.078,130.505 107.808,130.351 107.808 C 130.198 107.808,130.013 107.504,129.942 107.132 C 129.859 106.702,129.797 106.644,129.771 106.973 M264.599 111.319 C 264.580 111.680,264.429 112.060,264.264 112.162 C 264.099 112.264,263.964 112.606,263.964 112.922 C 263.964 113.237,263.694 113.976,263.363 114.565 C 263.033 115.153,262.763 115.819,262.763 116.045 C 262.763 116.271,262.357 117.226,261.862 118.168 C 261.366 119.110,260.961 120.066,260.961 120.292 C 260.961 120.518,260.691 121.184,260.360 121.772 C 260.030 122.360,259.760 123.036,259.760 123.273 C 259.760 123.511,259.489 124.187,259.159 124.775 C 258.829 125.363,258.559 126.029,258.559 126.255 C 258.559 126.481,258.153 127.436,257.658 128.378 C 257.162 129.320,256.757 130.276,256.757 130.502 C 256.757 130.728,256.486 131.394,256.156 131.982 C 255.826 132.570,255.556 133.246,255.556 133.483 C 255.556 133.721,255.285 134.397,254.955 134.985 C 254.625 135.573,254.354 136.249,254.354 136.486 C 254.354 136.724,254.084 137.400,253.754 137.988 C 253.423 138.576,253.153 139.252,253.153 139.489 C 253.153 139.727,252.883 140.403,252.553 140.991 C 252.222 141.579,251.952 142.255,251.952 142.492 C 251.952 142.730,251.682 143.406,251.351 143.994 C 251.021 144.582,250.751 145.248,250.751 145.474 C 250.751 145.700,250.345 146.656,249.850 147.598 C 249.354 148.540,248.949 149.495,248.949 149.721 C 248.949 149.947,248.679 150.613,248.348 151.201 C 248.018 151.789,247.748 152.465,247.748 152.703 C 247.748 152.940,247.477 153.616,247.147 154.204 C 246.817 154.792,246.547 155.468,246.547 155.706 C 246.547 155.943,246.276 156.619,245.946 157.207 C 245.616 157.795,245.345 158.471,245.345 158.709 C 245.345 158.946,245.075 159.622,244.745 160.210 C 244.414 160.798,244.144 161.464,244.144 161.690 C 244.144 161.916,243.739 162.872,243.243 163.814 C 242.748 164.756,242.342 165.711,242.342 165.937 C 242.342 166.163,242.072 166.829,241.742 167.417 C 241.411 168.006,241.141 168.681,241.141 168.919 C 241.141 169.157,240.871 169.832,240.541 170.420 C 240.210 171.009,239.940 171.684,239.940 171.922 C 239.940 172.160,239.670 172.835,239.339 173.423 C 239.009 174.012,238.739 174.687,238.739 174.925 C 238.739 175.163,238.468 175.838,238.138 176.426 C 237.808 177.015,237.538 177.690,237.538 177.928 C 237.538 178.166,237.267 178.841,236.937 179.429 C 236.607 180.018,236.336 180.684,236.336 180.910 C 236.336 181.136,235.931 182.091,235.435 183.033 C 234.940 183.975,234.535 184.994,234.535 185.298 C 234.535 185.602,234.399 185.934,234.234 186.036 C 234.069 186.138,233.934 186.544,233.934 186.937 C 233.934 187.330,233.799 187.736,233.634 187.838 C 233.468 187.940,233.333 188.325,233.333 188.693 C 233.333 189.098,232.742 189.944,231.832 190.841 C 231.006 191.654,230.330 192.464,230.330 192.641 C 230.330 192.817,229.520 193.764,228.529 194.745 C 227.538 195.725,226.727 196.672,226.727 196.849 C 226.727 197.025,226.051 197.835,225.225 198.649 C 224.399 199.462,223.724 200.273,223.724 200.450 C 223.724 200.628,223.048 201.439,222.222 202.252 C 221.396 203.066,220.721 203.876,220.721 204.052 C 220.721 204.229,219.910 205.176,218.919 206.156 C 217.928 207.137,217.117 208.084,217.117 208.260 C 217.117 208.437,216.441 209.247,215.616 210.060 C 214.790 210.873,214.114 211.683,214.114 211.859 C 214.114 212.034,213.168 213.117,212.012 214.264 C 210.856 215.412,209.910 216.494,209.910 216.670 C 209.910 216.846,209.234 217.655,208.408 218.468 C 207.583 219.282,206.907 220.093,206.907 220.270 C 206.907 220.448,206.231 221.259,205.405 222.072 C 204.580 222.885,203.904 223.696,203.904 223.873 C 203.904 224.050,203.164 224.925,202.260 225.818 C 201.355 226.712,200.670 227.497,200.736 227.563 C 200.921 227.748,204.204 224.384,204.204 224.011 C 204.204 223.832,204.880 223.027,205.706 222.222 C 206.532 221.418,207.207 220.607,207.207 220.420 C 207.207 220.234,207.883 219.423,208.709 218.619 C 209.535 217.814,210.210 217.023,210.210 216.859 C 210.210 216.696,211.156 215.605,212.312 214.435 C 213.468 213.265,214.414 212.165,214.414 211.990 C 214.414 211.816,215.090 211.015,215.916 210.210 C 216.742 209.406,217.417 208.596,217.417 208.411 C 217.417 208.226,218.228 207.279,219.219 206.306 C 220.210 205.334,221.021 204.386,221.021 204.201 C 221.021 204.016,221.697 203.207,222.523 202.402 C 223.348 201.598,224.024 200.787,224.024 200.601 C 224.024 200.414,224.700 199.603,225.526 198.799 C 226.351 197.994,227.027 197.185,227.027 197.000 C 227.027 196.815,227.838 195.868,228.829 194.895 C 229.820 193.922,230.631 192.975,230.631 192.790 C 230.631 192.605,231.306 191.795,232.132 190.991 C 233.164 189.986,233.634 189.287,233.634 188.758 C 233.634 188.335,233.769 187.988,233.934 187.988 C 234.099 187.988,234.234 187.583,234.234 187.087 C 234.234 186.592,234.369 186.186,234.535 186.186 C 234.700 186.186,234.835 185.781,234.835 185.285 C 234.835 184.790,234.970 184.384,235.135 184.384 C 235.300 184.384,235.435 184.114,235.435 183.784 C 235.435 183.453,235.571 183.183,235.736 183.183 C 235.901 183.183,236.036 182.913,236.036 182.583 C 236.036 182.252,236.171 181.982,236.336 181.982 C 236.502 181.982,236.637 181.577,236.637 181.081 C 236.637 180.586,236.772 180.180,236.937 180.180 C 237.102 180.180,237.237 179.910,237.237 179.580 C 237.237 179.249,237.372 178.979,237.538 178.979 C 237.703 178.979,237.838 178.574,237.838 178.078 C 237.838 177.583,237.973 177.177,238.138 177.177 C 238.303 177.177,238.438 176.907,238.438 176.577 C 238.438 176.246,238.574 175.976,238.739 175.976 C 238.904 175.976,239.039 175.571,239.039 175.075 C 239.039 174.580,239.174 174.174,239.339 174.174 C 239.505 174.174,239.640 173.904,239.640 173.574 C 239.640 173.243,239.775 172.973,239.940 172.973 C 240.105 172.973,240.240 172.568,240.240 172.072 C 240.240 171.577,240.375 171.171,240.541 171.171 C 240.706 171.171,240.841 170.901,240.841 170.571 C 240.841 170.240,240.976 169.970,241.141 169.970 C 241.306 169.970,241.441 169.640,241.441 169.237 C 241.441 168.834,241.577 168.420,241.742 168.318 C 241.907 168.216,242.042 167.870,242.042 167.550 C 242.042 167.229,242.177 166.967,242.342 166.967 C 242.508 166.967,242.643 166.637,242.643 166.234 C 242.643 165.831,242.778 165.417,242.943 165.315 C 243.108 165.213,243.243 164.867,243.243 164.547 C 243.243 164.226,243.378 163.964,243.544 163.964 C 243.709 163.964,243.844 163.694,243.844 163.363 C 243.844 163.033,243.979 162.763,244.144 162.763 C 244.309 162.763,244.444 162.357,244.444 161.862 C 244.444 161.366,244.580 160.961,244.745 160.961 C 244.910 160.961,245.045 160.691,245.045 160.360 C 245.045 160.030,245.180 159.760,245.345 159.760 C 245.511 159.760,245.646 159.354,245.646 158.859 C 245.646 158.363,245.781 157.958,245.946 157.958 C 246.111 157.958,246.246 157.688,246.246 157.357 C 246.246 157.027,246.381 156.757,246.547 156.757 C 246.712 156.757,246.847 156.351,246.847 155.856 C 246.847 155.360,246.982 154.955,247.147 154.955 C 247.312 154.955,247.447 154.685,247.447 154.354 C 247.447 154.024,247.583 153.754,247.748 153.754 C 247.913 153.754,248.048 153.348,248.048 152.853 C 248.048 152.357,248.183 151.952,248.348 151.952 C 248.514 151.952,248.649 151.682,248.649 151.351 C 248.649 151.021,248.784 150.751,248.949 150.751 C 249.114 150.751,249.249 150.345,249.249 149.850 C 249.249 149.354,249.384 148.949,249.550 148.949 C 249.715 148.949,249.850 148.750,249.850 148.508 C 249.850 148.265,250.120 147.585,250.450 146.997 C 250.781 146.409,251.051 145.662,251.051 145.336 C 251.051 145.011,251.186 144.745,251.351 144.745 C 251.517 144.745,251.652 144.474,251.652 144.144 C 251.652 143.814,251.787 143.544,251.952 143.544 C 252.117 143.544,252.252 143.138,252.252 142.643 C 252.252 142.147,252.387 141.742,252.553 141.742 C 252.718 141.742,252.853 141.479,252.853 141.159 C 252.853 140.838,252.988 140.492,253.153 140.390 C 253.318 140.288,253.453 139.875,253.453 139.472 C 253.453 139.069,253.589 138.739,253.754 138.739 C 253.919 138.739,254.054 138.468,254.054 138.138 C 254.054 137.808,254.189 137.538,254.354 137.538 C 254.520 137.538,254.655 137.132,254.655 136.637 C 254.655 136.141,254.790 135.736,254.955 135.736 C 255.120 135.736,255.255 135.531,255.255 135.281 C 255.255 135.031,255.411 134.524,255.602 134.155 C 256.331 132.746,256.456 132.427,256.456 131.986 C 256.456 131.736,256.592 131.532,256.757 131.532 C 256.922 131.532,257.057 131.259,257.057 130.927 C 257.057 130.594,257.183 130.088,257.338 129.801 C 257.492 129.514,257.795 128.840,258.012 128.303 C 258.228 127.767,258.507 127.327,258.632 127.327 C 258.757 127.327,258.859 126.922,258.859 126.426 C 258.859 125.931,258.994 125.526,259.159 125.526 C 259.324 125.526,259.459 125.263,259.459 124.943 C 259.459 124.622,259.595 124.276,259.760 124.174 C 259.925 124.072,260.060 123.753,260.060 123.466 C 260.060 122.809,260.735 121.327,261.036 121.324 C 261.160 121.322,261.261 120.916,261.261 120.420 C 261.261 119.925,261.396 119.520,261.562 119.520 C 261.727 119.520,261.862 119.321,261.862 119.078 C 261.862 118.835,262.132 118.156,262.462 117.568 C 262.793 116.979,263.063 116.232,263.063 115.907 C 263.063 115.581,263.198 115.315,263.363 115.315 C 263.529 115.315,263.664 115.045,263.664 114.715 C 263.664 114.384,263.799 114.114,263.964 114.114 C 264.129 114.114,264.264 113.736,264.264 113.273 C 264.264 112.811,264.412 112.285,264.593 112.104 C 264.773 111.923,264.857 111.525,264.778 111.218 C 264.657 110.748,264.629 110.764,264.599 111.319 M132.171 112.312 C 132.137 112.830,132.821 114.903,133.128 115.210 C 133.241 115.323,133.333 115.663,133.333 115.966 C 133.333 116.269,133.468 116.517,133.634 116.517 C 133.799 116.517,133.934 116.783,133.934 117.108 C 133.934 117.433,134.204 118.181,134.535 118.769 C 134.865 119.357,135.135 120.033,135.135 120.270 C 135.135 120.508,135.405 121.184,135.736 121.772 C 136.066 122.360,136.336 123.036,136.336 123.273 C 136.336 123.511,136.607 124.187,136.937 124.775 C 137.267 125.363,137.538 126.029,137.538 126.255 C 137.538 126.481,137.943 127.436,138.438 128.378 C 138.934 129.320,139.339 130.340,139.339 130.643 C 139.339 130.947,139.474 131.279,139.640 131.381 C 139.805 131.483,139.940 131.829,139.940 132.150 C 139.940 132.470,140.075 132.733,140.240 132.733 C 140.405 132.733,140.541 133.138,140.541 133.634 C 140.541 134.129,140.676 134.535,140.841 134.535 C 141.006 134.535,141.141 134.805,141.141 135.135 C 141.141 135.465,141.276 135.736,141.441 135.736 C 141.607 135.736,141.742 136.066,141.742 136.469 C 141.742 136.872,141.877 137.285,142.042 137.387 C 142.207 137.489,142.342 137.835,142.342 138.156 C 142.342 138.476,142.477 138.739,142.643 138.739 C 142.808 138.739,142.943 139.144,142.943 139.640 C 142.943 140.135,143.044 140.542,143.168 140.543 C 143.469 140.546,144.144 142.028,144.144 142.685 C 144.144 142.972,144.279 143.291,144.444 143.393 C 144.610 143.495,144.745 143.841,144.745 144.162 C 144.745 144.482,144.880 144.745,145.045 144.745 C 145.210 144.745,145.345 145.150,145.345 145.646 C 145.345 146.141,145.447 146.548,145.571 146.549 C 145.840 146.552,146.547 148.006,146.547 148.558 C 146.547 148.773,146.682 148.949,146.847 148.949 C 147.012 148.949,147.147 149.354,147.147 149.850 C 147.147 150.345,147.282 150.751,147.447 150.751 C 147.613 150.751,147.748 151.021,147.748 151.351 C 147.748 151.682,147.883 151.952,148.048 151.952 C 148.213 151.952,148.348 152.357,148.348 152.853 C 148.348 153.348,148.483 153.754,148.649 153.754 C 148.814 153.754,148.949 154.024,148.949 154.354 C 148.949 154.685,149.084 154.955,149.249 154.955 C 149.414 154.955,149.550 155.360,149.550 155.856 C 149.550 156.351,149.685 156.757,149.850 156.757 C 150.015 156.757,150.150 157.027,150.150 157.357 C 150.150 157.688,150.285 157.958,150.450 157.958 C 150.616 157.958,150.751 158.224,150.751 158.549 C 150.751 158.875,151.021 159.622,151.351 160.210 C 151.682 160.798,151.952 161.613,151.952 162.021 C 151.952 162.429,152.087 162.763,152.252 162.763 C 152.417 162.763,152.553 163.033,152.553 163.363 C 152.553 163.694,152.688 163.964,152.853 163.964 C 153.018 163.964,153.153 164.234,153.153 164.565 C 153.153 164.895,153.288 165.165,153.453 165.165 C 153.619 165.165,153.754 165.495,153.754 165.898 C 153.754 166.301,153.889 166.715,154.054 166.817 C 154.219 166.919,154.354 167.265,154.354 167.585 C 154.354 167.906,154.489 168.168,154.655 168.168 C 154.820 168.168,154.955 168.574,154.955 169.069 C 154.955 169.565,155.090 169.970,155.255 169.970 C 155.420 169.970,155.556 170.240,155.556 170.571 C 155.556 170.901,155.691 171.171,155.856 171.171 C 156.021 171.171,156.156 171.577,156.156 172.072 C 156.156 172.568,156.291 172.973,156.456 172.973 C 156.622 172.973,156.757 173.243,156.757 173.574 C 156.757 173.904,156.892 174.174,157.057 174.174 C 157.222 174.174,157.357 174.580,157.357 175.075 C 157.357 175.571,157.492 175.976,157.658 175.976 C 157.823 175.976,157.958 176.246,157.958 176.577 C 157.958 176.907,158.093 177.177,158.258 177.177 C 158.423 177.177,158.559 177.583,158.559 178.078 C 158.559 178.574,158.694 178.979,158.859 178.979 C 159.024 178.979,159.159 179.249,159.159 179.580 C 159.159 179.910,159.294 180.180,159.459 180.180 C 159.625 180.180,159.760 180.442,159.760 180.763 C 159.760 181.084,159.895 181.429,160.060 181.532 C 160.225 181.634,160.360 182.047,160.360 182.450 C 160.360 182.853,160.495 183.183,160.661 183.183 C 160.826 183.183,160.961 183.453,160.961 183.784 C 160.961 184.114,161.096 184.384,161.261 184.384 C 161.426 184.384,161.562 184.790,161.562 185.285 C 161.562 185.781,161.697 186.186,161.862 186.186 C 162.027 186.186,162.162 186.448,162.162 186.769 C 162.162 187.090,162.297 187.435,162.462 187.538 C 162.628 187.640,162.763 188.053,162.763 188.456 C 162.763 188.859,162.898 189.189,163.063 189.189 C 163.228 189.189,163.363 189.401,163.363 189.659 C 163.363 189.918,164.039 190.787,164.865 191.592 C 165.691 192.396,166.366 193.207,166.366 193.393 C 166.366 193.580,167.042 194.391,167.868 195.195 C 168.694 196.000,169.369 196.810,169.369 196.997 C 169.369 197.184,170.045 197.994,170.871 198.799 C 171.697 199.603,172.372 200.413,172.372 200.598 C 172.372 200.783,173.183 201.730,174.174 202.703 C 175.165 203.675,175.976 204.615,175.976 204.790 C 175.976 204.965,176.652 205.770,177.477 206.578 C 178.303 207.387,178.979 208.205,178.979 208.395 C 178.979 208.586,179.790 209.538,180.781 210.511 C 181.772 211.483,182.583 212.421,182.583 212.594 C 182.583 212.767,183.393 213.732,184.384 214.739 C 185.375 215.745,186.186 216.701,186.186 216.863 C 186.186 217.024,186.862 217.814,187.688 218.619 C 188.514 219.423,189.189 220.234,189.189 220.420 C 189.189 220.607,189.865 221.418,190.691 222.222 C 191.517 223.027,192.192 223.832,192.192 224.011 C 192.192 224.384,195.476 227.748,195.660 227.563 C 195.727 227.497,195.041 226.712,194.137 225.818 C 193.232 224.925,192.492 224.050,192.492 223.873 C 192.492 223.696,191.817 222.885,190.991 222.072 C 190.165 221.259,189.489 220.448,189.489 220.270 C 189.489 220.093,188.814 219.282,187.988 218.468 C 187.162 217.655,186.486 216.845,186.486 216.669 C 186.486 216.492,185.676 215.545,184.685 214.565 C 183.694 213.584,182.883 212.638,182.883 212.462 C 182.883 212.287,182.072 211.341,181.081 210.360 C 180.090 209.380,179.279 208.433,179.279 208.256 C 179.279 208.080,178.604 207.270,177.778 206.456 C 176.952 205.643,176.276 204.833,176.276 204.657 C 176.276 204.480,175.465 203.533,174.474 202.553 C 173.483 201.572,172.673 200.625,172.673 200.449 C 172.673 200.272,171.997 199.462,171.171 198.649 C 170.345 197.835,169.670 197.024,169.670 196.847 C 169.670 196.669,168.994 195.858,168.168 195.045 C 167.342 194.232,166.667 193.420,166.667 193.242 C 166.667 193.064,166.052 192.315,165.301 191.579 C 163.954 190.259,163.063 188.874,163.063 188.101 C 163.063 187.884,162.793 187.225,162.462 186.637 C 162.132 186.049,161.862 185.373,161.862 185.135 C 161.862 184.897,161.592 184.222,161.261 183.634 C 160.931 183.046,160.661 182.379,160.661 182.153 C 160.661 181.928,160.255 180.972,159.760 180.030 C 159.264 179.088,158.859 178.133,158.859 177.907 C 158.859 177.681,158.589 177.015,158.258 176.426 C 157.928 175.838,157.658 175.163,157.658 174.925 C 157.658 174.687,157.387 174.012,157.057 173.423 C 156.727 172.835,156.456 172.160,156.456 171.922 C 156.456 171.684,156.186 171.009,155.856 170.420 C 155.526 169.832,155.255 169.157,155.255 168.919 C 155.255 168.681,154.985 168.006,154.655 167.417 C 154.324 166.829,154.054 166.163,154.054 165.937 C 154.054 165.711,153.649 164.756,153.153 163.814 C 152.658 162.872,152.252 161.853,152.252 161.549 C 152.252 161.245,152.117 160.913,151.952 160.811 C 151.787 160.709,151.652 160.363,151.652 160.042 C 151.652 159.722,151.517 159.459,151.351 159.459 C 151.186 159.459,151.051 159.193,151.051 158.868 C 151.051 158.543,150.781 157.795,150.450 157.207 C 150.120 156.619,149.850 155.943,149.850 155.706 C 149.850 155.468,149.580 154.792,149.249 154.204 C 148.919 153.616,148.649 152.940,148.649 152.703 C 148.649 152.465,148.378 151.789,148.048 151.201 C 147.718 150.613,147.447 149.947,147.447 149.721 C 147.447 149.495,147.042 148.540,146.547 147.598 C 146.051 146.656,145.646 145.700,145.646 145.474 C 145.646 145.248,145.375 144.582,145.045 143.994 C 144.715 143.406,144.444 142.730,144.444 142.492 C 144.444 142.255,144.174 141.579,143.844 140.991 C 143.514 140.403,143.243 139.727,143.243 139.489 C 143.243 139.252,142.973 138.576,142.643 137.988 C 142.312 137.400,142.042 136.724,142.042 136.486 C 142.042 136.249,141.772 135.573,141.441 134.985 C 141.111 134.397,140.841 133.657,140.841 133.342 C 140.841 133.026,140.706 132.685,140.541 132.583 C 140.375 132.481,140.240 132.135,140.240 131.814 C 140.240 131.494,140.105 131.231,139.940 131.231 C 139.775 131.231,139.640 130.901,139.640 130.498 C 139.640 130.095,139.505 129.682,139.339 129.580 C 139.174 129.478,139.039 129.132,139.039 128.811 C 139.039 128.491,138.904 128.228,138.739 128.228 C 138.574 128.228,138.438 127.958,138.438 127.628 C 138.438 127.297,138.303 127.027,138.138 127.027 C 137.973 127.027,137.838 126.622,137.838 126.126 C 137.838 125.631,137.703 125.225,137.538 125.225 C 137.372 125.225,137.237 124.955,137.237 124.625 C 137.237 124.294,137.102 124.024,136.937 124.024 C 136.772 124.024,136.637 123.694,136.637 123.291 C 136.637 122.888,136.502 122.474,136.336 122.372 C 136.171 122.270,136.036 121.924,136.036 121.604 C 136.036 121.283,135.901 121.021,135.736 121.021 C 135.571 121.021,135.435 120.691,135.435 120.288 C 135.435 119.885,135.300 119.471,135.135 119.369 C 134.970 119.267,134.835 118.921,134.835 118.601 C 134.835 118.280,134.700 118.018,134.535 118.018 C 134.369 118.018,134.234 117.688,134.234 117.285 C 134.234 116.882,134.099 116.468,133.934 116.366 C 133.769 116.264,133.634 115.918,133.634 115.598 C 133.634 115.277,133.498 115.015,133.333 115.015 C 133.168 115.015,133.033 114.704,133.033 114.324 C 133.033 113.944,132.911 113.505,132.762 113.348 C 132.613 113.191,132.426 112.793,132.346 112.462 C 132.266 112.131,132.188 112.064,132.171 112.312 " stroke="none" fill="#d8ecf8" fill-rule="evenodd"></path><path id="path4" d="M195.222 26.469 C 194.659 26.799,193.939 27.398,193.622 27.800 C 193.306 28.203,192.855 28.724,192.620 28.959 C 192.385 29.194,192.192 29.476,192.192 29.585 C 192.192 29.694,191.618 30.363,190.916 31.071 C 190.214 31.779,189.308 32.747,188.902 33.221 C 188.496 33.696,187.314 35.046,186.274 36.222 C 185.235 37.398,184.384 38.521,184.384 38.717 C 184.384 38.914,184.256 38.995,184.099 38.898 C 183.942 38.801,183.658 39.014,183.467 39.371 C 183.276 39.727,182.560 40.602,181.875 41.314 C 180.379 42.869,179.880 43.463,179.880 43.685 C 179.880 43.777,179.287 44.492,178.563 45.274 C 177.839 46.057,176.577 47.440,175.759 48.348 C 174.941 49.257,173.709 50.607,173.022 51.350 C 172.334 52.092,171.772 52.781,171.772 52.882 C 171.772 52.982,170.961 53.882,169.970 54.883 C 168.979 55.883,168.168 56.916,168.168 57.179 C 168.168 57.442,167.975 57.658,167.738 57.658 C 167.501 57.658,167.222 57.928,167.117 58.258 C 167.012 58.589,166.800 58.859,166.646 58.859 C 166.492 58.859,166.366 59.084,166.366 59.359 C 166.366 59.635,166.279 59.772,166.172 59.665 C 166.065 59.558,165.716 59.772,165.398 60.141 C 165.079 60.509,164.255 61.466,163.565 62.268 C 162.876 63.069,161.704 64.403,160.961 65.233 C 160.218 66.063,159.407 67.013,159.159 67.345 C 158.911 67.677,158.136 68.540,157.436 69.263 C 156.737 69.987,156.128 70.678,156.085 70.800 C 156.042 70.921,155.905 70.987,155.781 70.946 C 155.657 70.905,155.572 70.972,155.591 71.096 C 155.689 71.716,155.511 72.072,155.105 72.072 C 154.857 72.072,154.655 72.179,154.655 72.310 C 154.655 72.441,154.166 73.065,153.570 73.698 C 152.973 74.331,152.162 75.323,151.768 75.904 C 151.374 76.485,151.051 76.864,151.051 76.746 C 151.051 76.627,150.680 76.980,150.227 77.530 C 149.773 78.079,148.895 79.025,148.275 79.631 C 147.655 80.238,147.147 80.834,147.147 80.957 C 147.147 81.080,146.948 81.395,146.704 81.656 C 146.460 81.918,145.919 82.498,145.502 82.944 C 144.753 83.748,144.557 84.396,144.946 84.785 C 145.268 85.107,146.222 84.071,146.040 83.596 C 145.949 83.359,146.144 82.933,146.473 82.649 C 146.801 82.365,147.838 81.471,148.776 80.662 C 149.878 79.712,150.421 79.035,150.311 78.749 C 150.215 78.498,150.436 78.059,150.821 77.736 C 153.673 75.342,154.662 74.327,154.516 73.945 C 154.350 73.514,154.881 72.946,157.499 70.756 C 158.396 70.004,158.831 69.430,158.721 69.142 C 158.613 68.861,158.966 68.345,159.668 67.756 C 162.335 65.519,163.082 64.746,162.937 64.370 C 162.808 64.032,164.028 62.462,164.420 62.462 C 164.837 62.462,167.257 59.866,167.135 59.549 C 167.010 59.223,168.242 57.658,168.624 57.658 C 169.045 57.658,171.471 55.048,171.471 54.595 C 171.471 54.294,171.755 53.813,172.101 53.526 C 174.053 51.904,175.722 50.168,175.568 49.918 C 175.470 49.760,176.411 48.671,177.658 47.497 C 178.916 46.312,179.836 45.217,179.725 45.037 C 179.615 44.859,179.841 44.441,180.228 44.108 C 183.316 41.453,184.688 40.082,184.569 39.771 C 184.412 39.362,184.875 38.834,186.911 37.101 C 187.744 36.391,188.241 35.746,188.145 35.496 C 187.986 35.082,188.456 34.576,191.113 32.304 C 191.872 31.655,192.492 30.901,192.492 30.629 C 192.492 30.358,193.219 29.402,194.107 28.506 L 195.722 26.877 198.277 26.963 L 200.832 27.049 202.450 28.668 C 203.340 29.558,204.020 30.433,203.960 30.613 C 203.852 30.938,204.294 31.404,207.033 33.851 C 207.814 34.549,208.366 35.261,208.260 35.432 C 208.076 35.731,209.113 36.854,211.525 38.968 C 212.140 39.507,212.552 40.095,212.441 40.274 C 212.192 40.678,215.627 43.871,216.126 43.699 C 216.339 43.625,216.418 43.752,216.319 44.009 C 216.227 44.249,216.311 44.444,216.505 44.444 C 216.708 44.444,216.784 44.674,216.686 44.985 C 216.522 45.502,216.925 45.931,220.373 48.910 C 220.771 49.254,220.983 49.669,220.860 49.867 C 220.659 50.192,221.373 50.952,224.264 53.492 C 224.810 53.971,225.167 54.506,225.058 54.682 C 224.869 54.988,228.718 58.842,229.224 58.853 C 229.359 58.856,229.393 59.102,229.298 59.399 C 229.135 59.915,229.543 60.350,232.962 63.304 C 233.336 63.628,233.570 64.081,233.481 64.313 C 233.336 64.691,233.991 65.366,237.167 68.109 C 237.541 68.433,237.772 68.891,237.680 69.131 C 237.543 69.487,240.434 72.415,241.794 73.297 C 241.942 73.393,241.983 73.677,241.887 73.929 C 241.770 74.234,242.279 74.877,243.416 75.857 C 244.354 76.666,245.377 77.548,245.688 77.817 C 246.000 78.086,246.177 78.509,246.082 78.757 C 245.966 79.059,246.648 79.834,248.161 81.120 C 249.421 82.191,250.388 83.244,250.357 83.512 C 250.296 84.033,250.963 84.985,251.388 84.985 C 251.908 84.985,251.637 83.918,250.901 83.061 C 250.488 82.582,250.149 82.109,250.148 82.010 C 250.146 81.912,249.317 80.953,248.305 79.880 C 247.293 78.806,246.111 77.455,245.680 76.877 C 245.248 76.299,244.420 75.353,243.840 74.775 C 243.260 74.197,242.314 73.118,241.738 72.378 C 241.162 71.637,240.049 70.401,239.264 69.630 C 238.480 68.859,237.838 68.124,237.838 67.998 C 237.838 67.752,237.694 67.585,235.595 65.398 C 234.847 64.618,234.234 63.846,234.234 63.682 C 234.234 63.518,233.986 63.252,233.683 63.090 C 233.380 62.927,232.810 62.325,232.417 61.750 C 232.023 61.176,231.595 60.771,231.466 60.851 C 231.337 60.931,231.231 60.786,231.231 60.528 C 231.231 60.271,231.062 60.059,230.856 60.058 C 230.649 60.056,230.172 59.516,229.796 58.857 C 229.419 58.197,228.913 57.658,228.670 57.658 C 228.427 57.658,228.228 57.460,228.228 57.218 C 228.228 56.977,227.417 55.958,226.426 54.955 C 225.435 53.952,224.623 53.034,224.621 52.917 C 224.620 52.799,223.999 52.027,223.241 51.201 C 222.484 50.375,221.404 49.199,220.842 48.587 C 220.280 47.974,219.820 47.390,219.820 47.287 C 219.820 47.184,219.313 46.604,218.694 45.997 C 218.074 45.391,217.215 44.422,216.783 43.844 C 216.352 43.266,215.608 42.370,215.131 41.853 C 214.654 41.336,213.521 40.069,212.613 39.039 C 211.704 38.008,210.118 36.269,209.088 35.174 C 208.058 34.079,207.214 33.079,207.211 32.953 C 207.209 32.826,206.768 32.277,206.231 31.733 C 205.694 31.190,204.782 30.168,204.204 29.462 C 203.626 28.757,202.950 27.939,202.703 27.644 C 201.143 25.791,197.386 25.200,195.222 26.469 M143.243 84.338 C 143.243 84.477,143.499 84.823,143.812 85.106 C 144.576 85.798,144.126 86.690,141.905 88.879 C 140.990 89.781,140.240 90.663,140.240 90.839 C 140.240 91.014,139.294 92.096,138.138 93.243 C 136.982 94.391,136.036 95.471,136.036 95.644 C 136.036 95.816,134.747 97.239,133.171 98.805 C 131.596 100.371,130.109 102.044,129.868 102.524 C 129.374 103.507,129.269 106.607,129.730 106.607 C 129.895 106.607,130.030 106.877,130.030 107.207 C 130.030 107.538,130.165 107.808,130.330 107.808 C 130.495 107.808,130.631 108.078,130.631 108.408 C 130.631 108.739,130.766 109.009,130.931 109.009 C 131.096 109.009,131.231 109.414,131.231 109.910 C 131.231 110.405,131.366 110.811,131.532 110.811 C 131.697 110.811,131.832 111.081,131.832 111.411 C 131.832 111.742,131.967 112.012,132.132 112.012 C 132.297 112.012,132.432 112.274,132.432 112.595 C 132.432 112.915,132.568 113.261,132.733 113.363 C 132.898 113.465,133.033 113.879,133.033 114.282 C 133.033 114.685,133.168 115.015,133.333 115.015 C 133.498 115.015,133.634 115.277,133.634 115.598 C 133.634 115.918,133.769 116.264,133.934 116.366 C 134.099 116.468,134.234 116.882,134.234 117.285 C 134.234 117.688,134.369 118.018,134.535 118.018 C 134.700 118.018,134.835 118.280,134.835 118.601 C 134.835 118.921,134.970 119.267,135.135 119.369 C 135.300 119.471,135.435 119.885,135.435 120.288 C 135.435 120.691,135.571 121.021,135.736 121.021 C 135.901 121.021,136.036 121.283,136.036 121.604 C 136.036 121.924,136.171 122.270,136.336 122.372 C 136.502 122.474,136.637 122.888,136.637 123.291 C 136.637 123.694,136.772 124.024,136.937 124.024 C 137.102 124.024,137.237 124.294,137.237 124.625 C 137.237 124.955,137.372 125.225,137.538 125.225 C 137.703 125.225,137.838 125.631,137.838 126.126 C 137.838 126.622,137.973 127.027,138.138 127.027 C 138.303 127.027,138.438 127.297,138.438 127.628 C 138.438 127.958,138.574 128.228,138.739 128.228 C 138.904 128.228,139.039 128.491,139.039 128.811 C 139.039 129.132,139.174 129.478,139.339 129.580 C 139.505 129.682,139.640 130.095,139.640 130.498 C 139.640 130.901,139.775 131.231,139.940 131.231 C 140.105 131.231,140.240 131.494,140.240 131.814 C 140.240 132.135,140.375 132.481,140.541 132.583 C 140.706 132.685,140.841 133.026,140.841 133.342 C 140.841 133.657,141.111 134.397,141.441 134.985 C 141.772 135.573,142.042 136.249,142.042 136.486 C 142.042 136.724,142.312 137.400,142.643 137.988 C 142.973 138.576,143.243 139.252,143.243 139.489 C 143.243 139.727,143.514 140.403,143.844 140.991 C 144.174 141.579,144.444 142.255,144.444 142.492 C 144.444 142.730,144.715 143.406,145.045 143.994 C 145.375 144.582,145.646 145.248,145.646 145.474 C 145.646 145.700,146.051 146.656,146.547 147.598 C 147.042 148.540,147.447 149.495,147.447 149.721 C 147.447 149.947,147.718 150.613,148.048 151.201 C 148.378 151.789,148.649 152.465,148.649 152.703 C 148.649 152.940,148.919 153.616,149.249 154.204 C 149.580 154.792,149.850 155.468,149.850 155.706 C 149.850 155.943,150.120 156.619,150.450 157.207 C 150.781 157.795,151.051 158.543,151.051 158.868 C 151.051 159.193,151.186 159.459,151.351 159.459 C 151.517 159.459,151.652 159.722,151.652 160.042 C 151.652 160.363,151.787 160.709,151.952 160.811 C 152.117 160.913,152.252 161.245,152.252 161.549 C 152.252 161.853,152.658 162.872,153.153 163.814 C 153.649 164.756,154.054 165.711,154.054 165.937 C 154.054 166.163,154.324 166.829,154.655 167.417 C 154.985 168.006,155.255 168.681,155.255 168.919 C 155.255 169.157,155.526 169.832,155.856 170.420 C 156.186 171.009,156.456 171.684,156.456 171.922 C 156.456 172.160,156.727 172.835,157.057 173.423 C 157.387 174.012,157.658 174.687,157.658 174.925 C 157.658 175.163,157.928 175.838,158.258 176.426 C 158.589 177.015,158.859 177.681,158.859 177.907 C 158.859 178.133,159.264 179.088,159.760 180.030 C 160.255 180.972,160.661 181.928,160.661 182.153 C 160.661 182.379,160.931 183.046,161.261 183.634 C 161.592 184.222,161.862 184.897,161.862 185.135 C 161.862 185.373,162.132 186.049,162.462 186.637 C 162.793 187.225,163.063 187.884,163.063 188.101 C 163.063 188.874,163.954 190.259,165.301 191.579 C 166.052 192.315,166.667 193.064,166.667 193.242 C 166.667 193.420,167.342 194.232,168.168 195.045 C 168.994 195.858,169.670 196.669,169.670 196.847 C 169.670 197.024,170.345 197.835,171.171 198.649 C 171.997 199.462,172.673 200.272,172.673 200.449 C 172.673 200.625,173.483 201.572,174.474 202.553 C 175.465 203.533,176.276 204.480,176.276 204.657 C 176.276 204.833,176.952 205.643,177.778 206.456 C 178.604 207.270,179.279 208.080,179.279 208.256 C 179.279 208.433,180.090 209.380,181.081 210.360 C 182.072 211.341,182.883 212.287,182.883 212.462 C 182.883 212.638,183.694 213.584,184.685 214.565 C 185.676 215.545,186.486 216.492,186.486 216.669 C 186.486 216.845,187.162 217.655,187.988 218.468 C 188.814 219.282,189.489 220.093,189.489 220.270 C 189.489 220.448,190.165 221.259,190.991 222.072 C 191.817 222.885,192.492 223.695,192.492 223.872 C 192.492 224.049,193.273 224.966,194.228 225.910 L 195.963 227.628 198.198 227.628 L 200.433 227.628 202.168 225.910 C 203.123 224.966,203.904 224.049,203.904 223.872 C 203.904 223.695,204.580 222.885,205.405 222.072 C 206.231 221.259,206.907 220.448,206.907 220.270 C 206.907 220.093,207.583 219.282,208.408 218.468 C 209.234 217.655,209.910 216.846,209.910 216.670 C 209.910 216.494,210.856 215.412,212.012 214.264 C 213.168 213.117,214.114 212.034,214.114 211.859 C 214.114 211.683,214.790 210.873,215.616 210.060 C 216.441 209.247,217.117 208.437,217.117 208.260 C 217.117 208.084,217.928 207.137,218.919 206.156 C 219.910 205.176,220.721 204.229,220.721 204.052 C 220.721 203.876,221.396 203.066,222.222 202.252 C 223.048 201.439,223.724 200.628,223.724 200.450 C 223.724 200.273,224.399 199.462,225.225 198.649 C 226.051 197.835,226.727 197.025,226.727 196.849 C 226.727 196.672,227.538 195.725,228.529 194.745 C 229.520 193.764,230.330 192.817,230.330 192.641 C 230.330 192.464,231.006 191.654,231.832 190.841 C 232.742 189.944,233.333 189.098,233.333 188.693 C 233.333 188.325,233.468 187.940,233.634 187.838 C 233.799 187.736,233.934 187.330,233.934 186.937 C 233.934 186.544,234.069 186.138,234.234 186.036 C 234.399 185.934,234.535 185.602,234.535 185.298 C 234.535 184.994,234.940 183.975,235.435 183.033 C 235.931 182.091,236.336 181.136,236.336 180.910 C 236.336 180.684,236.607 180.018,236.937 179.429 C 237.267 178.841,237.538 178.166,237.538 177.928 C 237.538 177.690,237.808 177.015,238.138 176.426 C 238.468 175.838,238.739 175.163,238.739 174.925 C 238.739 174.687,239.009 174.012,239.339 173.423 C 239.670 172.835,239.940 172.160,239.940 171.922 C 239.940 171.684,240.210 171.009,240.541 170.420 C 240.871 169.832,241.141 169.157,241.141 168.919 C 241.141 168.681,241.411 168.006,241.742 167.417 C 242.072 166.829,242.342 166.163,242.342 165.937 C 242.342 165.711,242.748 164.756,243.243 163.814 C 243.739 162.872,244.144 161.916,244.144 161.690 C 244.144 161.464,244.414 160.798,244.745 160.210 C 245.075 159.622,245.345 158.946,245.345 158.709 C 245.345 158.471,245.616 157.795,245.946 157.207 C 246.276 156.619,246.547 155.943,246.547 155.706 C 246.547 155.468,246.817 154.792,247.147 154.204 C 247.477 153.616,247.748 152.940,247.748 152.703 C 247.748 152.465,248.018 151.789,248.348 151.201 C 248.679 150.613,248.949 149.947,248.949 149.721 C 248.949 149.495,249.354 148.540,249.850 147.598 C 250.345 146.656,250.751 145.700,250.751 145.474 C 250.751 145.248,251.021 144.582,251.351 143.994 C 251.682 143.406,251.952 142.730,251.952 142.492 C 251.952 142.255,252.222 141.579,252.553 140.991 C 252.883 140.403,253.153 139.727,253.153 139.489 C 253.153 139.252,253.423 138.576,253.754 137.988 C 254.084 137.400,254.354 136.724,254.354 136.486 C 254.354 136.249,254.625 135.573,254.955 134.985 C 255.285 134.397,255.556 133.721,255.556 133.483 C 255.556 133.246,255.826 132.570,256.156 131.982 C 256.486 131.394,256.757 130.728,256.757 130.502 C 256.757 130.276,257.162 129.320,257.658 128.378 C 258.153 127.436,258.559 126.481,258.559 126.255 C 258.559 126.029,258.829 125.363,259.159 124.775 C 259.489 124.187,259.760 123.511,259.760 123.273 C 259.760 123.036,260.030 122.360,260.360 121.772 C 260.691 121.184,260.961 120.518,260.961 120.292 C 260.961 120.066,261.366 119.110,261.862 118.168 C 262.357 117.226,262.763 116.271,262.763 116.045 C 262.763 115.819,263.033 115.153,263.363 114.565 C 263.694 113.976,263.964 113.237,263.964 112.922 C 263.964 112.606,264.099 112.264,264.264 112.162 C 264.429 112.060,264.565 111.714,264.565 111.394 C 264.565 111.073,264.700 110.811,264.865 110.811 C 265.030 110.811,265.165 110.554,265.165 110.241 C 265.165 109.927,265.571 108.900,266.066 107.958 C 267.841 104.584,267.362 102.914,263.526 99.106 C 262.115 97.705,260.961 96.419,260.961 96.246 C 260.961 96.073,259.880 94.857,258.559 93.544 C 257.237 92.230,256.156 91.013,256.156 90.838 C 256.156 90.664,255.312 89.715,254.279 88.729 L 252.402 86.937 254.129 88.747 C 255.079 89.743,255.859 90.689,255.863 90.850 C 255.867 91.010,256.948 92.266,258.265 93.641 C 259.583 95.016,260.661 96.264,260.661 96.414 C 260.661 96.565,261.800 97.828,263.193 99.220 C 267.028 103.055,267.453 104.450,265.766 107.658 C 265.270 108.600,264.865 109.555,264.865 109.781 C 264.865 110.007,264.595 110.673,264.264 111.261 C 263.934 111.849,263.664 112.526,263.664 112.764 C 263.664 113.188,263.471 113.655,261.587 117.806 C 261.077 118.929,260.661 119.972,260.661 120.126 C 260.661 120.279,260.405 120.982,260.092 121.689 C 259.779 122.395,259.224 123.716,258.857 124.625 C 258.491 125.533,257.801 127.109,257.324 128.127 C 256.847 129.146,256.456 130.122,256.456 130.297 C 256.456 130.471,256.201 131.193,255.888 131.899 C 255.575 132.605,255.034 133.893,254.687 134.760 C 253.632 137.388,252.882 139.266,252.287 140.766 C 250.989 144.042,250.327 145.591,249.511 147.264 C 249.037 148.237,248.649 149.213,248.649 149.432 C 248.649 149.652,248.378 150.313,248.048 150.901 C 247.718 151.489,247.447 152.165,247.447 152.402 C 247.447 152.640,247.177 153.316,246.847 153.904 C 246.517 154.492,246.246 155.168,246.246 155.405 C 246.246 155.643,245.976 156.319,245.646 156.907 C 245.315 157.495,245.045 158.171,245.045 158.408 C 245.045 158.646,244.775 159.322,244.444 159.910 C 244.114 160.498,243.844 161.164,243.844 161.390 C 243.844 161.616,243.438 162.572,242.943 163.514 C 242.447 164.455,242.042 165.411,242.042 165.637 C 242.042 165.863,241.772 166.529,241.441 167.117 C 241.111 167.705,240.841 168.381,240.841 168.619 C 240.841 168.856,240.571 169.532,240.240 170.120 C 239.910 170.708,239.640 171.384,239.640 171.622 C 239.640 171.859,239.369 172.535,239.039 173.123 C 238.709 173.711,238.438 174.387,238.438 174.625 C 238.438 174.862,238.168 175.538,237.838 176.126 C 237.508 176.714,237.237 177.390,237.237 177.628 C 237.237 177.865,236.967 178.541,236.637 179.129 C 236.306 179.717,236.036 180.383,236.036 180.609 C 236.036 180.835,235.631 181.791,235.135 182.733 C 234.640 183.675,234.234 184.694,234.234 184.998 C 234.234 185.302,234.099 185.634,233.934 185.736 C 233.769 185.838,233.634 186.243,233.634 186.637 C 233.634 187.030,233.498 187.435,233.333 187.538 C 233.168 187.640,233.033 188.062,233.033 188.476 C 233.033 188.983,232.545 189.704,231.532 190.691 C 230.706 191.495,230.030 192.305,230.030 192.490 C 230.030 192.675,229.219 193.622,228.228 194.595 C 227.237 195.567,226.426 196.515,226.426 196.700 C 226.426 196.885,225.751 197.694,224.925 198.498 C 224.099 199.303,223.423 200.114,223.423 200.300 C 223.423 200.487,222.748 201.298,221.922 202.102 C 221.096 202.906,220.420 203.716,220.420 203.901 C 220.420 204.086,219.610 205.033,218.619 206.006 C 217.628 206.979,216.817 207.926,216.817 208.111 C 216.817 208.296,216.141 209.106,215.315 209.910 C 214.489 210.714,213.814 211.523,213.814 211.707 C 213.814 211.891,212.868 212.974,211.712 214.114 C 210.556 215.254,209.610 216.338,209.610 216.522 C 209.610 216.705,208.934 217.514,208.108 218.318 C 207.282 219.123,206.607 219.934,206.607 220.120 C 206.607 220.307,205.931 221.118,205.105 221.922 C 204.279 222.726,203.604 223.531,203.604 223.711 C 203.604 223.890,202.863 224.777,201.958 225.682 L 200.313 227.327 198.198 227.327 L 196.083 227.327 194.438 225.682 C 193.533 224.777,192.793 223.890,192.793 223.711 C 192.793 223.531,192.117 222.726,191.291 221.922 C 190.465 221.118,189.790 220.307,189.790 220.120 C 189.790 219.934,189.114 219.123,188.288 218.318 C 187.462 217.514,186.787 216.704,186.787 216.519 C 186.787 216.334,185.976 215.387,184.985 214.414 C 183.994 213.442,183.183 212.504,183.183 212.331 C 183.183 212.158,182.372 211.192,181.381 210.186 C 180.390 209.180,179.580 208.224,179.580 208.062 C 179.580 207.901,178.904 207.111,178.078 206.306 C 177.252 205.502,176.577 204.701,176.577 204.526 C 176.577 204.351,175.766 203.385,174.775 202.378 C 173.784 201.372,172.973 200.416,172.973 200.255 C 172.973 200.093,172.297 199.303,171.471 198.498 C 170.646 197.694,169.970 196.883,169.970 196.697 C 169.970 196.510,169.294 195.699,168.468 194.895 C 167.643 194.091,166.967 193.280,166.967 193.093 C 166.967 192.906,166.291 192.096,165.465 191.291 C 164.640 190.487,163.964 189.617,163.964 189.359 C 163.964 189.100,163.829 188.889,163.664 188.889 C 163.498 188.889,163.363 188.555,163.363 188.147 C 163.363 187.739,163.093 186.924,162.763 186.336 C 162.432 185.748,162.162 185.073,162.162 184.835 C 162.162 184.597,161.892 183.921,161.562 183.333 C 161.231 182.745,160.961 182.079,160.961 181.853 C 160.961 181.627,160.556 180.672,160.060 179.730 C 159.565 178.788,159.159 177.832,159.159 177.606 C 159.159 177.380,158.889 176.714,158.559 176.126 C 158.228 175.538,157.958 174.862,157.958 174.625 C 157.958 174.387,157.688 173.711,157.357 173.123 C 157.027 172.535,156.757 171.859,156.757 171.622 C 156.757 171.384,156.486 170.708,156.156 170.120 C 155.826 169.532,155.556 168.856,155.556 168.619 C 155.556 168.381,155.285 167.705,154.955 167.117 C 154.625 166.529,154.354 165.863,154.354 165.637 C 154.354 165.411,153.949 164.455,153.453 163.514 C 152.958 162.572,152.553 161.616,152.553 161.390 C 152.553 161.164,152.282 160.498,151.952 159.910 C 151.622 159.322,151.351 158.646,151.351 158.408 C 151.351 158.171,151.081 157.495,150.751 156.907 C 150.420 156.319,150.150 155.643,150.150 155.405 C 150.150 155.168,149.880 154.492,149.550 153.904 C 149.219 153.316,148.949 152.640,148.949 152.402 C 148.949 152.165,148.679 151.489,148.348 150.901 C 148.018 150.313,147.748 149.647,147.748 149.421 C 147.748 149.195,147.342 148.239,146.847 147.297 C 146.351 146.355,145.946 145.400,145.946 145.174 C 145.946 144.948,145.676 144.282,145.345 143.694 C 145.015 143.106,144.745 142.430,144.745 142.192 C 144.745 141.954,144.474 141.279,144.144 140.691 C 143.814 140.103,143.544 139.427,143.544 139.189 C 143.544 138.951,143.273 138.276,142.943 137.688 C 142.613 137.100,142.342 136.424,142.342 136.186 C 142.342 135.948,142.072 135.273,141.742 134.685 C 141.411 134.097,141.141 133.421,141.141 133.183 C 141.141 132.945,140.871 132.270,140.541 131.682 C 140.210 131.094,139.940 130.427,139.940 130.202 C 139.940 129.976,139.535 129.020,139.039 128.078 C 138.544 127.136,138.138 126.181,138.138 125.955 C 138.138 125.729,137.868 125.063,137.538 124.474 C 137.207 123.886,136.937 123.211,136.937 122.973 C 136.937 122.735,136.667 122.060,136.336 121.471 C 136.006 120.883,135.736 120.208,135.736 119.970 C 135.736 119.732,135.465 119.057,135.135 118.468 C 134.805 117.880,134.535 117.205,134.535 116.967 C 134.535 116.729,134.264 116.054,133.934 115.465 C 133.604 114.877,133.333 114.211,133.333 113.985 C 133.333 113.759,132.928 112.804,132.432 111.862 C 131.937 110.920,131.532 109.974,131.532 109.760 C 131.532 109.546,131.126 108.600,130.631 107.658 C 128.932 104.429,129.335 103.216,133.472 99.105 C 135.047 97.539,136.336 96.120,136.336 95.951 C 136.336 95.782,137.282 94.660,138.438 93.457 C 139.595 92.254,140.541 91.132,140.541 90.964 C 140.541 90.795,141.318 89.888,142.267 88.947 C 144.384 86.851,145.074 85.678,144.431 85.270 C 144.190 85.118,144.105 84.992,144.241 84.990 C 144.512 84.985,143.691 84.084,143.415 84.084 C 143.320 84.084,143.243 84.198,143.243 84.338 M252.315 84.546 C 252.103 84.787,252.018 84.985,252.127 84.985 C 252.236 84.985,252.185 85.154,252.014 85.361 C 251.793 85.627,251.827 85.909,252.127 86.320 C 252.361 86.640,252.553 86.749,252.553 86.562 C 252.553 86.375,252.419 86.139,252.255 86.038 C 252.082 85.931,252.207 85.587,252.556 85.213 C 253.168 84.555,253.328 84.075,252.928 84.096 C 252.804 84.102,252.528 84.304,252.315 84.546 " stroke="none" fill="#8c8c8c" fill-rule="evenodd"></path></g></svg>