<svg id="svg" version="1.1" xmlns="http://www.w3.org/2000/svg" xmlns:xlink="http://www.w3.org/1999/xlink" width="400" height="300.1503759398496" viewBox="0, 0, 400,300.1503759398496"><g id="svgg"><path id="path0" d="M72.450 29.260 C 69.727 30.766,68.666 35.347,70.270 38.668 C 70.601 39.352,70.871 40.112,70.871 40.358 C 70.871 40.604,71.006 40.889,71.171 40.991 C 71.336 41.093,71.471 41.498,71.471 41.892 C 71.471 42.285,71.607 42.691,71.772 42.793 C 71.937 42.895,72.072 43.237,72.072 43.552 C 72.072 43.868,72.342 44.607,72.673 45.195 C 73.003 45.783,73.273 46.438,73.273 46.649 C 73.273 46.861,73.544 47.594,73.874 48.277 C 74.204 48.961,74.474 49.722,74.474 49.968 C 74.474 50.214,74.610 50.499,74.775 50.601 C 74.940 50.703,75.075 51.108,75.075 51.502 C 75.075 51.895,75.210 52.300,75.375 52.402 C 75.541 52.504,75.676 52.846,75.676 53.162 C 75.676 53.477,75.946 54.217,76.276 54.805 C 76.607 55.393,76.877 56.069,76.877 56.306 C 76.877 56.544,77.147 57.220,77.477 57.808 C 77.808 58.396,78.078 59.135,78.078 59.451 C 78.078 59.766,78.213 60.108,78.378 60.210 C 78.544 60.312,78.679 60.718,78.679 61.111 C 78.679 61.505,78.814 61.910,78.979 62.012 C 79.144 62.114,79.279 62.456,79.279 62.771 C 79.279 63.087,79.550 63.826,79.880 64.414 C 80.210 65.003,80.480 65.817,80.480 66.225 C 80.480 66.633,80.616 66.967,80.781 66.967 C 80.946 66.967,81.081 67.237,81.081 67.568 C 81.081 67.898,81.216 68.168,81.381 68.168 C 81.547 68.168,81.682 68.574,81.682 69.069 C 81.682 69.565,81.817 69.970,81.982 69.970 C 82.147 69.970,82.282 70.300,82.282 70.703 C 82.282 71.106,82.417 71.520,82.583 71.622 C 82.748 71.724,82.883 72.070,82.883 72.390 C 82.883 72.711,83.018 72.973,83.183 72.973 C 83.348 72.973,83.483 73.303,83.483 73.706 C 83.483 74.109,83.619 74.523,83.784 74.625 C 83.949 74.727,84.084 75.132,84.084 75.526 C 84.084 75.919,84.219 76.324,84.384 76.426 C 84.550 76.529,84.685 76.874,84.685 77.195 C 84.685 77.515,84.820 77.778,84.985 77.778 C 85.150 77.778,85.285 78.108,85.285 78.511 C 85.285 78.914,85.420 79.327,85.586 79.429 C 85.751 79.532,85.886 79.873,85.886 80.189 C 85.886 80.504,86.156 81.244,86.486 81.832 C 86.817 82.420,87.087 83.159,87.087 83.475 C 87.087 83.790,87.222 84.132,87.387 84.234 C 87.553 84.336,87.688 84.742,87.688 85.135 C 87.688 85.529,87.823 85.934,87.988 86.036 C 88.153 86.138,88.288 86.484,88.288 86.805 C 88.288 87.125,88.423 87.387,88.589 87.387 C 88.754 87.387,88.889 87.717,88.889 88.120 C 88.889 88.524,89.024 88.937,89.189 89.039 C 89.354 89.141,89.489 89.483,89.489 89.798 C 89.489 90.114,89.760 90.853,90.090 91.441 C 90.420 92.030,90.691 92.844,90.691 93.252 C 90.691 93.660,90.826 93.994,90.991 93.994 C 91.156 93.994,91.291 94.264,91.291 94.595 C 91.291 94.925,91.426 95.195,91.592 95.195 C 91.757 95.195,91.892 95.601,91.892 96.096 C 91.892 96.592,92.027 96.997,92.192 96.997 C 92.357 96.997,92.492 97.327,92.492 97.730 C 92.492 98.133,92.628 98.547,92.793 98.649 C 92.958 98.751,93.093 99.092,93.093 99.408 C 93.093 99.724,93.363 100.463,93.694 101.051 C 94.024 101.639,94.294 102.379,94.294 102.694 C 94.294 103.010,94.429 103.351,94.595 103.453 C 94.760 103.556,94.895 103.961,94.895 104.354 C 94.895 104.748,95.030 105.153,95.195 105.255 C 95.360 105.357,95.495 105.703,95.495 106.024 C 95.495 106.344,95.631 106.607,95.796 106.607 C 95.961 106.607,96.096 106.936,96.096 107.340 C 96.096 107.743,96.231 108.156,96.396 108.258 C 96.562 108.360,96.697 108.702,96.697 109.018 C 96.697 109.333,96.967 110.073,97.297 110.661 C 97.628 111.249,97.898 112.064,97.898 112.472 C 97.898 112.879,98.033 113.213,98.198 113.213 C 98.363 113.213,98.498 113.483,98.498 113.814 C 98.498 114.144,98.634 114.414,98.799 114.414 C 98.964 114.414,99.099 114.820,99.099 115.315 C 99.099 115.811,99.234 116.216,99.399 116.216 C 99.565 116.216,99.700 116.546,99.700 116.949 C 99.700 117.352,99.835 117.766,100.000 117.868 C 100.165 117.970,100.300 118.316,100.300 118.636 C 100.300 118.957,100.435 119.219,100.601 119.219 C 100.766 119.219,100.901 119.549,100.901 119.952 C 100.901 120.355,101.036 120.769,101.201 120.871 C 101.366 120.973,101.502 121.454,101.502 121.940 C 101.502 122.425,101.637 122.823,101.802 122.823 C 101.967 122.823,102.102 123.153,102.102 123.556 C 102.102 123.959,102.237 124.372,102.402 124.474 C 102.568 124.577,102.703 124.922,102.703 125.243 C 102.703 125.564,102.838 125.826,103.003 125.826 C 103.168 125.826,103.303 126.092,103.303 126.417 C 103.303 126.743,103.574 127.490,103.904 128.078 C 104.234 128.666,104.505 129.406,104.505 129.721 C 104.505 130.037,104.640 130.378,104.805 130.480 C 104.970 130.583,105.105 130.988,105.105 131.381 C 105.105 131.775,105.240 132.180,105.405 132.282 C 105.571 132.384,105.706 132.730,105.706 133.051 C 105.706 133.371,105.841 133.634,106.006 133.634 C 106.171 133.634,106.306 133.963,106.306 134.367 C 106.306 134.770,106.441 135.183,106.607 135.285 C 106.772 135.387,106.907 135.729,106.907 136.045 C 106.907 136.360,107.177 137.100,107.508 137.688 C 107.838 138.276,108.108 139.091,108.108 139.499 C 108.108 139.907,108.243 140.240,108.408 140.240 C 108.574 140.240,108.709 140.570,108.709 140.973 C 108.709 141.376,108.844 141.790,109.009 141.892 C 109.174 141.994,109.309 142.340,109.309 142.660 C 109.309 142.981,109.444 143.243,109.610 143.243 C 109.775 143.243,109.910 143.573,109.910 143.976 C 109.910 144.379,110.045 144.793,110.210 144.895 C 110.375 144.997,110.511 145.339,110.511 145.654 C 110.511 145.970,110.781 146.709,111.111 147.297 C 111.441 147.885,111.712 148.625,111.712 148.940 C 111.712 149.256,111.847 149.598,112.012 149.700 C 112.177 149.802,112.312 150.207,112.312 150.601 C 112.312 150.994,112.447 151.399,112.613 151.502 C 112.778 151.604,112.913 151.949,112.913 152.270 C 112.913 152.591,113.048 152.853,113.213 152.853 C 113.378 152.853,113.514 153.183,113.514 153.586 C 113.514 153.989,113.649 154.402,113.814 154.505 C 113.979 154.607,114.114 154.948,114.114 155.264 C 114.114 155.579,114.384 156.319,114.715 156.907 C 115.045 157.495,115.315 158.244,115.315 158.572 C 115.315 158.899,115.435 159.402,115.581 159.689 C 115.726 159.976,115.997 160.582,116.181 161.036 C 116.366 161.490,116.667 162.233,116.852 162.688 C 117.036 163.142,117.307 163.748,117.452 164.035 C 117.598 164.322,117.718 164.757,117.718 165.002 C 117.718 165.247,117.988 165.928,118.318 166.517 C 118.649 167.105,118.919 167.854,118.919 168.181 C 118.919 168.509,119.038 169.012,119.184 169.298 C 119.330 169.585,119.600 170.191,119.785 170.646 C 119.969 171.100,120.273 171.843,120.461 172.297 C 120.648 172.752,120.934 173.461,121.096 173.874 C 121.259 174.287,121.511 174.859,121.657 175.146 C 121.803 175.433,121.922 175.932,121.922 176.254 C 121.922 176.577,122.057 176.925,122.222 177.027 C 122.387 177.129,122.523 177.462,122.523 177.767 C 122.523 178.247,122.947 179.260,124.079 181.480 C 124.265 181.845,124.239 182.173,124.002 182.458 C 122.922 183.760,125.198 188.129,128.984 192.020 C 129.317 192.363,130.195 193.453,130.935 194.444 C 131.675 195.435,132.351 196.314,132.436 196.396 C 132.521 196.479,133.197 197.290,133.938 198.198 C 134.679 199.107,135.387 199.895,135.511 199.950 C 135.634 200.005,135.736 200.192,135.736 200.366 C 135.736 200.540,136.040 200.972,136.411 201.326 C 136.783 201.681,137.425 202.430,137.838 202.991 C 138.697 204.158,139.999 205.784,140.252 206.006 C 140.346 206.089,141.332 207.305,142.443 208.709 C 143.554 210.113,144.796 211.635,145.204 212.092 C 145.612 212.549,145.946 213.007,145.946 213.109 C 145.946 213.211,146.250 213.591,146.622 213.953 C 146.993 214.316,147.500 214.874,147.748 215.193 C 147.995 215.513,148.536 216.187,148.949 216.692 C 149.362 217.197,150.038 218.065,150.450 218.620 C 150.863 219.175,151.539 219.985,151.952 220.420 C 152.365 220.856,153.041 221.666,153.453 222.221 C 153.866 222.776,154.542 223.643,154.955 224.149 C 155.368 224.654,155.868 225.271,156.066 225.521 C 156.264 225.771,157.210 226.929,158.168 228.094 C 159.126 229.259,160.248 230.672,160.661 231.235 C 161.292 232.095,163.143 234.314,163.664 234.835 C 163.746 234.917,164.285 235.593,164.861 236.336 C 166.378 238.295,166.714 238.712,167.738 239.912 C 168.244 240.505,169.794 242.410,171.182 244.144 C 172.569 245.878,173.844 247.445,174.015 247.625 C 174.185 247.805,174.662 248.401,175.075 248.949 C 175.488 249.497,175.961 250.092,176.126 250.273 C 176.291 250.453,176.783 251.074,177.218 251.652 C 177.654 252.230,178.262 252.995,178.570 253.353 C 179.256 254.151,179.531 254.487,181.977 257.508 C 183.047 258.829,184.026 259.955,184.153 260.010 C 184.280 260.065,184.384 260.277,184.384 260.481 C 184.384 260.686,184.688 261.122,185.060 261.451 C 185.432 261.780,186.074 262.498,186.486 263.047 C 186.899 263.595,187.440 264.278,187.688 264.565 C 187.935 264.851,188.476 265.534,188.889 266.083 C 189.302 266.632,190.006 267.495,190.455 268.000 C 192.026 269.772,192.492 270.364,192.492 270.587 C 192.492 272.372,202.425 272.619,203.604 270.864 C 204.048 270.202,205.311 268.640,205.985 267.918 C 206.410 267.464,207.095 266.641,207.508 266.089 C 207.920 265.537,208.461 264.851,208.709 264.565 C 208.956 264.278,209.497 263.595,209.910 263.047 C 210.323 262.498,210.965 261.780,211.336 261.451 C 211.708 261.122,212.012 260.724,212.012 260.567 C 212.012 260.409,212.250 260.062,212.540 259.795 C 212.830 259.528,213.636 258.566,214.331 257.658 C 215.026 256.749,215.903 255.646,216.281 255.205 C 216.658 254.765,217.170 254.155,217.417 253.850 C 217.665 253.545,218.206 252.882,218.619 252.377 C 219.032 251.872,219.707 251.004,220.120 250.448 C 220.533 249.892,221.175 249.168,221.547 248.839 C 221.918 248.509,222.222 248.111,222.222 247.954 C 222.222 247.797,222.459 247.449,222.748 247.182 C 223.037 246.915,223.744 246.088,224.320 245.345 C 226.103 243.044,226.257 242.859,226.952 242.182 C 227.324 241.819,227.628 241.381,227.628 241.207 C 227.628 241.033,227.734 240.846,227.864 240.791 C 227.994 240.736,228.568 240.086,229.140 239.347 C 229.712 238.608,230.351 237.819,230.560 237.594 C 230.769 237.369,231.309 236.690,231.760 236.085 C 232.210 235.480,232.648 234.917,232.731 234.835 C 233.231 234.340,235.099 232.102,235.736 231.235 C 236.149 230.672,237.270 229.259,238.228 228.094 C 239.186 226.929,240.132 225.771,240.330 225.521 C 240.529 225.271,241.029 224.654,241.441 224.149 C 241.854 223.643,242.530 222.776,242.943 222.221 C 243.356 221.666,244.032 220.856,244.444 220.420 C 244.857 219.985,245.533 219.175,245.946 218.620 C 246.359 218.065,247.035 217.197,247.447 216.692 C 247.860 216.187,248.401 215.513,248.649 215.193 C 248.896 214.874,249.403 214.316,249.775 213.953 C 250.146 213.591,250.450 213.211,250.450 213.109 C 250.450 213.007,250.781 212.549,251.184 212.092 C 251.809 211.384,254.790 207.759,255.946 206.302 C 256.144 206.052,256.644 205.434,257.057 204.929 C 257.470 204.424,258.146 203.552,258.559 202.991 C 258.971 202.430,259.613 201.681,259.985 201.326 C 260.357 200.972,260.661 200.590,260.661 200.477 C 260.661 200.365,261.000 199.934,261.414 199.520 C 261.828 199.106,262.708 198.035,263.368 197.140 C 264.029 196.246,265.386 194.530,266.384 193.327 C 267.382 192.125,268.360 190.936,268.559 190.686 C 268.757 190.436,269.471 189.557,270.145 188.734 C 270.819 187.911,271.466 187.035,271.583 186.787 C 271.700 186.539,271.991 185.998,272.230 185.586 C 272.717 184.742,272.801 183.250,272.395 182.609 C 272.248 182.376,272.234 181.971,272.365 181.709 C 272.496 181.446,272.769 180.826,272.973 180.330 C 273.177 179.835,273.463 179.195,273.609 178.908 C 273.755 178.621,273.874 178.122,273.874 177.800 C 273.874 177.477,274.009 177.129,274.174 177.027 C 274.339 176.925,274.474 176.577,274.474 176.254 C 274.474 175.932,274.594 175.433,274.740 175.146 C 274.988 174.658,275.241 174.060,275.976 172.222 C 276.711 170.385,276.964 169.786,277.212 169.298 C 277.358 169.012,277.477 168.571,277.477 168.318 C 277.477 167.873,277.602 167.556,278.331 166.145 C 278.522 165.776,278.679 165.267,278.679 165.015 C 278.679 164.763,278.798 164.322,278.944 164.035 C 279.090 163.748,279.360 163.142,279.545 162.688 C 279.729 162.233,280.031 161.490,280.215 161.036 C 280.400 160.582,280.670 159.976,280.816 159.689 C 280.962 159.402,281.081 158.899,281.081 158.572 C 281.081 158.244,281.351 157.495,281.682 156.907 C 282.012 156.319,282.282 155.579,282.282 155.264 C 282.282 154.948,282.417 154.607,282.583 154.505 C 282.748 154.402,282.883 153.989,282.883 153.586 C 282.883 153.183,283.018 152.853,283.183 152.853 C 283.348 152.853,283.483 152.591,283.483 152.270 C 283.483 151.949,283.619 151.604,283.784 151.502 C 283.949 151.399,284.084 150.986,284.084 150.583 C 284.084 150.180,284.219 149.850,284.384 149.850 C 284.550 149.850,284.685 149.516,284.685 149.108 C 284.685 148.700,284.955 147.885,285.285 147.297 C 285.616 146.709,285.886 145.970,285.886 145.654 C 285.886 145.339,286.021 144.997,286.186 144.895 C 286.351 144.793,286.486 144.379,286.486 143.976 C 286.486 143.573,286.622 143.243,286.787 143.243 C 286.952 143.243,287.087 142.981,287.087 142.660 C 287.087 142.340,287.222 141.994,287.387 141.892 C 287.553 141.790,287.688 141.376,287.688 140.973 C 287.688 140.570,287.823 140.240,287.988 140.240 C 288.153 140.240,288.288 139.907,288.288 139.499 C 288.288 139.091,288.559 138.276,288.889 137.688 C 289.219 137.100,289.489 136.352,289.489 136.027 C 289.489 135.702,289.625 135.435,289.790 135.435 C 289.955 135.435,290.090 135.173,290.090 134.853 C 290.090 134.532,290.225 134.186,290.390 134.084 C 290.556 133.982,290.691 133.569,290.691 133.165 C 290.691 132.762,290.826 132.432,290.991 132.432 C 291.156 132.432,291.291 132.027,291.291 131.532 C 291.291 131.036,291.426 130.631,291.592 130.631 C 291.757 130.631,291.892 130.225,291.892 129.730 C 291.892 129.234,292.027 128.829,292.192 128.829 C 292.357 128.829,292.492 128.567,292.492 128.246 C 292.492 127.925,292.628 127.580,292.793 127.477 C 292.958 127.375,293.093 126.962,293.093 126.559 C 293.093 126.156,293.228 125.826,293.393 125.826 C 293.559 125.826,293.694 125.564,293.694 125.243 C 293.694 124.922,293.829 124.577,293.994 124.474 C 294.159 124.372,294.294 123.959,294.294 123.556 C 294.294 123.153,294.429 122.823,294.595 122.823 C 294.760 122.823,294.895 122.489,294.895 122.081 C 294.895 121.673,295.165 120.858,295.495 120.270 C 295.826 119.682,296.096 118.943,296.096 118.627 C 296.096 118.312,296.231 117.970,296.396 117.868 C 296.562 117.766,296.697 117.352,296.697 116.949 C 296.697 116.546,296.832 116.216,296.997 116.216 C 297.162 116.216,297.297 115.954,297.297 115.633 C 297.297 115.313,297.432 114.967,297.598 114.865 C 297.763 114.763,297.898 114.349,297.898 113.946 C 297.898 113.543,298.033 113.213,298.198 113.213 C 298.363 113.213,298.498 112.879,298.498 112.472 C 298.498 112.064,298.769 111.249,299.099 110.661 C 299.429 110.073,299.700 109.333,299.700 109.018 C 299.700 108.702,299.835 108.360,300.000 108.258 C 300.165 108.156,300.300 107.743,300.300 107.340 C 300.300 106.936,300.435 106.607,300.601 106.607 C 300.766 106.607,300.901 106.344,300.901 106.024 C 300.901 105.703,301.036 105.357,301.201 105.255 C 301.366 105.153,301.502 104.740,301.502 104.337 C 301.502 103.933,301.637 103.604,301.802 103.604 C 301.967 103.604,302.102 103.270,302.102 102.862 C 302.102 102.454,302.372 101.639,302.703 101.051 C 303.033 100.463,303.303 99.724,303.303 99.408 C 303.303 99.092,303.438 98.751,303.604 98.649 C 303.769 98.547,303.904 98.133,303.904 97.730 C 303.904 97.327,304.039 96.997,304.204 96.997 C 304.369 96.997,304.505 96.735,304.505 96.414 C 304.505 96.094,304.640 95.748,304.805 95.646 C 304.970 95.544,305.105 95.130,305.105 94.727 C 305.105 94.324,305.240 93.994,305.405 93.994 C 305.571 93.994,305.706 93.660,305.706 93.252 C 305.706 92.844,305.976 92.030,306.306 91.441 C 306.637 90.853,306.907 90.114,306.907 89.798 C 306.907 89.483,307.042 89.141,307.207 89.039 C 307.372 88.937,307.508 88.524,307.508 88.120 C 307.508 87.717,307.643 87.387,307.808 87.387 C 307.973 87.387,308.108 87.125,308.108 86.805 C 308.108 86.484,308.243 86.138,308.408 86.036 C 308.574 85.934,308.709 85.521,308.709 85.117 C 308.709 84.714,308.844 84.384,309.009 84.384 C 309.174 84.384,309.309 83.979,309.309 83.483 C 309.309 82.988,309.444 82.583,309.610 82.583 C 309.775 82.583,309.910 82.320,309.910 82.000 C 309.910 81.679,310.045 81.333,310.210 81.231 C 310.375 81.129,310.511 80.716,310.511 80.313 C 310.511 79.909,310.646 79.580,310.811 79.580 C 310.976 79.580,311.111 79.174,311.111 78.679 C 311.111 78.183,311.246 77.778,311.411 77.778 C 311.577 77.778,311.712 77.508,311.712 77.177 C 311.712 76.847,311.847 76.577,312.012 76.577 C 312.177 76.577,312.312 76.179,312.312 75.693 C 312.312 75.208,312.447 74.727,312.613 74.625 C 312.778 74.523,312.913 74.109,312.913 73.706 C 312.913 73.303,313.048 72.973,313.213 72.973 C 313.378 72.973,313.514 72.711,313.514 72.390 C 313.514 72.070,313.649 71.724,313.814 71.622 C 313.979 71.520,314.114 71.106,314.114 70.703 C 314.114 70.300,314.249 69.970,314.414 69.970 C 314.580 69.970,314.715 69.565,314.715 69.069 C 314.715 68.574,314.850 68.168,315.015 68.168 C 315.180 68.168,315.315 67.898,315.315 67.568 C 315.315 67.237,315.450 66.967,315.616 66.967 C 315.781 66.967,315.916 66.633,315.916 66.225 C 315.916 65.817,316.186 65.003,316.517 64.414 C 316.847 63.826,317.117 63.087,317.117 62.771 C 317.117 62.456,317.252 62.114,317.417 62.012 C 317.583 61.910,317.718 61.568,317.718 61.253 C 317.718 60.937,317.988 60.198,318.318 59.610 C 318.649 59.021,318.919 58.282,318.919 57.967 C 318.919 57.651,319.054 57.309,319.219 57.207 C 319.384 57.105,319.520 56.763,319.520 56.448 C 319.520 56.132,319.790 55.393,320.120 54.805 C 320.450 54.217,320.721 53.477,320.721 53.162 C 320.721 52.846,320.856 52.504,321.021 52.402 C 321.186 52.300,321.321 51.895,321.321 51.502 C 321.321 51.108,321.456 50.703,321.622 50.601 C 321.787 50.499,321.922 50.214,321.922 49.968 C 321.922 49.722,322.192 48.961,322.523 48.277 C 322.853 47.594,323.123 46.861,323.123 46.649 C 323.123 46.438,323.393 45.783,323.724 45.195 C 324.054 44.607,324.324 43.868,324.324 43.552 C 324.324 43.237,324.459 42.895,324.625 42.793 C 324.790 42.691,324.925 42.304,324.925 41.934 C 324.925 41.564,325.044 41.133,325.190 40.976 C 326.436 39.636,327.231 33.326,326.351 31.753 C 324.442 28.337,321.086 27.909,318.187 30.711 C 317.806 31.080,316.514 32.125,315.315 33.033 C 314.117 33.941,312.849 34.958,312.499 35.292 C 312.149 35.626,311.389 36.227,310.811 36.629 C 310.233 37.030,309.557 37.570,309.309 37.827 C 309.062 38.084,308.364 38.663,307.759 39.113 C 307.154 39.563,306.478 40.106,306.257 40.321 C 306.036 40.535,305.383 41.037,304.805 41.437 C 304.227 41.837,303.551 42.379,303.303 42.643 C 303.056 42.906,302.380 43.448,301.802 43.846 C 301.224 44.245,300.392 44.948,299.955 45.409 C 299.517 45.869,299.043 46.246,298.902 46.246 C 298.761 46.246,298.072 46.787,297.370 47.447 C 296.669 48.108,295.980 48.649,295.840 48.649 C 295.699 48.649,295.160 49.054,294.642 49.550 C 294.123 50.045,293.576 50.450,293.427 50.450 C 293.277 50.450,292.464 51.126,291.620 51.952 C 290.777 52.778,289.973 53.453,289.833 53.453 C 289.693 53.453,289.154 53.859,288.636 54.354 C 288.117 54.850,287.590 55.255,287.464 55.255 C 287.337 55.255,286.660 55.796,285.959 56.456 C 285.257 57.117,284.562 57.658,284.414 57.658 C 284.266 57.658,283.455 58.333,282.611 59.159 C 281.768 59.985,280.964 60.661,280.824 60.661 C 280.684 60.661,280.145 61.066,279.627 61.562 C 279.108 62.057,278.581 62.462,278.455 62.462 C 278.328 62.462,277.651 63.003,276.950 63.664 C 276.248 64.324,275.556 64.865,275.411 64.865 C 275.266 64.865,274.591 65.405,273.910 66.066 C 273.229 66.727,272.570 67.267,272.445 67.267 C 272.321 67.267,271.645 67.808,270.944 68.468 C 270.242 69.129,269.550 69.670,269.405 69.670 C 269.260 69.670,268.585 70.210,267.904 70.871 C 267.223 71.532,266.547 72.072,266.402 72.072 C 266.257 72.072,265.581 72.613,264.901 73.273 C 264.220 73.934,263.533 74.474,263.375 74.474 C 263.216 74.474,262.551 75.015,261.897 75.676 C 261.243 76.336,260.578 76.877,260.420 76.877 C 260.262 76.877,259.575 77.417,258.895 78.078 C 258.214 78.739,257.538 79.279,257.393 79.279 C 257.248 79.279,256.572 79.820,255.892 80.480 C 255.211 81.141,254.549 81.682,254.420 81.682 C 253.900 81.682,252.013 83.830,252.107 84.317 C 252.162 84.602,252.217 85.120,252.229 85.469 C 252.242 85.821,253.185 87.093,254.344 88.322 C 255.495 89.542,256.441 90.660,256.447 90.806 C 256.452 90.952,257.333 92.033,258.404 93.208 C 259.476 94.384,261.266 96.369,262.383 97.620 C 263.500 98.871,265.056 100.604,265.841 101.471 C 267.512 103.320,267.773 105.086,266.667 107.057 C 266.336 107.645,266.066 108.325,266.066 108.568 C 266.066 108.810,265.931 109.009,265.766 109.009 C 265.601 109.009,265.465 109.214,265.465 109.464 C 265.465 109.714,265.346 110.153,265.200 110.440 C 265.054 110.726,264.768 111.366,264.565 111.862 C 264.361 112.357,264.075 112.997,263.929 113.284 C 263.783 113.571,263.664 114.078,263.664 114.410 C 263.664 114.743,263.529 115.015,263.363 115.015 C 263.198 115.015,263.063 115.220,263.063 115.470 C 263.063 115.720,262.907 116.226,262.716 116.596 C 261.987 118.005,261.862 118.324,261.862 118.765 C 261.862 119.015,261.727 119.219,261.562 119.219 C 261.396 119.219,261.261 119.549,261.261 119.952 C 261.261 120.355,261.126 120.769,260.961 120.871 C 260.796 120.973,260.661 121.319,260.661 121.639 C 260.661 121.960,260.526 122.222,260.360 122.222 C 260.195 122.222,260.060 122.552,260.060 122.955 C 260.060 123.358,259.925 123.772,259.760 123.874 C 259.595 123.976,259.459 124.322,259.459 124.642 C 259.459 124.963,259.349 125.225,259.213 125.225 C 259.078 125.225,258.783 125.901,258.559 126.727 C 258.334 127.553,258.039 128.228,257.904 128.228 C 257.768 128.228,257.658 128.491,257.658 128.811 C 257.658 129.132,257.523 129.478,257.357 129.580 C 257.192 129.682,257.057 130.095,257.057 130.498 C 257.057 130.901,256.922 131.231,256.757 131.231 C 256.592 131.231,256.456 131.494,256.456 131.814 C 256.456 132.135,256.321 132.481,256.156 132.583 C 255.991 132.685,255.856 133.098,255.856 133.501 C 255.856 133.904,255.721 134.234,255.556 134.234 C 255.390 134.234,255.255 134.439,255.255 134.689 C 255.255 134.939,255.136 135.378,254.990 135.665 C 254.728 136.180,254.299 137.200,253.794 138.514 C 253.149 140.190,252.897 140.774,252.295 141.995 C 251.941 142.713,251.652 143.558,251.652 143.872 C 251.652 144.187,251.517 144.444,251.351 144.444 C 251.186 144.444,251.051 144.707,251.051 145.027 C 251.051 145.348,250.916 145.694,250.751 145.796 C 250.586 145.898,250.450 146.311,250.450 146.714 C 250.450 147.118,250.315 147.447,250.150 147.447 C 249.985 147.447,249.850 147.652,249.850 147.902 C 249.850 148.152,249.730 148.591,249.585 148.878 C 249.336 149.366,249.083 149.964,248.348 151.802 C 248.183 152.215,247.926 152.857,247.778 153.228 C 247.629 153.600,247.224 154.544,246.877 155.327 C 246.530 156.110,246.246 156.861,246.246 156.997 C 246.246 157.133,245.976 157.804,245.646 158.488 C 245.315 159.171,245.045 159.868,245.045 160.036 C 245.045 160.205,244.775 160.823,244.444 161.411 C 244.114 162.000,243.844 162.747,243.844 163.072 C 243.844 163.398,243.709 163.664,243.544 163.664 C 243.378 163.664,243.243 163.868,243.243 164.118 C 243.243 164.368,243.124 164.807,242.978 165.094 C 242.683 165.674,241.943 167.465,241.181 169.444 C 240.781 170.484,240.358 171.533,239.940 172.523 C 239.731 173.018,239.460 173.694,239.339 174.024 C 239.034 174.857,238.606 175.883,237.868 177.549 C 237.521 178.332,237.237 179.105,237.237 179.267 C 237.237 179.429,236.967 180.043,236.637 180.631 C 236.306 181.219,236.036 181.886,236.036 182.113 C 236.036 182.340,235.747 183.113,235.393 183.830 C 235.039 184.548,234.618 185.473,234.457 185.886 C 234.296 186.299,234.045 186.871,233.899 187.158 C 233.753 187.445,233.634 187.863,233.634 188.088 C 233.634 188.873,232.750 190.251,231.396 191.579 C 230.645 192.315,230.030 193.046,230.030 193.204 C 230.030 193.361,229.321 194.263,228.453 195.209 C 227.586 196.154,226.066 197.901,225.075 199.089 C 224.084 200.278,222.598 202.041,221.772 203.008 C 220.946 203.975,219.527 205.657,218.619 206.746 C 217.710 207.835,216.224 209.593,215.315 210.652 C 212.436 214.009,209.463 217.522,205.255 222.539 C 204.264 223.720,202.812 225.349,202.028 226.157 L 200.603 227.628 198.198 227.628 L 195.794 227.628 194.368 226.161 C 193.584 225.354,192.200 223.789,191.291 222.683 C 190.383 221.577,189.090 220.041,188.419 219.270 C 187.748 218.499,187.004 217.618,186.767 217.314 C 186.530 217.009,185.778 216.131,185.095 215.362 C 184.412 214.593,183.398 213.397,182.843 212.705 C 180.630 209.949,179.167 208.203,178.110 207.057 C 177.501 206.396,176.769 205.518,176.483 205.105 C 176.198 204.692,175.361 203.679,174.623 202.853 C 172.622 200.612,170.338 197.948,168.318 195.498 C 167.327 194.295,165.841 192.553,165.015 191.626 C 163.369 189.777,162.763 188.839,162.763 188.138 C 162.763 187.886,162.643 187.445,162.497 187.158 C 162.352 186.871,162.099 186.299,161.937 185.886 C 161.020 183.554,160.581 182.496,159.790 180.709 C 159.443 179.926,159.159 179.175,159.159 179.039 C 159.159 178.903,158.889 178.232,158.559 177.548 C 158.228 176.865,157.958 176.168,157.958 176.000 C 157.958 175.831,157.688 175.213,157.357 174.625 C 157.027 174.036,156.757 173.418,156.757 173.250 C 156.757 173.082,156.486 172.385,156.156 171.701 C 155.826 171.017,155.556 170.347,155.556 170.211 C 155.556 170.075,155.272 169.323,154.925 168.540 C 154.578 167.758,154.191 166.847,154.064 166.517 C 153.706 165.582,153.269 164.498,152.853 163.514 C 152.643 163.018,152.337 162.275,152.172 161.862 C 152.007 161.449,151.736 160.773,151.571 160.360 C 151.406 159.947,151.168 159.339,151.041 159.009 C 150.806 158.394,150.316 157.225,149.404 155.105 C 148.840 153.793,148.431 152.809,147.968 151.652 C 147.803 151.239,147.532 150.563,147.367 150.150 C 147.202 149.737,146.950 149.095,146.807 148.724 C 146.301 147.411,145.873 146.390,145.611 145.875 C 145.465 145.588,145.345 145.149,145.345 144.899 C 145.345 144.649,145.210 144.444,145.045 144.444 C 144.880 144.444,144.745 144.115,144.745 143.711 C 144.745 143.308,144.610 142.895,144.444 142.793 C 144.279 142.691,144.144 142.345,144.144 142.024 C 144.144 141.704,144.009 141.441,143.844 141.441 C 143.679 141.441,143.544 141.112,143.544 140.708 C 143.544 140.305,143.408 139.892,143.243 139.790 C 143.078 139.688,142.943 139.342,142.943 139.021 C 142.943 138.701,142.808 138.438,142.643 138.438 C 142.477 138.438,142.342 138.234,142.342 137.984 C 142.342 137.734,142.223 137.295,142.077 137.008 C 141.777 136.417,141.169 134.980,140.841 134.084 C 140.513 133.188,139.905 131.751,139.605 131.160 C 139.459 130.873,139.339 130.367,139.339 130.034 C 139.339 129.702,139.204 129.429,139.039 129.429 C 138.874 129.429,138.739 129.225,138.739 128.975 C 138.739 128.725,138.619 128.286,138.473 127.999 C 138.328 127.712,138.071 127.140,137.903 126.727 C 137.735 126.314,137.314 125.336,136.967 124.553 C 136.620 123.770,136.336 122.925,136.336 122.676 C 136.336 122.426,136.226 122.222,136.090 122.222 C 135.955 122.222,135.660 121.547,135.435 120.721 C 135.211 119.895,134.916 119.219,134.781 119.219 C 134.645 119.219,134.535 118.957,134.535 118.636 C 134.535 118.316,134.399 117.970,134.234 117.868 C 134.069 117.766,133.934 117.352,133.934 116.949 C 133.934 116.546,133.799 116.216,133.634 116.216 C 133.468 116.216,133.333 116.012,133.333 115.762 C 133.333 115.512,133.214 115.073,133.068 114.786 C 132.768 114.195,132.160 112.758,131.832 111.862 C 131.448 110.814,131.022 109.816,130.063 107.719 C 128.699 104.739,128.773 103.431,130.405 101.666 C 131.107 100.907,132.695 99.128,133.934 97.714 C 135.173 96.299,137.011 94.241,138.020 93.141 C 139.028 92.041,139.974 90.922,140.122 90.654 C 140.270 90.386,141.220 89.271,142.233 88.175 C 144.101 86.157,144.563 85.074,144.094 83.807 C 143.857 83.166,142.392 81.709,141.967 81.691 C 141.844 81.686,141.185 81.141,140.505 80.480 C 139.824 79.820,139.148 79.279,139.003 79.279 C 138.858 79.279,138.182 78.739,137.502 78.078 C 136.821 77.417,136.134 76.877,135.976 76.877 C 135.818 76.877,135.153 76.336,134.499 75.676 C 133.845 75.015,133.180 74.474,133.022 74.474 C 132.863 74.474,132.176 73.934,131.496 73.273 C 130.815 72.613,130.139 72.072,129.994 72.072 C 129.849 72.072,129.173 71.532,128.493 70.871 C 127.812 70.210,127.136 69.670,126.991 69.670 C 126.847 69.670,126.154 69.129,125.453 68.468 C 124.751 67.808,124.076 67.267,123.951 67.267 C 123.826 67.267,123.167 66.727,122.487 66.066 C 121.806 65.405,121.130 64.865,120.985 64.865 C 120.841 64.865,120.148 64.324,119.447 63.664 C 118.745 63.003,118.051 62.462,117.905 62.462 C 117.758 62.462,117.419 62.220,117.152 61.923 C 116.885 61.626,116.194 61.052,115.616 60.648 C 115.038 60.244,114.042 59.405,113.402 58.785 C 112.763 58.165,112.121 57.658,111.976 57.658 C 111.831 57.658,111.139 57.117,110.438 56.456 C 109.736 55.796,109.059 55.255,108.933 55.255 C 108.807 55.255,108.279 54.850,107.761 54.354 C 107.242 53.859,106.703 53.453,106.564 53.453 C 106.424 53.453,105.619 52.778,104.776 51.952 C 103.933 51.126,103.120 50.450,102.970 50.450 C 102.820 50.450,102.273 50.045,101.755 49.550 C 101.236 49.054,100.697 48.649,100.556 48.649 C 100.416 48.649,99.744 48.108,99.063 47.447 C 98.382 46.787,97.707 46.246,97.563 46.246 C 97.418 46.246,96.610 45.571,95.767 44.745 C 94.924 43.919,94.094 43.243,93.924 43.243 C 93.753 43.243,93.395 43.000,93.128 42.703 C 92.861 42.407,92.170 41.840,91.592 41.445 C 91.014 41.050,90.168 40.347,89.712 39.883 C 89.256 39.419,88.770 39.039,88.631 39.039 C 88.491 39.039,87.986 38.666,87.507 38.210 C 87.028 37.754,86.164 37.047,85.586 36.640 C 85.008 36.232,84.248 35.626,83.897 35.292 C 83.547 34.958,82.280 33.941,81.081 33.033 C 79.883 32.125,78.590 31.080,78.209 30.711 C 76.434 28.995,74.026 28.388,72.450 29.260 " stroke="none" fill="#fbfbfc" fill-rule="evenodd"></path><path id="path1" d="M196.017 25.733 C 195.726 25.809,195.548 25.968,195.621 26.087 C 195.694 26.205,195.459 26.323,195.099 26.349 C 194.499 26.393,193.731 27.107,192.456 28.808 C 192.187 29.165,191.309 30.183,190.504 31.070 C 187.906 33.929,185.747 36.415,185.301 37.060 C 185.062 37.405,184.454 38.109,183.950 38.624 C 183.446 39.138,182.425 40.269,181.682 41.136 C 180.938 42.003,179.841 43.241,179.243 43.887 C 178.644 44.533,177.833 45.484,177.441 45.999 C 177.048 46.514,176.389 47.306,175.976 47.758 C 175.214 48.592,173.211 50.842,171.928 52.304 C 171.541 52.745,171.303 53.184,171.398 53.280 C 171.493 53.375,171.346 53.453,171.071 53.453 C 170.796 53.453,170.570 53.555,170.569 53.679 C 170.568 53.803,169.994 54.534,169.293 55.304 C 166.966 57.858,164.720 60.447,164.278 61.084 C 164.038 61.429,163.495 62.050,163.071 62.462 C 162.647 62.875,161.560 64.092,160.655 65.165 C 159.750 66.239,158.941 67.185,158.859 67.267 C 158.776 67.350,157.830 68.429,156.756 69.665 C 155.683 70.901,154.535 72.206,154.204 72.565 C 153.874 72.924,153.131 73.781,152.553 74.470 C 151.974 75.159,151.029 76.235,150.450 76.861 C 149.872 77.487,148.828 78.659,148.130 79.465 C 144.514 83.642,144.644 83.439,144.590 84.976 C 144.544 86.297,144.401 86.569,143.057 87.886 C 142.242 88.685,141.243 89.812,140.838 90.390 C 140.432 90.968,139.673 91.871,139.151 92.395 C 138.630 92.920,137.819 93.866,137.349 94.497 C 136.880 95.129,135.683 96.500,134.690 97.545 C 133.696 98.590,132.767 99.651,132.625 99.904 C 132.483 100.157,131.706 101.039,130.898 101.864 C 129.194 103.605,129.032 104.543,130.073 106.653 C 130.426 107.371,130.814 108.228,130.933 108.559 C 131.053 108.889,131.304 109.531,131.491 109.985 C 131.679 110.439,131.967 111.149,132.132 111.562 C 132.297 111.974,132.586 112.684,132.773 113.138 C 132.960 113.592,133.217 114.234,133.344 114.565 C 133.470 114.895,133.858 115.806,134.204 116.588 C 134.551 117.371,134.835 118.216,134.835 118.465 C 134.835 118.715,134.970 118.919,135.135 118.919 C 135.300 118.919,135.435 119.181,135.435 119.502 C 135.435 119.822,135.571 120.168,135.736 120.270 C 135.901 120.372,136.036 120.786,136.036 121.189 C 136.036 121.592,136.171 121.922,136.336 121.922 C 136.502 121.922,136.637 122.126,136.637 122.376 C 136.637 122.626,136.756 123.066,136.902 123.352 C 137.164 123.868,137.592 124.888,138.098 126.201 C 138.429 127.061,138.866 128.153,139.299 129.204 C 139.486 129.658,139.775 130.368,139.940 130.781 C 140.105 131.194,140.393 131.903,140.581 132.357 C 140.768 132.812,141.025 133.453,141.151 133.784 C 141.278 134.114,141.665 135.025,142.012 135.808 C 142.359 136.590,142.643 137.355,142.643 137.506 C 142.643 137.657,142.932 138.368,143.286 139.086 C 143.640 139.803,144.063 140.728,144.227 141.141 C 144.391 141.554,144.660 142.230,144.825 142.643 C 144.990 143.056,145.261 143.731,145.426 144.144 C 145.591 144.557,145.843 145.199,145.986 145.571 C 146.129 145.942,146.381 146.584,146.547 146.997 C 146.712 147.410,146.982 148.086,147.147 148.498 C 147.312 148.911,147.563 149.553,147.705 149.925 C 147.847 150.297,148.252 151.188,148.606 151.905 C 148.960 152.623,149.249 153.396,149.249 153.623 C 149.249 153.850,149.492 154.479,149.788 155.021 C 150.084 155.563,150.540 156.547,150.802 157.207 C 152.383 161.204,157.715 174.424,157.947 174.925 C 158.701 176.553,159.459 178.366,159.459 178.542 C 159.459 178.650,159.656 179.164,159.895 179.684 C 160.582 181.176,162.941 187.115,163.362 188.414 C 163.572 189.061,164.503 190.436,165.430 191.470 C 166.358 192.504,167.860 194.241,168.769 195.330 C 171.660 198.796,175.688 203.556,178.679 207.041 C 179.587 208.099,181.074 209.858,181.982 210.948 C 182.890 212.038,184.377 213.795,185.285 214.852 C 186.194 215.909,187.680 217.668,188.589 218.761 C 189.497 219.855,190.853 221.452,191.602 222.312 C 192.351 223.171,193.475 224.516,194.099 225.300 C 194.724 226.085,195.429 226.727,195.666 226.727 C 195.902 226.727,196.096 226.862,196.096 227.027 C 196.096 227.199,196.997 227.327,198.198 227.327 C 199.399 227.327,200.300 227.199,200.300 227.027 C 200.300 226.862,200.487 226.727,200.716 226.727 C 200.944 226.727,201.622 226.152,202.223 225.450 C 202.823 224.748,203.886 223.516,204.585 222.711 C 205.284 221.906,205.982 221.027,206.135 220.759 C 206.289 220.490,207.016 219.634,207.750 218.856 C 208.485 218.078,209.299 217.132,209.559 216.754 C 209.819 216.376,210.630 215.430,211.361 214.652 C 212.092 213.874,212.898 212.928,213.153 212.550 C 213.407 212.171,214.235 211.166,214.991 210.316 C 215.747 209.466,216.560 208.521,216.797 208.214 C 217.034 207.908,217.778 207.027,218.449 206.256 C 219.120 205.485,220.413 203.960,221.321 202.868 C 223.031 200.814,225.198 198.300,227.757 195.402 C 228.571 194.480,229.374 193.482,229.540 193.184 C 229.707 192.887,230.493 192.010,231.288 191.236 C 232.083 190.462,232.733 189.617,232.733 189.359 C 232.733 189.100,232.868 188.889,233.033 188.889 C 233.198 188.889,233.333 188.549,233.333 188.134 C 233.333 187.719,233.453 187.145,233.599 186.858 C 233.744 186.571,234.001 185.998,234.169 185.586 C 234.337 185.173,234.758 184.194,235.105 183.412 C 235.452 182.629,235.736 181.877,235.736 181.741 C 235.736 181.605,236.006 180.935,236.336 180.251 C 236.667 179.567,236.937 178.879,236.937 178.722 C 236.937 178.564,237.226 177.848,237.580 177.130 C 237.934 176.413,238.339 175.522,238.481 175.150 C 238.623 174.779,238.874 174.137,239.039 173.724 C 239.204 173.311,239.474 172.635,239.640 172.222 C 239.805 171.809,240.093 171.100,240.280 170.646 C 240.468 170.191,240.738 169.516,240.881 169.144 C 241.024 168.773,241.276 168.131,241.441 167.718 C 241.607 167.305,241.863 166.663,242.012 166.291 C 242.161 165.920,242.566 164.975,242.913 164.192 C 243.260 163.410,243.544 162.637,243.544 162.475 C 243.544 162.313,243.814 161.699,244.144 161.111 C 244.474 160.523,244.745 159.847,244.745 159.610 C 244.745 159.372,245.015 158.696,245.345 158.108 C 245.676 157.520,245.946 156.853,245.946 156.626 C 245.946 156.399,246.235 155.626,246.589 154.908 C 246.943 154.191,247.348 153.300,247.490 152.928 C 247.632 152.556,247.883 151.914,248.048 151.502 C 248.213 151.089,248.483 150.413,248.649 150.000 C 248.814 149.587,249.102 148.878,249.289 148.423 C 249.477 147.969,249.728 147.327,249.847 146.997 C 249.967 146.667,250.354 145.809,250.708 145.092 C 251.062 144.374,251.351 143.601,251.351 143.374 C 251.351 143.147,251.622 142.480,251.952 141.892 C 252.282 141.304,252.553 140.556,252.553 140.231 C 252.553 139.906,252.688 139.640,252.853 139.640 C 253.018 139.640,253.153 139.435,253.153 139.185 C 253.153 138.935,253.273 138.496,253.418 138.209 C 253.681 137.694,254.109 136.673,254.614 135.360 C 255.048 134.234,255.611 132.913,255.891 132.361 C 256.037 132.075,256.156 131.635,256.156 131.385 C 256.156 131.135,256.291 130.931,256.456 130.931 C 256.622 130.931,256.757 130.601,256.757 130.198 C 256.757 129.795,256.892 129.381,257.057 129.279 C 257.222 129.177,257.357 128.831,257.357 128.511 C 257.357 128.190,257.492 127.928,257.658 127.928 C 257.823 127.928,257.958 127.598,257.958 127.195 C 257.958 126.792,258.093 126.378,258.258 126.276 C 258.423 126.174,258.559 125.828,258.559 125.508 C 258.559 125.187,258.694 124.925,258.859 124.925 C 259.024 124.925,259.159 124.720,259.159 124.470 C 259.159 124.220,259.279 123.781,259.424 123.494 C 259.719 122.915,260.459 121.124,261.221 119.144 C 261.655 118.017,262.217 116.696,262.497 116.145 C 262.643 115.858,262.763 115.419,262.763 115.169 C 262.763 114.919,262.898 114.715,263.063 114.715 C 263.228 114.715,263.363 114.385,263.363 113.982 C 263.363 113.579,263.498 113.165,263.664 113.063 C 263.829 112.961,263.964 112.615,263.964 112.295 C 263.964 111.974,264.099 111.712,264.264 111.712 C 264.429 111.712,264.565 111.382,264.565 110.979 C 264.565 110.576,264.700 110.162,264.865 110.060 C 265.030 109.958,265.165 109.612,265.165 109.292 C 265.165 108.971,265.300 108.709,265.465 108.709 C 265.631 108.709,265.766 108.510,265.766 108.267 C 265.766 108.025,266.036 107.345,266.366 106.757 C 267.357 104.993,267.178 103.413,265.841 102.126 C 265.221 101.530,264.326 100.523,263.850 99.889 C 263.374 99.255,262.428 98.174,261.748 97.486 C 261.067 96.798,260.150 95.755,259.710 95.169 C 259.270 94.582,258.156 93.316,257.233 92.356 C 256.310 91.396,255.556 90.486,255.556 90.333 C 255.556 90.181,254.760 89.276,253.789 88.323 C 252.038 86.604,251.104 84.458,251.894 83.970 C 252.050 83.873,251.620 83.201,250.939 82.476 C 250.257 81.750,249.092 80.448,248.348 79.581 C 247.605 78.715,246.659 77.633,246.246 77.177 C 245.833 76.722,244.887 75.649,244.144 74.794 C 243.401 73.938,242.276 72.672,241.644 71.980 C 241.012 71.287,240.134 70.254,239.692 69.683 C 239.250 69.112,238.551 68.301,238.138 67.881 C 237.725 67.461,236.647 66.239,235.742 65.165 C 234.837 64.092,233.749 62.875,233.325 62.462 C 232.901 62.050,232.358 61.426,232.118 61.078 C 231.722 60.503,230.800 59.431,227.177 55.337 C 226.517 54.591,225.503 53.464,224.925 52.833 C 224.347 52.203,223.401 51.122,222.823 50.433 C 222.245 49.743,221.434 48.803,221.021 48.342 C 220.608 47.882,219.797 46.939,219.219 46.247 C 218.641 45.555,217.761 44.563,217.264 44.041 C 216.767 43.520,216.000 42.620,215.561 42.042 C 215.121 41.464,214.028 40.232,213.132 39.305 C 212.236 38.378,211.313 37.349,211.082 37.018 C 210.850 36.688,209.985 35.665,209.159 34.745 C 208.333 33.826,207.158 32.490,206.548 31.777 C 205.938 31.064,204.992 29.994,204.446 29.398 C 203.900 28.803,203.185 27.958,202.856 27.521 C 201.675 25.948,198.438 25.102,196.017 25.733 M211.792 74.455 C 212.904 75.105,214.287 75.808,214.864 76.017 C 217.204 76.863,218.318 79.069,218.318 82.857 C 218.318 84.524,218.609 84.991,221.597 88.138 C 224.953 91.673,235.163 102.630,236.621 104.263 C 238.223 106.057,239.361 106.441,242.342 106.192 C 246.182 105.872,246.903 106.623,248.178 112.278 C 249.964 120.198,249.968 120.191,240.657 128.253 C 228.418 138.850,225.845 141.144,225.519 141.754 C 224.596 143.479,222.555 143.603,218.134 142.202 C 213.292 140.669,212.821 140.046,212.456 134.687 L 212.232 131.399 210.409 129.363 C 208.260 126.963,207.967 126.911,206.363 128.651 C 205.252 129.857,204.968 130.497,204.375 133.122 C 204.271 133.583,203.623 134.462,202.935 135.074 C 202.248 135.686,195.788 142.043,188.580 149.200 C 172.916 164.757,175.253 162.994,169.269 163.773 C 163.463 164.530,162.767 164.040,160.112 157.320 C 157.452 150.586,157.437 150.651,162.763 145.138 C 164.662 143.171,170.996 136.597,176.838 130.530 C 188.484 118.434,188.035 118.785,192.150 118.550 C 195.145 118.379,196.455 117.816,196.635 116.621 C 196.731 115.981,192.728 111.113,192.101 111.108 C 191.259 111.102,185.058 107.806,184.234 106.927 L 183.333 105.966 183.347 102.007 C 183.362 97.476,183.689 96.630,186.233 94.545 C 186.963 93.947,188.501 92.467,189.651 91.255 C 190.801 90.043,193.850 86.887,196.426 84.241 C 199.003 81.594,202.227 78.213,203.590 76.727 C 207.307 72.675,208.283 72.405,211.792 74.455 " stroke="none" fill="#1da3eb" fill-rule="evenodd"></path><path id="path2" d="M206.713 73.659 C 206.359 73.860,204.954 75.240,203.590 76.727 C 202.227 78.213,199.003 81.594,196.426 84.241 C 193.850 86.887,190.801 90.043,189.651 91.255 C 188.501 92.467,186.963 93.947,186.233 94.545 C 183.689 96.630,183.362 97.476,183.347 102.007 L 183.333 105.966 184.234 106.927 C 185.058 107.806,191.259 111.102,192.101 111.108 C 192.728 111.113,196.731 115.981,196.635 116.621 C 196.455 117.816,195.145 118.379,192.150 118.550 C 188.035 118.785,188.484 118.434,176.838 130.530 C 170.996 136.597,164.662 143.171,162.763 145.138 C 157.437 150.651,157.452 150.586,160.112 157.320 C 162.767 164.040,163.463 164.530,169.269 163.773 C 175.253 162.994,172.916 164.757,188.580 149.200 C 195.788 142.043,202.248 135.686,202.935 135.074 C 203.623 134.462,204.271 133.583,204.375 133.122 C 204.968 130.497,205.252 129.857,206.363 128.651 C 207.967 126.911,208.260 126.963,210.409 129.363 L 212.232 131.399 212.456 134.687 C 212.821 140.046,213.292 140.669,218.134 142.202 C 222.555 143.603,224.596 143.479,225.519 141.754 C 225.845 141.144,228.418 138.850,240.657 128.253 C 249.968 120.191,249.964 120.198,248.178 112.278 C 246.903 106.623,246.182 105.872,242.342 106.192 C 239.361 106.441,238.223 106.057,236.621 104.263 C 235.163 102.630,224.953 91.673,221.597 88.138 C 218.609 84.991,218.318 84.524,218.318 82.857 C 218.318 79.069,217.204 76.863,214.864 76.017 C 214.287 75.808,212.904 75.105,211.792 74.455 C 209.644 73.200,207.983 72.940,206.713 73.659 " stroke="none" fill="#234c65" fill-rule="evenodd"></path><path id="path3" d="M144.144 85.361 C 144.144 85.753,143.853 86.402,143.497 86.805 C 143.141 87.208,142.296 88.153,141.620 88.905 C 140.944 89.657,141.281 89.377,142.368 88.282 C 144.279 86.361,144.984 85.168,144.416 84.817 C 144.267 84.725,144.144 84.970,144.144 85.361 M252.487 86.637 C 252.664 86.967,253.562 87.976,254.482 88.879 C 255.403 89.781,256.156 90.649,256.156 90.807 C 256.156 90.964,257.001 92.004,258.033 93.117 C 259.065 94.230,260.923 96.301,262.162 97.719 C 263.401 99.136,264.989 100.910,265.691 101.661 C 267.213 103.290,267.440 105.146,266.351 107.084 C 266.013 107.687,265.794 108.400,265.866 108.670 C 265.980 109.099,266.001 109.096,266.031 108.643 C 266.050 108.359,266.336 107.645,266.667 107.057 C 267.773 105.086,267.512 103.320,265.841 101.471 C 265.056 100.604,263.500 98.871,262.383 97.620 C 261.266 96.369,259.476 94.384,258.404 93.208 C 257.333 92.033,256.452 90.952,256.447 90.806 C 256.441 90.660,255.476 89.527,254.301 88.288 C 253.127 87.050,252.311 86.306,252.487 86.637 M137.988 93.163 C 136.832 94.462,135.008 96.513,133.934 97.721 C 132.860 98.929,131.340 100.626,130.556 101.492 C 129.213 102.973,129.132 103.158,129.185 104.611 L 129.240 106.156 129.350 104.598 C 129.444 103.255,129.634 102.853,130.721 101.689 C 131.414 100.946,132.995 99.169,134.234 97.740 C 135.473 96.311,137.353 94.207,138.413 93.066 C 139.473 91.924,140.283 90.948,140.215 90.895 C 140.146 90.843,139.144 91.864,137.988 93.163 M130.102 107.733 C 130.449 108.464,131.042 109.844,131.231 110.360 C 131.352 110.691,131.604 111.333,131.792 111.787 C 131.979 112.241,132.283 112.984,132.467 113.438 C 132.652 113.893,132.922 114.499,133.068 114.786 C 133.214 115.073,133.344 115.545,133.357 115.837 C 133.373 116.197,133.432 116.237,133.542 115.961 C 133.631 115.739,133.535 115.198,133.328 114.760 C 133.122 114.322,132.836 113.660,132.693 113.288 C 132.549 112.917,132.279 112.241,132.092 111.787 C 131.905 111.333,131.648 110.691,131.522 110.360 C 130.976 108.931,130.290 107.508,130.148 107.508 C 130.064 107.508,130.043 107.609,130.102 107.733 M264.464 111.269 C 263.823 113.119,263.735 113.505,263.989 113.348 C 264.141 113.254,264.264 112.942,264.264 112.655 C 264.264 112.367,264.415 111.982,264.598 111.798 C 264.782 111.614,264.873 111.287,264.801 111.070 C 264.715 110.811,264.600 110.879,264.464 111.269 M262.786 115.394 C 262.763 115.908,262.640 116.225,261.909 117.639 C 261.718 118.008,261.572 118.548,261.585 118.840 C 261.604 119.247,261.643 119.266,261.757 118.919 C 261.948 118.340,262.373 117.310,262.798 116.396 C 262.982 115.999,263.060 115.493,262.972 115.270 C 262.862 114.994,262.803 115.034,262.786 115.394 M133.958 117.024 C 133.945 117.386,134.069 117.766,134.234 117.868 C 134.399 117.970,134.545 118.350,134.558 118.711 C 134.572 119.090,134.650 119.198,134.743 118.964 C 134.832 118.742,134.764 118.269,134.591 117.913 C 134.419 117.558,134.211 117.065,134.130 116.817 C 134.036 116.532,133.973 116.609,133.958 117.024 M135.153 119.520 C 135.148 119.767,135.339 120.511,135.577 121.171 C 135.815 121.832,136.014 122.170,136.018 121.922 C 136.023 121.674,135.832 120.931,135.594 120.270 C 135.356 119.610,135.158 119.272,135.153 119.520 M260.985 120.027 C 260.972 120.389,260.826 120.769,260.661 120.871 C 260.495 120.973,260.371 121.353,260.384 121.714 C 260.399 122.130,260.462 122.206,260.556 121.922 C 260.638 121.674,260.846 121.181,261.018 120.825 C 261.190 120.470,261.258 119.997,261.170 119.774 C 261.077 119.541,260.998 119.648,260.985 120.027 M136.350 122.563 C 136.342 122.833,136.534 123.509,136.775 124.065 C 137.342 125.371,137.356 124.829,136.795 123.273 C 136.557 122.613,136.357 122.293,136.350 122.563 M259.783 123.030 C 259.770 123.392,259.625 123.772,259.459 123.874 C 259.294 123.976,259.170 124.356,259.183 124.717 C 259.198 125.133,259.261 125.209,259.355 124.925 C 259.437 124.677,259.644 124.184,259.817 123.828 C 259.989 123.473,260.057 123.000,259.969 122.777 C 259.876 122.544,259.797 122.651,259.783 123.030 M137.561 125.605 C 137.538 126.116,137.645 126.405,138.392 127.849 C 138.583 128.218,138.749 128.759,138.762 129.050 C 138.779 129.411,138.838 129.450,138.947 129.175 C 139.036 128.952,138.976 128.479,138.814 128.124 C 138.343 127.092,137.894 126.012,137.733 125.526 C 137.619 125.179,137.579 125.197,137.561 125.605 M258.316 126.530 C 258.119 127.075,257.964 127.713,257.972 127.949 C 257.980 128.185,258.192 127.791,258.444 127.073 C 258.695 126.355,258.850 125.717,258.787 125.654 C 258.725 125.592,258.513 125.986,258.316 126.530 M257.381 128.736 C 257.368 129.098,257.222 129.478,257.057 129.580 C 256.892 129.682,256.772 130.129,256.792 130.573 C 256.817 131.174,256.860 131.227,256.957 130.781 C 257.029 130.450,257.232 129.889,257.408 129.534 C 257.584 129.179,257.655 128.706,257.566 128.483 C 257.473 128.250,257.395 128.357,257.381 128.736 M139.363 130.109 C 139.350 130.400,139.459 130.873,139.605 131.160 C 139.885 131.711,140.447 133.033,140.881 134.159 C 141.024 134.531,141.258 135.139,141.401 135.511 C 141.544 135.882,141.805 136.524,141.980 136.937 C 142.155 137.350,142.365 137.890,142.447 138.138 C 142.561 138.485,142.601 138.467,142.619 138.059 C 142.632 137.768,142.523 137.295,142.377 137.008 C 142.231 136.721,141.961 136.115,141.777 135.661 C 141.592 135.206,141.288 134.463,141.101 134.009 C 140.914 133.555,140.662 132.913,140.541 132.583 C 140.420 132.252,140.177 131.644,140.002 131.231 C 139.827 130.818,139.617 130.278,139.535 130.030 C 139.421 129.683,139.381 129.701,139.363 130.109 M256.180 131.739 C 256.167 132.101,256.021 132.481,255.856 132.583 C 255.691 132.685,255.571 133.132,255.590 133.576 C 255.616 134.177,255.659 134.230,255.756 133.784 C 255.828 133.453,256.031 132.892,256.207 132.537 C 256.382 132.182,256.454 131.709,256.365 131.486 C 256.272 131.253,256.194 131.360,256.180 131.739 M254.855 134.993 C 254.213 136.843,254.125 137.229,254.380 137.071 C 254.531 136.978,254.655 136.666,254.655 136.379 C 254.655 136.091,254.805 135.706,254.989 135.522 C 255.172 135.338,255.264 135.010,255.192 134.794 C 255.105 134.535,254.990 134.603,254.855 134.993 M253.494 138.530 C 253.279 139.058,252.979 139.794,252.828 140.165 C 252.549 140.849,251.920 142.304,251.723 142.718 C 251.664 142.842,251.685 142.943,251.770 142.943 C 251.911 142.943,252.512 141.699,253.184 140.015 C 253.332 139.643,253.611 139.002,253.804 138.589 C 253.997 138.176,254.095 137.778,254.021 137.704 C 253.947 137.630,253.710 138.002,253.494 138.530 M145.369 144.952 C 145.356 145.314,145.480 145.694,145.646 145.796 C 145.811 145.898,145.957 146.277,145.970 146.639 C 145.983 147.018,146.062 147.125,146.155 146.892 C 146.243 146.670,146.175 146.197,146.003 145.841 C 145.831 145.486,145.623 144.992,145.541 144.745 C 145.447 144.460,145.384 144.537,145.369 144.952 M146.570 147.827 C 146.557 148.118,146.666 148.591,146.812 148.878 C 147.092 149.429,147.654 150.750,148.088 151.877 C 148.573 153.135,148.886 153.901,149.363 154.988 C 149.624 155.584,149.967 156.395,150.125 156.790 C 150.283 157.184,150.421 157.337,150.431 157.129 C 150.442 156.921,150.167 156.110,149.820 155.327 C 149.473 154.544,149.068 153.600,148.919 153.228 C 148.770 152.857,148.495 152.181,148.308 151.727 C 148.121 151.273,147.869 150.631,147.748 150.300 C 147.627 149.970,147.384 149.362,147.209 148.949 C 147.034 148.536,146.824 147.995,146.742 147.748 C 146.628 147.401,146.589 147.419,146.570 147.827 M249.573 147.955 C 249.560 148.317,249.414 148.697,249.249 148.799 C 249.084 148.901,248.960 149.280,248.973 149.642 C 248.988 150.058,249.051 150.134,249.145 149.850 C 249.226 149.602,249.434 149.109,249.606 148.753 C 249.779 148.398,249.847 147.925,249.758 147.702 C 249.665 147.469,249.587 147.576,249.573 147.955 M248.372 150.830 C 248.359 151.121,248.229 151.594,248.083 151.881 C 247.937 152.168,247.651 152.808,247.447 153.303 C 247.244 153.799,246.958 154.439,246.812 154.726 C 246.666 155.012,246.550 155.418,246.553 155.627 C 246.560 155.977,247.142 154.840,247.780 153.228 C 247.928 152.857,248.199 152.228,248.383 151.831 C 248.568 151.435,248.646 150.928,248.557 150.705 C 248.447 150.429,248.388 150.469,248.372 150.830 M246.054 156.682 C 245.959 156.971,245.625 157.780,245.313 158.480 C 245.000 159.180,244.745 159.949,244.745 160.189 C 244.745 160.429,244.626 160.699,244.481 160.788 C 244.224 160.947,243.799 162.162,244.000 162.162 C 244.147 162.162,245.045 160.313,245.045 160.011 C 245.045 159.869,245.301 159.180,245.613 158.480 C 246.335 156.862,246.567 156.156,246.378 156.156 C 246.295 156.156,246.149 156.393,246.054 156.682 M150.774 158.165 C 150.761 158.527,150.886 158.907,151.051 159.009 C 151.216 159.111,151.362 159.491,151.375 159.853 C 151.389 160.231,151.467 160.339,151.560 160.106 C 151.649 159.883,151.580 159.410,151.408 159.054 C 151.236 158.699,151.028 158.206,150.947 157.958 C 150.853 157.673,150.789 157.750,150.774 158.165 M151.976 161.168 C 151.963 161.530,152.087 161.910,152.252 162.012 C 152.417 162.114,152.563 162.494,152.576 162.856 C 152.590 163.234,152.668 163.342,152.761 163.109 C 152.850 162.886,152.782 162.413,152.609 162.057 C 152.437 161.702,152.229 161.209,152.148 160.961 C 152.054 160.676,151.991 160.753,151.976 161.168 M153.177 164.043 C 153.164 164.334,153.273 164.807,153.418 165.094 C 153.564 165.381,153.820 165.953,153.986 166.366 C 154.692 168.115,155.242 169.193,155.248 168.840 C 155.252 168.631,155.136 168.226,154.990 167.939 C 154.844 167.652,154.592 167.080,154.430 166.667 C 154.267 166.254,153.991 165.578,153.816 165.165 C 153.641 164.752,153.431 164.212,153.349 163.964 C 153.235 163.617,153.195 163.635,153.177 164.043 M242.684 164.956 C 241.860 166.974,241.664 167.433,241.406 167.939 C 241.261 168.226,241.152 168.699,241.165 168.990 C 241.183 169.398,241.223 169.416,241.337 169.069 C 241.419 168.821,241.611 168.315,241.764 167.943 C 241.917 167.571,242.177 166.929,242.342 166.517 C 242.508 166.104,242.801 165.428,242.993 165.015 C 243.186 164.603,243.284 164.205,243.210 164.131 C 243.136 164.057,242.899 164.428,242.684 164.956 M155.486 170.036 C 155.769 171.121,156.452 172.304,156.455 171.714 C 156.456 171.435,156.321 171.123,156.156 171.021 C 155.991 170.919,155.856 170.581,155.856 170.270 C 155.856 169.959,155.733 169.629,155.584 169.537 C 155.434 169.444,155.390 169.669,155.486 170.036 M240.281 170.962 C 239.448 173.005,239.331 173.294,239.079 173.949 C 238.645 175.076,238.083 176.397,237.803 176.948 C 237.657 177.235,237.541 177.640,237.544 177.849 C 237.552 178.293,238.404 176.484,239.380 173.949 C 239.905 172.585,240.248 171.754,240.591 171.021 C 240.784 170.609,240.881 170.211,240.807 170.137 C 240.733 170.063,240.497 170.434,240.281 170.962 M156.638 172.882 C 156.734 173.180,157.060 173.964,157.363 174.625 C 157.665 175.285,157.980 176.029,158.062 176.276 C 158.179 176.631,158.216 176.617,158.235 176.210 C 158.248 175.926,157.988 175.213,157.658 174.625 C 157.327 174.036,157.057 173.365,157.057 173.132 C 157.057 172.899,156.923 172.626,156.760 172.525 C 156.586 172.417,156.536 172.565,156.638 172.882 M158.473 177.482 C 158.560 177.815,158.750 178.161,158.895 178.251 C 159.040 178.340,159.170 178.710,159.183 179.072 C 159.196 179.434,159.276 179.556,159.362 179.343 C 159.447 179.130,159.295 178.488,159.024 177.917 C 158.472 176.755,158.233 176.566,158.473 177.482 M237.053 178.904 C 236.962 179.193,236.628 179.949,236.312 180.584 C 235.995 181.219,235.736 181.924,235.736 182.151 C 235.736 182.378,235.489 183.008,235.186 183.549 C 234.534 184.719,234.179 185.956,234.563 185.718 C 234.712 185.626,234.835 185.360,234.835 185.127 C 234.835 184.894,235.105 184.222,235.435 183.634 C 235.766 183.046,236.036 182.370,236.036 182.132 C 236.036 181.894,236.283 181.257,236.585 180.715 C 237.150 179.702,237.583 178.378,237.350 178.378 C 237.278 178.378,237.144 178.615,237.053 178.904 M159.666 180.405 C 159.769 180.694,159.953 181.066,160.074 181.231 C 160.196 181.396,160.362 181.802,160.443 182.132 C 160.580 182.689,160.594 182.684,160.626 182.075 C 160.645 181.713,160.526 181.333,160.360 181.231 C 160.195 181.129,160.060 180.783,160.060 180.463 C 160.060 180.142,159.929 179.880,159.769 179.880 C 159.609 179.880,159.563 180.116,159.666 180.405 M160.985 183.262 C 160.972 183.554,161.080 184.027,161.226 184.313 C 161.372 184.600,161.658 185.240,161.862 185.736 C 162.066 186.231,162.352 186.871,162.497 187.158 C 162.643 187.445,162.763 187.863,162.763 188.088 C 162.763 188.807,163.612 190.229,164.592 191.149 C 165.115 191.640,165.899 192.526,166.335 193.117 C 167.277 194.394,170.545 198.026,169.939 197.122 C 169.488 196.448,167.726 194.358,165.315 191.636 C 163.666 189.773,163.063 188.837,163.063 188.138 C 163.063 187.886,162.944 187.445,162.798 187.158 C 162.652 186.871,162.400 186.299,162.237 185.886 C 162.075 185.473,161.799 184.797,161.624 184.384 C 161.449 183.971,161.238 183.431,161.157 183.183 C 161.043 182.836,161.003 182.855,160.985 183.262 M233.709 187.007 C 233.502 187.447,233.333 187.962,233.333 188.152 C 233.333 188.876,232.409 190.292,231.096 191.579 C 230.344 192.315,229.730 193.046,229.730 193.204 C 229.730 193.361,229.020 194.267,228.153 195.217 C 227.286 196.168,225.917 197.734,225.110 198.698 L 223.644 200.450 225.110 198.892 C 227.947 195.876,230.030 193.462,230.030 193.192 C 230.030 193.041,230.645 192.315,231.396 191.579 C 232.801 190.202,233.634 188.870,233.634 188.002 C 233.634 187.730,233.784 187.357,233.968 187.173 C 234.151 186.990,234.253 186.697,234.193 186.523 C 234.133 186.348,233.915 186.566,233.709 187.007 M171.735 199.625 C 172.575 200.574,173.755 201.892,174.357 202.553 L 175.452 203.754 174.505 202.553 C 172.396 199.876,170.707 197.938,170.465 197.918 C 170.324 197.907,170.895 198.675,171.735 199.625 M221.171 203.353 C 220.345 204.349,219.074 205.860,218.347 206.711 L 217.023 208.258 218.497 206.703 C 221.050 204.008,223.195 201.501,222.929 201.522 C 222.788 201.533,221.997 202.357,221.171 203.353 M178.659 207.658 C 180.431 209.683,180.691 209.923,179.956 208.859 C 179.614 208.363,178.887 207.553,178.340 207.057 C 177.605 206.391,177.688 206.548,178.659 207.658 M215.015 210.697 C 213.941 211.941,212.320 213.812,211.411 214.856 C 210.503 215.900,209.017 217.664,208.108 218.776 C 207.200 219.889,205.747 221.571,204.880 222.514 C 204.013 223.457,203.303 224.314,203.303 224.419 C 203.303 224.644,206.069 221.590,208.408 218.782 C 210.703 216.027,213.069 213.271,215.015 211.086 C 216.515 209.402,217.294 208.386,217.057 208.422 C 217.007 208.430,216.089 209.454,215.015 210.697 M181.532 211.111 C 182.177 211.772,182.772 212.312,182.855 212.312 C 182.937 212.312,182.477 211.772,181.832 211.111 C 181.187 210.450,180.591 209.910,180.509 209.910 C 180.426 209.910,180.886 210.450,181.532 211.111 M185.012 215.146 C 185.770 215.989,186.461 216.879,186.548 217.124 C 186.634 217.368,186.800 217.480,186.916 217.372 C 187.033 217.264,186.342 216.374,185.381 215.394 C 184.020 214.006,183.938 213.951,185.012 215.146 M188.138 218.919 C 188.783 219.580,189.379 220.120,189.461 220.120 C 189.544 220.120,189.084 219.580,188.438 218.919 C 187.793 218.258,187.198 217.718,187.115 217.718 C 187.033 217.718,187.493 218.258,188.138 218.919 M191.455 222.836 C 192.273 223.752,193.004 224.456,193.079 224.402 C 193.154 224.347,192.484 223.598,191.591 222.737 L 189.967 221.171 191.455 222.836 M193.994 225.976 C 194.554 226.554,195.067 227.027,195.134 227.027 C 195.386 227.027,193.530 224.967,193.259 224.947 C 193.103 224.935,193.434 225.398,193.994 225.976 M202.086 226.051 L 201.051 227.177 202.177 226.142 C 203.225 225.179,203.441 224.925,203.212 224.925 C 203.162 224.925,202.655 225.432,202.086 226.051 " stroke="none" fill="#9cd4fc" fill-rule="evenodd"></path><path id="path4" d="M140.689 90.092 C 140.389 90.423,140.215 90.765,140.302 90.852 C 140.388 90.939,140.683 90.668,140.957 90.250 C 141.556 89.336,141.436 89.266,140.689 90.092 M137.112 94.346 C 136.522 95.035,136.106 95.666,136.188 95.748 C 136.270 95.829,136.372 95.840,136.415 95.771 C 136.458 95.702,136.937 95.071,137.480 94.369 C 138.747 92.731,138.508 92.716,137.112 94.346 M133.799 98.227 C 132.693 99.399,131.884 100.446,132.002 100.554 C 132.119 100.662,132.285 100.548,132.372 100.300 C 132.459 100.053,133.341 99.005,134.331 97.973 C 135.321 96.941,136.059 96.096,135.970 96.096 C 135.881 96.096,134.904 97.055,133.799 98.227 M158.260 176.155 C 158.258 176.530,159.141 178.378,159.322 178.378 C 159.468 178.378,159.169 177.574,158.652 176.577 C 158.437 176.164,158.261 175.974,158.260 176.155 M163.664 189.695 C 163.664 189.800,164.373 190.661,165.240 191.608 C 167.458 194.032,169.429 196.354,170.043 197.269 C 170.331 197.697,170.568 197.883,170.569 197.681 C 170.570 197.479,169.794 196.422,168.844 195.332 C 165.629 191.643,163.664 189.504,163.664 189.695 M224.368 199.231 C 223.518 200.130,222.823 201.038,222.823 201.250 C 222.823 201.462,223.045 201.301,223.318 200.893 C 223.590 200.484,224.361 199.576,225.032 198.874 C 225.702 198.172,226.175 197.598,226.082 197.598 C 225.989 197.598,225.218 198.333,224.368 199.231 M171.922 199.399 C 172.567 200.060,173.162 200.601,173.245 200.601 C 173.328 200.601,172.867 200.060,172.222 199.399 C 171.577 198.739,170.982 198.198,170.899 198.198 C 170.817 198.198,171.277 198.739,171.922 199.399 M175.106 203.141 C 175.701 203.808,176.410 204.688,176.682 205.097 C 176.955 205.505,177.177 205.662,177.177 205.446 C 177.177 205.229,176.468 204.349,175.601 203.490 C 174.694 202.592,174.484 202.444,175.106 203.141 M221.157 203.078 L 219.970 204.354 221.246 203.167 C 222.433 202.063,222.661 201.802,222.433 201.802 C 222.384 201.802,221.810 202.376,221.157 203.078 M218.154 206.682 L 216.967 207.958 218.243 206.771 C 219.430 205.667,219.658 205.405,219.430 205.405 C 219.381 205.405,218.807 205.980,218.154 206.682 M178.707 207.398 C 179.435 208.246,180.773 209.848,181.682 210.958 C 182.590 212.068,184.077 213.826,184.985 214.865 C 185.893 215.904,187.380 217.665,188.288 218.778 C 189.197 219.892,190.671 221.562,191.565 222.489 L 193.191 224.174 191.716 222.462 C 190.904 221.520,189.497 219.855,188.589 218.761 C 187.680 217.668,186.194 215.909,185.285 214.852 C 184.377 213.795,182.890 212.035,181.982 210.941 C 181.074 209.846,179.667 208.254,178.857 207.403 L 177.384 205.856 178.707 207.398 M216.517 208.426 C 216.517 208.601,215.811 209.514,214.949 210.453 C 213.612 211.910,213.572 211.985,214.673 210.961 C 216.202 209.540,217.289 208.108,216.837 208.108 C 216.661 208.108,216.517 208.251,216.517 208.426 M211.547 214.489 L 210.360 215.766 211.637 214.579 C 212.824 213.475,213.051 213.213,212.824 213.213 C 212.775 213.213,212.200 213.788,211.547 214.489 M207.944 218.694 L 206.757 219.970 208.033 218.783 C 208.735 218.130,209.309 217.556,209.309 217.507 C 209.309 217.279,209.048 217.507,207.944 218.694 M206.306 220.427 C 206.306 220.596,205.736 221.373,205.039 222.154 C 204.092 223.214,204.023 223.345,204.766 222.673 C 206.014 221.542,207.051 220.120,206.627 220.120 C 206.451 220.120,206.306 220.258,206.306 220.427 M193.094 224.412 C 193.092 224.885,195.303 227.026,195.769 227.003 C 196.173 226.983,196.177 226.956,195.796 226.828 C 195.548 226.745,194.839 226.114,194.220 225.426 C 193.601 224.737,193.094 224.281,193.094 224.412 M202.271 225.453 C 201.786 226.022,201.110 226.600,200.770 226.738 C 200.354 226.906,200.303 226.995,200.615 227.008 C 201.074 227.027,203.536 224.737,203.284 224.527 C 203.212 224.467,202.756 224.883,202.271 225.453 M197.222 227.545 C 197.759 227.611,198.637 227.611,199.174 227.545 C 199.711 227.478,199.272 227.423,198.198 227.423 C 197.125 227.423,196.685 227.478,197.222 227.545 " stroke="none" fill="#74c4f4" fill-rule="evenodd"></path></g></svg>