<svg id="svg" version="1.1" xmlns="http://www.w3.org/2000/svg" xmlns:xlink="http://www.w3.org/1999/xlink" width="400" height="300.1503759398496" viewBox="0, 0, 400,300.1503759398496"><g id="svgg"><path id="path0" d="M72.450 29.260 C 69.727 30.766,68.666 35.347,70.270 38.668 C 70.601 39.352,70.871 40.112,70.871 40.358 C 70.871 40.604,71.006 40.889,71.171 40.991 C 71.336 41.093,71.471 41.498,71.471 41.892 C 71.471 42.285,71.607 42.691,71.772 42.793 C 71.937 42.895,72.072 43.237,72.072 43.552 C 72.072 43.868,72.342 44.607,72.673 45.195 C 73.003 45.783,73.273 46.438,73.273 46.649 C 73.273 46.861,73.544 47.594,73.874 48.277 C 74.204 48.961,74.474 49.722,74.474 49.968 C 74.474 50.214,74.610 50.499,74.775 50.601 C 74.940 50.703,75.075 51.108,75.075 51.502 C 75.075 51.895,75.210 52.300,75.375 52.402 C 75.541 52.504,75.676 52.846,75.676 53.162 C 75.676 53.477,75.946 54.217,76.276 54.805 C 76.607 55.393,76.877 56.069,76.877 56.306 C 76.877 56.544,77.147 57.220,77.477 57.808 C 77.808 58.396,78.078 59.135,78.078 59.451 C 78.078 59.766,78.213 60.108,78.378 60.210 C 78.544 60.312,78.679 60.718,78.679 61.111 C 78.679 61.505,78.814 61.910,78.979 62.012 C 79.144 62.114,79.279 62.456,79.279 62.771 C 79.279 63.087,79.550 63.826,79.880 64.414 C 80.210 65.003,80.480 65.817,80.480 66.225 C 80.480 66.633,80.616 66.967,80.781 66.967 C 80.946 66.967,81.081 67.237,81.081 67.568 C 81.081 67.898,81.216 68.168,81.381 68.168 C 81.547 68.168,81.682 68.574,81.682 69.069 C 81.682 69.565,81.817 69.970,81.982 69.970 C 82.147 69.970,82.282 70.300,82.282 70.703 C 82.282 71.106,82.417 71.520,82.583 71.622 C 82.748 71.724,82.883 72.070,82.883 72.390 C 82.883 72.711,83.018 72.973,83.183 72.973 C 83.348 72.973,83.483 73.303,83.483 73.706 C 83.483 74.109,83.619 74.523,83.784 74.625 C 83.949 74.727,84.084 75.132,84.084 75.526 C 84.084 75.919,84.219 76.324,84.384 76.426 C 84.550 76.529,84.685 76.874,84.685 77.195 C 84.685 77.515,84.820 77.778,84.985 77.778 C 85.150 77.778,85.285 78.108,85.285 78.511 C 85.285 78.914,85.420 79.327,85.586 79.429 C 85.751 79.532,85.886 79.873,85.886 80.189 C 85.886 80.504,86.156 81.244,86.486 81.832 C 86.817 82.420,87.087 83.159,87.087 83.475 C 87.087 83.790,87.222 84.132,87.387 84.234 C 87.553 84.336,87.688 84.742,87.688 85.135 C 87.688 85.529,87.823 85.934,87.988 86.036 C 88.153 86.138,88.288 86.484,88.288 86.805 C 88.288 87.125,88.423 87.387,88.589 87.387 C 88.754 87.387,88.889 87.717,88.889 88.120 C 88.889 88.524,89.024 88.937,89.189 89.039 C 89.354 89.141,89.489 89.483,89.489 89.798 C 89.489 90.114,89.760 90.853,90.090 91.441 C 90.420 92.030,90.691 92.844,90.691 93.252 C 90.691 93.660,90.826 93.994,90.991 93.994 C 91.156 93.994,91.291 94.264,91.291 94.595 C 91.291 94.925,91.426 95.195,91.592 95.195 C 91.757 95.195,91.892 95.601,91.892 96.096 C 91.892 96.592,92.027 96.997,92.192 96.997 C 92.357 96.997,92.492 97.327,92.492 97.730 C 92.492 98.133,92.628 98.547,92.793 98.649 C 92.958 98.751,93.093 99.092,93.093 99.408 C 93.093 99.724,93.363 100.463,93.694 101.051 C 94.024 101.639,94.294 102.379,94.294 102.694 C 94.294 103.010,94.429 103.351,94.595 103.453 C 94.760 103.556,94.895 103.961,94.895 104.354 C 94.895 104.748,95.030 105.153,95.195 105.255 C 95.360 105.357,95.495 105.703,95.495 106.024 C 95.495 106.344,95.631 106.607,95.796 106.607 C 95.961 106.607,96.096 106.936,96.096 107.340 C 96.096 107.743,96.231 108.156,96.396 108.258 C 96.562 108.360,96.697 108.702,96.697 109.018 C 96.697 109.333,96.967 110.073,97.297 110.661 C 97.628 111.249,97.898 112.064,97.898 112.472 C 97.898 112.879,98.033 113.213,98.198 113.213 C 98.363 113.213,98.498 113.483,98.498 113.814 C 98.498 114.144,98.634 114.414,98.799 114.414 C 98.964 114.414,99.099 114.820,99.099 115.315 C 99.099 115.811,99.234 116.216,99.399 116.216 C 99.565 116.216,99.700 116.546,99.700 116.949 C 99.700 117.352,99.835 117.766,100.000 117.868 C 100.165 117.970,100.300 118.316,100.300 118.636 C 100.300 118.957,100.435 119.219,100.601 119.219 C 100.766 119.219,100.901 119.549,100.901 119.952 C 100.901 120.355,101.036 120.769,101.201 120.871 C 101.366 120.973,101.502 121.454,101.502 121.940 C 101.502 122.425,101.637 122.823,101.802 122.823 C 101.967 122.823,102.102 123.153,102.102 123.556 C 102.102 123.959,102.237 124.372,102.402 124.474 C 102.568 124.577,102.703 124.922,102.703 125.243 C 102.703 125.564,102.838 125.826,103.003 125.826 C 103.168 125.826,103.303 126.092,103.303 126.417 C 103.303 126.743,103.574 127.490,103.904 128.078 C 104.234 128.666,104.505 129.406,104.505 129.721 C 104.505 130.037,104.640 130.378,104.805 130.480 C 104.970 130.583,105.105 130.988,105.105 131.381 C 105.105 131.775,105.240 132.180,105.405 132.282 C 105.571 132.384,105.706 132.730,105.706 133.051 C 105.706 133.371,105.841 133.634,106.006 133.634 C 106.171 133.634,106.306 133.963,106.306 134.367 C 106.306 134.770,106.441 135.183,106.607 135.285 C 106.772 135.387,106.907 135.729,106.907 136.045 C 106.907 136.360,107.177 137.100,107.508 137.688 C 107.838 138.276,108.108 139.091,108.108 139.499 C 108.108 139.907,108.243 140.240,108.408 140.240 C 108.574 140.240,108.709 140.570,108.709 140.973 C 108.709 141.376,108.844 141.790,109.009 141.892 C 109.174 141.994,109.309 142.340,109.309 142.660 C 109.309 142.981,109.444 143.243,109.610 143.243 C 109.775 143.243,109.910 143.573,109.910 143.976 C 109.910 144.379,110.045 144.793,110.210 144.895 C 110.375 144.997,110.511 145.339,110.511 145.654 C 110.511 145.970,110.781 146.709,111.111 147.297 C 111.441 147.885,111.712 148.625,111.712 148.940 C 111.712 149.256,111.847 149.598,112.012 149.700 C 112.177 149.802,112.312 150.207,112.312 150.601 C 112.312 150.994,112.447 151.399,112.613 151.502 C 112.778 151.604,112.913 151.949,112.913 152.270 C 112.913 152.591,113.048 152.853,113.213 152.853 C 113.378 152.853,113.514 153.183,113.514 153.586 C 113.514 153.989,113.649 154.402,113.814 154.505 C 113.979 154.607,114.114 154.948,114.114 155.264 C 114.114 155.579,114.384 156.319,114.715 156.907 C 115.045 157.495,115.315 158.244,115.315 158.572 C 115.315 158.899,115.435 159.402,115.581 159.689 C 115.726 159.976,115.997 160.582,116.181 161.036 C 116.366 161.490,116.667 162.233,116.852 162.688 C 117.036 163.142,117.307 163.748,117.452 164.035 C 117.598 164.322,117.718 164.757,117.718 165.002 C 117.718 165.247,117.988 165.928,118.318 166.517 C 118.649 167.105,118.919 167.854,118.919 168.181 C 118.919 168.509,119.038 169.012,119.184 169.298 C 119.330 169.585,119.600 170.191,119.785 170.646 C 119.969 171.100,120.273 171.843,120.461 172.297 C 120.648 172.752,120.934 173.461,121.096 173.874 C 121.259 174.287,121.511 174.859,121.657 175.146 C 121.803 175.433,121.922 175.932,121.922 176.254 C 121.922 176.577,122.057 176.925,122.222 177.027 C 122.387 177.129,122.523 177.462,122.523 177.767 C 122.523 178.247,122.947 179.260,124.079 181.480 C 124.265 181.845,124.239 182.173,124.002 182.458 C 122.922 183.760,125.198 188.129,128.984 192.020 C 129.317 192.363,130.195 193.453,130.935 194.444 C 131.675 195.435,132.351 196.314,132.436 196.396 C 132.521 196.479,133.197 197.290,133.938 198.198 C 134.679 199.107,135.387 199.895,135.511 199.950 C 135.634 200.005,135.736 200.192,135.736 200.366 C 135.736 200.540,136.040 200.972,136.411 201.326 C 136.783 201.681,137.425 202.430,137.838 202.991 C 138.697 204.158,139.999 205.784,140.252 206.006 C 140.346 206.089,141.332 207.305,142.443 208.709 C 143.554 210.113,144.796 211.635,145.204 212.092 C 145.612 212.549,145.946 213.007,145.946 213.109 C 145.946 213.211,146.250 213.591,146.622 213.953 C 146.993 214.316,147.500 214.874,147.748 215.193 C 147.995 215.513,148.536 216.187,148.949 216.692 C 149.362 217.197,150.038 218.065,150.450 218.620 C 150.863 219.175,151.539 219.985,151.952 220.420 C 152.365 220.856,153.041 221.666,153.453 222.221 C 153.866 222.776,154.542 223.643,154.955 224.149 C 155.368 224.654,155.868 225.271,156.066 225.521 C 156.264 225.771,157.210 226.929,158.168 228.094 C 159.126 229.259,160.248 230.672,160.661 231.235 C 161.292 232.095,163.143 234.314,163.664 234.835 C 163.746 234.917,164.285 235.593,164.861 236.336 C 166.378 238.295,166.714 238.712,167.738 239.912 C 168.244 240.505,169.794 242.410,171.182 244.144 C 172.569 245.878,173.844 247.445,174.015 247.625 C 174.185 247.805,174.662 248.401,175.075 248.949 C 175.488 249.497,175.961 250.092,176.126 250.273 C 176.291 250.453,176.783 251.074,177.218 251.652 C 177.654 252.230,178.262 252.995,178.570 253.353 C 179.256 254.151,179.531 254.487,181.977 257.508 C 183.047 258.829,184.026 259.955,184.153 260.010 C 184.280 260.065,184.384 260.277,184.384 260.481 C 184.384 260.686,184.688 261.122,185.060 261.451 C 185.432 261.780,186.074 262.498,186.486 263.047 C 186.899 263.595,187.440 264.278,187.688 264.565 C 187.935 264.851,188.476 265.534,188.889 266.083 C 189.302 266.632,190.006 267.495,190.455 268.000 C 192.026 269.772,192.492 270.364,192.492 270.587 C 192.492 272.372,202.425 272.619,203.604 270.864 C 204.048 270.202,205.311 268.640,205.985 267.918 C 206.410 267.464,207.095 266.641,207.508 266.089 C 207.920 265.537,208.461 264.851,208.709 264.565 C 208.956 264.278,209.497 263.595,209.910 263.047 C 210.323 262.498,210.965 261.780,211.336 261.451 C 211.708 261.122,212.012 260.724,212.012 260.567 C 212.012 260.409,212.250 260.062,212.540 259.795 C 212.830 259.528,213.636 258.566,214.331 257.658 C 215.026 256.749,215.903 255.646,216.281 255.205 C 216.658 254.765,217.170 254.155,217.417 253.850 C 217.665 253.545,218.206 252.882,218.619 252.377 C 219.032 251.872,219.707 251.004,220.120 250.448 C 220.533 249.892,221.175 249.168,221.547 248.839 C 221.918 248.509,222.222 248.111,222.222 247.954 C 222.222 247.797,222.459 247.449,222.748 247.182 C 223.037 246.915,223.744 246.088,224.320 245.345 C 226.103 243.044,226.257 242.859,226.952 242.182 C 227.324 241.819,227.628 241.381,227.628 241.207 C 227.628 241.033,227.734 240.846,227.864 240.791 C 227.994 240.736,228.568 240.086,229.140 239.347 C 229.712 238.608,230.351 237.819,230.560 237.594 C 230.769 237.369,231.309 236.690,231.760 236.085 C 232.210 235.480,232.648 234.917,232.731 234.835 C 233.231 234.340,235.099 232.102,235.736 231.235 C 236.149 230.672,237.270 229.259,238.228 228.094 C 239.186 226.929,240.132 225.771,240.330 225.521 C 240.529 225.271,241.029 224.654,241.441 224.149 C 241.854 223.643,242.530 222.776,242.943 222.221 C 243.356 221.666,244.032 220.856,244.444 220.420 C 244.857 219.985,245.533 219.175,245.946 218.620 C 246.359 218.065,247.035 217.197,247.447 216.692 C 247.860 216.187,248.401 215.513,248.649 215.193 C 248.896 214.874,249.403 214.316,249.775 213.953 C 250.146 213.591,250.450 213.211,250.450 213.109 C 250.450 213.007,250.781 212.549,251.184 212.092 C 251.809 211.384,254.790 207.759,255.946 206.302 C 256.144 206.052,256.644 205.434,257.057 204.929 C 257.470 204.424,258.146 203.552,258.559 202.991 C 258.971 202.430,259.613 201.681,259.985 201.326 C 260.357 200.972,260.661 200.590,260.661 200.477 C 260.661 200.365,261.000 199.934,261.414 199.520 C 261.828 199.106,262.708 198.035,263.368 197.140 C 264.029 196.246,265.386 194.530,266.384 193.327 C 267.382 192.125,268.360 190.936,268.559 190.686 C 268.757 190.436,269.471 189.557,270.145 188.734 C 270.819 187.911,271.466 187.035,271.583 186.787 C 271.700 186.539,271.991 185.998,272.230 185.586 C 272.717 184.742,272.801 183.250,272.395 182.609 C 272.248 182.376,272.234 181.971,272.365 181.709 C 272.496 181.446,272.769 180.826,272.973 180.330 C 273.177 179.835,273.463 179.195,273.609 178.908 C 273.755 178.621,273.874 178.122,273.874 177.800 C 273.874 177.477,274.009 177.129,274.174 177.027 C 274.339 176.925,274.474 176.577,274.474 176.254 C 274.474 175.932,274.594 175.433,274.740 175.146 C 274.988 174.658,275.241 174.060,275.976 172.222 C 276.711 170.385,276.964 169.786,277.212 169.298 C 277.358 169.012,277.477 168.571,277.477 168.318 C 277.477 167.873,277.602 167.556,278.331 166.145 C 278.522 165.776,278.679 165.267,278.679 165.015 C 278.679 164.763,278.798 164.322,278.944 164.035 C 279.090 163.748,279.360 163.142,279.545 162.688 C 279.729 162.233,280.031 161.490,280.215 161.036 C 280.400 160.582,280.670 159.976,280.816 159.689 C 280.962 159.402,281.081 158.899,281.081 158.572 C 281.081 158.244,281.351 157.495,281.682 156.907 C 282.012 156.319,282.282 155.579,282.282 155.264 C 282.282 154.948,282.417 154.607,282.583 154.505 C 282.748 154.402,282.883 153.989,282.883 153.586 C 282.883 153.183,283.018 152.853,283.183 152.853 C 283.348 152.853,283.483 152.591,283.483 152.270 C 283.483 151.949,283.619 151.604,283.784 151.502 C 283.949 151.399,284.084 150.986,284.084 150.583 C 284.084 150.180,284.219 149.850,284.384 149.850 C 284.550 149.850,284.685 149.516,284.685 149.108 C 284.685 148.700,284.955 147.885,285.285 147.297 C 285.616 146.709,285.886 145.970,285.886 145.654 C 285.886 145.339,286.021 144.997,286.186 144.895 C 286.351 144.793,286.486 144.379,286.486 143.976 C 286.486 143.573,286.622 143.243,286.787 143.243 C 286.952 143.243,287.087 142.981,287.087 142.660 C 287.087 142.340,287.222 141.994,287.387 141.892 C 287.553 141.790,287.688 141.376,287.688 140.973 C 287.688 140.570,287.823 140.240,287.988 140.240 C 288.153 140.240,288.288 139.907,288.288 139.499 C 288.288 139.091,288.559 138.276,288.889 137.688 C 289.219 137.100,289.489 136.352,289.489 136.027 C 289.489 135.702,289.625 135.435,289.790 135.435 C 289.955 135.435,290.090 135.173,290.090 134.853 C 290.090 134.532,290.225 134.186,290.390 134.084 C 290.556 133.982,290.691 133.569,290.691 133.165 C 290.691 132.762,290.826 132.432,290.991 132.432 C 291.156 132.432,291.291 132.027,291.291 131.532 C 291.291 131.036,291.426 130.631,291.592 130.631 C 291.757 130.631,291.892 130.225,291.892 129.730 C 291.892 129.234,292.027 128.829,292.192 128.829 C 292.357 128.829,292.492 128.567,292.492 128.246 C 292.492 127.925,292.628 127.580,292.793 127.477 C 292.958 127.375,293.093 126.962,293.093 126.559 C 293.093 126.156,293.228 125.826,293.393 125.826 C 293.559 125.826,293.694 125.564,293.694 125.243 C 293.694 124.922,293.829 124.577,293.994 124.474 C 294.159 124.372,294.294 123.959,294.294 123.556 C 294.294 123.153,294.429 122.823,294.595 122.823 C 294.760 122.823,294.895 122.489,294.895 122.081 C 294.895 121.673,295.165 120.858,295.495 120.270 C 295.826 119.682,296.096 118.943,296.096 118.627 C 296.096 118.312,296.231 117.970,296.396 117.868 C 296.562 117.766,296.697 117.352,296.697 116.949 C 296.697 116.546,296.832 116.216,296.997 116.216 C 297.162 116.216,297.297 115.954,297.297 115.633 C 297.297 115.313,297.432 114.967,297.598 114.865 C 297.763 114.763,297.898 114.349,297.898 113.946 C 297.898 113.543,298.033 113.213,298.198 113.213 C 298.363 113.213,298.498 112.879,298.498 112.472 C 298.498 112.064,298.769 111.249,299.099 110.661 C 299.429 110.073,299.700 109.333,299.700 109.018 C 299.700 108.702,299.835 108.360,300.000 108.258 C 300.165 108.156,300.300 107.743,300.300 107.340 C 300.300 106.936,300.435 106.607,300.601 106.607 C 300.766 106.607,300.901 106.344,300.901 106.024 C 300.901 105.703,301.036 105.357,301.201 105.255 C 301.366 105.153,301.502 104.740,301.502 104.337 C 301.502 103.933,301.637 103.604,301.802 103.604 C 301.967 103.604,302.102 103.270,302.102 102.862 C 302.102 102.454,302.372 101.639,302.703 101.051 C 303.033 100.463,303.303 99.724,303.303 99.408 C 303.303 99.092,303.438 98.751,303.604 98.649 C 303.769 98.547,303.904 98.133,303.904 97.730 C 303.904 97.327,304.039 96.997,304.204 96.997 C 304.369 96.997,304.505 96.735,304.505 96.414 C 304.505 96.094,304.640 95.748,304.805 95.646 C 304.970 95.544,305.105 95.130,305.105 94.727 C 305.105 94.324,305.240 93.994,305.405 93.994 C 305.571 93.994,305.706 93.660,305.706 93.252 C 305.706 92.844,305.976 92.030,306.306 91.441 C 306.637 90.853,306.907 90.114,306.907 89.798 C 306.907 89.483,307.042 89.141,307.207 89.039 C 307.372 88.937,307.508 88.524,307.508 88.120 C 307.508 87.717,307.643 87.387,307.808 87.387 C 307.973 87.387,308.108 87.125,308.108 86.805 C 308.108 86.484,308.243 86.138,308.408 86.036 C 308.574 85.934,308.709 85.521,308.709 85.117 C 308.709 84.714,308.844 84.384,309.009 84.384 C 309.174 84.384,309.309 83.979,309.309 83.483 C 309.309 82.988,309.444 82.583,309.610 82.583 C 309.775 82.583,309.910 82.320,309.910 82.000 C 309.910 81.679,310.045 81.333,310.210 81.231 C 310.375 81.129,310.511 80.716,310.511 80.313 C 310.511 79.909,310.646 79.580,310.811 79.580 C 310.976 79.580,311.111 79.174,311.111 78.679 C 311.111 78.183,311.246 77.778,311.411 77.778 C 311.577 77.778,311.712 77.508,311.712 77.177 C 311.712 76.847,311.847 76.577,312.012 76.577 C 312.177 76.577,312.312 76.179,312.312 75.693 C 312.312 75.208,312.447 74.727,312.613 74.625 C 312.778 74.523,312.913 74.109,312.913 73.706 C 312.913 73.303,313.048 72.973,313.213 72.973 C 313.378 72.973,313.514 72.711,313.514 72.390 C 313.514 72.070,313.649 71.724,313.814 71.622 C 313.979 71.520,314.114 71.106,314.114 70.703 C 314.114 70.300,314.249 69.970,314.414 69.970 C 314.580 69.970,314.715 69.565,314.715 69.069 C 314.715 68.574,314.850 68.168,315.015 68.168 C 315.180 68.168,315.315 67.898,315.315 67.568 C 315.315 67.237,315.450 66.967,315.616 66.967 C 315.781 66.967,315.916 66.633,315.916 66.225 C 315.916 65.817,316.186 65.003,316.517 64.414 C 316.847 63.826,317.117 63.087,317.117 62.771 C 317.117 62.456,317.252 62.114,317.417 62.012 C 317.583 61.910,317.718 61.568,317.718 61.253 C 317.718 60.937,317.988 60.198,318.318 59.610 C 318.649 59.021,318.919 58.282,318.919 57.967 C 318.919 57.651,319.054 57.309,319.219 57.207 C 319.384 57.105,319.520 56.763,319.520 56.448 C 319.520 56.132,319.790 55.393,320.120 54.805 C 320.450 54.217,320.721 53.477,320.721 53.162 C 320.721 52.846,320.856 52.504,321.021 52.402 C 321.186 52.300,321.321 51.895,321.321 51.502 C 321.321 51.108,321.456 50.703,321.622 50.601 C 321.787 50.499,321.922 50.214,321.922 49.968 C 321.922 49.722,322.192 48.961,322.523 48.277 C 322.853 47.594,323.123 46.861,323.123 46.649 C 323.123 46.438,323.393 45.783,323.724 45.195 C 324.054 44.607,324.324 43.868,324.324 43.552 C 324.324 43.237,324.459 42.895,324.625 42.793 C 324.790 42.691,324.925 42.304,324.925 41.934 C 324.925 41.564,325.044 41.133,325.190 40.976 C 326.436 39.636,327.231 33.326,326.351 31.753 C 324.442 28.337,321.086 27.909,318.187 30.711 C 317.806 31.080,316.514 32.125,315.315 33.033 C 314.117 33.941,312.849 34.958,312.499 35.292 C 312.149 35.626,311.389 36.227,310.811 36.629 C 310.233 37.030,309.557 37.570,309.309 37.827 C 309.062 38.084,308.364 38.663,307.759 39.113 C 307.154 39.563,306.478 40.106,306.257 40.321 C 306.036 40.535,305.383 41.037,304.805 41.437 C 304.227 41.837,303.551 42.379,303.303 42.643 C 303.056 42.906,302.380 43.448,301.802 43.846 C 301.224 44.245,300.392 44.948,299.955 45.409 C 299.517 45.869,299.043 46.246,298.902 46.246 C 298.761 46.246,298.072 46.787,297.370 47.447 C 296.669 48.108,295.980 48.649,295.840 48.649 C 295.699 48.649,295.160 49.054,294.642 49.550 C 294.123 50.045,293.576 50.450,293.427 50.450 C 293.277 50.450,292.464 51.126,291.620 51.952 C 290.777 52.778,289.973 53.453,289.833 53.453 C 289.693 53.453,289.154 53.859,288.636 54.354 C 288.117 54.850,287.590 55.255,287.464 55.255 C 287.337 55.255,286.660 55.796,285.959 56.456 C 285.257 57.117,284.562 57.658,284.414 57.658 C 284.266 57.658,283.455 58.333,282.611 59.159 C 281.768 59.985,280.964 60.661,280.824 60.661 C 280.684 60.661,280.145 61.066,279.627 61.562 C 279.108 62.057,278.581 62.462,278.455 62.462 C 278.328 62.462,277.651 63.003,276.950 63.664 C 276.248 64.324,275.556 64.865,275.411 64.865 C 275.266 64.865,274.591 65.405,273.910 66.066 C 273.229 66.727,272.570 67.267,272.445 67.267 C 272.321 67.267,271.645 67.808,270.944 68.468 C 270.242 69.129,269.550 69.670,269.405 69.670 C 269.260 69.670,268.585 70.210,267.904 70.871 C 267.223 71.532,266.547 72.072,266.402 72.072 C 266.257 72.072,265.581 72.613,264.901 73.273 C 264.220 73.934,263.533 74.474,263.375 74.474 C 263.216 74.474,262.551 75.015,261.897 75.676 C 261.243 76.336,260.578 76.877,260.420 76.877 C 260.262 76.877,259.575 77.417,258.895 78.078 C 258.214 78.739,257.538 79.279,257.393 79.279 C 257.248 79.279,256.572 79.820,255.892 80.480 C 255.211 81.141,254.549 81.682,254.420 81.682 C 254.292 81.682,253.674 82.180,253.046 82.789 C 251.293 84.492,251.713 85.884,254.931 89.028 C 255.770 89.847,256.456 90.662,256.456 90.838 C 256.456 91.013,257.402 92.096,258.559 93.243 C 259.715 94.391,260.661 95.472,260.661 95.646 C 260.661 95.820,261.607 96.901,262.763 98.048 C 263.919 99.195,264.865 100.284,264.865 100.467 C 264.865 100.650,265.205 100.981,265.620 101.204 C 266.940 101.910,268.111 106.607,266.967 106.607 C 266.802 106.607,266.667 106.877,266.667 107.207 C 266.667 107.538,266.532 107.808,266.366 107.808 C 266.201 107.808,266.066 108.078,266.066 108.408 C 266.066 108.739,265.931 109.009,265.766 109.009 C 265.601 109.009,265.465 109.339,265.465 109.742 C 265.465 110.145,265.330 110.559,265.165 110.661 C 265.000 110.763,264.865 111.109,264.865 111.429 C 264.865 111.750,264.730 112.012,264.565 112.012 C 264.399 112.012,264.264 112.274,264.264 112.595 C 264.264 112.915,264.129 113.261,263.964 113.363 C 263.799 113.465,263.664 113.879,263.664 114.282 C 263.664 114.685,263.529 115.015,263.363 115.015 C 263.198 115.015,263.063 115.277,263.063 115.598 C 263.063 115.918,262.928 116.264,262.763 116.366 C 262.598 116.468,262.462 116.882,262.462 117.285 C 262.462 117.688,262.327 118.018,262.162 118.018 C 261.997 118.018,261.862 118.288,261.862 118.619 C 261.862 118.949,261.727 119.219,261.562 119.219 C 261.396 119.219,261.261 119.625,261.261 120.120 C 261.261 120.616,261.126 121.021,260.961 121.021 C 260.796 121.021,260.661 121.291,260.661 121.622 C 260.661 121.952,260.526 122.222,260.360 122.222 C 260.195 122.222,260.060 122.628,260.060 123.123 C 260.060 123.619,259.925 124.024,259.760 124.024 C 259.595 124.024,259.459 124.294,259.459 124.625 C 259.459 124.955,259.324 125.225,259.159 125.225 C 258.994 125.225,258.859 125.555,258.859 125.958 C 258.859 126.361,258.724 126.775,258.559 126.877 C 258.393 126.979,258.258 127.325,258.258 127.645 C 258.258 127.966,258.123 128.228,257.958 128.228 C 257.793 128.228,257.658 128.498,257.658 128.829 C 257.658 129.159,257.523 129.429,257.357 129.429 C 257.192 129.429,257.057 129.835,257.057 130.330 C 257.057 130.826,256.922 131.231,256.757 131.231 C 256.592 131.231,256.456 131.494,256.456 131.814 C 256.456 132.135,256.321 132.481,256.156 132.583 C 255.991 132.685,255.856 133.098,255.856 133.501 C 255.856 133.904,255.721 134.234,255.556 134.234 C 255.390 134.234,255.255 134.497,255.255 134.817 C 255.255 135.138,255.120 135.484,254.955 135.586 C 254.790 135.688,254.655 136.021,254.655 136.326 C 254.655 136.631,254.365 137.467,254.011 138.185 C 253.658 138.902,253.252 139.794,253.111 140.165 C 252.540 141.662,252.318 142.229,251.992 143.018 C 251.805 143.472,251.501 144.215,251.316 144.670 C 251.132 145.124,250.862 145.730,250.716 146.017 C 250.570 146.304,250.450 146.743,250.450 146.993 C 250.450 147.243,250.315 147.447,250.150 147.447 C 249.985 147.447,249.850 147.710,249.850 148.030 C 249.850 148.351,249.715 148.697,249.550 148.799 C 249.384 148.901,249.249 149.243,249.249 149.558 C 249.249 149.874,248.979 150.613,248.649 151.201 C 248.318 151.789,248.048 152.456,248.048 152.683 C 248.048 152.911,247.759 153.683,247.405 154.401 C 247.051 155.119,246.664 155.976,246.544 156.306 C 246.424 156.637,246.173 157.279,245.986 157.733 C 245.799 158.187,245.524 158.863,245.375 159.234 C 245.227 159.606,244.821 160.550,244.474 161.333 C 244.128 162.116,243.844 162.889,243.844 163.051 C 243.844 163.213,243.574 163.826,243.243 164.414 C 242.913 165.003,242.643 165.678,242.643 165.916 C 242.643 166.154,242.372 166.829,242.042 167.417 C 241.712 168.006,241.441 168.681,241.441 168.919 C 241.441 169.157,241.171 169.832,240.841 170.420 C 240.511 171.009,240.240 171.684,240.240 171.922 C 240.240 172.160,239.970 172.835,239.640 173.423 C 239.309 174.012,239.039 174.679,239.039 174.906 C 239.039 175.133,238.750 175.906,238.396 176.623 C 238.042 177.341,237.656 178.198,237.538 178.529 C 237.419 178.859,237.033 179.716,236.679 180.434 C 236.325 181.151,236.036 181.924,236.036 182.151 C 236.036 182.378,235.766 183.046,235.435 183.634 C 235.105 184.222,234.835 184.897,234.835 185.135 C 234.835 185.373,234.565 186.049,234.234 186.637 C 233.904 187.225,233.634 187.889,233.634 188.113 C 233.634 189.057,232.347 190.787,228.604 194.878 C 227.736 195.826,227.027 196.706,227.027 196.835 C 227.027 197.055,225.704 198.590,221.997 202.672 C 221.130 203.627,220.420 204.514,220.420 204.643 C 220.420 204.863,219.098 206.397,215.390 210.480 C 214.523 211.435,213.814 212.344,213.814 212.499 C 213.814 212.654,213.003 213.584,212.012 214.565 C 211.021 215.545,210.210 216.475,210.210 216.630 C 210.210 216.786,209.501 217.699,208.634 218.660 C 207.767 219.621,206.314 221.300,205.405 222.392 C 204.497 223.483,203.047 225.108,202.184 226.002 L 200.613 227.628 198.198 227.628 L 195.783 227.628 194.213 226.005 C 193.349 225.113,191.967 223.554,191.141 222.540 C 190.315 221.527,188.863 219.846,187.913 218.807 C 186.963 217.767,186.186 216.788,186.186 216.631 C 186.186 216.474,185.443 215.612,184.535 214.715 C 183.626 213.818,182.883 212.939,182.883 212.763 C 182.883 212.586,182.140 211.708,181.231 210.811 C 180.323 209.914,179.580 209.035,179.580 208.859 C 179.580 208.682,178.836 207.804,177.928 206.907 C 177.020 206.010,176.276 205.116,176.276 204.921 C 176.276 204.726,175.533 203.851,174.625 202.976 C 173.716 202.101,172.973 201.254,172.973 201.094 C 172.973 200.933,172.196 199.946,171.246 198.899 C 167.075 194.303,166.366 193.476,166.366 193.205 C 166.366 193.047,165.752 192.315,165.001 191.579 C 163.654 190.259,162.763 188.874,162.763 188.101 C 162.763 187.884,162.492 187.225,162.162 186.637 C 161.832 186.049,161.562 185.373,161.562 185.135 C 161.562 184.897,161.291 184.222,160.961 183.634 C 160.631 183.046,160.360 182.370,160.360 182.132 C 160.360 181.894,160.090 181.219,159.760 180.631 C 159.429 180.043,159.159 179.367,159.159 179.129 C 159.159 178.891,158.889 178.216,158.559 177.628 C 158.228 177.040,157.954 176.393,157.949 176.192 C 157.943 175.991,157.538 175.018,157.048 174.032 C 156.557 173.045,156.156 172.069,156.156 171.864 C 156.156 171.658,155.886 171.009,155.556 170.420 C 155.225 169.832,154.955 169.157,154.955 168.919 C 154.955 168.681,154.685 168.006,154.354 167.417 C 154.024 166.829,153.754 166.154,153.754 165.916 C 153.754 165.678,153.483 165.003,153.153 164.414 C 152.823 163.826,152.553 163.151,152.553 162.913 C 152.553 162.675,152.282 162.000,151.952 161.411 C 151.622 160.823,151.351 160.210,151.351 160.048 C 151.351 159.886,151.068 159.113,150.721 158.330 C 149.853 156.371,149.099 154.539,148.651 153.303 C 148.531 152.973,148.144 152.116,147.790 151.398 C 147.437 150.680,147.147 149.844,147.147 149.539 C 147.147 149.234,147.012 148.901,146.847 148.799 C 146.682 148.697,146.547 148.351,146.547 148.030 C 146.547 147.710,146.411 147.447,146.246 147.447 C 146.081 147.447,145.946 147.118,145.946 146.714 C 145.946 146.311,145.811 145.898,145.646 145.796 C 145.480 145.694,145.345 145.348,145.345 145.027 C 145.345 144.707,145.235 144.444,145.099 144.444 C 144.964 144.444,144.669 143.769,144.444 142.943 C 144.220 142.117,143.925 141.441,143.790 141.441 C 143.654 141.441,143.544 141.237,143.544 140.987 C 143.544 140.737,143.387 140.230,143.196 139.861 C 142.468 138.452,142.342 138.133,142.342 137.692 C 142.342 137.442,142.207 137.237,142.042 137.237 C 141.877 137.237,141.742 136.907,141.742 136.504 C 141.742 136.101,141.607 135.688,141.441 135.586 C 141.276 135.484,141.141 135.138,141.141 134.817 C 141.141 134.497,141.006 134.234,140.841 134.234 C 140.676 134.234,140.541 133.904,140.541 133.501 C 140.541 133.098,140.405 132.685,140.240 132.583 C 140.075 132.481,139.940 132.135,139.940 131.814 C 139.940 131.494,139.805 131.231,139.640 131.231 C 139.474 131.231,139.339 130.826,139.339 130.330 C 139.339 129.835,139.204 129.429,139.039 129.429 C 138.874 129.429,138.739 129.159,138.739 128.829 C 138.739 128.498,138.604 128.228,138.438 128.228 C 138.273 128.228,138.138 127.898,138.138 127.495 C 138.138 127.092,138.003 126.679,137.838 126.577 C 137.673 126.474,137.538 126.129,137.538 125.808 C 137.538 125.488,137.402 125.225,137.237 125.225 C 137.072 125.225,136.937 124.963,136.937 124.642 C 136.937 124.322,136.802 123.976,136.637 123.874 C 136.471 123.772,136.336 123.358,136.336 122.955 C 136.336 122.552,136.201 122.222,136.036 122.222 C 135.871 122.222,135.736 121.960,135.736 121.639 C 135.736 121.319,135.601 120.973,135.435 120.871 C 135.270 120.769,135.135 120.355,135.135 119.952 C 135.135 119.549,135.000 119.219,134.835 119.219 C 134.670 119.219,134.535 118.949,134.535 118.619 C 134.535 118.288,134.399 118.018,134.234 118.018 C 134.069 118.018,133.934 117.613,133.934 117.117 C 133.934 116.622,133.799 116.216,133.634 116.216 C 133.468 116.216,133.333 115.946,133.333 115.616 C 133.333 115.285,133.198 115.015,133.033 115.015 C 132.868 115.015,132.733 114.610,132.733 114.114 C 132.733 113.619,132.598 113.213,132.432 113.213 C 132.267 113.213,132.132 112.943,132.132 112.613 C 132.132 112.282,131.997 112.012,131.832 112.012 C 131.667 112.012,131.532 111.682,131.532 111.279 C 131.532 110.876,131.396 110.462,131.231 110.360 C 131.066 110.258,130.931 109.912,130.931 109.592 C 130.931 109.271,130.796 109.009,130.631 109.009 C 130.465 109.009,130.330 108.810,130.330 108.568 C 130.330 108.325,130.060 107.645,129.730 107.057 C 128.679 105.186,129.110 102.309,130.579 101.395 C 130.806 101.253,131.214 100.857,131.487 100.514 C 132.032 99.828,134.812 96.700,137.838 93.369 C 138.911 92.187,139.857 91.042,139.940 90.825 C 140.023 90.608,141.012 89.481,142.138 88.320 C 143.402 87.018,144.152 86.004,144.097 85.673 C 144.049 85.377,144.113 84.969,144.241 84.766 C 144.625 84.154,142.831 81.728,141.967 81.691 C 141.844 81.686,141.185 81.141,140.505 80.480 C 139.824 79.820,139.148 79.279,139.003 79.279 C 138.858 79.279,138.182 78.739,137.502 78.078 C 136.821 77.417,136.134 76.877,135.976 76.877 C 135.818 76.877,135.153 76.336,134.499 75.676 C 133.845 75.015,133.180 74.474,133.022 74.474 C 132.863 74.474,132.176 73.934,131.496 73.273 C 130.815 72.613,130.139 72.072,129.994 72.072 C 129.849 72.072,129.173 71.532,128.493 70.871 C 127.812 70.210,127.136 69.670,126.991 69.670 C 126.847 69.670,126.154 69.129,125.453 68.468 C 124.751 67.808,124.076 67.267,123.951 67.267 C 123.826 67.267,123.167 66.727,122.487 66.066 C 121.806 65.405,121.130 64.865,120.985 64.865 C 120.841 64.865,120.148 64.324,119.447 63.664 C 118.745 63.003,118.051 62.462,117.905 62.462 C 117.758 62.462,117.419 62.220,117.152 61.923 C 116.885 61.626,116.194 61.052,115.616 60.648 C 115.038 60.244,114.042 59.405,113.402 58.785 C 112.763 58.165,112.121 57.658,111.976 57.658 C 111.831 57.658,111.139 57.117,110.438 56.456 C 109.736 55.796,109.059 55.255,108.933 55.255 C 108.807 55.255,108.279 54.850,107.761 54.354 C 107.242 53.859,106.703 53.453,106.564 53.453 C 106.424 53.453,105.619 52.778,104.776 51.952 C 103.933 51.126,103.120 50.450,102.970 50.450 C 102.820 50.450,102.273 50.045,101.755 49.550 C 101.236 49.054,100.697 48.649,100.556 48.649 C 100.416 48.649,99.744 48.108,99.063 47.447 C 98.382 46.787,97.707 46.246,97.563 46.246 C 97.418 46.246,96.610 45.571,95.767 44.745 C 94.924 43.919,94.094 43.243,93.924 43.243 C 93.753 43.243,93.395 43.000,93.128 42.703 C 92.861 42.407,92.170 41.840,91.592 41.445 C 91.014 41.050,90.168 40.347,89.712 39.883 C 89.256 39.419,88.770 39.039,88.631 39.039 C 88.491 39.039,87.986 38.666,87.507 38.210 C 87.028 37.754,86.164 37.047,85.586 36.640 C 85.008 36.232,84.248 35.626,83.897 35.292 C 83.547 34.958,82.280 33.941,81.081 33.033 C 79.883 32.125,78.590 31.080,78.209 30.711 C 76.434 28.995,74.026 28.388,72.450 29.260 " stroke="none" fill="#fbfbfb" fill-rule="evenodd"></path><path id="path1" d="M193.459 29.976 C 191.926 31.575,190.427 33.288,190.128 33.784 C 189.829 34.279,188.921 35.293,188.110 36.036 C 187.300 36.779,186.442 37.765,186.204 38.226 C 185.966 38.687,185.129 39.665,184.344 40.399 C 183.559 41.133,182.521 42.310,182.036 43.014 C 181.551 43.718,180.463 44.942,179.616 45.733 C 178.770 46.524,178.078 47.335,178.077 47.535 C 178.077 47.734,177.132 48.816,175.977 49.937 C 174.822 51.059,173.685 52.343,173.450 52.790 C 173.215 53.238,172.134 54.455,171.046 55.495 C 169.959 56.536,169.069 57.539,169.069 57.725 C 169.069 58.044,167.490 59.836,162.851 64.775 C 161.734 65.965,160.767 67.114,160.701 67.328 C 160.635 67.542,159.687 68.695,158.594 69.890 C 157.501 71.085,155.661 73.149,154.505 74.476 C 153.348 75.803,151.423 77.943,150.225 79.232 C 149.028 80.520,148.048 81.704,148.048 81.863 C 148.048 82.021,147.237 82.953,146.246 83.934 C 145.255 84.915,144.444 85.897,144.444 86.116 C 144.444 86.336,143.498 87.448,142.342 88.589 C 141.186 89.729,140.240 90.806,140.240 90.982 C 140.240 91.158,139.362 92.181,138.288 93.254 C 137.215 94.328,136.336 95.336,136.336 95.495 C 136.336 95.655,135.458 96.663,134.384 97.737 C 133.311 98.810,132.432 99.803,132.432 99.943 C 132.432 100.084,131.757 100.881,130.931 101.716 C 129.511 103.150,128.635 106.306,129.656 106.306 C 129.781 106.306,130.062 106.745,130.280 107.282 C 130.498 107.819,130.936 108.778,131.254 109.413 C 131.572 110.048,131.832 110.753,131.832 110.980 C 131.832 111.207,132.102 111.874,132.432 112.462 C 132.763 113.051,133.033 113.726,133.033 113.964 C 133.033 114.202,133.303 114.877,133.634 115.465 C 133.964 116.054,134.234 116.721,134.234 116.948 C 134.234 117.175,134.524 117.948,134.877 118.665 C 135.231 119.383,135.637 120.274,135.778 120.646 C 135.920 121.017,136.189 121.693,136.377 122.147 C 136.564 122.601,136.815 123.243,136.934 123.574 C 137.054 123.904,137.441 124.761,137.795 125.479 C 138.149 126.196,138.438 126.969,138.438 127.196 C 138.438 127.424,138.709 128.091,139.039 128.679 C 139.369 129.267,139.640 129.942,139.640 130.180 C 139.640 130.418,139.910 131.094,140.240 131.682 C 140.571 132.270,140.841 132.945,140.841 133.183 C 140.841 133.421,141.111 134.097,141.441 134.685 C 141.772 135.273,142.042 135.940,142.042 136.167 C 142.042 136.394,142.332 137.167,142.685 137.885 C 143.039 138.602,143.444 139.493,143.586 139.865 C 143.728 140.236,143.979 140.878,144.144 141.291 C 144.309 141.704,144.560 142.346,144.702 142.718 C 144.844 143.089,145.249 143.980,145.603 144.698 C 145.957 145.416,146.246 146.189,146.246 146.416 C 146.246 146.643,146.517 147.310,146.847 147.898 C 147.177 148.486,147.447 149.162,147.447 149.399 C 147.447 149.637,147.718 150.313,148.048 150.901 C 148.378 151.489,148.649 152.103,148.649 152.265 C 148.649 152.427,148.932 153.200,149.279 153.982 C 149.626 154.765,150.013 155.676,150.140 156.006 C 150.267 156.336,150.523 156.978,150.711 157.432 C 150.898 157.887,151.167 158.562,151.309 158.934 C 151.450 159.306,151.856 160.197,152.210 160.914 C 152.563 161.632,152.853 162.405,152.853 162.632 C 152.853 162.859,153.123 163.526,153.453 164.114 C 153.784 164.702,154.054 165.378,154.054 165.616 C 154.054 165.853,154.324 166.529,154.655 167.117 C 154.985 167.705,155.255 168.381,155.255 168.619 C 155.255 168.856,155.526 169.532,155.856 170.120 C 156.186 170.708,156.456 171.375,156.456 171.602 C 156.456 171.829,156.746 172.602,157.100 173.320 C 157.453 174.038,157.875 174.962,158.036 175.375 C 158.197 175.788,158.448 176.361,158.594 176.648 C 158.739 176.934,158.859 177.374,158.859 177.624 C 158.859 177.874,158.994 178.078,159.159 178.078 C 159.324 178.078,159.459 178.344,159.459 178.670 C 159.459 178.995,159.730 179.742,160.060 180.330 C 160.390 180.918,160.661 181.594,160.661 181.832 C 160.661 182.070,160.931 182.745,161.261 183.333 C 161.592 183.921,161.862 184.597,161.862 184.835 C 161.862 185.073,162.132 185.748,162.462 186.336 C 162.793 186.924,163.063 187.739,163.063 188.147 C 163.063 188.555,163.198 188.889,163.363 188.889 C 163.529 188.889,163.664 189.100,163.664 189.359 C 163.664 189.617,164.339 190.487,165.165 191.291 C 165.991 192.096,166.667 192.880,166.667 193.033 C 166.667 193.187,167.410 194.086,168.318 195.032 C 169.227 195.977,169.970 196.871,169.970 197.017 C 169.970 197.164,170.713 198.027,171.622 198.936 C 172.530 199.844,173.273 200.717,173.273 200.874 C 173.273 201.032,173.868 201.745,174.594 202.457 C 175.321 203.170,176.426 204.429,177.049 205.255 C 177.673 206.081,178.565 207.115,179.031 207.553 C 179.498 207.991,179.880 208.479,179.880 208.639 C 179.880 208.798,180.623 209.702,181.532 210.647 C 182.440 211.593,183.183 212.486,183.183 212.633 C 183.183 212.780,183.926 213.643,184.835 214.552 C 185.743 215.460,186.486 216.340,186.486 216.508 C 186.486 216.676,187.297 217.636,188.288 218.643 C 189.279 219.649,190.090 220.595,190.090 220.745 C 190.090 220.895,190.766 221.708,191.592 222.551 C 192.417 223.395,193.093 224.211,193.093 224.365 C 193.093 224.716,194.865 226.451,195.736 226.952 C 196.579 227.437,199.817 227.437,200.661 226.952 C 201.519 226.458,203.303 224.718,203.303 224.375 C 203.303 224.226,204.047 223.331,204.955 222.386 C 205.863 221.440,206.607 220.547,206.607 220.400 C 206.607 220.253,207.350 219.390,208.258 218.482 C 209.167 217.573,209.910 216.693,209.910 216.525 C 209.910 216.357,210.721 215.397,211.712 214.390 C 212.703 213.384,213.514 212.428,213.514 212.267 C 213.514 212.105,214.189 211.315,215.015 210.511 C 215.841 209.706,216.517 208.925,216.517 208.774 C 216.517 208.623,217.327 207.648,218.318 206.607 C 219.309 205.565,220.120 204.590,220.120 204.439 C 220.120 204.288,220.796 203.507,221.622 202.703 C 222.447 201.898,223.123 201.117,223.123 200.966 C 223.123 200.816,223.934 199.840,224.925 198.799 C 225.916 197.757,226.727 196.782,226.727 196.631 C 226.727 196.481,227.402 195.699,228.228 194.895 C 229.054 194.091,229.730 193.302,229.730 193.143 C 229.730 192.984,230.405 192.164,231.231 191.320 C 232.057 190.477,232.733 189.585,232.733 189.338 C 232.733 189.091,232.868 188.889,233.033 188.889 C 233.198 188.889,233.333 188.483,233.333 187.988 C 233.333 187.492,233.468 187.087,233.634 187.087 C 233.799 187.087,233.934 186.817,233.934 186.486 C 233.934 186.156,234.069 185.886,234.234 185.886 C 234.399 185.886,234.535 185.480,234.535 184.985 C 234.535 184.489,234.670 184.084,234.835 184.084 C 235.000 184.084,235.135 183.814,235.135 183.483 C 235.135 183.153,235.270 182.883,235.435 182.883 C 235.601 182.883,235.736 182.477,235.736 181.982 C 235.736 181.486,235.871 181.081,236.036 181.081 C 236.201 181.081,236.336 180.811,236.336 180.480 C 236.336 180.150,236.471 179.880,236.637 179.880 C 236.802 179.880,236.937 179.550,236.937 179.147 C 236.937 178.744,237.072 178.330,237.237 178.228 C 237.402 178.126,237.538 177.780,237.538 177.460 C 237.538 177.139,237.673 176.877,237.838 176.877 C 238.003 176.877,238.138 176.615,238.138 176.294 C 238.138 175.973,238.273 175.628,238.438 175.526 C 238.604 175.423,238.739 175.010,238.739 174.607 C 238.739 174.204,238.874 173.874,239.039 173.874 C 239.204 173.874,239.339 173.612,239.339 173.291 C 239.339 172.970,239.474 172.625,239.640 172.523 C 239.805 172.420,239.940 172.007,239.940 171.604 C 239.940 171.201,240.075 170.871,240.240 170.871 C 240.405 170.871,240.541 170.601,240.541 170.270 C 240.541 169.940,240.676 169.670,240.841 169.670 C 241.006 169.670,241.141 169.264,241.141 168.769 C 241.141 168.273,241.276 167.868,241.441 167.868 C 241.607 167.868,241.742 167.606,241.742 167.285 C 241.742 166.964,241.877 166.619,242.042 166.517 C 242.207 166.414,242.342 166.001,242.342 165.598 C 242.342 165.195,242.477 164.865,242.643 164.865 C 242.808 164.865,242.943 164.660,242.943 164.410 C 242.943 164.160,243.062 163.721,243.208 163.434 C 243.489 162.883,244.051 161.562,244.485 160.435 C 244.816 159.575,245.252 158.484,245.686 157.432 C 245.873 156.978,246.124 156.336,246.244 156.006 C 246.363 155.676,246.751 154.818,247.105 154.101 C 247.458 153.383,247.748 152.610,247.748 152.383 C 247.748 152.156,248.018 151.489,248.348 150.901 C 248.679 150.313,248.949 149.646,248.949 149.419 C 248.949 149.192,249.238 148.419,249.592 147.701 C 250.194 146.479,250.446 145.895,251.091 144.219 C 251.422 143.359,251.859 142.268,252.292 141.216 C 252.480 140.762,252.731 140.120,252.850 139.790 C 252.970 139.459,253.357 138.602,253.711 137.885 C 254.065 137.167,254.354 136.394,254.354 136.167 C 254.354 135.940,254.625 135.273,254.955 134.685 C 255.285 134.097,255.556 133.421,255.556 133.183 C 255.556 132.945,255.826 132.270,256.156 131.682 C 256.486 131.094,256.757 130.427,256.757 130.199 C 256.757 129.972,257.046 129.199,257.400 128.482 C 257.754 127.764,258.140 126.907,258.258 126.577 C 258.377 126.246,258.763 125.389,259.117 124.671 C 259.470 123.954,259.760 123.181,259.760 122.954 C 259.760 122.727,260.030 122.060,260.360 121.471 C 260.691 120.883,260.961 120.208,260.961 119.970 C 260.961 119.732,261.231 119.057,261.562 118.468 C 261.892 117.880,262.162 117.205,262.162 116.967 C 262.162 116.729,262.432 116.054,262.763 115.465 C 263.093 114.877,263.363 114.130,263.363 113.805 C 263.363 113.479,263.498 113.213,263.664 113.213 C 263.829 113.213,263.964 113.009,263.964 112.759 C 263.964 112.509,264.083 112.070,264.229 111.783 C 264.375 111.496,264.628 110.923,264.790 110.511 C 264.953 110.098,265.509 108.896,266.027 107.841 C 266.967 105.921,267.353 103.003,266.667 103.003 C 266.502 103.003,266.366 102.808,266.366 102.570 C 266.366 102.331,265.961 101.897,265.465 101.604 C 264.970 101.311,264.565 100.908,264.565 100.709 C 264.565 100.510,263.619 99.389,262.462 98.219 C 261.306 97.049,260.360 95.968,260.360 95.817 C 260.360 95.665,259.414 94.584,258.258 93.414 C 257.102 92.244,256.156 91.154,256.156 90.991 C 256.156 90.828,255.210 89.738,254.054 88.568 C 252.898 87.398,251.952 86.278,251.952 86.079 C 251.952 85.880,251.141 84.915,250.150 83.934 C 249.159 82.953,248.348 82.021,248.348 81.863 C 248.348 81.704,247.369 80.517,246.171 79.225 C 240.638 73.253,239.940 72.461,239.940 72.164 C 239.940 71.989,238.994 70.925,237.838 69.799 C 236.682 68.673,235.736 67.592,235.736 67.396 C 235.736 67.201,234.790 66.120,233.634 64.994 C 232.477 63.868,231.532 62.787,231.532 62.591 C 231.532 62.396,230.586 61.315,229.429 60.189 C 228.273 59.063,227.327 57.972,227.327 57.764 C 227.327 57.557,226.438 56.536,225.350 55.495 C 224.263 54.455,223.168 53.213,222.918 52.735 C 222.668 52.257,221.723 51.184,220.819 50.350 C 219.915 49.516,218.963 48.423,218.703 47.921 C 218.443 47.418,217.439 46.276,216.473 45.383 C 215.506 44.489,214.715 43.591,214.715 43.386 C 214.715 43.181,213.825 42.153,212.737 41.101 C 211.649 40.050,210.557 38.803,210.309 38.330 C 210.062 37.857,209.060 36.700,208.083 35.759 C 207.106 34.817,206.306 33.898,206.306 33.717 C 206.306 33.535,205.327 32.380,204.129 31.150 C 202.932 29.921,201.800 28.726,201.613 28.496 C 200.651 27.308,199.974 27.027,198.120 27.048 L 196.246 27.069 193.459 29.976 M158.408 87.946 C 159.188 88.427,165.866 94.342,175.225 102.842 C 181.928 108.928,185.875 112.312,186.273 112.312 C 186.654 112.312,189.929 107.000,191.812 103.326 C 193.863 99.328,193.323 99.368,216.066 101.491 C 217.883 101.661,221.802 102.007,224.775 102.260 C 234.836 103.117,236.295 103.900,236.783 108.709 C 239.309 133.596,239.259 135.570,236.056 137.313 C 234.831 137.980,234.650 138.240,233.780 140.566 C 233.260 141.956,230.896 148.228,228.526 154.505 C 226.156 160.781,223.860 166.930,223.425 168.169 C 221.837 172.689,220.340 173.690,216.391 172.874 C 215.056 172.598,211.802 172.171,209.159 171.926 C 206.517 171.681,203.003 171.340,201.351 171.168 C 199.700 170.996,194.970 170.522,190.841 170.115 C 180.277 169.073,180.118 169.052,179.280 168.619 C 177.047 167.464,177.002 167.245,175.961 152.553 C 175.780 149.992,175.506 147.076,175.353 146.071 C 175.200 145.067,175.075 143.310,175.076 142.168 C 175.076 141.025,174.942 138.671,174.777 136.937 C 174.613 135.203,174.343 132.314,174.177 130.518 L 173.875 127.253 166.606 117.606 C 148.629 93.747,150.284 96.444,151.212 92.529 C 152.284 88.004,155.345 86.054,158.408 87.946 " stroke="none" fill="#630404" fill-rule="evenodd"></path><path id="path2" d="M175.720 47.929 C 175.497 48.181,175.374 48.447,175.447 48.520 C 175.520 48.593,175.825 48.381,176.124 48.050 C 176.424 47.719,176.547 47.453,176.398 47.459 C 176.248 47.465,175.944 47.677,175.720 47.929 M235.616 67.237 C 235.871 67.749,236.125 68.168,236.180 68.168 C 236.425 68.168,235.931 66.953,235.561 66.646 C 235.251 66.389,235.264 66.533,235.616 67.237 M242.042 74.568 C 242.042 74.620,242.481 75.059,243.018 75.544 L 243.994 76.426 243.112 75.450 C 242.290 74.541,242.042 74.336,242.042 74.568 M149.080 80.255 L 148.198 81.231 149.174 80.349 C 149.711 79.864,150.150 79.425,150.150 79.373 C 150.150 79.141,149.902 79.346,149.080 80.255 M247.523 80.647 C 247.977 81.152,248.348 81.718,248.348 81.906 C 248.348 82.093,248.471 82.323,248.621 82.415 C 249.283 82.825,248.502 81.358,247.646 80.586 L 246.697 79.730 247.523 80.647 M153.893 87.881 C 152.620 88.517,151.843 89.864,151.212 92.529 C 150.284 96.444,148.629 93.747,166.606 117.606 L 173.875 127.253 174.177 130.518 C 174.343 132.314,174.613 135.203,174.777 136.937 C 174.942 138.671,175.076 141.025,175.076 142.168 C 175.075 143.310,175.200 145.067,175.353 146.071 C 175.506 147.076,175.780 149.992,175.961 152.553 C 177.002 167.245,177.047 167.464,179.280 168.619 C 180.118 169.052,180.277 169.073,190.841 170.115 C 194.970 170.522,199.700 170.996,201.351 171.168 C 203.003 171.340,206.517 171.681,209.159 171.926 C 211.802 172.171,215.056 172.598,216.391 172.874 C 220.340 173.690,221.837 172.689,223.425 168.169 C 223.860 166.930,226.156 160.781,228.526 154.505 C 230.896 148.228,233.260 141.956,233.780 140.566 C 234.650 138.240,234.831 137.980,236.056 137.313 C 239.259 135.570,239.309 133.596,236.783 108.709 C 236.295 103.900,234.836 103.117,224.775 102.260 C 221.802 102.007,217.883 101.661,216.066 101.491 C 193.323 99.368,193.863 99.328,191.812 103.326 C 189.929 107.000,186.654 112.312,186.273 112.312 C 185.875 112.312,181.928 108.928,175.225 102.842 C 156.798 86.108,157.067 86.296,153.893 87.881 " stroke="none" fill="#4c0404" fill-rule="evenodd"></path><path id="path3" d="M194.863 26.650 C 193.972 27.187,193.354 27.626,193.490 27.626 C 193.626 27.627,193.558 27.826,193.340 28.068 C 192.543 28.952,192.192 29.408,192.192 29.561 C 192.192 29.647,191.246 30.660,190.090 31.811 C 188.934 32.963,187.988 34.039,187.988 34.203 C 187.988 34.366,187.750 34.677,187.460 34.893 C 186.662 35.486,184.384 38.323,184.384 38.723 C 184.384 38.916,184.260 38.997,184.107 38.903 C 183.955 38.809,183.553 39.120,183.215 39.595 C 182.877 40.069,182.191 40.896,181.691 41.432 C 181.190 41.967,180.781 42.535,180.781 42.692 C 180.781 42.850,180.672 42.911,180.540 42.829 C 180.407 42.747,179.970 43.212,179.568 43.863 C 179.166 44.513,178.755 45.045,178.654 45.045 C 178.327 45.045,177.339 46.076,176.877 46.899 C 176.367 47.806,173.646 50.751,173.318 50.751 C 173.199 50.751,172.843 51.190,172.526 51.727 C 172.209 52.264,171.254 53.416,170.403 54.288 C 168.724 56.008,166.967 58.114,166.967 58.405 C 166.967 58.506,166.042 59.527,164.912 60.675 C 163.782 61.823,162.938 62.767,163.035 62.772 C 163.133 62.777,162.977 62.919,162.688 63.087 C 162.399 63.255,162.162 63.531,162.162 63.700 C 162.162 64.133,161.371 64.874,161.147 64.650 C 161.045 64.548,160.961 64.661,160.961 64.902 C 160.961 65.143,160.454 65.817,159.835 66.399 C 159.215 66.982,158.665 67.649,158.611 67.881 C 158.557 68.114,157.983 68.809,157.335 69.425 C 156.686 70.042,156.156 70.679,156.156 70.842 C 156.156 71.004,155.758 71.372,155.272 71.660 C 154.785 71.947,154.456 72.294,154.540 72.430 C 154.624 72.566,154.481 72.758,154.223 72.857 C 153.965 72.956,153.754 73.169,153.754 73.329 C 153.754 73.489,153.213 74.140,152.553 74.775 C 151.892 75.410,151.351 76.066,151.351 76.232 C 151.351 76.399,151.079 76.623,150.746 76.728 C 150.414 76.834,150.219 77.046,150.314 77.199 C 150.408 77.352,150.275 77.477,150.018 77.477 C 149.760 77.477,149.550 77.691,149.550 77.951 C 149.550 78.212,149.009 78.945,148.348 79.580 C 147.688 80.214,147.147 80.887,147.147 81.075 C 147.147 81.263,147.022 81.339,146.868 81.245 C 146.715 81.150,146.502 81.349,146.395 81.687 C 146.287 82.025,145.850 82.651,145.423 83.078 C 144.995 83.506,144.634 84.211,144.620 84.645 C 144.590 85.592,146.815 83.629,147.981 81.682 C 148.327 81.104,149.429 79.894,150.431 78.993 C 151.433 78.092,152.252 77.170,152.252 76.943 C 152.252 76.716,153.198 75.596,154.354 74.454 C 155.511 73.311,156.456 72.223,156.456 72.035 C 156.456 71.848,157.402 70.783,158.559 69.670 C 159.715 68.556,160.661 67.452,160.661 67.216 C 160.661 66.980,161.606 65.915,162.761 64.850 C 163.916 63.784,164.862 62.726,164.863 62.499 C 164.864 62.271,165.811 61.173,166.967 60.060 C 168.123 58.947,169.069 57.875,169.069 57.678 C 169.069 57.481,170.015 56.372,171.171 55.214 C 172.327 54.055,173.273 52.969,173.273 52.800 C 173.273 52.630,174.287 51.475,175.526 50.232 C 176.764 48.990,177.778 47.826,177.778 47.647 C 177.778 47.468,178.656 46.485,179.730 45.463 C 180.803 44.441,181.682 43.444,181.682 43.248 C 181.682 43.053,182.695 41.889,183.934 40.662 C 185.173 39.435,186.186 38.269,186.186 38.071 C 186.186 37.874,187.065 36.875,188.138 35.853 C 189.212 34.831,190.090 33.823,190.090 33.613 C 190.090 33.403,191.036 32.313,192.192 31.190 C 193.348 30.068,194.294 29.018,194.294 28.856 C 194.294 28.695,194.700 28.323,195.195 28.030 C 195.691 27.738,196.096 27.392,196.096 27.263 C 196.096 27.133,197.042 27.027,198.198 27.027 C 199.399 27.027,200.300 27.156,200.300 27.327 C 200.300 27.492,200.513 27.628,200.772 27.628 C 201.309 27.628,202.102 28.328,202.102 28.803 C 202.102 28.977,202.990 29.966,204.074 31.001 C 205.159 32.036,206.261 33.288,206.523 33.784 C 206.785 34.279,207.718 35.343,208.596 36.148 C 209.475 36.953,210.284 37.898,210.395 38.247 C 210.506 38.596,211.523 39.763,212.656 40.841 C 213.788 41.919,214.715 42.956,214.715 43.145 C 214.715 43.335,215.661 44.432,216.817 45.584 C 217.973 46.735,218.919 47.825,218.919 48.004 C 218.919 48.184,219.770 49.180,220.810 50.217 C 221.850 51.254,222.953 52.508,223.262 53.003 C 223.571 53.498,224.477 54.500,225.275 55.228 C 226.073 55.956,227.053 57.105,227.452 57.781 C 227.852 58.456,228.753 59.480,229.456 60.055 C 230.158 60.631,231.103 61.685,231.556 62.399 C 232.008 63.112,233.187 64.432,234.175 65.333 C 235.163 66.234,236.048 67.274,236.141 67.644 C 236.235 68.015,237.065 68.976,237.987 69.780 C 238.909 70.583,239.918 71.742,240.231 72.354 C 240.543 72.966,241.415 73.972,242.169 74.590 C 242.923 75.208,243.877 76.288,244.289 76.992 C 244.702 77.695,245.851 78.982,246.844 79.853 C 247.836 80.723,248.649 81.632,248.649 81.872 C 248.649 82.112,249.364 83.019,250.239 83.887 C 251.819 85.453,251.829 85.458,251.697 84.549 C 251.624 84.046,251.314 83.415,251.007 83.148 C 250.701 82.881,250.450 82.525,250.450 82.358 C 250.450 82.190,249.640 81.232,248.649 80.229 C 247.658 79.225,246.847 78.266,246.847 78.097 C 246.847 77.928,245.901 76.848,244.745 75.696 C 243.589 74.545,242.643 73.393,242.643 73.138 C 242.643 72.882,242.440 72.673,242.192 72.673 C 241.944 72.673,241.742 72.540,241.742 72.379 C 241.742 72.217,240.998 71.353,240.090 70.459 C 239.182 69.565,238.438 68.676,238.438 68.483 C 238.438 68.290,238.303 68.216,238.138 68.318 C 237.973 68.420,237.838 68.226,237.838 67.886 C 237.838 67.509,237.642 67.267,237.337 67.267 C 237.062 67.267,236.920 67.184,237.022 67.083 C 237.123 66.981,236.538 66.246,235.720 65.450 C 234.903 64.654,234.234 63.908,234.234 63.793 C 234.234 63.677,233.930 63.279,233.559 62.909 C 232.214 61.569,231.231 60.343,231.231 60.005 C 231.231 59.815,231.148 59.743,231.045 59.846 C 230.821 60.070,230.030 59.328,230.030 58.894 C 230.030 58.476,228.607 57.078,228.397 57.289 C 228.304 57.382,228.228 57.232,228.228 56.957 C 228.228 56.682,228.093 56.456,227.928 56.456 C 227.763 56.456,227.628 56.246,227.628 55.988 C 227.628 55.731,227.508 55.594,227.361 55.685 C 227.039 55.884,225.472 53.908,225.739 53.641 C 225.842 53.538,225.678 53.453,225.375 53.453 C 225.073 53.453,224.893 53.385,224.977 53.301 C 225.061 53.217,224.442 52.429,223.601 51.550 C 221.329 49.174,220.420 48.089,220.420 47.750 C 220.420 47.584,220.285 47.447,220.120 47.447 C 219.955 47.447,219.820 47.222,219.820 46.947 C 219.820 46.672,219.739 46.528,219.640 46.627 C 219.420 46.846,217.417 44.889,217.417 44.454 C 217.417 44.284,217.282 44.144,217.117 44.144 C 216.952 44.144,216.817 44.021,216.817 43.871 C 216.817 43.721,216.222 42.987,215.496 42.239 C 214.769 41.492,213.789 40.372,213.318 39.751 C 212.848 39.130,211.956 38.119,211.336 37.503 C 210.717 36.887,210.210 36.230,210.210 36.042 C 210.210 35.854,210.075 35.784,209.910 35.886 C 209.745 35.988,209.610 35.954,209.610 35.810 C 209.610 35.666,209.373 35.287,209.084 34.966 C 208.795 34.646,208.086 33.756,207.508 32.988 C 206.929 32.221,206.370 31.645,206.264 31.710 C 206.158 31.774,205.482 31.019,204.762 30.031 C 204.042 29.043,203.352 28.233,203.228 28.231 C 203.104 28.230,203.003 28.018,203.003 27.760 C 203.003 27.503,202.868 27.375,202.703 27.477 C 202.538 27.580,202.402 27.444,202.402 27.177 C 202.402 26.910,202.266 26.775,202.100 26.878 C 201.934 26.981,201.721 26.866,201.628 26.623 C 201.143 25.359,196.980 25.377,194.863 26.650 " stroke="none" fill="#405c8c" fill-rule="evenodd"></path><path id="path4" d="M197.372 25.741 C 197.827 25.809,198.570 25.809,199.024 25.741 C 199.478 25.672,199.107 25.616,198.198 25.616 C 197.290 25.616,196.918 25.672,197.372 25.741 M191.138 30.333 C 190.665 30.827,190.351 31.231,190.441 31.231 C 190.718 31.231,192.267 29.704,192.129 29.566 C 192.057 29.494,191.611 29.840,191.138 30.333 M205.405 30.931 C 205.758 31.426,206.114 31.832,206.197 31.832 C 206.280 31.832,206.059 31.426,205.706 30.931 C 205.353 30.435,204.997 30.030,204.914 30.030 C 204.831 30.030,205.053 30.435,205.405 30.931 M214.114 40.592 C 214.114 40.890,215.320 42.138,215.466 41.991 C 215.547 41.910,215.276 41.527,214.864 41.140 C 214.451 40.753,214.114 40.506,214.114 40.592 M178.904 44.262 C 178.355 44.678,178.216 45.045,178.606 45.045 C 178.732 45.045,179.003 44.775,179.210 44.444 C 179.647 43.745,179.612 43.724,178.904 44.262 M217.417 44.616 C 217.417 44.840,218.225 45.646,218.450 45.646 C 218.545 45.646,218.455 45.375,218.249 45.045 C 217.897 44.481,217.417 44.234,217.417 44.616 M165.262 59.835 C 164.928 60.206,164.553 60.713,164.429 60.961 C 164.305 61.209,164.623 60.954,165.135 60.395 C 165.647 59.836,166.066 59.329,166.066 59.269 C 166.066 59.032,165.845 59.188,165.262 59.835 M234.234 63.789 C 234.234 64.105,235.139 64.961,235.301 64.799 C 235.377 64.723,235.168 64.416,234.837 64.116 C 234.505 63.816,234.234 63.669,234.234 63.789 M157.505 68.772 C 157.031 69.266,156.780 69.670,156.947 69.670 C 157.293 69.670,158.664 68.174,158.484 67.993 C 158.418 67.928,157.978 68.278,157.505 68.772 M238.438 68.632 C 238.438 68.722,238.793 69.161,239.226 69.608 L 240.013 70.420 239.461 69.444 C 238.976 68.587,238.438 68.159,238.438 68.632 M145.134 82.783 C 144.605 83.346,144.242 83.991,144.329 84.216 C 144.415 84.440,144.354 84.705,144.193 84.805 C 144.032 84.904,143.971 85.255,144.057 85.584 C 144.173 86.028,143.681 86.731,142.152 88.306 C 141.018 89.475,140.023 90.608,139.940 90.825 C 139.857 91.042,138.911 92.187,137.838 93.369 C 134.812 96.700,132.032 99.828,131.487 100.514 C 131.214 100.857,130.806 101.253,130.579 101.395 C 129.110 102.309,128.679 105.186,129.730 107.057 C 130.060 107.645,130.330 108.325,130.330 108.568 C 130.330 108.810,130.465 109.009,130.631 109.009 C 130.796 109.009,130.931 109.271,130.931 109.592 C 130.931 109.912,131.066 110.258,131.231 110.360 C 131.396 110.462,131.532 110.876,131.532 111.279 C 131.532 111.682,131.667 112.012,131.832 112.012 C 131.997 112.012,132.132 112.282,132.132 112.613 C 132.132 112.943,132.267 113.213,132.432 113.213 C 132.598 113.213,132.733 113.619,132.733 114.114 C 132.733 114.610,132.868 115.015,133.033 115.015 C 133.198 115.015,133.333 115.285,133.333 115.616 C 133.333 115.946,133.468 116.216,133.634 116.216 C 133.799 116.216,133.934 116.622,133.934 117.117 C 133.934 117.613,134.069 118.018,134.234 118.018 C 134.399 118.018,134.535 118.288,134.535 118.619 C 134.535 118.949,134.670 119.219,134.835 119.219 C 135.000 119.219,135.135 119.549,135.135 119.952 C 135.135 120.355,135.270 120.769,135.435 120.871 C 135.601 120.973,135.736 121.319,135.736 121.639 C 135.736 121.960,135.871 122.222,136.036 122.222 C 136.201 122.222,136.336 122.552,136.336 122.955 C 136.336 123.358,136.471 123.772,136.637 123.874 C 136.802 123.976,136.937 124.322,136.937 124.642 C 136.937 124.963,137.072 125.225,137.237 125.225 C 137.402 125.225,137.538 125.488,137.538 125.808 C 137.538 126.129,137.673 126.474,137.838 126.577 C 138.003 126.679,138.138 127.092,138.138 127.495 C 138.138 127.898,138.273 128.228,138.438 128.228 C 138.604 128.228,138.739 128.498,138.739 128.829 C 138.739 129.159,138.874 129.429,139.039 129.429 C 139.204 129.429,139.339 129.835,139.339 130.330 C 139.339 130.826,139.474 131.231,139.640 131.231 C 139.805 131.231,139.940 131.494,139.940 131.814 C 139.940 132.135,140.075 132.481,140.240 132.583 C 140.405 132.685,140.541 133.098,140.541 133.501 C 140.541 133.904,140.676 134.234,140.841 134.234 C 141.006 134.234,141.141 134.497,141.141 134.817 C 141.141 135.138,141.276 135.484,141.441 135.586 C 141.607 135.688,141.742 136.101,141.742 136.504 C 141.742 136.907,141.877 137.237,142.042 137.237 C 142.207 137.237,142.342 137.442,142.342 137.692 C 142.342 138.133,142.468 138.452,143.196 139.861 C 143.387 140.230,143.544 140.737,143.544 140.987 C 143.544 141.237,143.654 141.441,143.790 141.441 C 143.925 141.441,144.220 142.117,144.444 142.943 C 144.669 143.769,144.964 144.444,145.099 144.444 C 145.235 144.444,145.345 144.707,145.345 145.027 C 145.345 145.348,145.480 145.694,145.646 145.796 C 145.811 145.898,145.946 146.311,145.946 146.714 C 145.946 147.118,146.081 147.447,146.246 147.447 C 146.411 147.447,146.547 147.710,146.547 148.030 C 146.547 148.351,146.682 148.697,146.847 148.799 C 147.012 148.901,147.147 149.234,147.147 149.539 C 147.147 149.844,147.437 150.680,147.790 151.398 C 148.144 152.116,148.550 153.007,148.691 153.378 C 148.833 153.750,149.084 154.392,149.249 154.805 C 149.414 155.218,149.671 155.860,149.820 156.231 C 149.969 156.603,150.374 157.547,150.721 158.330 C 151.068 159.113,151.351 159.886,151.351 160.048 C 151.351 160.210,151.622 160.823,151.952 161.411 C 152.282 162.000,152.553 162.675,152.553 162.913 C 152.553 163.151,152.823 163.826,153.153 164.414 C 153.483 165.003,153.754 165.678,153.754 165.916 C 153.754 166.154,154.024 166.829,154.354 167.417 C 154.685 168.006,154.955 168.681,154.955 168.919 C 154.955 169.157,155.225 169.832,155.556 170.420 C 155.886 171.009,156.156 171.658,156.156 171.864 C 156.156 172.069,156.557 173.045,157.048 174.032 C 157.538 175.018,157.943 175.991,157.949 176.192 C 157.954 176.393,158.228 177.040,158.559 177.628 C 158.889 178.216,159.159 178.891,159.159 179.129 C 159.159 179.367,159.429 180.043,159.760 180.631 C 160.090 181.219,160.360 181.894,160.360 182.132 C 160.360 182.370,160.631 183.046,160.961 183.634 C 161.291 184.222,161.562 184.897,161.562 185.135 C 161.562 185.373,161.832 186.049,162.162 186.637 C 162.492 187.225,162.763 187.884,162.763 188.101 C 162.763 188.874,163.654 190.259,165.001 191.579 C 165.752 192.315,166.366 193.047,166.366 193.205 C 166.366 193.476,167.075 194.303,171.246 198.899 C 172.196 199.946,172.973 200.932,172.973 201.091 C 172.973 201.437,175.147 203.604,175.495 203.604 C 175.629 203.604,175.348 203.232,174.870 202.778 C 174.392 202.324,173.670 201.481,173.266 200.905 C 172.861 200.329,171.887 199.201,171.100 198.397 C 170.313 197.594,169.670 196.806,169.670 196.647 C 169.670 196.488,168.994 195.699,168.168 194.895 C 167.342 194.091,166.667 193.280,166.667 193.093 C 166.667 192.906,165.991 192.096,165.165 191.291 C 164.339 190.487,163.664 189.617,163.664 189.359 C 163.664 189.100,163.529 188.889,163.363 188.889 C 163.198 188.889,163.063 188.483,163.063 187.988 C 163.063 187.492,162.928 187.087,162.763 187.087 C 162.598 187.087,162.462 186.817,162.462 186.486 C 162.462 186.156,162.327 185.886,162.162 185.886 C 161.997 185.886,161.862 185.480,161.862 184.985 C 161.862 184.489,161.727 184.084,161.562 184.084 C 161.396 184.084,161.261 183.814,161.261 183.483 C 161.261 183.153,161.126 182.883,160.961 182.883 C 160.796 182.883,160.661 182.477,160.661 181.982 C 160.661 181.486,160.526 181.081,160.360 181.081 C 160.195 181.081,160.060 180.811,160.060 180.480 C 160.060 180.150,159.925 179.880,159.760 179.880 C 159.595 179.880,159.459 179.550,159.459 179.147 C 159.459 178.744,159.324 178.330,159.159 178.228 C 158.994 178.126,158.859 177.780,158.859 177.460 C 158.859 177.139,158.724 176.877,158.559 176.877 C 158.393 176.877,158.258 176.547,158.258 176.144 C 158.258 175.741,158.123 175.327,157.958 175.225 C 157.793 175.123,157.658 174.777,157.658 174.457 C 157.658 174.136,157.523 173.874,157.357 173.874 C 157.192 173.874,157.057 173.612,157.057 173.291 C 157.057 172.970,156.922 172.625,156.757 172.523 C 156.592 172.420,156.456 172.007,156.456 171.604 C 156.456 171.201,156.321 170.871,156.156 170.871 C 155.991 170.871,155.856 170.609,155.856 170.288 C 155.856 169.967,155.721 169.622,155.556 169.520 C 155.390 169.417,155.255 169.004,155.255 168.601 C 155.255 168.198,155.120 167.868,154.955 167.868 C 154.790 167.868,154.655 167.606,154.655 167.285 C 154.655 166.964,154.520 166.619,154.354 166.517 C 154.189 166.414,154.054 166.081,154.054 165.776 C 154.054 165.471,153.765 164.635,153.411 163.917 C 153.057 163.200,152.652 162.309,152.510 161.937 C 152.368 161.565,152.117 160.923,151.952 160.511 C 151.787 160.098,151.536 159.456,151.394 159.084 C 151.252 158.712,150.847 157.821,150.493 157.104 C 150.139 156.386,149.850 155.542,149.850 155.227 C 149.850 154.912,149.715 154.655,149.550 154.655 C 149.384 154.655,149.249 154.392,149.249 154.072 C 149.249 153.751,149.114 153.405,148.949 153.303 C 148.784 153.201,148.649 152.788,148.649 152.385 C 148.649 151.982,148.514 151.652,148.348 151.652 C 148.183 151.652,148.048 151.381,148.048 151.051 C 148.048 150.721,147.913 150.450,147.748 150.450 C 147.583 150.450,147.447 150.045,147.447 149.550 C 147.447 149.054,147.312 148.649,147.147 148.649 C 146.982 148.649,146.847 148.386,146.847 148.066 C 146.847 147.745,146.712 147.399,146.547 147.297 C 146.381 147.195,146.246 146.782,146.246 146.379 C 146.246 145.976,146.111 145.646,145.946 145.646 C 145.781 145.646,145.646 145.441,145.646 145.191 C 145.646 144.941,145.526 144.502,145.380 144.215 C 145.080 143.625,144.282 141.690,143.586 139.865 C 143.444 139.493,143.039 138.602,142.685 137.885 C 142.332 137.167,142.042 136.394,142.042 136.167 C 142.042 135.940,141.772 135.273,141.441 134.685 C 141.111 134.097,140.841 133.421,140.841 133.183 C 140.841 132.945,140.571 132.270,140.240 131.682 C 139.910 131.094,139.640 130.427,139.640 130.199 C 139.640 129.972,139.350 129.199,138.996 128.482 C 138.643 127.764,138.251 126.907,138.125 126.577 C 138.000 126.246,137.614 125.336,137.267 124.553 C 136.920 123.770,136.637 122.997,136.637 122.835 C 136.637 122.673,136.366 122.060,136.036 121.471 C 135.706 120.883,135.435 120.208,135.435 119.970 C 135.435 119.732,135.165 119.057,134.835 118.468 C 134.505 117.880,134.234 117.205,134.234 116.967 C 134.234 116.729,133.964 116.054,133.634 115.465 C 133.303 114.877,133.033 114.202,133.033 113.964 C 133.033 113.726,132.763 113.051,132.432 112.462 C 132.102 111.874,131.832 111.127,131.832 110.802 C 131.832 110.476,131.697 110.210,131.532 110.210 C 131.366 110.210,131.231 110.021,131.231 109.790 C 131.231 109.559,130.826 108.600,130.330 107.658 C 129.424 105.934,129.046 103.003,129.730 103.003 C 129.895 103.003,130.030 102.868,130.030 102.703 C 130.030 102.401,130.683 101.666,134.159 98.056 C 135.191 96.984,136.036 95.988,136.036 95.842 C 136.036 95.696,136.982 94.594,138.138 93.393 C 139.294 92.193,140.240 91.063,140.240 90.882 C 140.240 90.701,140.747 90.072,141.366 89.484 C 143.962 87.017,144.486 86.293,144.579 85.047 C 144.641 84.218,144.920 83.582,145.458 83.043 C 145.891 82.610,146.246 82.126,146.246 81.968 C 146.246 81.595,146.256 81.588,145.134 82.783 M250.450 82.493 C 250.450 82.635,250.721 82.945,251.051 83.183 C 251.381 83.421,251.652 83.915,251.652 84.281 C 251.652 85.522,252.260 86.553,254.170 88.549 C 255.218 89.644,256.128 90.700,256.191 90.894 C 256.254 91.088,257.218 92.200,258.333 93.363 C 259.448 94.527,260.360 95.608,260.360 95.765 C 260.360 95.922,261.306 97.007,262.462 98.177 C 263.619 99.347,264.565 100.430,264.565 100.582 C 264.565 100.735,264.970 101.149,265.465 101.502 C 265.961 101.854,266.366 102.337,266.366 102.573 C 266.366 102.810,266.502 103.003,266.667 103.003 C 267.353 103.003,266.967 105.921,266.027 107.841 C 265.509 108.896,264.969 110.064,264.825 110.435 C 264.682 110.807,264.411 111.483,264.224 111.937 C 264.037 112.391,263.751 113.101,263.588 113.514 C 263.426 113.926,263.174 114.499,263.028 114.786 C 262.882 115.073,262.763 115.512,262.763 115.762 C 262.763 116.012,262.628 116.216,262.462 116.216 C 262.297 116.216,262.162 116.482,262.162 116.808 C 262.162 117.133,261.892 117.880,261.562 118.468 C 261.231 119.057,260.961 119.732,260.961 119.970 C 260.961 120.208,260.691 120.883,260.360 121.471 C 260.030 122.060,259.760 122.735,259.760 122.973 C 259.760 123.211,259.489 123.886,259.159 124.474 C 258.829 125.063,258.559 125.738,258.559 125.976 C 258.559 126.214,258.281 126.901,257.943 127.504 C 257.604 128.107,257.386 128.821,257.458 129.090 C 257.544 129.415,257.600 129.353,257.623 128.904 C 257.642 128.532,257.793 128.228,257.958 128.228 C 258.123 128.228,258.258 127.966,258.258 127.645 C 258.258 127.325,258.393 126.979,258.559 126.877 C 258.724 126.775,258.859 126.361,258.859 125.958 C 258.859 125.555,258.994 125.225,259.159 125.225 C 259.324 125.225,259.459 124.955,259.459 124.625 C 259.459 124.294,259.595 124.024,259.760 124.024 C 259.925 124.024,260.060 123.619,260.060 123.123 C 260.060 122.628,260.195 122.222,260.360 122.222 C 260.526 122.222,260.661 121.952,260.661 121.622 C 260.661 121.291,260.796 121.021,260.961 121.021 C 261.126 121.021,261.261 120.616,261.261 120.120 C 261.261 119.625,261.396 119.219,261.562 119.219 C 261.727 119.219,261.862 118.949,261.862 118.619 C 261.862 118.288,261.997 118.018,262.162 118.018 C 262.327 118.018,262.462 117.688,262.462 117.285 C 262.462 116.882,262.598 116.468,262.763 116.366 C 262.928 116.264,263.063 115.918,263.063 115.598 C 263.063 115.277,263.198 115.015,263.363 115.015 C 263.529 115.015,263.664 114.685,263.664 114.282 C 263.664 113.879,263.799 113.465,263.964 113.363 C 264.129 113.261,264.264 112.915,264.264 112.595 C 264.264 112.274,264.399 112.012,264.565 112.012 C 264.730 112.012,264.865 111.750,264.865 111.429 C 264.865 111.109,265.000 110.763,265.165 110.661 C 265.330 110.559,265.465 110.145,265.465 109.742 C 265.465 109.339,265.601 109.009,265.766 109.009 C 265.931 109.009,266.066 108.739,266.066 108.408 C 266.066 108.078,266.201 107.808,266.366 107.808 C 266.532 107.808,266.667 107.538,266.667 107.207 C 266.667 106.877,266.802 106.607,266.967 106.607 C 268.111 106.607,266.940 101.910,265.620 101.204 C 265.205 100.981,264.865 100.650,264.865 100.467 C 264.865 100.284,263.919 99.195,262.763 98.048 C 261.607 96.901,260.661 95.820,260.661 95.646 C 260.661 95.472,259.715 94.391,258.559 93.243 C 257.402 92.096,256.456 91.034,256.456 90.884 C 256.456 90.733,255.529 89.634,254.396 88.441 C 252.474 86.418,251.581 84.672,252.049 83.854 C 252.118 83.733,251.786 83.319,251.312 82.935 C 250.838 82.551,250.450 82.352,250.450 82.493 M256.802 130.087 C 256.777 130.532,256.622 130.979,256.456 131.081 C 256.291 131.183,256.156 131.529,256.156 131.850 C 256.156 132.170,256.021 132.432,255.856 132.432 C 255.691 132.432,255.574 132.872,255.596 133.408 C 255.631 134.227,255.659 134.263,255.772 133.634 C 255.846 133.221,256.030 132.755,256.182 132.598 C 256.333 132.441,256.456 132.080,256.456 131.797 C 256.456 131.513,256.603 131.232,256.783 131.172 C 256.963 131.113,257.051 130.662,256.978 130.171 C 256.850 129.300,256.846 129.298,256.802 130.087 M254.990 134.760 C 254.971 135.131,254.820 135.435,254.655 135.435 C 254.489 135.435,254.354 135.841,254.354 136.336 C 254.354 136.832,254.219 137.237,254.054 137.237 C 253.889 137.237,253.754 137.508,253.754 137.838 C 253.754 138.168,253.619 138.438,253.453 138.438 C 253.288 138.438,253.153 138.768,253.153 139.171 C 253.153 139.575,253.018 139.988,252.853 140.090 C 252.688 140.192,252.553 140.538,252.553 140.859 C 252.553 141.179,252.442 141.441,252.307 141.441 C 252.171 141.441,251.877 142.117,251.652 142.943 C 251.427 143.769,251.132 144.444,250.997 144.444 C 250.861 144.444,250.751 144.649,250.751 144.899 C 250.751 145.149,250.595 145.656,250.404 146.025 C 249.675 147.434,249.550 147.753,249.550 148.194 C 249.550 148.444,249.414 148.649,249.249 148.649 C 249.084 148.649,248.949 149.054,248.949 149.550 C 248.949 150.045,248.814 150.450,248.649 150.450 C 248.483 150.450,248.348 150.721,248.348 151.051 C 248.348 151.381,248.213 151.652,248.048 151.652 C 247.883 151.652,247.748 151.982,247.748 152.385 C 247.748 152.788,247.613 153.201,247.447 153.303 C 247.282 153.405,247.147 153.751,247.147 154.072 C 247.147 154.392,247.012 154.655,246.847 154.655 C 246.682 154.655,246.547 154.985,246.547 155.388 C 246.547 155.791,246.411 156.204,246.246 156.306 C 246.081 156.408,245.946 156.754,245.946 157.075 C 245.946 157.395,245.835 157.658,245.700 157.658 C 245.565 157.658,245.270 158.333,245.045 159.159 C 244.820 159.985,244.525 160.661,244.390 160.661 C 244.255 160.661,244.144 160.923,244.144 161.244 C 244.144 161.564,244.009 161.910,243.844 162.012 C 243.679 162.114,243.544 162.527,243.544 162.931 C 243.544 163.334,243.408 163.664,243.243 163.664 C 243.078 163.664,242.943 163.934,242.943 164.264 C 242.943 164.595,242.808 164.865,242.643 164.865 C 242.477 164.865,242.342 165.270,242.342 165.766 C 242.342 166.261,242.207 166.667,242.042 166.667 C 241.877 166.667,241.742 166.937,241.742 167.267 C 241.742 167.598,241.607 167.868,241.441 167.868 C 241.276 167.868,241.141 168.273,241.141 168.769 C 241.141 169.264,241.006 169.670,240.841 169.670 C 240.676 169.670,240.541 169.940,240.541 170.270 C 240.541 170.601,240.405 170.871,240.240 170.871 C 240.075 170.871,239.940 171.276,239.940 171.772 C 239.940 172.267,239.805 172.673,239.640 172.673 C 239.474 172.673,239.339 172.943,239.339 173.273 C 239.339 173.604,239.204 173.874,239.039 173.874 C 238.874 173.874,238.739 174.204,238.739 174.607 C 238.739 175.010,238.604 175.423,238.438 175.526 C 238.273 175.628,238.138 175.973,238.138 176.294 C 238.138 176.615,238.003 176.877,237.838 176.877 C 237.673 176.877,237.538 177.207,237.538 177.610 C 237.538 178.013,237.402 178.426,237.237 178.529 C 237.072 178.631,236.937 178.976,236.937 179.297 C 236.937 179.618,236.802 179.880,236.637 179.880 C 236.471 179.880,236.336 180.142,236.336 180.463 C 236.336 180.783,236.201 181.129,236.036 181.231 C 235.871 181.333,235.736 181.747,235.736 182.150 C 235.736 182.553,235.601 182.883,235.435 182.883 C 235.270 182.883,235.135 183.153,235.135 183.483 C 235.135 183.814,235.000 184.084,234.835 184.084 C 234.670 184.084,234.535 184.489,234.535 184.985 C 234.535 185.480,234.399 185.886,234.234 185.886 C 234.069 185.886,233.934 186.148,233.934 186.469 C 233.934 186.789,233.799 187.135,233.634 187.237 C 233.468 187.339,233.333 187.687,233.333 188.010 C 233.333 188.838,232.797 189.666,231.156 191.371 C 230.372 192.187,229.730 192.974,229.730 193.122 C 229.730 193.270,229.054 194.080,228.228 194.924 C 227.402 195.767,226.727 196.582,226.727 196.734 C 226.727 196.886,225.983 197.753,225.075 198.662 C 224.167 199.570,223.423 200.433,223.423 200.580 C 223.423 200.727,222.680 201.620,221.772 202.566 C 220.863 203.511,220.120 204.401,220.120 204.543 C 220.120 204.685,219.309 205.624,218.318 206.631 C 217.327 207.637,216.517 208.583,216.517 208.733 C 216.517 208.883,215.841 209.696,215.015 210.539 C 214.189 211.383,213.514 212.193,213.514 212.341 C 213.514 212.488,212.703 213.432,211.712 214.439 C 210.721 215.445,209.910 216.403,209.910 216.566 C 209.910 216.730,209.399 217.360,208.774 217.966 C 208.149 218.573,207.307 219.540,206.901 220.116 C 206.496 220.692,205.521 221.820,204.734 222.624 C 203.947 223.427,203.303 224.207,203.303 224.357 C 203.303 226.362,197.988 228.195,195.701 226.979 C 194.868 226.535,193.093 224.777,193.093 224.395 C 193.093 224.235,192.350 223.331,191.441 222.386 C 190.533 221.440,189.790 220.547,189.790 220.400 C 189.790 220.253,189.047 219.390,188.138 218.482 C 187.230 217.573,186.486 216.689,186.486 216.517 C 186.486 216.344,185.743 215.460,184.835 214.552 C 183.926 213.643,183.183 212.771,183.183 212.613 C 183.183 212.455,182.440 211.582,181.532 210.674 C 180.623 209.765,179.880 208.902,179.880 208.756 C 179.880 208.609,179.144 207.724,178.246 206.788 C 177.347 205.853,176.527 204.821,176.424 204.496 C 176.320 204.170,176.120 203.904,175.979 203.904 C 175.465 203.904,176.585 205.591,178.064 207.046 C 178.898 207.865,179.580 208.681,179.580 208.858 C 179.580 209.035,180.323 209.914,181.231 210.811 C 182.140 211.708,182.883 212.586,182.883 212.763 C 182.883 212.939,183.626 213.818,184.535 214.715 C 185.443 215.612,186.186 216.474,186.186 216.631 C 186.186 216.788,186.963 217.767,187.913 218.807 C 188.863 219.846,190.315 221.527,191.141 222.540 C 191.967 223.554,193.349 225.113,194.213 226.005 L 195.783 227.628 198.198 227.628 L 200.613 227.628 202.184 226.002 C 203.047 225.108,204.497 223.483,205.405 222.392 C 206.314 221.300,207.767 219.621,208.634 218.660 C 209.501 217.699,210.210 216.786,210.210 216.630 C 210.210 216.475,211.021 215.545,212.012 214.565 C 213.003 213.584,213.814 212.654,213.814 212.499 C 213.814 212.344,214.523 211.435,215.390 210.480 C 219.062 206.437,220.420 204.864,220.420 204.655 C 220.420 204.446,221.779 202.872,225.450 198.829 C 226.318 197.874,227.027 196.982,227.027 196.847 C 227.027 196.712,227.736 195.826,228.604 194.878 C 232.347 190.787,233.634 189.057,233.634 188.113 C 233.634 187.889,233.904 187.225,234.234 186.637 C 234.565 186.049,234.835 185.373,234.835 185.135 C 234.835 184.897,235.105 184.222,235.435 183.634 C 235.766 183.046,236.036 182.378,236.036 182.151 C 236.036 181.924,236.325 181.151,236.679 180.434 C 237.033 179.716,237.419 178.859,237.538 178.529 C 237.656 178.198,238.042 177.341,238.396 176.623 C 238.750 175.906,239.039 175.133,239.039 174.906 C 239.039 174.679,239.309 174.012,239.640 173.423 C 239.970 172.835,240.240 172.160,240.240 171.922 C 240.240 171.684,240.511 171.009,240.841 170.420 C 241.171 169.832,241.441 169.157,241.441 168.919 C 241.441 168.681,241.712 168.006,242.042 167.417 C 242.372 166.829,242.643 166.154,242.643 165.916 C 242.643 165.678,242.913 165.003,243.243 164.414 C 243.574 163.826,243.844 163.213,243.844 163.051 C 243.844 162.889,244.128 162.116,244.474 161.333 C 244.821 160.550,245.208 159.640,245.335 159.309 C 245.462 158.979,245.737 158.303,245.946 157.808 C 246.155 157.312,246.424 156.637,246.544 156.306 C 246.664 155.976,247.051 155.119,247.405 154.401 C 247.759 153.683,248.048 152.911,248.048 152.683 C 248.048 152.456,248.318 151.789,248.649 151.201 C 248.979 150.613,249.249 149.874,249.249 149.558 C 249.249 149.243,249.384 148.901,249.550 148.799 C 249.715 148.697,249.850 148.351,249.850 148.030 C 249.850 147.710,249.985 147.447,250.150 147.447 C 250.315 147.447,250.450 147.243,250.450 146.993 C 250.450 146.743,250.570 146.304,250.716 146.017 C 250.862 145.730,251.114 145.158,251.276 144.745 C 251.438 144.332,251.725 143.622,251.912 143.168 C 252.099 142.714,252.405 141.971,252.593 141.517 C 252.780 141.062,253.031 140.420,253.151 140.090 C 253.270 139.760,253.658 138.902,254.011 138.185 C 254.365 137.467,254.655 136.650,254.655 136.368 C 254.655 136.086,254.802 135.708,254.983 135.527 C 255.164 135.347,255.247 134.948,255.168 134.642 C 255.050 134.183,255.018 134.204,254.990 134.760 " stroke="none" fill="#9c8c9c" fill-rule="evenodd"></path></g></svg>