<svg id="svg" version="1.1" xmlns="http://www.w3.org/2000/svg" xmlns:xlink="http://www.w3.org/1999/xlink" width="400" height="300.1503759398496" viewBox="0, 0, 400,300.1503759398496"><g id="svgg"><path id="path0" d="M193.456 29.969 C 191.921 31.571,190.419 33.288,190.119 33.784 C 189.819 34.279,188.879 35.310,188.030 36.074 C 187.181 36.837,186.486 37.627,186.486 37.827 C 186.486 38.028,185.541 39.132,184.385 40.281 C 183.229 41.430,182.094 42.737,181.862 43.185 C 181.630 43.634,180.684 44.693,179.759 45.540 C 178.835 46.387,178.078 47.242,178.078 47.441 C 178.078 47.639,177.132 48.742,175.977 49.891 C 174.821 51.040,173.681 52.345,173.444 52.792 C 173.207 53.238,172.126 54.450,171.041 55.485 C 169.957 56.520,169.069 57.550,169.069 57.774 C 169.069 57.998,168.269 58.927,167.292 59.838 C 166.315 60.749,165.313 61.882,165.065 62.354 C 164.818 62.827,163.725 64.065,162.638 65.105 C 161.550 66.145,160.661 67.172,160.661 67.387 C 160.661 67.601,159.849 68.551,158.857 69.497 C 157.865 70.443,156.902 71.511,156.717 71.870 C 156.357 72.566,153.779 75.465,150.225 79.170 C 149.028 80.418,148.048 81.599,148.048 81.795 C 148.048 81.991,147.237 82.953,146.246 83.934 C 145.255 84.915,144.444 85.897,144.444 86.116 C 144.444 86.336,143.498 87.448,142.342 88.589 C 141.186 89.729,140.240 90.811,140.240 90.993 C 140.240 91.175,139.429 92.120,138.438 93.093 C 137.447 94.066,136.637 94.994,136.637 95.156 C 136.637 95.317,135.691 96.407,134.535 97.577 C 133.378 98.747,132.432 99.824,132.432 99.970 C 132.432 100.116,131.757 100.914,130.931 101.744 C 129.512 103.171,128.636 106.306,129.656 106.306 C 129.781 106.306,130.062 106.745,130.280 107.282 C 130.498 107.819,130.936 108.778,131.254 109.413 C 131.572 110.048,131.832 110.753,131.832 110.980 C 131.832 111.207,132.102 111.874,132.432 112.462 C 132.763 113.051,133.033 113.726,133.033 113.964 C 133.033 114.202,133.303 114.877,133.634 115.465 C 133.964 116.054,134.234 116.721,134.234 116.948 C 134.234 117.175,134.524 117.948,134.877 118.665 C 135.231 119.383,135.623 120.240,135.748 120.571 C 135.874 120.901,136.260 121.812,136.607 122.594 C 136.953 123.377,137.237 124.150,137.237 124.312 C 137.237 124.474,137.508 125.088,137.838 125.676 C 138.168 126.264,138.438 126.939,138.438 127.177 C 138.438 127.415,138.709 128.091,139.039 128.679 C 139.369 129.267,139.640 129.942,139.640 130.180 C 139.640 130.418,139.910 131.094,140.240 131.682 C 140.571 132.270,140.841 132.945,140.841 133.183 C 140.841 133.421,141.111 134.097,141.441 134.685 C 141.772 135.273,142.042 135.939,142.042 136.165 C 142.042 136.391,142.447 137.346,142.943 138.288 C 143.438 139.230,143.844 140.186,143.844 140.412 C 143.844 140.638,144.114 141.304,144.444 141.892 C 144.775 142.480,145.045 143.156,145.045 143.393 C 145.045 143.631,145.315 144.307,145.646 144.895 C 145.976 145.483,146.246 146.159,146.246 146.396 C 146.246 146.634,146.517 147.310,146.847 147.898 C 147.177 148.486,147.447 149.153,147.447 149.380 C 147.447 149.607,147.737 150.380,148.091 151.098 C 148.444 151.815,148.850 152.706,148.992 153.078 C 149.133 153.450,149.384 154.092,149.550 154.505 C 149.715 154.917,149.966 155.559,150.108 155.931 C 150.249 156.303,150.655 157.194,151.008 157.911 C 151.362 158.629,151.652 159.402,151.652 159.629 C 151.652 159.856,151.922 160.523,152.252 161.111 C 152.583 161.699,152.853 162.375,152.853 162.613 C 152.853 162.850,153.123 163.526,153.453 164.114 C 153.784 164.702,154.054 165.378,154.054 165.616 C 154.054 165.853,154.324 166.529,154.655 167.117 C 154.985 167.705,155.255 168.324,155.255 168.492 C 155.255 168.660,155.526 169.357,155.856 170.041 C 156.186 170.725,156.461 171.428,156.466 171.603 C 156.471 171.778,156.876 172.729,157.367 173.716 C 157.857 174.703,158.258 175.678,158.258 175.884 C 158.258 176.090,158.529 176.739,158.859 177.327 C 159.189 177.915,159.459 178.591,159.459 178.829 C 159.459 179.067,159.730 179.742,160.060 180.330 C 160.390 180.918,160.661 181.594,160.661 181.832 C 160.661 182.070,160.931 182.745,161.261 183.333 C 161.592 183.921,161.862 184.597,161.862 184.835 C 161.862 185.073,162.132 185.748,162.462 186.336 C 162.793 186.924,163.063 187.739,163.063 188.147 C 163.063 188.555,163.198 188.889,163.363 188.889 C 163.529 188.889,163.664 189.100,163.664 189.359 C 163.664 189.617,164.339 190.487,165.165 191.291 C 165.991 192.096,166.667 192.877,166.667 193.028 C 166.667 193.178,167.477 194.154,168.468 195.195 C 169.459 196.237,170.270 197.206,170.270 197.350 C 170.270 197.493,171.014 198.354,171.922 199.262 C 172.830 200.171,173.574 201.034,173.574 201.182 C 173.574 201.329,174.283 202.197,175.150 203.111 C 176.017 204.025,177.439 205.625,178.309 206.666 C 179.180 207.707,180.697 209.505,181.682 210.661 C 182.666 211.817,184.153 213.574,184.985 214.565 C 188.255 218.457,190.129 220.641,191.579 222.248 C 192.412 223.170,193.093 224.056,193.093 224.216 C 193.093 224.610,194.896 226.486,195.722 226.952 C 196.583 227.437,199.817 227.437,200.661 226.952 C 201.531 226.451,203.303 224.716,203.303 224.365 C 203.303 224.211,203.979 223.395,204.805 222.551 C 205.631 221.708,206.306 220.895,206.306 220.745 C 206.306 220.595,207.117 219.649,208.108 218.643 C 209.099 217.636,209.910 216.676,209.910 216.508 C 209.910 216.340,210.653 215.460,211.562 214.552 C 212.470 213.643,213.213 212.771,213.213 212.613 C 213.213 212.455,213.956 211.582,214.865 210.674 C 215.773 209.765,216.517 208.905,216.517 208.761 C 216.517 208.618,217.327 207.648,218.318 206.607 C 219.309 205.565,220.120 204.590,220.120 204.439 C 220.120 204.288,220.796 203.507,221.622 202.703 C 222.447 201.898,223.123 201.117,223.123 200.966 C 223.123 200.816,223.934 199.840,224.925 198.799 C 225.916 197.757,226.727 196.782,226.727 196.631 C 226.727 196.481,227.402 195.699,228.228 194.895 C 229.054 194.091,229.730 193.280,229.730 193.093 C 229.730 192.906,230.405 192.096,231.231 191.291 C 232.057 190.487,232.733 189.617,232.733 189.359 C 232.733 189.100,232.868 188.889,233.033 188.889 C 233.198 188.889,233.333 188.483,233.333 187.988 C 233.333 187.492,233.468 187.087,233.634 187.087 C 233.799 187.087,233.934 186.817,233.934 186.486 C 233.934 186.156,234.069 185.886,234.234 185.886 C 234.399 185.886,234.535 185.480,234.535 184.985 C 234.535 184.489,234.670 184.084,234.835 184.084 C 235.000 184.084,235.135 183.814,235.135 183.483 C 235.135 183.153,235.270 182.883,235.435 182.883 C 235.601 182.883,235.736 182.477,235.736 181.982 C 235.736 181.486,235.871 181.081,236.036 181.081 C 236.201 181.081,236.336 180.811,236.336 180.480 C 236.336 180.150,236.471 179.880,236.637 179.880 C 236.802 179.880,236.937 179.550,236.937 179.147 C 236.937 178.744,237.072 178.330,237.237 178.228 C 237.402 178.126,237.538 177.780,237.538 177.460 C 237.538 177.139,237.648 176.877,237.784 176.877 C 237.919 176.877,238.214 176.201,238.438 175.375 C 238.663 174.550,238.958 173.874,239.093 173.874 C 239.229 173.874,239.339 173.612,239.339 173.291 C 239.339 172.970,239.474 172.625,239.640 172.523 C 239.805 172.420,239.940 172.007,239.940 171.604 C 239.940 171.201,240.075 170.871,240.240 170.871 C 240.405 170.871,240.541 170.601,240.541 170.270 C 240.541 169.940,240.676 169.670,240.841 169.670 C 241.006 169.670,241.141 169.336,241.141 168.928 C 241.141 168.520,241.411 167.705,241.742 167.117 C 242.072 166.529,242.342 165.853,242.342 165.616 C 242.342 165.378,242.613 164.702,242.943 164.114 C 243.273 163.526,243.544 162.779,243.544 162.453 C 243.544 162.128,243.679 161.862,243.844 161.862 C 244.009 161.862,244.144 161.657,244.144 161.407 C 244.144 161.157,244.264 160.718,244.409 160.431 C 244.555 160.145,244.826 159.538,245.010 159.084 C 245.194 158.630,245.499 157.887,245.686 157.432 C 245.873 156.978,246.124 156.336,246.244 156.006 C 246.363 155.676,246.751 154.818,247.105 154.101 C 247.458 153.383,247.748 152.610,247.748 152.383 C 247.748 152.156,248.018 151.489,248.348 150.901 C 248.679 150.313,248.949 149.637,248.949 149.399 C 248.949 149.162,249.219 148.486,249.550 147.898 C 249.880 147.310,250.150 146.562,250.150 146.237 C 250.150 145.912,250.285 145.646,250.450 145.646 C 250.616 145.646,250.751 145.441,250.751 145.191 C 250.751 144.941,250.870 144.502,251.016 144.215 C 251.162 143.928,251.432 143.322,251.617 142.868 C 251.801 142.414,252.105 141.670,252.292 141.216 C 252.480 140.762,252.731 140.120,252.850 139.790 C 252.970 139.459,253.357 138.602,253.711 137.885 C 254.065 137.167,254.354 136.394,254.354 136.167 C 254.354 135.940,254.625 135.273,254.955 134.685 C 255.285 134.097,255.556 133.421,255.556 133.183 C 255.556 132.945,255.826 132.270,256.156 131.682 C 256.486 131.094,256.757 130.427,256.757 130.199 C 256.757 129.972,257.046 129.199,257.400 128.482 C 257.754 127.764,258.175 126.839,258.336 126.426 C 258.497 126.014,258.748 125.441,258.894 125.154 C 259.040 124.867,259.159 124.428,259.159 124.178 C 259.159 123.928,259.294 123.724,259.459 123.724 C 259.625 123.724,259.760 123.394,259.760 122.991 C 259.760 122.588,259.895 122.174,260.060 122.072 C 260.225 121.970,260.360 121.624,260.360 121.304 C 260.360 120.983,260.495 120.721,260.661 120.721 C 260.826 120.721,260.961 120.455,260.961 120.129 C 260.961 119.804,261.231 119.057,261.562 118.468 C 261.892 117.880,262.162 117.205,262.162 116.967 C 262.162 116.729,262.432 116.054,262.763 115.465 C 263.093 114.877,263.363 114.202,263.363 113.964 C 263.363 113.726,263.634 113.051,263.964 112.462 C 264.294 111.874,264.565 111.213,264.565 110.993 C 264.565 110.773,265.105 109.543,265.766 108.258 C 266.645 106.548,266.967 105.560,266.967 104.566 C 266.967 103.380,266.816 103.062,265.766 102.032 C 265.105 101.385,264.565 100.740,264.565 100.600 C 264.565 100.461,263.619 99.389,262.462 98.219 C 261.306 97.049,260.360 95.968,260.360 95.817 C 260.360 95.665,259.414 94.584,258.258 93.414 C 257.102 92.244,256.156 91.154,256.156 90.991 C 256.156 90.828,255.210 89.738,254.054 88.568 C 252.898 87.398,251.952 86.276,251.952 86.074 C 251.952 85.872,251.397 85.173,250.719 84.520 C 250.041 83.868,249.162 82.828,248.765 82.210 C 248.369 81.592,247.167 80.242,246.094 79.209 C 245.022 78.177,244.144 77.186,244.144 77.007 C 244.144 76.828,243.201 75.746,242.049 74.602 C 240.896 73.458,239.950 72.369,239.947 72.182 C 239.943 71.995,238.994 70.902,237.838 69.752 C 236.682 68.603,235.736 67.514,235.736 67.331 C 235.736 67.149,234.790 66.088,233.634 64.973 C 232.477 63.858,231.532 62.777,231.532 62.570 C 231.532 62.364,230.586 61.283,229.429 60.168 C 228.273 59.053,227.327 57.951,227.327 57.719 C 227.327 57.487,226.437 56.466,225.350 55.450 C 224.262 54.435,223.161 53.201,222.903 52.708 C 222.646 52.215,221.644 51.081,220.677 50.188 C 219.710 49.294,218.919 48.390,218.919 48.178 C 218.919 47.966,217.973 46.855,216.817 45.708 C 215.661 44.561,214.715 43.471,214.715 43.287 C 214.715 43.103,213.827 42.106,212.743 41.071 C 211.658 40.036,210.561 38.794,210.306 38.312 C 210.050 37.829,209.046 36.665,208.074 35.726 C 207.102 34.787,206.306 33.861,206.306 33.669 C 206.306 33.478,205.386 32.411,204.261 31.300 C 203.136 30.189,202.126 29.042,202.017 28.751 C 201.908 28.461,201.477 28.067,201.059 27.877 C 200.642 27.687,200.300 27.418,200.300 27.279 C 200.300 27.140,199.388 27.033,198.273 27.041 L 196.246 27.054 193.456 29.969 M176.435 78.261 C 177.509 78.965,185.797 95.507,186.219 97.788 C 186.452 99.051,187.362 100.872,189.998 105.356 C 191.908 108.604,194.421 112.883,195.584 114.865 C 201.986 125.778,205.422 131.471,205.789 131.776 C 206.062 132.003,208.569 132.163,213.171 132.248 C 220.769 132.388,221.318 132.508,221.961 134.175 C 222.625 135.896,222.120 137.250,220.144 139.052 C 217.766 141.220,217.794 141.358,221.096 143.785 C 222.624 144.909,226.629 147.848,229.997 150.316 C 237.778 156.020,238.599 157.320,235.892 159.660 C 234.065 161.239,232.870 161.223,221.622 159.458 C 220.713 159.316,218.078 158.909,215.766 158.553 C 213.453 158.198,210.818 157.792,209.910 157.652 C 209.002 157.512,206.366 157.107,204.054 156.751 C 201.742 156.396,199.039 155.979,198.048 155.825 C 193.086 155.053,194.546 154.877,178.679 158.155 C 166.430 160.684,167.060 160.777,164.725 156.112 C 162.165 150.998,162.425 150.441,169.830 145.166 C 175.307 141.264,175.150 141.506,174.039 138.667 C 171.013 130.935,160.030 100.951,159.897 100.061 C 159.720 98.868,159.875 98.513,162.012 95.238 C 162.673 94.226,164.159 91.762,165.315 89.764 C 172.844 76.751,173.342 76.235,176.435 78.261 " stroke="none" fill="#d32c14" fill-rule="evenodd"></path><path id="path1" d="M197.372 25.741 C 197.827 25.809,198.570 25.809,199.024 25.741 C 199.478 25.672,199.107 25.616,198.198 25.616 C 197.290 25.616,196.918 25.672,197.372 25.741 M72.450 29.260 C 69.727 30.766,68.666 35.347,70.270 38.668 C 70.601 39.352,70.871 40.112,70.871 40.358 C 70.871 40.604,71.006 40.889,71.171 40.991 C 71.336 41.093,71.471 41.498,71.471 41.892 C 71.471 42.285,71.607 42.691,71.772 42.793 C 71.937 42.895,72.072 43.237,72.072 43.552 C 72.072 43.868,72.342 44.607,72.673 45.195 C 73.003 45.783,73.273 46.438,73.273 46.649 C 73.273 46.861,73.544 47.594,73.874 48.277 C 74.204 48.961,74.474 49.722,74.474 49.968 C 74.474 50.214,74.610 50.499,74.775 50.601 C 74.940 50.703,75.075 51.108,75.075 51.502 C 75.075 51.895,75.210 52.300,75.375 52.402 C 75.541 52.504,75.676 52.846,75.676 53.162 C 75.676 53.477,75.946 54.217,76.276 54.805 C 76.607 55.393,76.877 56.069,76.877 56.306 C 76.877 56.544,77.147 57.220,77.477 57.808 C 77.808 58.396,78.078 59.135,78.078 59.451 C 78.078 59.766,78.213 60.108,78.378 60.210 C 78.544 60.312,78.679 60.718,78.679 61.111 C 78.679 61.505,78.814 61.910,78.979 62.012 C 79.144 62.114,79.279 62.456,79.279 62.771 C 79.279 63.087,79.550 63.826,79.880 64.414 C 80.210 65.003,80.480 65.817,80.480 66.225 C 80.480 66.633,80.616 66.967,80.781 66.967 C 80.946 66.967,81.081 67.237,81.081 67.568 C 81.081 67.898,81.216 68.168,81.381 68.168 C 81.547 68.168,81.682 68.574,81.682 69.069 C 81.682 69.565,81.817 69.970,81.982 69.970 C 82.147 69.970,82.282 70.300,82.282 70.703 C 82.282 71.106,82.417 71.520,82.583 71.622 C 82.748 71.724,82.883 72.070,82.883 72.390 C 82.883 72.711,83.018 72.973,83.183 72.973 C 83.348 72.973,83.483 73.303,83.483 73.706 C 83.483 74.109,83.619 74.523,83.784 74.625 C 83.949 74.727,84.084 75.132,84.084 75.526 C 84.084 75.919,84.219 76.324,84.384 76.426 C 84.550 76.529,84.685 76.874,84.685 77.195 C 84.685 77.515,84.820 77.778,84.985 77.778 C 85.150 77.778,85.285 78.108,85.285 78.511 C 85.285 78.914,85.420 79.327,85.586 79.429 C 85.751 79.532,85.886 79.873,85.886 80.189 C 85.886 80.504,86.156 81.244,86.486 81.832 C 86.817 82.420,87.087 83.159,87.087 83.475 C 87.087 83.790,87.222 84.132,87.387 84.234 C 87.553 84.336,87.688 84.742,87.688 85.135 C 87.688 85.529,87.823 85.934,87.988 86.036 C 88.153 86.138,88.288 86.484,88.288 86.805 C 88.288 87.125,88.423 87.387,88.589 87.387 C 88.754 87.387,88.889 87.717,88.889 88.120 C 88.889 88.524,89.024 88.937,89.189 89.039 C 89.354 89.141,89.489 89.483,89.489 89.798 C 89.489 90.114,89.760 90.853,90.090 91.441 C 90.420 92.030,90.691 92.844,90.691 93.252 C 90.691 93.660,90.826 93.994,90.991 93.994 C 91.156 93.994,91.291 94.264,91.291 94.595 C 91.291 94.925,91.426 95.195,91.592 95.195 C 91.757 95.195,91.892 95.601,91.892 96.096 C 91.892 96.592,92.027 96.997,92.192 96.997 C 92.357 96.997,92.492 97.327,92.492 97.730 C 92.492 98.133,92.628 98.547,92.793 98.649 C 92.958 98.751,93.093 99.092,93.093 99.408 C 93.093 99.724,93.363 100.463,93.694 101.051 C 94.024 101.639,94.294 102.379,94.294 102.694 C 94.294 103.010,94.429 103.351,94.595 103.453 C 94.760 103.556,94.895 103.961,94.895 104.354 C 94.895 104.748,95.030 105.153,95.195 105.255 C 95.360 105.357,95.495 105.703,95.495 106.024 C 95.495 106.344,95.631 106.607,95.796 106.607 C 95.961 106.607,96.096 106.936,96.096 107.340 C 96.096 107.743,96.231 108.156,96.396 108.258 C 96.562 108.360,96.697 108.702,96.697 109.018 C 96.697 109.333,96.967 110.073,97.297 110.661 C 97.628 111.249,97.898 112.064,97.898 112.472 C 97.898 112.879,98.033 113.213,98.198 113.213 C 98.363 113.213,98.498 113.483,98.498 113.814 C 98.498 114.144,98.634 114.414,98.799 114.414 C 98.964 114.414,99.099 114.820,99.099 115.315 C 99.099 115.811,99.234 116.216,99.399 116.216 C 99.565 116.216,99.700 116.546,99.700 116.949 C 99.700 117.352,99.835 117.766,100.000 117.868 C 100.165 117.970,100.300 118.316,100.300 118.636 C 100.300 118.957,100.435 119.219,100.601 119.219 C 100.766 119.219,100.901 119.549,100.901 119.952 C 100.901 120.355,101.036 120.769,101.201 120.871 C 101.366 120.973,101.502 121.454,101.502 121.940 C 101.502 122.425,101.637 122.823,101.802 122.823 C 101.967 122.823,102.102 123.153,102.102 123.556 C 102.102 123.959,102.237 124.372,102.402 124.474 C 102.568 124.577,102.703 124.922,102.703 125.243 C 102.703 125.564,102.838 125.826,103.003 125.826 C 103.168 125.826,103.303 126.092,103.303 126.417 C 103.303 126.743,103.574 127.490,103.904 128.078 C 104.234 128.666,104.505 129.406,104.505 129.721 C 104.505 130.037,104.640 130.378,104.805 130.480 C 104.970 130.583,105.105 130.988,105.105 131.381 C 105.105 131.775,105.240 132.180,105.405 132.282 C 105.571 132.384,105.706 132.730,105.706 133.051 C 105.706 133.371,105.841 133.634,106.006 133.634 C 106.171 133.634,106.306 133.963,106.306 134.367 C 106.306 134.770,106.441 135.183,106.607 135.285 C 106.772 135.387,106.907 135.729,106.907 136.045 C 106.907 136.360,107.177 137.100,107.508 137.688 C 107.838 138.276,108.108 139.091,108.108 139.499 C 108.108 139.907,108.243 140.240,108.408 140.240 C 108.574 140.240,108.709 140.570,108.709 140.973 C 108.709 141.376,108.844 141.790,109.009 141.892 C 109.174 141.994,109.309 142.340,109.309 142.660 C 109.309 142.981,109.444 143.243,109.610 143.243 C 109.775 143.243,109.910 143.573,109.910 143.976 C 109.910 144.379,110.045 144.793,110.210 144.895 C 110.375 144.997,110.511 145.339,110.511 145.654 C 110.511 145.970,110.781 146.709,111.111 147.297 C 111.441 147.885,111.712 148.625,111.712 148.940 C 111.712 149.256,111.847 149.598,112.012 149.700 C 112.177 149.802,112.312 150.207,112.312 150.601 C 112.312 150.994,112.447 151.399,112.613 151.502 C 112.778 151.604,112.913 151.949,112.913 152.270 C 112.913 152.591,113.048 152.853,113.213 152.853 C 113.378 152.853,113.514 153.183,113.514 153.586 C 113.514 153.989,113.649 154.402,113.814 154.505 C 113.979 154.607,114.114 154.948,114.114 155.264 C 114.114 155.579,114.384 156.319,114.715 156.907 C 115.045 157.495,115.315 158.244,115.315 158.572 C 115.315 158.899,115.435 159.402,115.581 159.689 C 115.726 159.976,115.997 160.582,116.181 161.036 C 116.366 161.490,116.667 162.233,116.852 162.688 C 117.036 163.142,117.307 163.748,117.452 164.035 C 117.598 164.322,117.718 164.757,117.718 165.002 C 117.718 165.247,117.988 165.928,118.318 166.517 C 118.649 167.105,118.919 167.854,118.919 168.181 C 118.919 168.509,119.038 169.012,119.184 169.298 C 119.330 169.585,119.600 170.191,119.785 170.646 C 119.969 171.100,120.273 171.843,120.461 172.297 C 120.648 172.752,120.934 173.461,121.096 173.874 C 121.259 174.287,121.511 174.859,121.657 175.146 C 121.803 175.433,121.922 175.932,121.922 176.254 C 121.922 176.577,122.057 176.925,122.222 177.027 C 122.387 177.129,122.523 177.462,122.523 177.767 C 122.523 178.247,122.947 179.260,124.079 181.480 C 124.265 181.845,124.239 182.173,124.002 182.458 C 122.922 183.760,125.198 188.129,128.984 192.020 C 129.317 192.363,130.195 193.453,130.935 194.444 C 131.675 195.435,132.351 196.314,132.436 196.396 C 132.521 196.479,133.197 197.290,133.938 198.198 C 134.679 199.107,135.387 199.895,135.511 199.950 C 135.634 200.005,135.736 200.192,135.736 200.366 C 135.736 200.540,136.040 200.972,136.411 201.326 C 136.783 201.681,137.425 202.430,137.838 202.991 C 138.697 204.158,139.999 205.784,140.252 206.006 C 140.346 206.089,141.332 207.305,142.443 208.709 C 143.554 210.113,144.796 211.635,145.204 212.092 C 145.612 212.549,145.946 213.007,145.946 213.109 C 145.946 213.211,146.250 213.591,146.622 213.953 C 146.993 214.316,147.500 214.874,147.748 215.193 C 147.995 215.513,148.536 216.187,148.949 216.692 C 149.362 217.197,150.038 218.065,150.450 218.620 C 150.863 219.175,151.539 219.985,151.952 220.420 C 152.365 220.856,153.041 221.666,153.453 222.221 C 153.866 222.776,154.542 223.643,154.955 224.149 C 155.368 224.654,155.868 225.271,156.066 225.521 C 156.264 225.771,157.210 226.929,158.168 228.094 C 159.126 229.259,160.248 230.672,160.661 231.235 C 161.292 232.095,163.143 234.314,163.664 234.835 C 163.746 234.917,164.285 235.593,164.861 236.336 C 166.378 238.295,166.714 238.712,167.738 239.912 C 168.244 240.505,169.794 242.410,171.182 244.144 C 172.569 245.878,173.844 247.445,174.015 247.625 C 174.185 247.805,174.662 248.401,175.075 248.949 C 175.488 249.497,175.961 250.092,176.126 250.273 C 176.291 250.453,176.783 251.074,177.218 251.652 C 177.654 252.230,178.262 252.995,178.570 253.353 C 179.256 254.151,179.531 254.487,181.977 257.508 C 183.047 258.829,184.026 259.955,184.153 260.010 C 184.280 260.065,184.384 260.277,184.384 260.481 C 184.384 260.686,184.688 261.122,185.060 261.451 C 185.432 261.780,186.074 262.498,186.486 263.047 C 186.899 263.595,187.440 264.278,187.688 264.565 C 187.935 264.851,188.476 265.534,188.889 266.083 C 189.302 266.632,190.006 267.495,190.455 268.000 C 192.026 269.772,192.492 270.364,192.492 270.587 C 192.492 272.372,202.425 272.619,203.604 270.864 C 204.048 270.202,205.311 268.640,205.985 267.918 C 206.410 267.464,207.095 266.641,207.508 266.089 C 207.920 265.537,208.461 264.851,208.709 264.565 C 208.956 264.278,209.497 263.595,209.910 263.047 C 210.323 262.498,210.965 261.780,211.336 261.451 C 211.708 261.122,212.012 260.724,212.012 260.567 C 212.012 260.409,212.250 260.062,212.540 259.795 C 212.830 259.528,213.636 258.566,214.331 257.658 C 215.026 256.749,215.903 255.646,216.281 255.205 C 216.658 254.765,217.170 254.155,217.417 253.850 C 217.665 253.545,218.206 252.882,218.619 252.377 C 219.032 251.872,219.707 251.004,220.120 250.448 C 220.533 249.892,221.175 249.168,221.547 248.839 C 221.918 248.509,222.222 248.111,222.222 247.954 C 222.222 247.797,222.459 247.449,222.748 247.182 C 223.037 246.915,223.744 246.088,224.320 245.345 C 226.103 243.044,226.257 242.859,226.952 242.182 C 227.324 241.819,227.628 241.381,227.628 241.207 C 227.628 241.033,227.734 240.846,227.864 240.791 C 227.994 240.736,228.568 240.086,229.140 239.347 C 229.712 238.608,230.351 237.819,230.560 237.594 C 230.769 237.369,231.309 236.690,231.760 236.085 C 232.210 235.480,232.648 234.917,232.731 234.835 C 233.231 234.340,235.099 232.102,235.736 231.235 C 236.149 230.672,237.270 229.259,238.228 228.094 C 239.186 226.929,240.132 225.771,240.330 225.521 C 240.529 225.271,241.029 224.654,241.441 224.149 C 241.854 223.643,242.530 222.776,242.943 222.221 C 243.356 221.666,244.032 220.856,244.444 220.420 C 244.857 219.985,245.533 219.175,245.946 218.620 C 246.359 218.065,247.035 217.197,247.447 216.692 C 247.860 216.187,248.401 215.513,248.649 215.193 C 248.896 214.874,249.403 214.316,249.775 213.953 C 250.146 213.591,250.450 213.211,250.450 213.109 C 250.450 213.007,250.781 212.549,251.184 212.092 C 251.809 211.384,254.790 207.759,255.946 206.302 C 256.144 206.052,256.644 205.434,257.057 204.929 C 257.470 204.424,258.146 203.552,258.559 202.991 C 258.971 202.430,259.613 201.681,259.985 201.326 C 260.357 200.972,260.661 200.590,260.661 200.477 C 260.661 200.365,261.000 199.934,261.414 199.520 C 261.828 199.106,262.708 198.035,263.368 197.140 C 264.029 196.246,265.386 194.530,266.384 193.327 C 267.382 192.125,268.360 190.936,268.559 190.686 C 268.757 190.436,269.471 189.557,270.145 188.734 C 270.819 187.911,271.466 187.035,271.583 186.787 C 271.700 186.539,271.991 185.998,272.230 185.586 C 272.717 184.742,272.801 183.250,272.395 182.609 C 272.248 182.376,272.234 181.971,272.365 181.709 C 272.496 181.446,272.769 180.826,272.973 180.330 C 273.177 179.835,273.463 179.195,273.609 178.908 C 273.755 178.621,273.874 178.122,273.874 177.800 C 273.874 177.477,274.009 177.129,274.174 177.027 C 274.339 176.925,274.474 176.577,274.474 176.254 C 274.474 175.932,274.594 175.433,274.740 175.146 C 274.988 174.658,275.241 174.060,275.976 172.222 C 276.711 170.385,276.964 169.786,277.212 169.298 C 277.358 169.012,277.477 168.571,277.477 168.318 C 277.477 167.873,277.602 167.556,278.331 166.145 C 278.522 165.776,278.679 165.267,278.679 165.015 C 278.679 164.763,278.798 164.322,278.944 164.035 C 279.090 163.748,279.360 163.142,279.545 162.688 C 279.729 162.233,280.031 161.490,280.215 161.036 C 280.400 160.582,280.670 159.976,280.816 159.689 C 280.962 159.402,281.081 158.899,281.081 158.572 C 281.081 158.244,281.351 157.495,281.682 156.907 C 282.012 156.319,282.282 155.579,282.282 155.264 C 282.282 154.948,282.417 154.607,282.583 154.505 C 282.748 154.402,282.883 153.989,282.883 153.586 C 282.883 153.183,283.018 152.853,283.183 152.853 C 283.348 152.853,283.483 152.591,283.483 152.270 C 283.483 151.949,283.619 151.604,283.784 151.502 C 283.949 151.399,284.084 150.986,284.084 150.583 C 284.084 150.180,284.219 149.850,284.384 149.850 C 284.550 149.850,284.685 149.516,284.685 149.108 C 284.685 148.700,284.955 147.885,285.285 147.297 C 285.616 146.709,285.886 145.970,285.886 145.654 C 285.886 145.339,286.021 144.997,286.186 144.895 C 286.351 144.793,286.486 144.379,286.486 143.976 C 286.486 143.573,286.622 143.243,286.787 143.243 C 286.952 143.243,287.087 142.981,287.087 142.660 C 287.087 142.340,287.222 141.994,287.387 141.892 C 287.553 141.790,287.688 141.376,287.688 140.973 C 287.688 140.570,287.823 140.240,287.988 140.240 C 288.153 140.240,288.288 139.907,288.288 139.499 C 288.288 139.091,288.559 138.276,288.889 137.688 C 289.219 137.100,289.489 136.352,289.489 136.027 C 289.489 135.702,289.625 135.435,289.790 135.435 C 289.955 135.435,290.090 135.173,290.090 134.853 C 290.090 134.532,290.225 134.186,290.390 134.084 C 290.556 133.982,290.691 133.569,290.691 133.165 C 290.691 132.762,290.826 132.432,290.991 132.432 C 291.156 132.432,291.291 132.027,291.291 131.532 C 291.291 131.036,291.426 130.631,291.592 130.631 C 291.757 130.631,291.892 130.225,291.892 129.730 C 291.892 129.234,292.027 128.829,292.192 128.829 C 292.357 128.829,292.492 128.567,292.492 128.246 C 292.492 127.925,292.628 127.580,292.793 127.477 C 292.958 127.375,293.093 126.962,293.093 126.559 C 293.093 126.156,293.228 125.826,293.393 125.826 C 293.559 125.826,293.694 125.564,293.694 125.243 C 293.694 124.922,293.829 124.577,293.994 124.474 C 294.159 124.372,294.294 123.959,294.294 123.556 C 294.294 123.153,294.429 122.823,294.595 122.823 C 294.760 122.823,294.895 122.489,294.895 122.081 C 294.895 121.673,295.165 120.858,295.495 120.270 C 295.826 119.682,296.096 118.943,296.096 118.627 C 296.096 118.312,296.231 117.970,296.396 117.868 C 296.562 117.766,296.697 117.352,296.697 116.949 C 296.697 116.546,296.832 116.216,296.997 116.216 C 297.162 116.216,297.297 115.954,297.297 115.633 C 297.297 115.313,297.432 114.967,297.598 114.865 C 297.763 114.763,297.898 114.349,297.898 113.946 C 297.898 113.543,298.033 113.213,298.198 113.213 C 298.363 113.213,298.498 112.879,298.498 112.472 C 298.498 112.064,298.769 111.249,299.099 110.661 C 299.429 110.073,299.700 109.333,299.700 109.018 C 299.700 108.702,299.835 108.360,300.000 108.258 C 300.165 108.156,300.300 107.743,300.300 107.340 C 300.300 106.936,300.435 106.607,300.601 106.607 C 300.766 106.607,300.901 106.344,300.901 106.024 C 300.901 105.703,301.036 105.357,301.201 105.255 C 301.366 105.153,301.502 104.740,301.502 104.337 C 301.502 103.933,301.637 103.604,301.802 103.604 C 301.967 103.604,302.102 103.270,302.102 102.862 C 302.102 102.454,302.372 101.639,302.703 101.051 C 303.033 100.463,303.303 99.724,303.303 99.408 C 303.303 99.092,303.438 98.751,303.604 98.649 C 303.769 98.547,303.904 98.133,303.904 97.730 C 303.904 97.327,304.039 96.997,304.204 96.997 C 304.369 96.997,304.505 96.735,304.505 96.414 C 304.505 96.094,304.640 95.748,304.805 95.646 C 304.970 95.544,305.105 95.130,305.105 94.727 C 305.105 94.324,305.240 93.994,305.405 93.994 C 305.571 93.994,305.706 93.660,305.706 93.252 C 305.706 92.844,305.976 92.030,306.306 91.441 C 306.637 90.853,306.907 90.114,306.907 89.798 C 306.907 89.483,307.042 89.141,307.207 89.039 C 307.372 88.937,307.508 88.524,307.508 88.120 C 307.508 87.717,307.643 87.387,307.808 87.387 C 307.973 87.387,308.108 87.125,308.108 86.805 C 308.108 86.484,308.243 86.138,308.408 86.036 C 308.574 85.934,308.709 85.521,308.709 85.117 C 308.709 84.714,308.844 84.384,309.009 84.384 C 309.174 84.384,309.309 83.979,309.309 83.483 C 309.309 82.988,309.444 82.583,309.610 82.583 C 309.775 82.583,309.910 82.320,309.910 82.000 C 309.910 81.679,310.045 81.333,310.210 81.231 C 310.375 81.129,310.511 80.716,310.511 80.313 C 310.511 79.909,310.646 79.580,310.811 79.580 C 310.976 79.580,311.111 79.174,311.111 78.679 C 311.111 78.183,311.246 77.778,311.411 77.778 C 311.577 77.778,311.712 77.508,311.712 77.177 C 311.712 76.847,311.847 76.577,312.012 76.577 C 312.177 76.577,312.312 76.179,312.312 75.693 C 312.312 75.208,312.447 74.727,312.613 74.625 C 312.778 74.523,312.913 74.109,312.913 73.706 C 312.913 73.303,313.048 72.973,313.213 72.973 C 313.378 72.973,313.514 72.711,313.514 72.390 C 313.514 72.070,313.649 71.724,313.814 71.622 C 313.979 71.520,314.114 71.106,314.114 70.703 C 314.114 70.300,314.249 69.970,314.414 69.970 C 314.580 69.970,314.715 69.565,314.715 69.069 C 314.715 68.574,314.850 68.168,315.015 68.168 C 315.180 68.168,315.315 67.898,315.315 67.568 C 315.315 67.237,315.450 66.967,315.616 66.967 C 315.781 66.967,315.916 66.633,315.916 66.225 C 315.916 65.817,316.186 65.003,316.517 64.414 C 316.847 63.826,317.117 63.087,317.117 62.771 C 317.117 62.456,317.252 62.114,317.417 62.012 C 317.583 61.910,317.718 61.568,317.718 61.253 C 317.718 60.937,317.988 60.198,318.318 59.610 C 318.649 59.021,318.919 58.282,318.919 57.967 C 318.919 57.651,319.054 57.309,319.219 57.207 C 319.384 57.105,319.520 56.763,319.520 56.448 C 319.520 56.132,319.790 55.393,320.120 54.805 C 320.450 54.217,320.721 53.477,320.721 53.162 C 320.721 52.846,320.856 52.504,321.021 52.402 C 321.186 52.300,321.321 51.895,321.321 51.502 C 321.321 51.108,321.456 50.703,321.622 50.601 C 321.787 50.499,321.922 50.214,321.922 49.968 C 321.922 49.722,322.192 48.961,322.523 48.277 C 322.853 47.594,323.123 46.861,323.123 46.649 C 323.123 46.438,323.393 45.783,323.724 45.195 C 324.054 44.607,324.324 43.868,324.324 43.552 C 324.324 43.237,324.459 42.895,324.625 42.793 C 324.790 42.691,324.925 42.304,324.925 41.934 C 324.925 41.564,325.044 41.133,325.190 40.976 C 326.436 39.636,327.231 33.326,326.351 31.753 C 324.442 28.337,321.086 27.909,318.187 30.711 C 317.806 31.080,316.514 32.125,315.315 33.033 C 314.117 33.941,312.849 34.958,312.499 35.292 C 312.149 35.626,311.389 36.227,310.811 36.629 C 310.233 37.030,309.557 37.570,309.309 37.827 C 309.062 38.084,308.364 38.663,307.759 39.113 C 307.154 39.563,306.478 40.106,306.257 40.321 C 306.036 40.535,305.383 41.037,304.805 41.437 C 304.227 41.837,303.551 42.379,303.303 42.643 C 303.056 42.906,302.380 43.448,301.802 43.846 C 301.224 44.245,300.392 44.948,299.955 45.409 C 299.517 45.869,299.043 46.246,298.902 46.246 C 298.761 46.246,298.072 46.787,297.370 47.447 C 296.669 48.108,295.980 48.649,295.840 48.649 C 295.699 48.649,295.160 49.054,294.642 49.550 C 294.123 50.045,293.576 50.450,293.427 50.450 C 293.277 50.450,292.464 51.126,291.620 51.952 C 290.777 52.778,289.973 53.453,289.833 53.453 C 289.693 53.453,289.154 53.859,288.636 54.354 C 288.117 54.850,287.590 55.255,287.464 55.255 C 287.337 55.255,286.660 55.796,285.959 56.456 C 285.257 57.117,284.562 57.658,284.414 57.658 C 284.266 57.658,283.455 58.333,282.611 59.159 C 281.768 59.985,280.964 60.661,280.824 60.661 C 280.684 60.661,280.145 61.066,279.627 61.562 C 279.108 62.057,278.581 62.462,278.455 62.462 C 278.328 62.462,277.651 63.003,276.950 63.664 C 276.248 64.324,275.556 64.865,275.411 64.865 C 275.266 64.865,274.591 65.405,273.910 66.066 C 273.229 66.727,272.570 67.267,272.445 67.267 C 272.321 67.267,271.645 67.808,270.944 68.468 C 270.242 69.129,269.550 69.670,269.405 69.670 C 269.260 69.670,268.585 70.210,267.904 70.871 C 267.223 71.532,266.547 72.072,266.402 72.072 C 266.257 72.072,265.581 72.613,264.901 73.273 C 264.220 73.934,263.533 74.474,263.375 74.474 C 263.216 74.474,262.551 75.015,261.897 75.676 C 261.243 76.336,260.578 76.877,260.420 76.877 C 260.262 76.877,259.575 77.417,258.895 78.078 C 258.214 78.739,257.538 79.279,257.393 79.279 C 257.248 79.279,256.572 79.820,255.892 80.480 C 255.211 81.141,254.553 81.682,254.429 81.683 C 254.305 81.684,253.772 82.089,253.245 82.584 C 252.050 83.703,251.889 83.702,250.928 82.560 C 250.500 82.051,250.150 81.767,250.150 81.927 C 250.150 82.088,250.555 82.652,251.050 83.182 C 251.545 83.712,251.880 84.257,251.796 84.394 C 251.711 84.531,251.779 84.728,251.947 84.832 C 252.115 84.936,252.252 85.282,252.252 85.602 C 252.252 85.922,253.198 87.180,254.354 88.397 C 255.511 89.614,256.456 90.733,256.456 90.884 C 256.456 91.034,257.402 92.096,258.559 93.243 C 259.715 94.391,260.661 95.472,260.661 95.646 C 260.661 95.820,261.607 96.901,262.763 98.048 C 263.919 99.195,264.865 100.284,264.865 100.467 C 264.865 100.650,265.205 100.981,265.620 101.204 C 266.940 101.910,268.111 106.607,266.967 106.607 C 266.802 106.607,266.667 106.877,266.667 107.207 C 266.667 107.538,266.532 107.808,266.366 107.808 C 266.201 107.808,266.066 108.078,266.066 108.408 C 266.066 108.739,265.931 109.009,265.766 109.009 C 265.601 109.009,265.465 109.339,265.465 109.742 C 265.465 110.145,265.330 110.559,265.165 110.661 C 265.000 110.763,264.865 111.109,264.865 111.429 C 264.865 111.750,264.730 112.012,264.565 112.012 C 264.399 112.012,264.264 112.274,264.264 112.595 C 264.264 112.915,264.129 113.261,263.964 113.363 C 263.799 113.465,263.664 113.879,263.664 114.282 C 263.664 114.685,263.529 115.015,263.363 115.015 C 263.198 115.015,263.063 115.277,263.063 115.598 C 263.063 115.918,262.928 116.264,262.763 116.366 C 262.598 116.468,262.462 116.882,262.462 117.285 C 262.462 117.688,262.327 118.018,262.162 118.018 C 261.997 118.018,261.862 118.288,261.862 118.619 C 261.862 118.949,261.727 119.219,261.562 119.219 C 261.396 119.219,261.261 119.625,261.261 120.120 C 261.261 120.616,261.126 121.021,260.961 121.021 C 260.796 121.021,260.661 121.291,260.661 121.622 C 260.661 121.952,260.526 122.222,260.360 122.222 C 260.195 122.222,260.060 122.628,260.060 123.123 C 260.060 123.619,259.925 124.024,259.760 124.024 C 259.595 124.024,259.459 124.294,259.459 124.625 C 259.459 124.955,259.324 125.225,259.159 125.225 C 258.994 125.225,258.859 125.555,258.859 125.958 C 258.859 126.361,258.724 126.775,258.559 126.877 C 258.393 126.979,258.258 127.325,258.258 127.645 C 258.258 127.966,258.123 128.228,257.958 128.228 C 257.793 128.228,257.658 128.498,257.658 128.829 C 257.658 129.159,257.523 129.429,257.357 129.429 C 257.192 129.429,257.057 129.835,257.057 130.330 C 257.057 130.826,256.922 131.231,256.757 131.231 C 256.592 131.231,256.456 131.494,256.456 131.814 C 256.456 132.135,256.321 132.481,256.156 132.583 C 255.991 132.685,255.856 133.098,255.856 133.501 C 255.856 133.904,255.721 134.234,255.556 134.234 C 255.390 134.234,255.255 134.497,255.255 134.817 C 255.255 135.138,255.120 135.484,254.955 135.586 C 254.790 135.688,254.655 136.021,254.655 136.326 C 254.655 136.631,254.365 137.467,254.011 138.185 C 253.658 138.902,253.252 139.794,253.111 140.165 C 252.540 141.662,252.318 142.229,251.992 143.018 C 251.805 143.472,251.501 144.215,251.316 144.670 C 251.132 145.124,250.862 145.730,250.716 146.017 C 250.570 146.304,250.450 146.743,250.450 146.993 C 250.450 147.243,250.315 147.447,250.150 147.447 C 249.985 147.447,249.850 147.710,249.850 148.030 C 249.850 148.351,249.715 148.697,249.550 148.799 C 249.384 148.901,249.249 149.243,249.249 149.558 C 249.249 149.874,248.979 150.613,248.649 151.201 C 248.318 151.789,248.048 152.456,248.048 152.683 C 248.048 152.911,247.759 153.683,247.405 154.401 C 247.051 155.119,246.664 155.976,246.544 156.306 C 246.424 156.637,246.173 157.279,245.986 157.733 C 245.799 158.187,245.524 158.863,245.375 159.234 C 245.227 159.606,244.821 160.550,244.474 161.333 C 244.128 162.116,243.844 162.889,243.844 163.051 C 243.844 163.213,243.574 163.826,243.243 164.414 C 242.913 165.003,242.643 165.678,242.643 165.916 C 242.643 166.154,242.372 166.829,242.042 167.417 C 241.712 168.006,241.441 168.681,241.441 168.919 C 241.441 169.157,241.171 169.832,240.841 170.420 C 240.511 171.009,240.240 171.684,240.240 171.922 C 240.240 172.160,239.970 172.835,239.640 173.423 C 239.309 174.012,239.039 174.679,239.039 174.906 C 239.039 175.133,238.750 175.906,238.396 176.623 C 238.042 177.341,237.656 178.198,237.538 178.529 C 237.419 178.859,237.033 179.716,236.679 180.434 C 236.325 181.151,236.036 181.924,236.036 182.151 C 236.036 182.378,235.766 183.046,235.435 183.634 C 235.105 184.222,234.835 184.897,234.835 185.135 C 234.835 185.373,234.565 186.049,234.234 186.637 C 233.904 187.225,233.634 187.889,233.634 188.113 C 233.634 189.057,232.347 190.787,228.604 194.878 C 227.736 195.826,227.027 196.706,227.027 196.835 C 227.027 197.055,225.704 198.590,221.997 202.672 C 221.130 203.627,220.420 204.514,220.420 204.643 C 220.420 204.863,219.098 206.397,215.390 210.480 C 214.523 211.435,213.814 212.344,213.814 212.499 C 213.814 212.654,213.003 213.584,212.012 214.565 C 211.021 215.545,210.210 216.475,210.210 216.630 C 210.210 216.786,209.501 217.699,208.634 218.660 C 207.767 219.621,206.314 221.300,205.405 222.392 C 204.497 223.483,203.047 225.108,202.184 226.002 L 200.613 227.628 198.198 227.628 L 195.783 227.628 194.213 225.993 C 191.590 223.263,189.489 220.836,189.489 220.535 C 189.489 220.378,188.746 219.516,187.838 218.619 C 186.929 217.721,186.186 216.843,186.186 216.667 C 186.186 216.490,185.443 215.612,184.535 214.715 C 183.626 213.818,182.883 212.939,182.883 212.763 C 182.883 212.586,182.140 211.708,181.231 210.811 C 180.323 209.914,179.580 209.035,179.580 208.859 C 179.580 208.682,178.836 207.804,177.928 206.907 C 177.020 206.010,176.276 205.116,176.276 204.921 C 176.276 204.726,175.533 203.851,174.625 202.976 C 173.716 202.101,172.973 201.254,172.973 201.094 C 172.973 200.933,172.196 199.946,171.246 198.899 C 167.075 194.303,166.366 193.476,166.366 193.205 C 166.366 193.047,165.752 192.315,165.001 191.579 C 163.654 190.259,162.763 188.874,162.763 188.101 C 162.763 187.884,162.492 187.225,162.162 186.637 C 161.832 186.049,161.562 185.373,161.562 185.135 C 161.562 184.897,161.291 184.222,160.961 183.634 C 160.631 183.046,160.360 182.370,160.360 182.132 C 160.360 181.894,160.090 181.219,159.760 180.631 C 159.429 180.043,159.159 179.367,159.159 179.129 C 159.159 178.891,158.889 178.216,158.559 177.628 C 158.228 177.040,157.954 176.393,157.949 176.192 C 157.943 175.991,157.538 175.018,157.048 174.032 C 156.557 173.045,156.156 172.069,156.156 171.864 C 156.156 171.658,155.886 171.009,155.556 170.420 C 155.225 169.832,154.955 169.157,154.955 168.919 C 154.955 168.681,154.685 168.006,154.354 167.417 C 154.024 166.829,153.754 166.154,153.754 165.916 C 153.754 165.678,153.483 165.003,153.153 164.414 C 152.823 163.826,152.553 163.151,152.553 162.913 C 152.553 162.675,152.282 162.000,151.952 161.411 C 151.622 160.823,151.351 160.210,151.351 160.048 C 151.351 159.886,151.068 159.113,150.721 158.330 C 149.853 156.371,149.099 154.539,148.651 153.303 C 148.531 152.973,148.144 152.116,147.790 151.398 C 147.437 150.680,147.147 149.844,147.147 149.539 C 147.147 149.234,147.012 148.901,146.847 148.799 C 146.682 148.697,146.547 148.351,146.547 148.030 C 146.547 147.710,146.411 147.447,146.246 147.447 C 146.081 147.447,145.946 147.118,145.946 146.714 C 145.946 146.311,145.811 145.898,145.646 145.796 C 145.480 145.694,145.345 145.348,145.345 145.027 C 145.345 144.707,145.235 144.444,145.099 144.444 C 144.964 144.444,144.669 143.769,144.444 142.943 C 144.220 142.117,143.925 141.441,143.790 141.441 C 143.654 141.441,143.544 141.237,143.544 140.987 C 143.544 140.737,143.387 140.230,143.196 139.861 C 142.468 138.452,142.342 138.133,142.342 137.692 C 142.342 137.442,142.207 137.237,142.042 137.237 C 141.877 137.237,141.742 136.907,141.742 136.504 C 141.742 136.101,141.607 135.688,141.441 135.586 C 141.276 135.484,141.141 135.138,141.141 134.817 C 141.141 134.497,141.006 134.234,140.841 134.234 C 140.676 134.234,140.541 133.904,140.541 133.501 C 140.541 133.098,140.405 132.685,140.240 132.583 C 140.075 132.481,139.940 132.135,139.940 131.814 C 139.940 131.494,139.805 131.231,139.640 131.231 C 139.474 131.231,139.339 130.826,139.339 130.330 C 139.339 129.835,139.204 129.429,139.039 129.429 C 138.874 129.429,138.739 129.159,138.739 128.829 C 138.739 128.498,138.604 128.228,138.438 128.228 C 138.273 128.228,138.138 127.898,138.138 127.495 C 138.138 127.092,138.003 126.679,137.838 126.577 C 137.673 126.474,137.538 126.129,137.538 125.808 C 137.538 125.488,137.402 125.225,137.237 125.225 C 137.072 125.225,136.937 124.963,136.937 124.642 C 136.937 124.322,136.802 123.976,136.637 123.874 C 136.471 123.772,136.336 123.358,136.336 122.955 C 136.336 122.552,136.201 122.222,136.036 122.222 C 135.871 122.222,135.736 121.960,135.736 121.639 C 135.736 121.319,135.601 120.973,135.435 120.871 C 135.270 120.769,135.135 120.355,135.135 119.952 C 135.135 119.549,135.000 119.219,134.835 119.219 C 134.670 119.219,134.535 118.949,134.535 118.619 C 134.535 118.288,134.399 118.018,134.234 118.018 C 134.069 118.018,133.934 117.613,133.934 117.117 C 133.934 116.622,133.799 116.216,133.634 116.216 C 133.468 116.216,133.333 115.946,133.333 115.616 C 133.333 115.285,133.198 115.015,133.033 115.015 C 132.868 115.015,132.733 114.610,132.733 114.114 C 132.733 113.619,132.598 113.213,132.432 113.213 C 132.267 113.213,132.132 112.943,132.132 112.613 C 132.132 112.282,131.997 112.012,131.832 112.012 C 131.667 112.012,131.532 111.682,131.532 111.279 C 131.532 110.876,131.396 110.462,131.231 110.360 C 131.066 110.258,130.931 109.912,130.931 109.592 C 130.931 109.271,130.796 109.009,130.631 109.009 C 130.465 109.009,130.330 108.810,130.330 108.568 C 130.330 108.325,130.060 107.645,129.730 107.057 C 128.679 105.186,129.110 102.309,130.579 101.395 C 130.806 101.253,131.214 100.857,131.487 100.514 C 132.032 99.828,134.812 96.700,137.838 93.369 C 138.911 92.187,139.857 91.042,139.940 90.825 C 140.023 90.608,141.018 89.475,142.152 88.306 C 143.644 86.768,144.171 86.022,144.062 85.603 C 143.974 85.269,144.087 84.956,144.327 84.864 C 144.557 84.776,144.745 84.490,144.745 84.230 C 144.745 83.970,145.083 83.419,145.495 83.006 C 145.908 82.593,146.246 82.116,146.246 81.945 C 146.246 81.775,145.896 82.051,145.469 82.560 C 144.508 83.702,144.346 83.703,143.152 82.584 C 142.624 82.089,142.091 81.684,141.967 81.683 C 141.844 81.682,141.185 81.141,140.505 80.480 C 139.824 79.820,139.148 79.279,139.003 79.279 C 138.858 79.279,138.182 78.739,137.502 78.078 C 136.821 77.417,136.134 76.877,135.976 76.877 C 135.818 76.877,135.153 76.336,134.499 75.676 C 133.845 75.015,133.180 74.474,133.022 74.474 C 132.863 74.474,132.176 73.934,131.496 73.273 C 130.815 72.613,130.139 72.072,129.994 72.072 C 129.849 72.072,129.173 71.532,128.493 70.871 C 127.812 70.210,127.136 69.670,126.991 69.670 C 126.847 69.670,126.154 69.129,125.453 68.468 C 124.751 67.808,124.076 67.267,123.951 67.267 C 123.826 67.267,123.167 66.727,122.487 66.066 C 121.806 65.405,121.130 64.865,120.985 64.865 C 120.841 64.865,120.148 64.324,119.447 63.664 C 118.745 63.003,118.051 62.462,117.905 62.462 C 117.758 62.462,117.419 62.220,117.152 61.923 C 116.885 61.626,116.194 61.052,115.616 60.648 C 115.038 60.244,114.042 59.405,113.402 58.785 C 112.763 58.165,112.121 57.658,111.976 57.658 C 111.831 57.658,111.139 57.117,110.438 56.456 C 109.736 55.796,109.059 55.255,108.933 55.255 C 108.807 55.255,108.279 54.850,107.761 54.354 C 107.242 53.859,106.703 53.453,106.564 53.453 C 106.424 53.453,105.619 52.778,104.776 51.952 C 103.933 51.126,103.120 50.450,102.970 50.450 C 102.820 50.450,102.273 50.045,101.755 49.550 C 101.236 49.054,100.697 48.649,100.556 48.649 C 100.416 48.649,99.744 48.108,99.063 47.447 C 98.382 46.787,97.707 46.246,97.563 46.246 C 97.418 46.246,96.610 45.571,95.767 44.745 C 94.924 43.919,94.094 43.243,93.924 43.243 C 93.753 43.243,93.395 43.000,93.128 42.703 C 92.861 42.407,92.170 41.840,91.592 41.445 C 91.014 41.050,90.168 40.347,89.712 39.883 C 89.256 39.419,88.770 39.039,88.631 39.039 C 88.491 39.039,87.986 38.666,87.507 38.210 C 87.028 37.754,86.164 37.047,85.586 36.640 C 85.008 36.232,84.248 35.626,83.897 35.292 C 83.547 34.958,82.280 33.941,81.081 33.033 C 79.883 32.125,78.590 31.080,78.209 30.711 C 76.434 28.995,74.026 28.388,72.450 29.260 M191.138 30.333 C 190.665 30.827,190.351 31.231,190.441 31.231 C 190.718 31.231,192.267 29.704,192.129 29.566 C 192.057 29.494,191.611 29.840,191.138 30.333 M205.090 30.480 C 205.695 31.317,206.925 32.515,207.049 32.388 C 207.105 32.330,206.590 31.742,205.904 31.081 C 205.217 30.420,204.851 30.150,205.090 30.480 M208.718 34.684 C 209.422 35.640,209.910 36.101,209.910 35.810 C 209.910 35.661,209.542 35.213,209.093 34.812 C 208.494 34.278,208.394 34.244,208.718 34.684 M186.128 35.961 C 185.599 36.577,185.202 37.237,185.361 37.237 C 185.423 37.237,185.772 36.832,186.139 36.336 C 186.863 35.357,186.856 35.114,186.128 35.961 M182.434 40.238 C 182.134 40.570,181.987 40.841,182.107 40.841 C 182.424 40.841,183.280 39.936,183.117 39.774 C 183.041 39.698,182.734 39.907,182.434 40.238 M213.818 40.377 C 215.049 41.840,215.338 42.120,215.474 41.983 C 215.546 41.912,215.035 41.321,214.338 40.671 C 213.504 39.893,213.326 39.792,213.818 40.377 M178.569 44.636 C 177.807 45.398,177.474 46.169,178.064 45.804 C 178.404 45.594,179.678 43.844,179.491 43.844 C 179.420 43.844,179.005 44.200,178.569 44.636 M217.417 44.616 C 217.417 44.840,218.225 45.646,218.450 45.646 C 218.545 45.646,218.455 45.375,218.249 45.045 C 217.897 44.481,217.417 44.234,217.417 44.616 M165.509 59.597 C 163.815 61.435,163.924 61.724,165.638 59.935 C 166.393 59.147,166.953 58.445,166.883 58.374 C 166.812 58.304,166.194 58.854,165.509 59.597 M230.030 58.966 C 230.030 59.276,231.540 60.752,231.697 60.596 C 231.768 60.525,231.422 60.080,230.928 59.607 C 230.434 59.134,230.030 58.845,230.030 58.966 M161.001 64.715 C 159.703 66.194,159.818 66.477,161.148 65.074 C 161.743 64.446,162.165 63.867,162.086 63.788 C 162.007 63.708,161.518 64.126,161.001 64.715 M234.234 63.771 C 234.234 64.081,235.744 65.557,235.901 65.400 C 235.972 65.329,235.626 64.884,235.132 64.411 C 234.638 63.938,234.234 63.650,234.234 63.771 M157.505 68.772 C 157.031 69.266,156.780 69.670,156.947 69.670 C 157.293 69.670,158.664 68.174,158.484 67.993 C 158.418 67.928,157.978 68.278,157.505 68.772 M237.838 68.015 C 237.838 68.098,238.329 68.674,238.930 69.294 C 239.984 70.382,240.003 70.389,239.495 69.495 C 239.030 68.677,237.838 67.612,237.838 68.015 M155.405 71.228 L 154.805 71.850 155.464 71.509 C 156.157 71.150,156.662 70.558,156.249 70.588 C 156.115 70.598,155.736 70.886,155.405 71.228 M151.806 75.291 L 151.279 76.126 151.974 75.459 C 152.356 75.092,152.594 74.716,152.501 74.624 C 152.409 74.531,152.096 74.832,151.806 75.291 M148.800 78.677 C 148.501 79.008,148.353 79.279,148.473 79.279 C 148.790 79.279,149.646 78.375,149.483 78.212 C 149.408 78.136,149.100 78.345,148.800 78.677 M246.847 78.203 C 246.847 78.520,247.751 79.376,247.914 79.213 C 247.990 79.137,247.781 78.830,247.449 78.530 C 247.118 78.230,246.847 78.083,246.847 78.203 " stroke="none" fill="#fbfbfc" fill-rule="evenodd"></path><path id="path2" d="M172.973 77.991 C 171.895 78.542,171.102 79.762,165.315 89.764 C 164.159 91.762,162.673 94.226,162.012 95.238 C 159.875 98.513,159.720 98.868,159.897 100.061 C 160.030 100.951,171.013 130.935,174.039 138.667 C 175.150 141.506,175.307 141.264,169.830 145.166 C 162.425 150.441,162.165 150.998,164.725 156.112 C 167.060 160.777,166.430 160.684,178.679 158.155 C 194.546 154.877,193.086 155.053,198.048 155.825 C 199.039 155.979,201.742 156.396,204.054 156.751 C 206.366 157.107,209.002 157.512,209.910 157.652 C 210.818 157.792,213.453 158.198,215.766 158.553 C 218.078 158.909,220.713 159.316,221.622 159.458 C 232.870 161.223,234.065 161.239,235.892 159.660 C 238.599 157.320,237.778 156.020,229.997 150.316 C 216.261 140.248,217.402 141.552,220.144 139.052 C 222.120 137.250,222.625 135.896,221.961 134.175 C 221.318 132.508,220.769 132.388,213.171 132.248 C 208.569 132.163,206.062 132.003,205.789 131.776 C 205.422 131.471,201.986 125.778,195.584 114.865 C 194.421 112.883,191.908 108.604,189.998 105.356 C 187.362 100.872,186.452 99.051,186.219 97.788 C 185.797 95.507,177.509 78.965,176.435 78.261 C 175.248 77.483,174.136 77.397,172.973 77.991 " stroke="none" fill="#5d241b" fill-rule="evenodd"></path><path id="path3" d="M199.910 26.024 C 200.000 26.259,200.146 26.380,200.235 26.292 C 200.323 26.204,200.565 26.272,200.771 26.444 C 200.978 26.615,201.219 26.641,201.306 26.500 C 201.393 26.359,201.077 26.098,200.605 25.919 C 199.895 25.651,199.774 25.670,199.910 26.024 M195.519 26.369 C 195.506 26.585,195.327 26.677,195.120 26.572 C 194.914 26.467,195.015 26.611,195.345 26.892 C 195.940 27.398,195.940 27.401,195.270 27.243 C 194.804 27.133,194.595 27.220,194.595 27.523 C 194.595 27.765,194.457 27.878,194.289 27.775 C 194.122 27.671,194.061 27.462,194.155 27.310 C 194.249 27.158,194.107 27.118,193.839 27.220 C 193.495 27.353,193.446 27.500,193.674 27.728 C 194.079 28.133,194.094 28.626,193.694 28.378 C 193.529 28.276,193.393 28.474,193.393 28.817 C 193.393 29.634,189.513 33.557,189.202 33.054 C 189.053 32.813,188.807 32.972,188.446 33.541 C 188.151 34.005,188.090 34.215,188.309 34.009 C 188.793 33.555,189.189 33.523,189.189 33.939 C 189.189 34.239,185.438 38.138,185.150 38.138 C 185.070 38.138,185.089 37.902,185.192 37.613 C 185.396 37.046,185.348 37.079,184.675 37.971 C 184.399 38.335,184.375 38.469,184.610 38.328 C 184.848 38.185,184.985 38.279,184.985 38.585 C 184.985 39.131,183.683 40.541,183.179 40.541 C 182.997 40.541,182.905 40.642,182.976 40.766 C 183.143 41.060,181.797 42.358,181.565 42.125 C 181.467 42.027,181.554 41.744,181.759 41.496 C 182.088 41.098,182.053 41.094,181.456 41.465 C 181.085 41.697,180.781 41.997,180.781 42.132 C 180.781 42.267,180.916 42.294,181.081 42.192 C 181.246 42.090,181.381 42.217,181.381 42.475 C 181.381 42.732,181.280 42.914,181.156 42.879 C 181.032 42.844,180.643 42.975,180.291 43.171 C 179.536 43.591,179.072 44.505,179.745 44.247 C 180.555 43.936,180.186 44.504,178.473 46.204 C 177.534 47.136,176.867 47.729,176.989 47.523 C 177.323 46.961,176.758 47.070,176.022 47.708 C 175.270 48.360,175.203 48.649,175.804 48.649 C 176.039 48.649,176.294 48.412,176.370 48.123 C 176.491 47.659,176.511 47.664,176.542 48.168 C 176.583 48.836,173.216 52.230,173.039 51.700 C 172.906 51.300,172.372 51.530,172.372 51.987 C 172.372 52.153,172.508 52.204,172.673 52.102 C 172.838 52.000,172.973 52.127,172.973 52.385 C 172.973 52.859,172.672 52.970,171.664 52.863 C 171.331 52.828,171.186 52.935,171.306 53.129 C 171.417 53.308,171.298 53.453,171.039 53.453 C 170.781 53.453,170.571 53.577,170.571 53.727 C 170.571 54.032,171.338 53.987,171.663 53.662 C 171.778 53.547,171.999 53.453,172.155 53.453 C 172.310 53.453,171.713 54.177,170.828 55.061 C 169.943 55.946,169.017 56.639,168.769 56.602 C 168.521 56.565,168.023 56.900,167.661 57.347 C 167.192 57.927,167.124 58.158,167.423 58.158 C 167.653 58.158,167.772 58.046,167.687 57.908 C 167.602 57.770,167.675 57.658,167.850 57.658 C 168.470 57.658,168.156 58.630,167.267 59.459 C 166.772 59.922,166.366 60.410,166.366 60.543 C 166.366 60.677,166.974 60.189,167.718 59.459 C 168.461 58.730,169.069 57.961,169.069 57.750 C 169.069 57.539,169.957 56.520,171.041 55.485 C 172.126 54.450,173.207 53.238,173.444 52.792 C 173.681 52.345,174.821 51.040,175.977 49.891 C 177.132 48.742,178.078 47.639,178.078 47.441 C 178.078 47.242,178.835 46.387,179.759 45.540 C 180.684 44.693,181.630 43.634,181.862 43.185 C 182.094 42.737,183.229 41.430,184.385 40.281 C 185.541 39.132,186.486 38.030,186.486 37.831 C 186.486 37.633,187.243 36.777,188.168 35.931 C 189.092 35.084,190.029 34.043,190.248 33.618 C 190.468 33.193,191.930 31.536,193.496 29.936 L 196.344 27.027 198.322 27.027 C 199.410 27.027,200.300 27.140,200.300 27.279 C 200.300 27.418,200.642 27.687,201.059 27.877 C 201.477 28.067,201.908 28.461,202.017 28.751 C 202.126 29.042,203.136 30.189,204.261 31.300 C 205.386 32.411,206.306 33.478,206.306 33.669 C 206.306 33.861,207.102 34.787,208.074 35.726 C 209.046 36.665,210.050 37.829,210.306 38.312 C 210.561 38.794,211.658 40.036,212.743 41.071 C 213.827 42.106,214.715 43.103,214.715 43.287 C 214.715 43.471,215.661 44.561,216.817 45.708 C 217.973 46.855,218.919 47.966,218.919 48.178 C 218.919 48.390,219.710 49.294,220.677 50.188 C 221.644 51.081,222.644 52.217,222.900 52.711 C 223.623 54.110,226.664 56.763,227.271 56.524 C 227.733 56.342,227.730 56.314,227.235 56.215 C 226.655 56.098,224.625 54.361,224.625 53.981 C 224.625 53.856,224.929 53.738,225.300 53.719 C 225.814 53.692,225.849 53.651,225.447 53.546 C 225.156 53.470,224.995 53.283,225.089 53.130 C 225.183 52.978,225.036 52.853,224.760 52.853 C 224.439 52.853,224.322 53.014,224.433 53.303 C 224.736 54.093,224.189 53.782,223.800 52.943 C 223.530 52.362,223.518 52.079,223.757 51.932 C 223.977 51.795,223.986 51.663,223.781 51.537 C 223.613 51.433,223.420 51.511,223.354 51.711 C 223.285 51.916,222.477 51.319,221.498 50.340 C 219.754 48.596,219.448 47.839,220.861 48.765 C 221.832 49.401,221.835 49.135,220.868 48.168 C 220.454 47.754,219.980 47.499,219.815 47.601 C 219.329 47.901,218.591 46.995,218.993 46.592 C 219.178 46.407,219.235 46.162,219.119 46.046 C 219.004 45.930,218.761 45.984,218.580 46.165 C 218.211 46.534,215.616 44.171,215.616 43.468 C 215.616 43.252,215.350 42.884,215.026 42.651 C 214.580 42.329,214.518 42.129,214.769 41.827 C 215.025 41.519,214.994 41.468,214.635 41.606 C 214.100 41.811,211.787 39.673,211.126 38.363 C 210.897 37.909,210.563 37.535,210.385 37.533 C 210.206 37.530,210.263 37.397,210.511 37.237 C 210.894 36.989,210.882 36.945,210.428 36.942 C 209.862 36.937,207.207 34.464,207.207 33.942 C 207.207 33.524,207.601 33.554,208.097 34.009 C 208.322 34.215,208.204 33.945,207.836 33.408 C 207.120 32.365,206.817 32.149,207.099 32.883 C 207.194 33.131,207.122 33.333,206.939 33.333 C 206.756 33.333,206.607 33.108,206.607 32.833 C 206.607 32.558,206.526 32.413,206.427 32.511 C 206.185 32.754,203.602 30.145,203.608 29.663 C 203.611 29.397,203.702 29.417,203.904 29.730 C 204.139 30.094,204.196 30.051,204.200 29.505 C 204.205 28.703,204.101 28.674,203.475 29.301 C 203.046 29.730,203.003 29.722,203.003 29.217 C 203.003 28.911,202.733 28.466,202.402 28.228 C 202.072 27.990,201.802 27.613,201.802 27.391 C 201.802 27.123,201.599 27.051,201.201 27.177 C 200.857 27.287,200.601 27.231,200.601 27.047 C 200.601 26.847,199.708 26.727,198.223 26.727 C 196.602 26.727,195.798 26.607,195.694 26.351 C 195.578 26.063,195.537 26.067,195.519 26.369 M227.189 57.432 C 227.405 58.151,229.749 60.741,229.977 60.513 C 230.052 60.439,229.678 59.972,229.147 59.476 C 228.601 58.966,228.225 58.346,228.282 58.050 C 228.370 57.591,228.466 57.615,229.053 58.246 C 229.422 58.642,229.801 58.888,229.895 58.794 C 230.094 58.595,228.629 57.057,228.240 57.057 C 228.096 57.057,227.910 57.226,227.827 57.432 C 227.736 57.657,227.665 57.596,227.651 57.282 C 227.638 56.993,227.483 56.757,227.307 56.757 C 227.115 56.757,227.068 57.027,227.189 57.432 M230.483 60.657 C 230.382 60.820,230.577 61.251,230.916 61.614 C 231.254 61.978,231.532 62.424,231.532 62.607 C 231.532 62.789,232.140 63.535,232.883 64.264 C 233.626 64.994,234.234 65.481,234.234 65.348 C 234.234 65.215,233.829 64.727,233.333 64.264 C 232.838 63.801,232.432 63.273,232.432 63.090 C 232.432 62.907,232.030 62.336,231.537 61.821 C 231.045 61.306,230.715 60.766,230.804 60.622 C 230.894 60.478,230.899 60.360,230.816 60.360 C 230.734 60.360,230.584 60.494,230.483 60.657 M164.927 61.734 C 164.397 62.311,163.964 62.927,163.964 63.103 C 163.964 63.279,163.559 63.801,163.063 64.264 C 162.568 64.727,162.162 65.214,162.162 65.347 C 162.162 65.775,164.599 63.242,165.082 62.312 C 165.339 61.817,165.695 61.317,165.874 61.203 C 166.053 61.088,166.129 60.924,166.044 60.839 C 165.959 60.754,165.456 61.157,164.927 61.734 M232.984 62.965 C 233.139 63.242,233.477 63.499,233.735 63.537 C 234.123 63.594,234.142 63.508,233.846 63.034 C 233.390 62.303,232.578 62.239,232.984 62.965 M159.760 66.341 C 159.760 66.493,159.929 66.695,160.135 66.792 C 160.435 66.932,160.435 67.002,160.135 67.142 C 159.929 67.238,159.760 67.519,159.760 67.766 C 159.760 68.013,159.219 68.735,158.559 69.369 C 157.898 70.004,157.357 70.630,157.357 70.761 C 157.357 71.188,160.377 68.040,160.825 67.146 C 161.334 66.129,161.391 65.719,160.934 66.366 C 160.694 66.705,160.577 66.724,160.463 66.441 C 160.287 66.008,159.760 65.933,159.760 66.341 M235.135 66.174 C 235.135 66.831,238.083 70.426,238.379 70.130 C 238.457 70.052,238.097 69.592,237.579 69.108 C 236.484 68.085,236.367 67.550,237.278 67.726 C 237.631 67.793,237.830 67.760,237.721 67.651 C 237.611 67.541,237.235 67.408,236.885 67.355 C 236.535 67.301,235.998 66.969,235.692 66.616 C 235.386 66.263,235.135 66.064,235.135 66.174 M156.365 71.566 C 156.000 72.016,155.766 72.112,155.618 71.873 C 155.469 71.631,155.153 71.741,154.581 72.233 C 154.128 72.622,153.868 73.008,154.003 73.091 C 154.137 73.175,154.504 72.945,154.819 72.582 C 155.325 71.997,155.402 71.981,155.494 72.441 C 155.559 72.769,154.813 73.734,153.474 75.055 C 152.307 76.206,151.351 77.296,151.351 77.477 C 151.351 78.026,149.868 79.326,149.501 79.099 C 149.277 78.961,149.239 79.020,149.391 79.266 C 149.528 79.487,149.456 79.752,149.221 79.897 C 148.999 80.035,148.892 80.223,148.984 80.315 C 149.076 80.407,149.883 79.670,150.777 78.677 C 151.671 77.684,153.297 75.892,154.390 74.697 C 156.247 72.665,157.245 71.259,157.001 71.015 C 156.944 70.958,156.658 71.206,156.365 71.566 M239.339 71.011 C 239.339 71.661,242.883 75.836,243.181 75.538 C 243.257 75.462,242.761 74.865,242.080 74.210 C 241.398 73.556,240.841 72.868,240.841 72.683 C 240.841 72.497,240.503 72.007,240.090 71.594 C 239.677 71.181,239.339 70.919,239.339 71.011 M243.544 75.816 C 243.544 76.466,247.087 80.641,247.385 80.342 C 247.461 80.267,246.965 79.670,246.284 79.015 C 245.602 78.360,245.045 77.673,245.045 77.487 C 245.045 77.302,244.707 76.812,244.294 76.399 C 243.881 75.986,243.544 75.724,243.544 75.816 M245.448 76.923 C 245.556 77.635,246.381 78.343,246.714 78.011 C 246.822 77.903,246.558 77.462,246.128 77.031 C 245.360 76.264,245.347 76.262,245.448 76.923 M150.524 76.793 C 150.316 76.868,150.223 77.052,150.316 77.203 C 150.410 77.354,150.275 77.477,150.018 77.477 C 149.760 77.477,149.550 77.613,149.550 77.778 C 149.550 78.324,150.423 78.089,150.765 77.452 C 151.139 76.753,151.081 76.595,150.524 76.793 M146.544 81.535 C 146.223 81.922,146.241 81.965,146.654 81.807 C 147.618 81.437,147.156 82.589,145.796 83.950 C 145.053 84.693,144.444 85.395,144.444 85.509 C 144.444 85.623,145.244 84.925,146.222 83.958 C 147.881 82.317,148.653 81.081,148.020 81.081 C 147.870 81.081,147.748 81.233,147.748 81.418 C 147.748 81.666,147.639 81.665,147.337 81.414 C 147.025 81.155,146.835 81.184,146.544 81.535 M248.645 82.057 C 249.226 83.040,251.952 85.885,251.952 85.508 C 251.952 85.397,251.467 84.821,250.875 84.228 C 250.245 83.599,249.867 82.971,249.965 82.717 C 250.056 82.478,249.963 82.282,249.757 82.282 C 249.550 82.282,249.187 82.012,248.949 81.682 C 248.248 80.710,248.017 80.995,248.645 82.057 M178.078 206.701 C 178.078 206.752,178.517 207.191,179.054 207.677 L 180.030 208.559 179.148 207.583 C 178.326 206.673,178.078 206.469,178.078 206.701 M179.920 208.941 C 180.064 209.324,183.483 213.000,183.483 212.772 C 183.483 212.676,182.657 211.709,181.647 210.623 C 180.636 209.537,179.859 208.780,179.920 208.941 M184.835 214.715 C 185.648 215.541,186.381 216.216,186.464 216.216 C 186.546 216.216,185.949 215.541,185.135 214.715 C 184.322 213.889,183.589 213.213,183.506 213.213 C 183.423 213.213,184.021 213.889,184.835 214.715 M186.526 216.749 C 186.671 217.132,190.090 220.808,190.090 220.580 C 190.090 220.484,189.264 219.517,188.253 218.431 C 187.243 217.345,186.466 216.588,186.526 216.749 M191.441 222.523 C 192.255 223.348,192.988 224.024,193.071 224.024 C 193.153 224.024,192.555 223.348,191.742 222.523 C 190.928 221.697,190.195 221.021,190.113 221.021 C 190.030 221.021,190.628 221.697,191.441 222.523 " stroke="none" fill="#986c7c" fill-rule="evenodd"></path><path id="path4" d="M197.120 26.083 C 197.208 26.224,196.945 26.276,196.537 26.198 C 196.107 26.116,195.796 26.197,195.796 26.391 C 195.796 26.610,196.630 26.727,198.198 26.727 C 199.701 26.727,200.601 26.847,200.601 27.047 C 200.601 27.231,200.857 27.287,201.201 27.177 C 201.599 27.051,201.802 27.123,201.802 27.391 C 201.802 27.613,202.072 27.990,202.402 28.228 C 202.733 28.466,203.007 28.935,203.012 29.270 C 203.021 29.850,203.037 29.852,203.344 29.324 C 203.680 28.746,201.707 26.264,201.173 26.594 C 201.046 26.672,200.856 26.597,200.751 26.426 C 200.645 26.256,200.433 26.194,200.280 26.289 C 200.126 26.384,200.000 26.319,200.000 26.144 C 200.000 25.962,199.350 25.826,198.481 25.826 C 197.645 25.826,197.033 25.941,197.120 26.083 M194.579 26.979 C 194.112 27.358,194.007 27.600,194.246 27.748 C 194.450 27.874,194.595 27.781,194.595 27.523 C 194.595 27.230,194.820 27.125,195.270 27.209 C 195.642 27.278,195.776 27.253,195.569 27.155 C 195.361 27.056,195.268 26.852,195.361 26.701 C 195.628 26.269,195.322 26.378,194.579 26.979 M193.010 28.604 C 192.761 28.975,191.799 30.087,190.873 31.074 C 189.340 32.708,188.917 33.333,189.345 33.333 C 189.824 33.333,193.393 29.351,193.393 28.817 C 193.393 28.474,193.529 28.276,193.694 28.378 C 193.859 28.480,193.994 28.421,193.994 28.246 C 193.994 27.708,193.486 27.893,193.010 28.604 M203.608 29.663 C 203.602 30.145,206.185 32.754,206.427 32.511 C 206.526 32.413,206.607 32.558,206.607 32.833 C 206.607 33.108,206.742 33.333,206.907 33.333 C 207.072 33.333,207.207 33.232,207.206 33.108 C 207.204 32.759,204.207 29.540,204.201 29.880 C 204.198 30.045,204.064 29.977,203.904 29.730 C 203.702 29.417,203.611 29.397,203.608 29.663 M187.357 35.060 C 186.610 35.845,185.623 37.000,185.165 37.627 C 184.707 38.254,183.837 39.275,183.232 39.894 C 180.834 42.352,180.449 42.843,180.923 42.843 C 181.175 42.843,181.381 42.655,181.381 42.425 C 181.381 42.195,181.483 42.064,181.607 42.135 C 181.903 42.304,183.197 40.955,182.963 40.721 C 182.864 40.622,182.947 40.541,183.147 40.541 C 183.600 40.541,184.985 39.183,184.985 38.738 C 184.985 38.557,185.931 37.477,187.087 36.336 C 189.016 34.434,189.568 33.634,188.953 33.634 C 188.823 33.634,188.105 34.276,187.357 35.060 M207.207 33.942 C 207.207 34.420,209.839 36.937,210.339 36.937 C 210.598 36.937,210.134 36.246,209.230 35.285 C 207.700 33.660,207.207 33.333,207.207 33.942 M210.799 37.894 C 211.136 38.256,211.411 38.685,211.411 38.847 C 211.411 39.234,214.033 41.742,214.437 41.742 C 214.609 41.742,214.682 41.852,214.598 41.987 C 214.515 42.122,214.710 42.423,215.031 42.654 C 215.353 42.886,215.616 43.252,215.616 43.468 C 215.616 43.836,218.132 46.559,218.465 46.550 C 218.549 46.548,218.614 46.619,218.608 46.707 C 218.594 46.917,219.425 47.748,219.648 47.748 C 220.071 47.748,219.700 47.177,218.233 45.571 C 217.365 44.621,216.504 43.844,216.319 43.844 C 216.134 43.844,216.001 43.661,216.024 43.437 C 216.060 43.092,214.790 41.539,211.527 37.938 C 211.178 37.553,210.733 37.237,210.539 37.237 C 210.346 37.237,210.462 37.533,210.799 37.894 M180.504 43.486 C 180.491 43.705,180.326 43.784,180.134 43.665 C 179.919 43.532,179.869 43.583,180.001 43.797 C 180.119 43.988,180.080 44.144,179.914 44.144 C 179.491 44.144,177.073 46.773,176.993 47.321 C 176.956 47.570,177.804 46.887,178.877 45.803 C 179.950 44.720,180.760 43.667,180.678 43.463 C 180.565 43.185,180.522 43.191,180.504 43.486 M176.311 48.123 C 176.292 48.412,176.126 48.649,175.943 48.649 C 175.528 48.649,172.973 51.211,172.973 51.627 C 172.973 51.794,172.699 52.077,172.364 52.257 C 172.029 52.436,171.831 52.705,171.923 52.855 C 172.131 53.191,172.973 52.899,172.973 52.491 C 172.973 52.328,173.796 51.408,174.802 50.448 C 176.082 49.226,176.588 48.536,176.488 48.150 C 176.360 47.653,176.342 47.651,176.311 48.123 M219.820 48.496 C 219.820 48.578,220.766 49.602,221.922 50.772 C 223.078 51.942,224.024 53.039,224.024 53.209 C 224.024 53.677,226.635 56.156,227.128 56.156 C 227.653 56.156,225.619 53.954,224.819 53.656 C 224.481 53.530,224.330 53.271,224.435 52.998 C 224.536 52.735,224.361 52.393,224.016 52.177 C 223.690 51.974,223.423 51.694,223.423 51.555 C 223.423 51.177,220.538 48.348,220.153 48.348 C 219.970 48.348,219.820 48.415,219.820 48.496 M171.619 53.759 C 171.515 53.927,171.321 53.997,171.189 53.915 C 170.870 53.718,168.444 56.474,168.647 56.802 C 168.733 56.942,168.639 57.057,168.436 57.057 C 168.234 57.057,168.155 57.144,168.262 57.251 C 168.369 57.358,169.345 56.547,170.432 55.449 C 171.519 54.352,172.273 53.453,172.108 53.453 C 171.943 53.453,171.722 53.591,171.619 53.759 M227.252 56.655 C 227.459 56.739,227.630 57.032,227.632 57.307 C 227.636 57.728,227.681 57.738,227.913 57.372 C 228.261 56.821,228.041 56.450,227.385 56.480 C 227.072 56.495,227.021 56.562,227.252 56.655 M165.766 59.798 C 164.692 60.975,163.766 62.065,163.707 62.219 C 163.649 62.374,162.872 63.259,161.981 64.187 C 161.089 65.114,160.360 66.052,160.360 66.270 C 160.360 66.488,160.158 66.667,159.910 66.667 C 159.662 66.667,159.459 66.769,159.459 66.895 C 159.459 67.021,159.130 67.479,158.726 67.914 C 158.323 68.349,158.053 68.764,158.125 68.836 C 158.198 68.909,157.922 69.148,157.512 69.367 C 157.102 69.586,156.690 70.006,156.597 70.300 C 156.504 70.593,155.725 71.561,154.866 72.451 C 153.001 74.381,151.280 76.471,150.787 77.402 C 150.590 77.774,150.292 78.078,150.125 78.078 C 149.807 78.078,147.147 80.772,147.147 81.095 C 147.147 81.688,147.630 81.519,148.543 80.606 C 149.127 80.022,149.487 79.421,149.368 79.228 C 149.238 79.019,149.290 78.969,149.501 79.099 C 149.868 79.326,151.351 78.026,151.351 77.477 C 151.351 77.296,152.297 76.215,153.453 75.075 C 154.610 73.935,155.556 72.854,155.556 72.673 C 155.556 72.492,156.502 71.410,157.658 70.270 C 158.814 69.130,159.760 68.049,159.760 67.868 C 159.760 67.687,160.706 66.606,161.862 65.465 C 163.018 64.325,163.964 63.237,163.964 63.047 C 163.964 62.857,164.910 61.774,166.066 60.640 C 167.912 58.830,168.650 57.658,167.943 57.658 C 167.819 57.658,166.839 58.621,165.766 59.798 M228.228 58.118 C 228.228 58.772,230.268 60.735,230.682 60.479 C 230.877 60.358,230.942 60.400,230.833 60.576 C 230.728 60.746,231.045 61.306,231.537 61.821 C 232.030 62.336,232.432 62.896,232.432 63.066 C 232.432 63.461,236.228 67.267,236.622 67.267 C 236.785 67.267,236.842 67.464,236.750 67.705 C 236.644 67.982,237.364 68.915,238.711 70.243 C 239.883 71.398,240.841 72.492,240.841 72.673 C 240.841 72.854,241.787 73.935,242.943 75.075 C 244.099 76.215,245.045 77.292,245.045 77.468 C 245.045 77.870,249.435 82.282,249.836 82.282 C 249.998 82.282,250.056 82.478,249.965 82.717 C 249.867 82.971,250.245 83.599,250.875 84.228 C 251.467 84.821,251.952 85.503,251.952 85.745 C 251.952 85.987,252.898 87.180,254.054 88.397 C 255.210 89.614,256.156 90.733,256.156 90.884 C 256.156 91.034,257.102 92.096,258.258 93.243 C 259.414 94.391,260.360 95.472,260.360 95.646 C 260.360 95.820,261.306 96.901,262.462 98.048 C 263.619 99.195,264.565 100.299,264.565 100.500 C 264.565 100.702,264.938 101.087,265.394 101.357 C 267.209 102.429,267.480 104.970,266.066 107.658 C 265.571 108.600,265.165 109.547,265.165 109.762 C 265.165 109.977,264.876 110.741,264.522 111.458 C 263.399 113.735,263.301 114.023,263.449 114.600 C 263.553 115.004,263.604 114.934,263.629 114.357 C 263.648 113.913,263.799 113.465,263.964 113.363 C 264.129 113.261,264.264 112.915,264.264 112.595 C 264.264 112.274,264.399 112.012,264.565 112.012 C 264.730 112.012,264.865 111.750,264.865 111.429 C 264.865 111.109,265.000 110.763,265.165 110.661 C 265.330 110.559,265.465 110.145,265.465 109.742 C 265.465 109.339,265.601 109.009,265.766 109.009 C 265.931 109.009,266.066 108.739,266.066 108.408 C 266.066 108.078,266.201 107.808,266.366 107.808 C 266.532 107.808,266.667 107.538,266.667 107.207 C 266.667 106.877,266.802 106.607,266.967 106.607 C 268.111 106.607,266.940 101.910,265.620 101.204 C 265.205 100.981,264.865 100.650,264.865 100.467 C 264.865 100.284,263.919 99.195,262.763 98.048 C 261.607 96.901,260.661 95.820,260.661 95.646 C 260.661 95.472,259.715 94.391,258.559 93.243 C 257.402 92.096,256.456 91.034,256.456 90.884 C 256.456 90.733,255.511 89.614,254.354 88.397 C 253.198 87.180,252.252 85.922,252.252 85.602 C 252.252 85.282,252.115 84.936,251.947 84.832 C 251.779 84.728,251.715 84.525,251.804 84.381 C 251.893 84.236,251.272 83.401,250.422 82.525 C 249.573 81.648,248.881 80.863,248.884 80.781 C 248.887 80.698,248.757 80.668,248.596 80.713 C 248.435 80.759,248.388 80.659,248.491 80.493 C 248.681 80.184,247.111 78.487,246.102 77.912 C 245.797 77.738,245.509 77.332,245.462 77.011 C 245.415 76.690,245.084 76.191,244.727 75.901 C 244.370 75.612,244.163 75.375,244.268 75.375 C 244.373 75.375,243.594 74.502,242.538 73.435 C 241.481 72.368,240.667 71.445,240.729 71.383 C 240.791 71.321,240.200 70.606,239.415 69.794 C 238.630 68.982,237.515 67.710,236.937 66.967 C 235.539 65.170,233.860 63.494,233.554 63.593 C 233.419 63.636,233.136 63.263,232.925 62.762 C 232.715 62.261,232.450 61.944,232.337 62.057 C 232.224 62.170,232.132 62.039,232.132 61.765 C 232.132 61.346,228.744 57.658,228.358 57.658 C 228.287 57.658,228.228 57.865,228.228 58.118 M145.719 82.743 C 145.183 83.326,144.745 84.006,144.745 84.254 C 144.745 84.501,144.557 84.776,144.327 84.864 C 144.087 84.956,143.974 85.269,144.062 85.603 C 144.171 86.022,143.644 86.768,142.152 88.306 C 141.018 89.475,140.023 90.608,139.940 90.825 C 139.857 91.042,138.911 92.187,137.838 93.369 C 134.812 96.700,132.032 99.828,131.487 100.514 C 131.214 100.857,130.806 101.253,130.579 101.395 C 129.110 102.309,128.679 105.186,129.730 107.057 C 130.060 107.645,130.330 108.325,130.330 108.568 C 130.330 108.810,130.465 109.009,130.631 109.009 C 130.796 109.009,130.931 109.271,130.931 109.592 C 130.931 109.912,131.066 110.258,131.231 110.360 C 131.396 110.462,131.532 110.876,131.532 111.279 C 131.532 111.682,131.667 112.012,131.832 112.012 C 131.997 112.012,132.143 112.316,132.156 112.688 C 132.169 113.069,132.250 113.187,132.341 112.958 C 132.430 112.736,132.333 112.195,132.127 111.757 C 131.920 111.319,131.652 110.691,131.531 110.360 C 131.410 110.030,130.887 108.896,130.370 107.841 C 128.966 104.975,129.047 103.479,130.706 101.704 C 131.408 100.953,132.995 99.169,134.234 97.740 C 135.473 96.311,137.331 94.230,138.363 93.117 C 139.396 92.004,140.240 90.965,140.240 90.809 C 140.240 90.652,141.186 89.586,142.342 88.438 C 143.498 87.291,144.444 86.116,144.444 85.827 C 144.444 85.538,145.053 84.693,145.796 83.950 C 147.009 82.737,147.532 81.682,146.920 81.682 C 146.795 81.682,146.254 82.159,145.719 82.743 M132.802 114.114 C 132.802 114.692,132.864 114.929,132.940 114.640 C 133.015 114.351,133.015 113.878,132.940 113.589 C 132.864 113.300,132.802 113.536,132.802 114.114 M262.786 115.523 C 262.773 115.885,262.628 116.264,262.462 116.366 C 262.297 116.468,262.178 116.916,262.197 117.360 C 262.223 117.961,262.265 118.014,262.363 117.568 C 262.435 117.237,262.637 116.676,262.813 116.321 C 262.989 115.966,263.060 115.493,262.972 115.270 C 262.879 115.037,262.800 115.144,262.786 115.523 M133.969 117.042 C 133.950 117.579,134.069 118.018,134.234 118.018 C 134.399 118.018,134.545 118.322,134.558 118.694 C 134.572 119.075,134.652 119.193,134.743 118.964 C 134.832 118.742,134.761 118.269,134.585 117.913 C 134.409 117.558,134.206 116.997,134.134 116.667 C 134.055 116.304,133.990 116.452,133.969 117.042 M135.170 119.877 C 135.151 120.322,135.270 120.769,135.435 120.871 C 135.601 120.973,135.746 121.353,135.759 121.714 C 135.773 122.093,135.852 122.201,135.944 121.967 C 136.033 121.745,135.962 121.272,135.786 120.916 C 135.610 120.561,135.408 120.000,135.336 119.670 C 135.238 119.223,135.196 119.276,135.170 119.877 M261.006 119.877 C 260.981 120.322,260.826 120.769,260.661 120.871 C 260.495 120.973,260.376 121.353,260.395 121.714 C 260.428 122.325,260.441 122.329,260.580 121.772 C 260.663 121.441,260.860 121.089,261.020 120.988 C 261.179 120.888,261.251 120.415,261.180 119.937 L 261.051 119.069 261.006 119.877 M136.371 122.880 C 136.352 123.325,136.471 123.772,136.637 123.874 C 136.802 123.976,136.948 124.356,136.961 124.717 C 136.974 125.096,137.053 125.204,137.146 124.970 C 137.234 124.748,137.163 124.275,136.987 123.919 C 136.811 123.564,136.609 123.003,136.537 122.673 C 136.440 122.226,136.397 122.279,136.371 122.880 M259.805 122.880 C 259.780 123.325,259.625 123.772,259.459 123.874 C 259.294 123.976,259.175 124.356,259.194 124.717 C 259.226 125.328,259.240 125.332,259.379 124.775 C 259.461 124.444,259.659 124.092,259.819 123.991 C 259.978 123.891,260.050 123.418,259.979 122.940 L 259.850 122.072 259.805 122.880 M137.561 125.733 C 137.548 126.095,137.673 126.474,137.838 126.577 C 138.003 126.679,138.154 127.126,138.173 127.570 C 138.198 128.148,138.249 128.217,138.353 127.813 C 138.432 127.503,138.359 126.962,138.190 126.612 C 138.020 126.262,137.815 125.773,137.733 125.526 C 137.640 125.241,137.576 125.317,137.561 125.733 M258.593 125.883 C 258.574 126.328,258.423 126.775,258.258 126.877 C 258.093 126.979,257.969 127.359,257.982 127.720 C 257.997 128.136,258.060 128.212,258.154 127.928 C 258.235 127.680,258.441 127.191,258.610 126.841 C 258.780 126.491,258.853 125.951,258.773 125.640 C 258.670 125.236,258.618 125.306,258.593 125.883 M139.409 130.330 C 139.409 130.908,139.471 131.145,139.546 130.856 C 139.622 130.567,139.622 130.094,139.546 129.805 C 139.471 129.516,139.409 129.752,139.409 130.330 M256.826 130.330 C 256.826 130.908,256.888 131.145,256.964 130.856 C 257.039 130.567,257.039 130.094,256.964 129.805 C 256.888 129.516,256.826 129.752,256.826 130.330 M139.981 131.697 C 139.958 132.035,140.064 132.441,140.215 132.598 C 140.366 132.755,140.550 133.221,140.624 133.634 C 140.737 134.263,140.766 134.227,140.800 133.408 C 140.822 132.872,140.715 132.432,140.561 132.432 C 140.408 132.432,140.223 132.128,140.152 131.757 C 140.034 131.146,140.018 131.140,139.981 131.697 M256.180 131.739 C 256.167 132.101,256.021 132.481,255.856 132.583 C 255.691 132.685,255.571 133.132,255.590 133.576 C 255.616 134.177,255.659 134.230,255.756 133.784 C 255.828 133.453,256.031 132.892,256.207 132.537 C 256.382 132.182,256.454 131.709,256.365 131.486 C 256.272 131.253,256.194 131.360,256.180 131.739 M141.182 134.742 C 141.160 135.104,141.276 135.484,141.441 135.586 C 141.607 135.688,141.742 136.101,141.742 136.504 C 141.742 136.907,141.877 137.237,142.042 137.237 C 142.207 137.237,142.342 137.442,142.342 137.692 C 142.342 137.942,142.499 138.449,142.690 138.818 C 143.425 140.241,143.544 140.548,143.544 141.037 C 143.544 141.314,143.628 141.457,143.731 141.354 C 143.971 141.114,143.188 138.438,142.877 138.438 C 142.748 138.438,142.643 138.176,142.643 137.856 C 142.643 137.535,142.508 137.189,142.342 137.087 C 142.177 136.985,142.042 136.572,142.042 136.168 C 142.042 135.765,141.916 135.435,141.763 135.435 C 141.609 135.435,141.425 135.131,141.353 134.760 C 141.223 134.084,141.223 134.084,141.182 134.742 M254.990 134.742 C 254.971 135.104,254.820 135.484,254.655 135.586 C 254.489 135.688,254.354 136.101,254.354 136.504 C 254.354 136.907,254.219 137.237,254.054 137.237 C 253.889 137.237,253.754 137.508,253.754 137.838 C 253.754 138.168,253.619 138.438,253.453 138.438 C 253.288 138.438,253.153 138.768,253.153 139.171 C 253.153 139.575,253.018 139.988,252.853 140.090 C 252.688 140.192,252.553 140.538,252.553 140.859 C 252.553 141.179,252.417 141.441,252.252 141.441 C 252.087 141.441,251.952 141.771,251.952 142.174 C 251.952 142.578,251.817 142.991,251.652 143.093 C 251.486 143.195,251.351 143.541,251.351 143.862 C 251.351 144.182,251.246 144.444,251.117 144.444 C 250.806 144.444,250.023 147.120,250.263 147.360 C 250.366 147.463,250.450 147.320,250.450 147.043 C 250.450 146.765,250.570 146.304,250.716 146.017 C 250.862 145.730,251.114 145.158,251.276 144.745 C 251.438 144.332,251.725 143.622,251.912 143.168 C 252.099 142.714,252.405 141.971,252.593 141.517 C 252.780 141.062,253.031 140.420,253.151 140.090 C 253.270 139.760,253.658 138.902,254.011 138.185 C 254.365 137.467,254.655 136.650,254.655 136.368 C 254.655 136.086,254.802 135.708,254.983 135.527 C 255.164 135.347,255.247 134.948,255.168 134.642 C 255.047 134.172,255.019 134.187,254.990 134.742 M144.162 141.742 C 144.157 141.989,144.348 142.733,144.586 143.393 C 144.824 144.054,145.023 144.392,145.027 144.144 C 145.032 143.896,144.841 143.153,144.603 142.492 C 144.365 141.832,144.167 141.494,144.162 141.742 M145.369 144.952 C 145.356 145.314,145.480 145.694,145.646 145.796 C 145.811 145.898,145.962 146.345,145.981 146.789 C 146.006 147.367,146.057 147.436,146.161 147.033 C 146.240 146.722,146.167 146.181,145.998 145.831 C 145.828 145.481,145.623 144.992,145.541 144.745 C 145.447 144.460,145.384 144.537,145.369 144.952 M146.587 147.955 C 146.565 148.317,146.682 148.697,146.847 148.799 C 147.012 148.901,147.147 149.234,147.147 149.539 C 147.147 149.844,147.437 150.680,147.790 151.398 C 148.144 152.116,148.531 152.973,148.651 153.303 C 149.099 154.539,149.853 156.371,150.721 158.330 C 151.068 159.113,151.351 159.886,151.351 160.048 C 151.351 160.210,151.622 160.823,151.952 161.411 C 152.282 162.000,152.553 162.675,152.553 162.913 C 152.553 163.151,152.823 163.826,153.153 164.414 C 153.483 165.003,153.754 165.678,153.754 165.916 C 153.754 166.154,154.024 166.829,154.354 167.417 C 154.685 168.006,154.955 168.681,154.955 168.919 C 154.955 169.157,155.225 169.832,155.556 170.420 C 155.886 171.009,156.156 171.658,156.156 171.864 C 156.156 172.069,156.557 173.045,157.048 174.032 C 157.538 175.018,157.943 175.991,157.949 176.192 C 157.954 176.393,158.228 177.040,158.559 177.628 C 158.889 178.216,159.159 178.891,159.159 179.129 C 159.159 179.367,159.429 180.043,159.760 180.631 C 160.090 181.219,160.360 181.894,160.360 182.132 C 160.360 182.370,160.631 183.046,160.961 183.634 C 161.291 184.222,161.562 184.897,161.562 185.135 C 161.562 185.373,161.832 186.049,162.162 186.637 C 162.492 187.225,162.763 187.884,162.763 188.101 C 162.763 188.874,163.654 190.259,165.001 191.579 C 165.752 192.315,166.366 193.047,166.366 193.205 C 166.366 193.476,167.075 194.303,171.246 198.899 C 172.196 199.946,172.973 200.932,172.973 201.091 C 172.973 201.405,175.131 203.604,175.440 203.604 C 175.543 203.604,175.099 203.084,174.451 202.449 C 173.803 201.814,173.273 201.165,173.273 201.007 C 173.273 200.848,172.784 200.253,172.185 199.684 C 171.586 199.114,170.698 198.108,170.211 197.447 C 169.725 196.787,168.728 195.614,167.996 194.841 C 167.265 194.069,166.667 193.320,166.667 193.177 C 166.667 193.035,166.052 192.315,165.301 191.579 C 163.873 190.180,163.063 188.869,163.063 187.960 C 163.063 187.664,162.928 187.339,162.763 187.237 C 162.598 187.135,162.462 186.789,162.462 186.469 C 162.462 186.148,162.327 185.886,162.162 185.886 C 161.997 185.886,161.862 185.480,161.862 184.985 C 161.862 184.489,161.727 184.084,161.562 184.084 C 161.396 184.084,161.261 183.814,161.261 183.483 C 161.261 183.153,161.126 182.883,160.961 182.883 C 160.796 182.883,160.661 182.553,160.661 182.150 C 160.661 181.747,160.526 181.333,160.360 181.231 C 160.195 181.129,160.060 180.783,160.060 180.463 C 160.060 180.142,159.925 179.880,159.760 179.880 C 159.595 179.880,159.459 179.550,159.459 179.147 C 159.459 178.744,159.324 178.330,159.159 178.228 C 158.994 178.126,158.859 177.780,158.859 177.460 C 158.859 177.139,158.748 176.877,158.613 176.877 C 158.478 176.877,158.183 176.201,157.958 175.375 C 157.733 174.550,157.438 173.874,157.303 173.874 C 157.168 173.874,157.057 173.604,157.057 173.273 C 157.057 172.943,156.922 172.673,156.757 172.673 C 156.592 172.673,156.456 172.267,156.456 171.772 C 156.456 171.276,156.321 170.871,156.156 170.871 C 155.991 170.871,155.856 170.601,155.856 170.270 C 155.856 169.940,155.721 169.670,155.556 169.670 C 155.390 169.670,155.255 169.264,155.255 168.769 C 155.255 168.273,155.120 167.868,154.955 167.868 C 154.790 167.868,154.655 167.598,154.655 167.267 C 154.655 166.937,154.520 166.667,154.354 166.667 C 154.189 166.667,154.054 166.261,154.054 165.766 C 154.054 165.270,153.919 164.865,153.754 164.865 C 153.589 164.865,153.453 164.595,153.453 164.264 C 153.453 163.934,153.318 163.664,153.153 163.664 C 152.988 163.664,152.853 163.334,152.853 162.931 C 152.853 162.527,152.718 162.114,152.553 162.012 C 152.387 161.910,152.252 161.564,152.252 161.244 C 152.252 160.923,152.117 160.661,151.952 160.661 C 151.787 160.661,151.652 160.331,151.652 159.928 C 151.652 159.524,151.517 159.111,151.351 159.009 C 151.186 158.907,151.051 158.561,151.051 158.241 C 151.051 157.920,150.916 157.658,150.751 157.658 C 150.586 157.658,150.450 157.395,150.450 157.075 C 150.450 156.754,150.315 156.408,150.150 156.306 C 149.985 156.204,149.850 155.791,149.850 155.388 C 149.850 154.985,149.715 154.655,149.550 154.655 C 149.384 154.655,149.249 154.392,149.249 154.072 C 149.249 153.751,149.114 153.405,148.949 153.303 C 148.784 153.201,148.649 152.788,148.649 152.385 C 148.649 151.982,148.514 151.652,148.348 151.652 C 148.183 151.652,148.048 151.381,148.048 151.051 C 148.048 150.721,147.913 150.450,147.748 150.450 C 147.583 150.450,147.447 150.045,147.447 149.550 C 147.447 149.054,147.322 148.649,147.168 148.649 C 147.014 148.649,146.830 148.345,146.758 147.973 C 146.628 147.298,146.628 147.298,146.587 147.955 M249.584 147.973 C 249.565 148.345,249.414 148.649,249.249 148.649 C 249.084 148.649,248.949 149.054,248.949 149.550 C 248.949 150.045,248.814 150.450,248.649 150.450 C 248.483 150.450,248.348 150.721,248.348 151.051 C 248.348 151.381,248.213 151.652,248.048 151.652 C 247.883 151.652,247.748 152.057,247.748 152.553 C 247.748 153.048,247.613 153.453,247.447 153.453 C 247.282 153.453,247.147 153.724,247.147 154.054 C 247.147 154.384,247.012 154.655,246.847 154.655 C 246.682 154.655,246.547 154.985,246.547 155.388 C 246.547 155.791,246.411 156.204,246.246 156.306 C 246.081 156.408,245.946 156.754,245.946 157.075 C 245.946 157.395,245.811 157.658,245.646 157.658 C 245.480 157.658,245.345 157.988,245.345 158.391 C 245.345 158.794,245.210 159.207,245.045 159.309 C 244.880 159.411,244.745 159.757,244.745 160.078 C 244.745 160.398,244.634 160.661,244.499 160.661 C 244.363 160.661,244.069 161.336,243.844 162.162 C 243.619 162.988,243.324 163.664,243.189 163.664 C 243.054 163.664,242.943 163.926,242.943 164.247 C 242.943 164.567,242.808 164.913,242.643 165.015 C 242.477 165.117,242.342 165.530,242.342 165.934 C 242.342 166.337,242.207 166.667,242.042 166.667 C 241.877 166.667,241.742 166.929,241.742 167.250 C 241.742 167.570,241.607 167.916,241.441 168.018 C 241.276 168.120,241.141 168.462,241.141 168.777 C 241.141 169.093,240.871 169.832,240.541 170.420 C 240.210 171.009,239.940 171.756,239.940 172.081 C 239.940 172.407,239.805 172.673,239.640 172.673 C 239.474 172.673,239.339 172.935,239.339 173.256 C 239.339 173.576,239.204 173.922,239.039 174.024 C 238.874 174.126,238.739 174.539,238.739 174.943 C 238.739 175.346,238.604 175.676,238.438 175.676 C 238.273 175.676,238.138 175.880,238.138 176.130 C 238.138 176.380,238.019 176.819,237.873 177.106 C 237.727 177.393,237.476 177.965,237.315 178.378 C 237.154 178.791,236.733 179.716,236.379 180.434 C 236.025 181.151,235.736 181.924,235.736 182.151 C 235.736 182.378,235.465 183.046,235.135 183.634 C 234.805 184.222,234.535 184.897,234.535 185.135 C 234.535 185.373,234.264 186.049,233.934 186.637 C 233.604 187.225,233.333 187.884,233.333 188.101 C 233.333 188.874,232.442 190.259,231.096 191.579 C 230.344 192.315,229.730 193.064,229.730 193.242 C 229.730 193.420,229.054 194.232,228.228 195.045 C 227.402 195.858,226.727 196.647,226.727 196.796 C 226.727 197.051,225.504 198.480,221.697 202.672 C 220.830 203.627,220.120 204.508,220.120 204.628 C 220.120 204.749,219.522 205.480,218.790 206.253 C 218.059 207.026,217.062 208.198,216.575 208.859 C 216.089 209.520,215.200 210.526,214.602 211.095 C 214.003 211.664,213.514 212.276,213.514 212.456 C 213.514 212.635,212.703 213.584,211.712 214.565 C 210.721 215.545,209.910 216.469,209.910 216.618 C 209.910 216.871,208.683 218.304,204.880 222.492 C 204.013 223.447,203.303 224.346,203.303 224.489 C 203.303 224.632,202.864 225.234,202.327 225.826 C 201.791 226.418,201.892 226.324,202.553 225.617 C 203.213 224.911,204.497 223.449,205.405 222.370 C 206.314 221.290,207.767 219.621,208.634 218.660 C 209.501 217.699,210.210 216.786,210.210 216.630 C 210.210 216.475,211.021 215.545,212.012 214.565 C 213.003 213.584,213.814 212.660,213.814 212.511 C 213.814 212.258,215.041 210.825,218.844 206.637 C 219.711 205.682,220.420 204.790,220.420 204.655 C 220.420 204.519,221.130 203.627,221.997 202.672 C 225.704 198.590,227.027 197.055,227.027 196.835 C 227.027 196.706,227.736 195.826,228.604 194.878 C 232.347 190.787,233.634 189.057,233.634 188.113 C 233.634 187.889,233.904 187.225,234.234 186.637 C 234.565 186.049,234.835 185.373,234.835 185.135 C 234.835 184.897,235.105 184.222,235.435 183.634 C 235.766 183.046,236.036 182.378,236.036 182.151 C 236.036 181.924,236.325 181.151,236.679 180.434 C 237.033 179.716,237.419 178.859,237.538 178.529 C 237.656 178.198,238.042 177.341,238.396 176.623 C 238.750 175.906,239.039 175.133,239.039 174.906 C 239.039 174.679,239.309 174.012,239.640 173.423 C 239.970 172.835,240.240 172.160,240.240 171.922 C 240.240 171.684,240.511 171.009,240.841 170.420 C 241.171 169.832,241.441 169.157,241.441 168.919 C 241.441 168.681,241.712 168.006,242.042 167.417 C 242.372 166.829,242.643 166.154,242.643 165.916 C 242.643 165.678,242.913 165.003,243.243 164.414 C 243.574 163.826,243.844 163.213,243.844 163.051 C 243.844 162.889,244.128 162.116,244.474 161.333 C 245.213 159.667,245.641 158.641,245.946 157.808 C 246.424 156.502,246.789 155.651,247.405 154.401 C 247.759 153.683,248.048 152.911,248.048 152.683 C 248.048 152.456,248.318 151.789,248.649 151.201 C 248.979 150.613,249.249 149.893,249.249 149.600 C 249.249 149.308,249.397 148.921,249.578 148.741 C 249.758 148.560,249.842 148.161,249.763 147.855 C 249.645 147.396,249.613 147.417,249.584 147.973 M176.276 204.990 C 176.276 205.147,177.020 206.010,177.928 206.907 C 178.836 207.804,179.580 208.682,179.580 208.859 C 179.580 209.035,180.357 209.918,181.306 210.821 L 183.033 212.462 181.456 210.801 C 180.589 209.888,179.876 209.009,179.872 208.849 C 179.861 208.466,176.276 204.618,176.276 204.990 M182.883 212.831 C 182.883 212.970,183.626 213.818,184.535 214.715 C 185.443 215.612,186.186 216.490,186.186 216.667 C 186.186 216.843,186.963 217.726,187.913 218.629 L 189.640 220.270 188.098 218.619 C 187.251 217.710,186.508 216.815,186.447 216.630 C 186.292 216.156,182.883 212.523,182.883 212.831 M189.489 220.603 C 189.489 220.811,191.052 222.609,193.776 225.538 C 194.474 226.288,194.622 226.423,194.105 225.838 C 193.589 225.253,193.116 224.623,193.054 224.437 C 192.909 223.997,189.489 220.319,189.489 220.603 M195.692 227.402 C 195.769 227.526,196.896 227.628,198.198 227.628 C 199.500 227.628,200.628 227.526,200.704 227.402 C 200.781 227.279,199.653 227.177,198.198 227.177 C 196.743 227.177,195.615 227.279,195.692 227.402 " stroke="none" fill="#c4a0a4" fill-rule="evenodd"></path></g></svg>